<svg xmlns="http://www.w3.org/2000/svg" width="146" height="146.001" viewBox="0 0 146 146.001">
  <g id="Grupo_28134" data-name="Grupo 28134" transform="translate(-3021 -2054)">
    <g id="Grupo_28131" data-name="Grupo 28131" transform="translate(2135 298.272)">
      <g id="Grupo_27430" data-name="Grupo 27430" transform="translate(890.978 1763.728)">
        <g id="Grupo_27428" data-name="Grupo 27428" transform="translate(2.036 2.021)">
          <path id="Trazado_53397" data-name="Trazado 53397" d="M71.864,190.3H10.19a2.7,2.7,0,0,1-2.7-2.7V89.45a2.7,2.7,0,0,1,2.7-2.7H71.864a2.7,2.7,0,0,1,2.7,2.7V187.6a2.7,2.7,0,0,1-2.7,2.7Z" transform="translate(-7.495 -65.393)" fill="#e1ebf0"/>
          <path id="Trazado_53398" data-name="Trazado 53398" d="M92.441,89.447v91.513a2.7,2.7,0,0,1-2.7,2.7H34.671a2.7,2.7,0,0,1-2.7-2.7V89.447a2.7,2.7,0,0,1,2.7-2.7H89.746A2.7,2.7,0,0,1,92.441,89.447Z" transform="translate(-25.378 -65.391)" fill="#d2e4e7"/>
          <path id="Trazado_53399" data-name="Trazado 53399" d="M122.138,150.669H49.667a2.7,2.7,0,0,1-2.7-2.7V49.823a2.7,2.7,0,0,1,2.7-2.7h72.47a2.7,2.7,0,0,1,2.7,2.7v98.15A2.7,2.7,0,0,1,122.138,150.669Z" transform="translate(-36.332 -36.447)" fill="#e1ebf0"/>
          <path id="Trazado_53400" data-name="Trazado 53400" d="M142.712,49.826V141.34a2.7,2.7,0,0,1-2.7,2.7H74.141a2.7,2.7,0,0,1-2.7-2.7V49.826a2.7,2.7,0,0,1,2.7-2.7h65.875A2.7,2.7,0,0,1,142.712,49.826Z" transform="translate(-54.209 -36.449)" fill="#d2e4e7"/>
          <path id="Trazado_53401" data-name="Trazado 53401" d="M86.447,108.347V10.2a2.7,2.7,0,0,1,2.7-2.7h72.47a2.7,2.7,0,0,1,2.7,2.7v98.152a2.7,2.7,0,0,1-2.7,2.7H89.142A2.7,2.7,0,0,1,86.447,108.347Z" transform="translate(-65.167 -7.5)" fill="#e1ebf0"/>
          <path id="Trazado_53402" data-name="Trazado 53402" d="M254.99,77.314h21.339a1.348,1.348,0,0,0,1.348-1.348V54.536a1.348,1.348,0,0,0-1.348-1.348H254.99a1.348,1.348,0,0,0-1.348,1.348V75.966A1.348,1.348,0,0,0,254.99,77.314Z" transform="translate(-187.297 -40.874)" fill="#f3d332"/>
          <path id="Trazado_53403" data-name="Trazado 53403" d="M260.378,77.317h-5.391a1.349,1.349,0,0,1-1.348-1.348V54.539a1.348,1.348,0,0,1,1.348-1.348h5.391a1.348,1.348,0,0,0-1.348,1.348V75.969A1.348,1.348,0,0,0,260.378,77.317Z" transform="translate(-187.295 -40.876)" fill="#ecc52e"/>
          <g id="Grupo_27421" data-name="Grupo 27421" transform="translate(28.021 31.152)">
            <path id="Trazado_53404" data-name="Trazado 53404" d="M141.019,127.12H113.479a2.021,2.021,0,1,1,0-4.043h27.539a2.021,2.021,0,0,1,0,4.043Z" transform="translate(-111.458 -123.077)" fill="#b4d2d7"/>
          </g>
          <g id="Grupo_27422" data-name="Grupo 27422" transform="translate(44.295 48.241)">
            <path id="Trazado_53405" data-name="Trazado 53405" d="M201.645,190.525h-27.79a2.022,2.022,0,0,1,0-4.043h27.79a2.022,2.022,0,0,1,0,4.043Z" transform="translate(-171.834 -186.482)" fill="#b4d2d7"/>
          </g>
          <g id="Grupo_27423" data-name="Grupo 27423" transform="translate(28.021 22.356)">
            <path id="Trazado_53406" data-name="Trazado 53406" d="M141.019,94.487H113.479a2.021,2.021,0,1,1,0-4.043h27.539a2.021,2.021,0,0,1,0,4.043Z" transform="translate(-111.458 -90.444)" fill="#b4d2d7"/>
          </g>
          <g id="Grupo_27424" data-name="Grupo 27424" transform="translate(28.021 13.56)">
            <path id="Trazado_53407" data-name="Trazado 53407" d="M141.019,61.853H113.479a2.021,2.021,0,1,1,0-4.043h27.539a2.021,2.021,0,0,1,0,4.043Z" transform="translate(-111.458 -57.81)" fill="#b4d2d7"/>
          </g>
          <g id="Grupo_27425" data-name="Grupo 27425" transform="translate(28.021 70.608)">
            <path id="Trazado_53408" data-name="Trazado 53408" d="M154.949,273.509h-41.47a2.021,2.021,0,0,1,0-4.043h41.47a2.021,2.021,0,0,1,0,4.043Z" transform="translate(-111.458 -269.466)" fill="#b4d2d7"/>
          </g>
          <g id="Grupo_27426" data-name="Grupo 27426" transform="translate(28.021 59.299)">
            <path id="Trazado_53409" data-name="Trazado 53409" d="M146.276,231.551h-32.8a2.021,2.021,0,1,1,0-4.043h32.8a2.021,2.021,0,1,1,0,4.043Z" transform="translate(-111.458 -227.508)" fill="#b4d2d7"/>
          </g>
          <g id="Grupo_27427" data-name="Grupo 27427" transform="translate(69.581 59.299)">
            <path id="Trazado_53410" data-name="Trazado 53410" d="M286.573,231.551h-18.9a2.021,2.021,0,0,1,0-4.043h18.9a2.021,2.021,0,0,1,0,4.043Z" transform="translate(-265.649 -227.508)" fill="#b4d2d7"/>
          </g>
          <path id="Trazado_53411" data-name="Trazado 53411" d="M204.87,328.246a2.7,2.7,0,0,1,2.7,2.7v1.83a12.542,12.542,0,0,1-12.517,12.566l-40.869,1.348-22.222-1.348a12.545,12.545,0,0,0,12.52-12.566v-1.83a2.7,2.7,0,0,1,2.7-2.7Z" transform="translate(-98.41 -241.795)" fill="#d2e4e7"/>
          <path id="Trazado_53412" data-name="Trazado 53412" d="M299.191,264.709v17.107H271.1a29.8,29.8,0,0,1,26.929-17.132C298.418,264.685,298.806,264.693,299.191,264.709Z" transform="translate(-200.05 -195.365)" fill="#d2e4e7"/>
          <path id="Trazado_53413" data-name="Trazado 53413" d="M280.9,328.246v18.439a2.7,2.7,0,0,1-2.7,2.7H261.843a29.216,29.216,0,0,1-.739-3.121,29.822,29.822,0,0,1,2.348-18.013Z" transform="translate(-192.402 -241.795)" fill="#b4d2d7"/>
          <path id="Trazado_53414" data-name="Trazado 53414" d="M426.116,424.1,439.8,436.276a5.584,5.584,0,0,1,.186,7.947,5.67,5.67,0,0,1-7.989-.2l-13.667-12.241Z" transform="translate(-307.596 -311.814)" fill="#f3d332"/>
          <path id="Trazado_53415" data-name="Trazado 53415" d="M430.178,427.712a29.984,29.984,0,0,1-7.7,7.779l-4.143-3.709,7.787-7.685Z" transform="translate(-307.598 -311.811)" fill="#ecc52e"/>
          <path id="Trazado_53416" data-name="Trazado 53416" d="M284.192,396.657v6.636a2.7,2.7,0,0,1-2.7,2.7h-13.49a29.484,29.484,0,0,1-2.876-6.636H281.5A2.7,2.7,0,0,0,284.192,396.657Z" transform="translate(-195.689 -291.767)" fill="#d2e4e7"/>
          <path id="Trazado_53417" data-name="Trazado 53417" d="M280.627,309.124a24.361,24.361,0,1,1,24.361,24.436,24.465,24.465,0,0,1-24.361-24.436Z" transform="translate(-207.009 -209.977)" fill="#3a67c1"/>
          <path id="Trazado_53418" data-name="Trazado 53418" d="M323.651,337.549a24.342,24.342,0,0,1-43.021-15.7,24.386,24.386,0,0,1,10.005-19.741,24.393,24.393,0,0,0,33.016,35.444Z" transform="translate(-207.011 -222.699)" fill="#30569f"/>
          <path id="Trazado_53419" data-name="Trazado 53419" d="M314.578,334a15.21,15.21,0,1,1,15.21,15.257A15.27,15.27,0,0,1,314.578,334Z" transform="translate(-231.809 -234.854)" fill="#e1ebf0"/>
          <path id="Trazado_53420" data-name="Trazado 53420" d="M342.882,347.457a15.224,15.224,0,1,1-20.795-20.921,15,15,0,0,0-1.256,2.7,15.219,15.219,0,0,0,22.051,18.223Z" transform="translate(-231.811 -240.546)" fill="#d2e4e7"/>
        </g>
        <g id="Grupo_27429" data-name="Grupo 27429" transform="translate(0.022)">
          <path id="Trazado_53421" data-name="Trazado 53421" d="M249.538,73.858h21.339a3.373,3.373,0,0,0,3.369-3.369V49.058a3.373,3.373,0,0,0-3.369-3.369H249.538a3.373,3.373,0,0,0-3.369,3.369v5.07a2.022,2.022,0,0,0,4.043,0v-4.4H270.2V69.815H250.212v-5.96a2.022,2.022,0,0,0-4.043,0v6.633A3.373,3.373,0,0,0,249.538,73.858Z" transform="translate(-179.824 -33.374)"/>
          <path id="Trazado_53422" data-name="Trazado 53422" d="M113.506,127.12h27.539a2.021,2.021,0,1,0,0-4.043H113.506a2.021,2.021,0,1,0,0,4.043Z" transform="translate(-81.442 -89.904)"/>
          <path id="Trazado_53423" data-name="Trazado 53423" d="M203.694,188.5a2.021,2.021,0,0,0-2.021-2.021h-27.79a2.022,2.022,0,0,0,0,4.043h27.79A2.022,2.022,0,0,0,203.694,188.5Z" transform="translate(-125.545 -136.219)"/>
          <path id="Trazado_53424" data-name="Trazado 53424" d="M113.506,94.487h27.539a2.021,2.021,0,1,0,0-4.043H113.506a2.021,2.021,0,0,0,0,4.043Z" transform="translate(-81.442 -66.066)"/>
          <path id="Trazado_53425" data-name="Trazado 53425" d="M113.506,61.853h27.539a2.021,2.021,0,1,0,0-4.043H113.506a2.021,2.021,0,1,0,0,4.043Z" transform="translate(-81.442 -42.228)"/>
          <path id="Trazado_53426" data-name="Trazado 53426" d="M113.506,273.509h41.47a2.021,2.021,0,1,0,0-4.043h-41.47a2.021,2.021,0,0,0,0,4.043Z" transform="translate(-81.442 -196.836)"/>
          <path id="Trazado_53427" data-name="Trazado 53427" d="M113.506,231.551h32.8a2.021,2.021,0,1,0,0-4.043h-32.8a2.021,2.021,0,1,0,0,4.043Z" transform="translate(-81.442 -166.187)"/>
          <path id="Trazado_53428" data-name="Trazado 53428" d="M286.6,227.508H267.7a2.021,2.021,0,1,0,0,4.043h18.9a2.021,2.021,0,0,0,0-4.043Z" transform="translate(-194.074 -166.187)"/>
          <path id="Trazado_53429" data-name="Trazado 53429" d="M135.666,125.045c-.025-.024-.05-.048-.075-.071l-12.44-11.069a26.375,26.375,0,0,0,3.236-11.776,2.022,2.022,0,0,0-4.041-.144,22.338,22.338,0,0,1-44.664-.817C77.5,89.056,87.926,78.583,100.022,78.754a22.394,22.394,0,0,1,21.046,14.879,2.021,2.021,0,0,0,3.809-1.354,26.462,26.462,0,0,0-21.67-17.372V3.369A3.373,3.373,0,0,0,99.837,0H24.672A3.373,3.373,0,0,0,21.3,3.369v7.312H14.031a3.373,3.373,0,0,0-3.369,3.369v7.311H3.391A3.373,3.373,0,0,0,.022,24.731V125.577a3.373,3.373,0,0,0,3.369,3.369H67.76a3.373,3.373,0,0,0,3.369-3.369v-7.312h8.776a26.324,26.324,0,0,0,32.615,6.211L125.055,135.7a7.524,7.524,0,1,0,10.611-10.658Zm-110.32-121H99.163V74.728A26.418,26.418,0,0,0,78.1,86.452H69.89a2.021,2.021,0,1,0,0,4.043h5.985q-.406.923-.745,1.886a26.464,26.464,0,0,0-1.491,8.788c0,.8.038,1.591.107,2.373H45.623A14.566,14.566,0,0,0,50.131,93V90.5h11a2.021,2.021,0,0,0,0-4.043H48.11a2.021,2.021,0,0,0-2.021,2.021V93a10.532,10.532,0,0,1-10.5,10.544H25.345ZM14.705,114.222V86.589a2.021,2.021,0,1,0-4.043,0V114.9a3.373,3.373,0,0,0,3.369,3.369H67.086V124.9H4.065V25.4h6.6V78.044a2.021,2.021,0,1,0,4.043,0V14.724h6.6v90.839a2.021,2.021,0,0,0,2.022,2.021h51.1a26.335,26.335,0,0,0,2.655,6.638H14.705ZM133.01,133a3.671,3.671,0,0,1-5.218-.269L116.036,122.2a26.78,26.78,0,0,0,4.88-4.868l11.945,10.628A3.58,3.58,0,0,1,133.01,133Z" transform="translate(-0.022)"/>
          <path id="Trazado_53430" data-name="Trazado 53430" d="M324.33,311.239a17.278,17.278,0,1,0,17.231,17.279A17.332,17.332,0,0,0,324.33,311.239Zm0,30.513a13.235,13.235,0,1,1,13.188-13.235A13.227,13.227,0,0,1,324.33,341.752Z" transform="translate(-224.33 -227.349)"/>
        </g>
      </g>
    </g>
    <rect id="Rectángulo_5530" data-name="Rectángulo 5530" width="146" height="146" transform="translate(3021 2054)" fill="none"/>
  </g>
</svg>
