<svg xmlns="http://www.w3.org/2000/svg" width="501.99" height="313.994" viewBox="0 0 501.99 313.994">
  <g id="Grupo_27419" data-name="Grupo 27419" transform="translate(-492.583 -153.398)">
    <path id="Trazado_53283" data-name="Trazado 53283" d="M630.268,327.767l49.167-61.309-33.714-86.6-91.855-14.1-58.14,72.5,33.714,86.6L602.5,336.07" transform="translate(6.479 94.301)" fill="none" stroke="#000" stroke-miterlimit="10" stroke-width="3"/>
    <path id="Trazado_53284" data-name="Trazado 53284" d="M545.2,200.782l73.663-45.323,32.231,36.022" transform="translate(107.002 73.377)" fill="none" stroke="#000" stroke-miterlimit="10" stroke-width="3"/>
    <line id="Línea_420" data-name="Línea 420" y1="22.024" x2="22.398" transform="translate(513.52 419.155)" fill="none" stroke="#000" stroke-miterlimit="10" stroke-width="3"/>
    <path id="Trazado_53285" data-name="Trazado 53285" d="M591.379,189.559l41.71-31.6,41.379,31.6" transform="translate(200.841 78.46)" fill="none" stroke="#000" stroke-miterlimit="10" stroke-width="3"/>
    <line id="Línea_421" data-name="Línea 421" y1="49.926" transform="translate(833.93 186.494)" fill="none" stroke="#000" stroke-miterlimit="10" stroke-width="3"/>
    <line id="Línea_422" data-name="Línea 422" y1="49.926" transform="translate(777.324 280.963)" fill="none" stroke="#000" stroke-miterlimit="10" stroke-width="3"/>
    <line id="Línea_423" data-name="Línea 423" x2="31.599" y2="26.453" transform="translate(845.938 225.045)" fill="none" stroke="#000" stroke-miterlimit="10" stroke-width="3"/>
    <line id="Línea_424" data-name="Línea 424" x1="26.318" y2="23.861" transform="translate(911.809 227.637)" fill="none" stroke="#000" stroke-miterlimit="10" stroke-width="3"/>
    <line id="Línea_425" data-name="Línea 425" x1="26.111" y2="24.96" transform="translate(947.806 169.773)" fill="none" stroke="#000" stroke-miterlimit="10" stroke-width="3"/>
    <line id="Línea_426" data-name="Línea 426" x1="26.111" y2="24.96" transform="translate(957.616 181.772)" fill="none" stroke="#000" stroke-miterlimit="10" stroke-width="3"/>
    <line id="Línea_427" data-name="Línea 427" x1="26.111" y2="24.96" transform="translate(967.425 193.772)" fill="none" stroke="#000" stroke-miterlimit="10" stroke-width="3"/>
    <line id="Línea_428" data-name="Línea 428" x1="29.517" y1="75.819" transform="translate(644.962 283.184)" fill="none" stroke="#000" stroke-miterlimit="10" stroke-width="3"/>
    <line id="Línea_429" data-name="Línea 429" x2="67.144" y2="10.309" transform="translate(543.156 410.13)" fill="none" stroke="#000" stroke-miterlimit="10" stroke-width="3"/>
    <line id="Línea_430" data-name="Línea 430" x1="50.903" y2="63.473" transform="translate(513.639 270.838)" fill="none" stroke="#000" stroke-miterlimit="10" stroke-width="3"/>
    <g id="Grupo_27412" data-name="Grupo 27412" transform="translate(753.661 335.233)">
      <path id="Trazado_53286" data-name="Trazado 53286" d="M594.6,210.735a13.011,13.011,0,0,1-5.242.91c-7.062,0-10.7-4.427-10.7-10.245,0-6.97,4.972-10.848,11.151-10.848a12.02,12.02,0,0,1,5.03.91l-.94,3.669a9.951,9.951,0,0,0-3.878-.758c-3.666,0-6.513,2.21-6.513,6.755,0,4.093,2.423,6.667,6.543,6.667a11.594,11.594,0,0,0,3.848-.664Z" transform="translate(-578.661 -190.551)"/>
      <path id="Trazado_53287" data-name="Trazado 53287" d="M589.556,190.661v7.85h7.607v-7.85h4.609v20.423h-4.609V202.54h-7.607v8.544H584.92V190.661Z" transform="translate(-565.943 -190.327)"/>
      <path id="Trazado_53288" data-name="Trazado 53288" d="M591.725,195.886a8.719,8.719,0,0,1,4.245-.967c2.908,0,4.393,1.331,4.393,3,0,1.3-1.064,2.241-2.516,2.668v.061a2.958,2.958,0,0,1,2.941,2.789c0,2.119-2.122,3.6-5.454,3.6a9.258,9.258,0,0,1-4.093-.849l.7-2.365a7.176,7.176,0,0,0,2.965.788c1.274,0,2.183-.576,2.153-1.364,0-1.031-1.273-1.513-2.6-1.513h-.91v-2.062h.846c1,0,2.338-.334,2.338-1.273,0-.606-.485-1.058-1.607-1.058a6.376,6.376,0,0,0-2.729.725Z" transform="translate(-553.101 -181.675)"/>
    </g>
    <g id="Grupo_27413" data-name="Grupo 27413" transform="translate(810.267 153.398)">
      <path id="Trazado_53289" data-name="Trazado 53289" d="M613.27,150.762a13.011,13.011,0,0,1-5.242.91c-7.061,0-10.7-4.427-10.7-10.245,0-6.97,4.973-10.848,11.151-10.848a12.1,12.1,0,0,1,5.03.907l-.94,3.669a10,10,0,0,0-3.878-.758c-3.666,0-6.512,2.213-6.512,6.758,0,4.093,2.419,6.667,6.543,6.667a11.512,11.512,0,0,0,3.848-.667Z" transform="translate(-597.331 -130.578)"/>
      <path id="Trazado_53290" data-name="Trazado 53290" d="M608.226,130.688v7.85h7.607v-7.85h4.605v20.423h-4.605v-8.544h-7.607v8.544H603.59V130.688Z" transform="translate(-584.613 -130.354)"/>
      <path id="Trazado_53291" data-name="Trazado 53291" d="M610.4,135.913a8.686,8.686,0,0,1,4.245-.967c2.908,0,4.393,1.331,4.393,3,0,1.3-1.064,2.241-2.517,2.668v.058a2.963,2.963,0,0,1,2.941,2.789c0,2.122-2.122,3.608-5.454,3.608a9.259,9.259,0,0,1-4.093-.849l.7-2.365a7.176,7.176,0,0,0,2.965.788c1.273,0,2.183-.576,2.153-1.364,0-1.031-1.273-1.513-2.6-1.513h-.91V139.7h.846c1,0,2.338-.334,2.338-1.273,0-.606-.485-1.058-1.61-1.058a6.361,6.361,0,0,0-2.726.725Z" transform="translate(-571.771 -121.702)"/>
    </g>
    <g id="Grupo_27414" data-name="Grupo 27414" transform="translate(888.519 250.363)">
      <path id="Trazado_53292" data-name="Trazado 53292" d="M623.14,182.982V162.559h5.394l4.242,7.483a59.226,59.226,0,0,1,3.335,7h.088a76.689,76.689,0,0,1-.394-8.544v-5.94h4.245v20.423H635.2l-4.363-7.88a74.725,74.725,0,0,1-3.544-7.213l-.094.033c.124,2.7.182,5.576.182,8.908v6.152Z" transform="translate(-623.14 -162.559)"/>
    </g>
    <g id="Grupo_27415" data-name="Grupo 27415" transform="translate(939.01 206.575)">
      <path id="Trazado_53293" data-name="Trazado 53293" d="M655.732,168.3a13.011,13.011,0,0,1-5.242.91c-7.061,0-10.7-4.427-10.7-10.245,0-6.97,4.972-10.848,11.151-10.848a12.031,12.031,0,0,1,5.03.91l-.94,3.669a9.952,9.952,0,0,0-3.878-.758c-3.666,0-6.513,2.21-6.513,6.755,0,4.093,2.419,6.67,6.543,6.67a11.591,11.591,0,0,0,3.848-.667Z" transform="translate(-639.793 -148.117)"/>
    </g>
    <g id="Grupo_27416" data-name="Grupo 27416" transform="translate(492.583 445.544)">
      <path id="Trazado_53294" data-name="Trazado 53294" d="M508.491,247.367a13.089,13.089,0,0,1-5.242.91c-7.061,0-10.7-4.427-10.7-10.245,0-6.97,4.969-10.848,11.148-10.848a12.1,12.1,0,0,1,5.033.907l-.94,3.669a9.951,9.951,0,0,0-3.878-.758c-3.666,0-6.516,2.213-6.516,6.758,0,4.093,2.423,6.667,6.546,6.667a11.528,11.528,0,0,0,3.848-.667Z" transform="translate(-492.552 -226.428)"/>
      <path id="Trazado_53295" data-name="Trazado 53295" d="M498.731,226.934h4.609v21.512h-4.609Z" transform="translate(-479.997 -226.934)"/>
    </g>
    <g id="Grupo_27417" data-name="Grupo 27417" transform="translate(768.866 256.151)">
      <path id="Trazado_53296" data-name="Trazado 53296" d="M583.676,184.891V164.468h5.394l4.242,7.486a58.916,58.916,0,0,1,3.335,7h.088a76.72,76.72,0,0,1-.391-8.544v-5.94h4.242v20.423h-4.848l-4.363-7.88a74.694,74.694,0,0,1-3.544-7.21l-.091.03c.121,2.7.179,5.576.179,8.908v6.152Z" transform="translate(-583.676 -164.468)"/>
    </g>
    <g id="Grupo_27418" data-name="Grupo 27418" transform="translate(617.108 420.755)">
      <path id="Trazado_53297" data-name="Trazado 53297" d="M533.623,239.181V218.758h5.394l4.245,7.486a59.153,59.153,0,0,1,3.332,7h.091a75.9,75.9,0,0,1-.394-8.544v-5.94h4.242v20.423h-4.845l-4.366-7.877a75.877,75.877,0,0,1-3.544-7.213l-.091.03c.121,2.7.179,5.576.179,8.908v6.152Z" transform="translate(-533.623 -218.758)"/>
    </g>
  </g>
</svg>
