<svg xmlns="http://www.w3.org/2000/svg" width="1136.911" height="563.185" viewBox="0 0 1136.911 563.185">
  <g id="Grupo_28132" data-name="Grupo 28132" transform="translate(-397 -681)">
    <path id="Trazado_56436" data-name="Trazado 56436" d="M0,0H372.626V56.659H0Z" transform="translate(587.661 773.991)" fill="#db0016"/>
    <path id="Trazado_56437" data-name="Trazado 56437" d="M0,0H372.626V56.659H0Z" transform="translate(959.713 773.991)" fill="#db0016"/>
    <path id="Trazado_56438" data-name="Trazado 56438" d="M8.641-.506V0H.7V-.506h.656a1.98,1.98,0,0,0,1.668-.67A4.164,4.164,0,0,0,3.35-3.281V-15.258a6.139,6.139,0,0,0-.178-1.859,1.232,1.232,0,0,0-.561-.588,2.591,2.591,0,0,0-1.258-.328H.7v-.506H8.641v.506h-.67a1.963,1.963,0,0,0-1.654.67,4.018,4.018,0,0,0-.342,2.105V-3.281a6.139,6.139,0,0,0,.178,1.859,1.224,1.224,0,0,0,.574.588,2.515,2.515,0,0,0,1.244.328Z" transform="translate(728.702 808.991)" fill="#fff"/>
    <path id="Trazado_56439" data-name="Trazado 56439" d="M9.258-.542V0H.747V-.542h.7A2.121,2.121,0,0,0,3.237-1.26a4.461,4.461,0,0,0,.352-2.256V-16.348A6.577,6.577,0,0,0,3.4-18.34a1.32,1.32,0,0,0-.6-.63,2.776,2.776,0,0,0-1.348-.352h-.7v-.542H9.258v.542H8.54a2.1,2.1,0,0,0-1.772.718A4.306,4.306,0,0,0,6.4-16.348V-3.516a6.577,6.577,0,0,0,.19,1.992,1.312,1.312,0,0,0,.615.63A2.694,2.694,0,0,0,8.54-.542ZM18.53-1.934A22.115,22.115,0,0,1,15.938-.088a3.961,3.961,0,0,1-1.685.366A3.019,3.019,0,0,1,11.96-.674a3.5,3.5,0,0,1-.9-2.5,3.19,3.19,0,0,1,.439-1.7,5.819,5.819,0,0,1,2.087-1.875A32.478,32.478,0,0,1,18.53-8.892v-.527a4.375,4.375,0,0,0-.637-2.754,2.3,2.3,0,0,0-1.853-.747,2.081,2.081,0,0,0-1.465.5,1.5,1.5,0,0,0-.557,1.143l.029.85A1.461,1.461,0,0,1,13.7-9.39a1.179,1.179,0,0,1-.9.366,1.14,1.14,0,0,1-.886-.381,1.494,1.494,0,0,1-.344-1.04,3,3,0,0,1,1.289-2.314,5.566,5.566,0,0,1,3.618-1.055,6.276,6.276,0,0,1,2.93.6,2.761,2.761,0,0,1,1.274,1.421,8.006,8.006,0,0,1,.264,2.578v4.556a20.865,20.865,0,0,0,.073,2.351.987.987,0,0,0,.242.579.574.574,0,0,0,.388.146.8.8,0,0,0,.41-.1,9.151,9.151,0,0,0,1.187-1.069v.82q-1.641,2.2-3.135,2.2a1.425,1.425,0,0,1-1.143-.5A2.69,2.69,0,0,1,18.53-1.934Zm0-.952V-8a28.925,28.925,0,0,0-2.856,1.245,4.933,4.933,0,0,0-1.655,1.348,2.6,2.6,0,0,0-.5,1.538,2.51,2.51,0,0,0,.63,1.75,1.909,1.909,0,0,0,1.45.7A5.315,5.315,0,0,0,18.53-2.886Z" transform="translate(1176.558 810.991)" fill="#fff"/>
    <path id="Trazado_56431" data-name="Trazado 56431" d="M0,0H372.626V56.659H0Z" transform="translate(587.661 879.245)" fill="#fddf00"/>
    <path id="Trazado_56432" data-name="Trazado 56432" d="M0,0H372.626V56.659H0Z" transform="translate(959.713 879.245)" fill="#db0016"/>
    <path id="Trazado_56433" data-name="Trazado 56433" d="M9.258-.542V0H.747V-.542h.7A2.121,2.121,0,0,0,3.237-1.26a4.461,4.461,0,0,0,.352-2.256V-16.348A6.577,6.577,0,0,0,3.4-18.34a1.32,1.32,0,0,0-.6-.63,2.776,2.776,0,0,0-1.348-.352h-.7v-.542H9.258v.542H8.54a2.1,2.1,0,0,0-1.772.718A4.306,4.306,0,0,0,6.4-16.348V-3.516a6.577,6.577,0,0,0,.19,1.992,1.312,1.312,0,0,0,.615.63A2.694,2.694,0,0,0,8.54-.542Zm9.99,0V0H10.737V-.542h.7a2.121,2.121,0,0,0,1.787-.718,4.461,4.461,0,0,0,.352-2.256V-16.348a6.577,6.577,0,0,0-.19-1.992,1.32,1.32,0,0,0-.6-.63,2.776,2.776,0,0,0-1.348-.352h-.7v-.542h8.511v.542H18.53a2.1,2.1,0,0,0-1.772.718,4.306,4.306,0,0,0-.366,2.256V-3.516a6.577,6.577,0,0,0,.19,1.992,1.312,1.312,0,0,0,.615.63,2.694,2.694,0,0,0,1.333.352Z" transform="translate(723.47 918.746)" fill="#161615"/>
    <path id="Trazado_56434" data-name="Trazado 56434" d="M9.566-.56V0H.772V-.56H1.5A2.192,2.192,0,0,0,3.345-1.3a4.61,4.61,0,0,0,.363-2.331v-13.26a6.8,6.8,0,0,0-.2-2.059,1.364,1.364,0,0,0-.621-.651A2.869,2.869,0,0,0,1.5-19.965H.772v-.56H9.566v.56H8.825a2.173,2.173,0,0,0-1.832.742,4.449,4.449,0,0,0-.378,2.331v13.26a6.8,6.8,0,0,0,.2,2.059,1.355,1.355,0,0,0,.636.651A2.784,2.784,0,0,0,8.825-.56Zm5.525-10.914q2.013-2.8,4.344-2.8a4.807,4.807,0,0,1,3.724,1.824,7.334,7.334,0,0,1,1.589,4.988A7.7,7.7,0,0,1,22.3-1.514,6.764,6.764,0,0,1,17.6.424a7.386,7.386,0,0,1-2.46-.439,11.289,11.289,0,0,1-2.551-1.317V-15.7A20.75,20.75,0,0,0,12.48-18.6a1.273,1.273,0,0,0-.356-.742.929.929,0,0,0-.605-.2,3.107,3.107,0,0,0-1.06.242l-.212-.53,4.163-1.7h.681Zm0,.969V-2.21a5.831,5.831,0,0,0,1.6,1.143,3.943,3.943,0,0,0,1.688.386,3.315,3.315,0,0,0,2.566-1.514A7.017,7.017,0,0,0,22.13-6.6a6.248,6.248,0,0,0-1.188-4.094,3.465,3.465,0,0,0-2.7-1.43,3.507,3.507,0,0,0-1.6.409A6.955,6.955,0,0,0,15.091-10.5Z" transform="translate(1175.693 919.746)" fill="#fff"/>
    <path id="Trazado_56421" data-name="Trazado 56421" d="M0,0H372.626V56.659H0Z" transform="translate(587.661 984.5)" fill="#003b8b"/>
    <path id="Trazado_56426" data-name="Trazado 56426" d="M0,0H372.626V56.659H0Z" transform="translate(959.713 984.5)" fill="#fddf00"/>
    <path id="Trazado_56422" data-name="Trazado 56422" d="M9.566-.56V0H.772V-.56H1.5A2.192,2.192,0,0,0,3.345-1.3a4.61,4.61,0,0,0,.363-2.331v-13.26a6.8,6.8,0,0,0-.2-2.059,1.364,1.364,0,0,0-.621-.651A2.869,2.869,0,0,0,1.5-19.965H.772v-.56H9.566v.56H8.825a2.173,2.173,0,0,0-1.832.742,4.449,4.449,0,0,0-.378,2.331v13.26a6.8,6.8,0,0,0,.2,2.059,1.355,1.355,0,0,0,.636.651A2.784,2.784,0,0,0,8.825-.56Zm10.323,0V0H11.1V-.56h.727A2.192,2.192,0,0,0,13.668-1.3a4.61,4.61,0,0,0,.363-2.331v-13.26a6.8,6.8,0,0,0-.2-2.059,1.364,1.364,0,0,0-.621-.651,2.869,2.869,0,0,0-1.393-.363H11.1v-.56H19.89v.56h-.742a2.173,2.173,0,0,0-1.832.742,4.449,4.449,0,0,0-.378,2.331v13.26a6.8,6.8,0,0,0,.2,2.059,1.355,1.355,0,0,0,.636.651,2.784,2.784,0,0,0,1.377.363Zm10.323,0V0H21.418V-.56h.727A2.192,2.192,0,0,0,23.992-1.3a4.61,4.61,0,0,0,.363-2.331v-13.26a6.8,6.8,0,0,0-.2-2.059,1.364,1.364,0,0,0-.621-.651,2.869,2.869,0,0,0-1.393-.363h-.727v-.56h8.794v.56h-.742a2.173,2.173,0,0,0-1.832.742,4.449,4.449,0,0,0-.378,2.331v13.26a6.8,6.8,0,0,0,.2,2.059,1.355,1.355,0,0,0,.636.651,2.784,2.784,0,0,0,1.377.363Z" transform="translate(718.237 1023.697)" fill="#fff"/>
    <path id="Trazado_56430" data-name="Trazado 56430" d="M8.641-.506V0H.7V-.506h.656a1.98,1.98,0,0,0,1.668-.67A4.164,4.164,0,0,0,3.35-3.281V-15.258a6.139,6.139,0,0,0-.178-1.859,1.232,1.232,0,0,0-.561-.588,2.591,2.591,0,0,0-1.258-.328H.7v-.506H8.641v.506h-.67a1.963,1.963,0,0,0-1.654.67,4.018,4.018,0,0,0-.342,2.105V-3.281a6.139,6.139,0,0,0,.178,1.859,1.224,1.224,0,0,0,.574.588,2.515,2.515,0,0,0,1.244.328Z" transform="translate(1183.534 1020.697)" fill="#161615"/>
    <path id="Trazado_56423" data-name="Trazado 56423" d="M0,0H372.626V56.659H0Z" transform="translate(587.661 1089.754)" fill="#1b5522"/>
    <path id="Trazado_56427" data-name="Trazado 56427" d="M0,0H372.626V56.659H0Z" transform="translate(959.713 1089.754)" fill="#003b8b"/>
    <path id="Trazado_56424" data-name="Trazado 56424" d="M9.566-.56V0H.772V-.56H1.5A2.192,2.192,0,0,0,3.345-1.3a4.61,4.61,0,0,0,.363-2.331v-13.26a6.8,6.8,0,0,0-.2-2.059,1.364,1.364,0,0,0-.621-.651A2.869,2.869,0,0,0,1.5-19.965H.772v-.56H9.566v.56H8.825a2.173,2.173,0,0,0-1.832.742,4.449,4.449,0,0,0-.378,2.331v13.26a6.8,6.8,0,0,0,.2,2.059,1.355,1.355,0,0,0,.636.651A2.784,2.784,0,0,0,8.825-.56ZM32.332-20.525v.56a3.333,3.333,0,0,0-1.65.7A6.279,6.279,0,0,0,29.259-17L22.1.469h-.56L13.85-17.226a9.753,9.753,0,0,0-.833-1.665,2.653,2.653,0,0,0-.931-.734,4.308,4.308,0,0,0-1.491-.341v-.56h8.386v.56a3.812,3.812,0,0,0-1.847.484,1.1,1.1,0,0,0-.424.893,6.839,6.839,0,0,0,.7,2.361L22.629-4.193l4.844-11.882a8,8,0,0,0,.711-2.437,1.148,1.148,0,0,0-.439-.84,2.887,2.887,0,0,0-1.483-.568q-.076-.015-.257-.045v-.56Z" transform="translate(717.639 1127.753)" fill="#fff"/>
    <path id="Trazado_56429" data-name="Trazado 56429" d="M9.258-.542V0H.747V-.542h.7A2.121,2.121,0,0,0,3.237-1.26a4.461,4.461,0,0,0,.352-2.256V-16.348A6.577,6.577,0,0,0,3.4-18.34a1.32,1.32,0,0,0-.6-.63,2.776,2.776,0,0,0-1.348-.352h-.7v-.542H9.258v.542H8.54a2.1,2.1,0,0,0-1.772.718A4.306,4.306,0,0,0,6.4-16.348V-3.516a6.577,6.577,0,0,0,.19,1.992,1.312,1.312,0,0,0,.615.63A2.694,2.694,0,0,0,8.54-.542Zm9.99,0V0H10.737V-.542h.7a2.121,2.121,0,0,0,1.787-.718,4.461,4.461,0,0,0,.352-2.256V-16.348a6.577,6.577,0,0,0-.19-1.992,1.32,1.32,0,0,0-.6-.63,2.776,2.776,0,0,0-1.348-.352h-.7v-.542h8.511v.542H18.53a2.1,2.1,0,0,0-1.772.718,4.306,4.306,0,0,0-.366,2.256V-3.516a6.577,6.577,0,0,0,.19,1.992,1.312,1.312,0,0,0,.615.63,2.694,2.694,0,0,0,1.333.352Z" transform="translate(1178.315 1126.753)" fill="#fff"/>
    <path id="Trazado_56435" data-name="Trazado 56435" d="M15.439,0H2.921V-22.13H15.439v3.058h-8.9v6.024h8.34v3.027H6.539v6.948h8.9Zm8.128-8.552-5.616-8.189h4.057l3.814,5.858,3.845-5.858h4.026L28.063-8.552,33.982,0H29.956L25.823-6.267,21.706,0H17.68ZM43.155-2.573a8.65,8.65,0,0,0,2.6-.409V-.3a7.181,7.181,0,0,1-1.521.431A10.481,10.481,0,0,1,42.307.3q-5.056,0-5.056-5.328v-9.021H34.966v-1.574l2.452-1.3,1.211-3.542h2.195v3.724h4.768v2.694H40.824v8.961a2.514,2.514,0,0,0,.643,1.9A2.345,2.345,0,0,0,43.155-2.573ZM57.6-17.044a8.563,8.563,0,0,1,1.771.151l-.348,3.315a6.723,6.723,0,0,0-1.574-.182,4.556,4.556,0,0,0-3.459,1.393,5.034,5.034,0,0,0-1.324,3.618V0H49.1V-16.741h2.785l.469,2.952h.182a6.633,6.633,0,0,1,2.172-2.376A5.163,5.163,0,0,1,57.6-17.044ZM69.78.3a8.1,8.1,0,0,1-6.108-2.278,8.648,8.648,0,0,1-2.2-6.274A9.488,9.488,0,0,1,63.514-14.7a7.058,7.058,0,0,1,5.616-2.346,6.9,6.9,0,0,1,5.237,2.013,7.693,7.693,0,0,1,1.922,5.54v1.922H65.133A5.5,5.5,0,0,0,66.45-3.822a4.587,4.587,0,0,0,3.5,1.309,12.908,12.908,0,0,0,2.762-.28,14.48,14.48,0,0,0,2.747-.931V-.833a10.922,10.922,0,0,1-2.634.878A16.15,16.15,0,0,1,69.78.3ZM69.129-14.35a3.574,3.574,0,0,0-2.717,1.075,5.122,5.122,0,0,0-1.219,3.133h7.6a4.634,4.634,0,0,0-1-3.141A3.417,3.417,0,0,0,69.129-14.35ZM94.438,0H90.866V-10.323a4.681,4.681,0,0,0-.727-2.868,2.681,2.681,0,0,0-2.271-.946,3.463,3.463,0,0,0-3.02,1.34,7.86,7.86,0,0,0-.961,4.458V0H80.331V-16.741h2.785l.5,2.195H83.8a4.638,4.638,0,0,1,2.021-1.847,6.516,6.516,0,0,1,2.914-.651q3.86,0,5.116,2.634h.242a5.1,5.1,0,0,1,2.089-1.937,6.629,6.629,0,0,1,3.088-.7,5.623,5.623,0,0,1,4.367,1.514A6.7,6.7,0,0,1,105-10.914V0h-3.557V-10.323a4.645,4.645,0,0,0-.734-2.868,2.7,2.7,0,0,0-2.278-.946A3.531,3.531,0,0,0,95.4-12.844a6.671,6.671,0,0,0-.961,3.973Zm26,0-.711-2.331h-.121A6.858,6.858,0,0,1,117.173-.25,7.707,7.707,0,0,1,114.025.3a5.328,5.328,0,0,1-3.852-1.332A4.984,4.984,0,0,1,108.788-4.8,4.425,4.425,0,0,1,110.71-8.7a11.084,11.084,0,0,1,5.858-1.438l2.891-.091v-.893a3.385,3.385,0,0,0-.749-2.4,3.056,3.056,0,0,0-2.323-.795,8.034,8.034,0,0,0-2.467.378,18.619,18.619,0,0,0-2.271.893l-1.15-2.543a12.381,12.381,0,0,1,2.982-1.082,13.723,13.723,0,0,1,3.058-.371,7.242,7.242,0,0,1,4.821,1.393,5.452,5.452,0,0,1,1.627,4.375V0Zm-5.3-2.422A4.406,4.406,0,0,0,118.256-3.5a3.923,3.923,0,0,0,1.173-3.035V-7.992l-2.149.091a7.355,7.355,0,0,0-3.656.84,2.552,2.552,0,0,0-1.143,2.293,2.238,2.238,0,0,0,.666,1.733A2.861,2.861,0,0,0,115.145-2.422ZM133.6.3a5.831,5.831,0,0,1-4.889-2.271,10.205,10.205,0,0,1-1.756-6.373,10.238,10.238,0,0,1,1.779-6.41,5.887,5.887,0,0,1,4.927-2.293,5.771,5.771,0,0,1,5.025,2.437h.182a21.322,21.322,0,0,1-.257-2.846v-6.1h3.572V0h-2.785l-.621-2.195h-.167A5.687,5.687,0,0,1,133.6.3Zm.954-2.876a3.872,3.872,0,0,0,3.194-1.234,6.5,6.5,0,0,0,1.029-4v-.5q0-3.164-1.029-4.5a3.818,3.818,0,0,0-3.224-1.332,3.271,3.271,0,0,0-2.891,1.521,7.8,7.8,0,0,0-1.014,4.337,7.6,7.6,0,0,0,.984,4.246A3.322,3.322,0,0,0,134.55-2.573ZM157.74,0l-.711-2.331h-.121A6.858,6.858,0,0,1,154.47-.25,7.707,7.707,0,0,1,151.322.3a5.328,5.328,0,0,1-3.852-1.332A4.984,4.984,0,0,1,146.084-4.8,4.425,4.425,0,0,1,148.007-8.7a11.084,11.084,0,0,1,5.858-1.438l2.891-.091v-.893a3.385,3.385,0,0,0-.749-2.4,3.056,3.056,0,0,0-2.323-.795,8.034,8.034,0,0,0-2.467.378,18.619,18.619,0,0,0-2.271.893l-1.15-2.543a12.381,12.381,0,0,1,2.982-1.082,13.723,13.723,0,0,1,3.058-.371,7.242,7.242,0,0,1,4.821,1.393,5.452,5.452,0,0,1,1.627,4.375V0Zm-5.3-2.422A4.406,4.406,0,0,0,155.552-3.5a3.923,3.923,0,0,0,1.173-3.035V-7.992l-2.149.091a7.355,7.355,0,0,0-3.656.84,2.552,2.552,0,0,0-1.143,2.293,2.238,2.238,0,0,0,.666,1.733A2.861,2.861,0,0,0,152.442-2.422ZM179.355,0h-3.572V-10.323a4.681,4.681,0,0,0-.727-2.868,2.681,2.681,0,0,0-2.271-.946,3.463,3.463,0,0,0-3.02,1.34A7.86,7.86,0,0,0,168.8-8.34V0h-3.557V-16.741h2.785l.5,2.195h.182a4.638,4.638,0,0,1,2.021-1.847,6.516,6.516,0,0,1,2.914-.651q3.86,0,5.116,2.634h.242a5.1,5.1,0,0,1,2.089-1.937,6.629,6.629,0,0,1,3.088-.7,5.623,5.623,0,0,1,4.367,1.514,6.7,6.7,0,0,1,1.37,4.617V0h-3.557V-10.323a4.645,4.645,0,0,0-.734-2.868,2.7,2.7,0,0,0-2.278-.946,3.531,3.531,0,0,0-3.035,1.294,6.671,6.671,0,0,0-.961,3.973ZM202.2.3a8.1,8.1,0,0,1-6.108-2.278,8.648,8.648,0,0,1-2.2-6.274A9.488,9.488,0,0,1,195.93-14.7a7.058,7.058,0,0,1,5.616-2.346,6.9,6.9,0,0,1,5.237,2.013,7.693,7.693,0,0,1,1.922,5.54v1.922H197.549a5.5,5.5,0,0,0,1.317,3.746,4.587,4.587,0,0,0,3.5,1.309,12.908,12.908,0,0,0,2.762-.28,14.48,14.48,0,0,0,2.747-.931V-.833a10.922,10.922,0,0,1-2.634.878A16.15,16.15,0,0,1,202.2.3Zm-.651-14.652a3.574,3.574,0,0,0-2.717,1.075,5.122,5.122,0,0,0-1.219,3.133h7.6a4.634,4.634,0,0,0-1-3.141A3.417,3.417,0,0,0,201.545-14.35ZM227.475,0H223.9V-10.293a4.5,4.5,0,0,0-.78-2.891,3.013,3.013,0,0,0-2.475-.954,3.935,3.935,0,0,0-3.3,1.332A7.354,7.354,0,0,0,216.3-8.34V0h-3.557V-16.741h2.785l.5,2.195h.182a4.953,4.953,0,0,1,2.149-1.847,7.2,7.2,0,0,1,3.088-.651q6.024,0,6.024,6.13Zm11.186-2.573a8.65,8.65,0,0,0,2.6-.409V-.3a7.181,7.181,0,0,1-1.521.431,10.481,10.481,0,0,1-1.93.174q-5.056,0-5.056-5.328v-9.021h-2.286v-1.574l2.452-1.3,1.211-3.542h2.195v3.724H241.1v2.694H236.33v8.961a2.514,2.514,0,0,0,.643,1.9A2.345,2.345,0,0,0,238.661-2.573ZM251.92.3a8.1,8.1,0,0,1-6.108-2.278,8.648,8.648,0,0,1-2.2-6.274,9.488,9.488,0,0,1,2.043-6.448,7.058,7.058,0,0,1,5.616-2.346,6.9,6.9,0,0,1,5.237,2.013,7.693,7.693,0,0,1,1.922,5.54v1.922H247.273a5.5,5.5,0,0,0,1.317,3.746,4.587,4.587,0,0,0,3.5,1.309,12.908,12.908,0,0,0,2.762-.28,14.48,14.48,0,0,0,2.747-.931V-.833a10.922,10.922,0,0,1-2.634.878A16.15,16.15,0,0,1,251.92.3ZM251.27-14.35a3.574,3.574,0,0,0-2.717,1.075,5.122,5.122,0,0,0-1.219,3.133h7.6a4.634,4.634,0,0,0-1-3.141A3.417,3.417,0,0,0,251.27-14.35Z" transform="translate(833.161 862.498)" fill="#464545"/>
    <path id="Trazado_56428" data-name="Trazado 56428" d="M16.65,0,14.44-6.146H5.979L3.814,0H0L8.28-22.221h3.936L20.5,0ZM13.487-9.264l-2.074-6.024q-.227-.605-.628-1.907T10.232-19.1a33.924,33.924,0,0,1-1.2,4.072l-2,5.767ZM26.6,0H23.038V-23.553H26.6ZM37.917-2.573a8.65,8.65,0,0,0,2.6-.409V-.3A7.181,7.181,0,0,1,39,.129,10.481,10.481,0,0,1,37.07.3q-5.056,0-5.056-5.328v-9.021H29.729v-1.574l2.452-1.3,1.211-3.542h2.195v3.724h4.768v2.694H35.586v8.961a2.514,2.514,0,0,0,.643,1.9A2.345,2.345,0,0,0,37.917-2.573ZM54.341,0l-.711-2.331h-.121A6.858,6.858,0,0,1,51.071-.25,7.707,7.707,0,0,1,47.923.3a5.328,5.328,0,0,1-3.852-1.332A4.984,4.984,0,0,1,42.686-4.8,4.425,4.425,0,0,1,44.608-8.7a11.084,11.084,0,0,1,5.858-1.438l2.891-.091v-.893a3.385,3.385,0,0,0-.749-2.4,3.056,3.056,0,0,0-2.323-.795,8.034,8.034,0,0,0-2.467.378,18.619,18.619,0,0,0-2.271.893L44.4-15.591a12.381,12.381,0,0,1,2.982-1.082,13.723,13.723,0,0,1,3.058-.371,7.242,7.242,0,0,1,4.821,1.393,5.452,5.452,0,0,1,1.627,4.375V0Zm-5.3-2.422A4.406,4.406,0,0,0,52.154-3.5a3.923,3.923,0,0,0,1.173-3.035V-7.992L51.177-7.9a7.355,7.355,0,0,0-3.656.84,2.552,2.552,0,0,0-1.143,2.293,2.238,2.238,0,0,0,.666,1.733A2.861,2.861,0,0,0,49.043-2.422ZM75.956,0H72.384V-10.323a4.681,4.681,0,0,0-.727-2.868,2.681,2.681,0,0,0-2.271-.946,3.463,3.463,0,0,0-3.02,1.34,7.86,7.86,0,0,0-.961,4.458V0H61.849V-16.741h2.785l.5,2.195h.182a4.638,4.638,0,0,1,2.021-1.847,6.516,6.516,0,0,1,2.914-.651q3.86,0,5.116,2.634h.242A5.1,5.1,0,0,1,77.7-16.348a6.629,6.629,0,0,1,3.088-.7,5.623,5.623,0,0,1,4.367,1.514,6.7,6.7,0,0,1,1.37,4.617V0H82.964V-10.323a4.645,4.645,0,0,0-.734-2.868,2.7,2.7,0,0,0-2.278-.946,3.531,3.531,0,0,0-3.035,1.294,6.671,6.671,0,0,0-.961,3.973ZM98.8.3A8.1,8.1,0,0,1,92.69-1.975a8.648,8.648,0,0,1-2.2-6.274A9.488,9.488,0,0,1,92.531-14.7a7.058,7.058,0,0,1,5.616-2.346,6.9,6.9,0,0,1,5.237,2.013,7.693,7.693,0,0,1,1.922,5.54v1.922H94.15a5.5,5.5,0,0,0,1.317,3.746,4.587,4.587,0,0,0,3.5,1.309,12.908,12.908,0,0,0,2.762-.28,14.48,14.48,0,0,0,2.747-.931V-.833a10.922,10.922,0,0,1-2.634.878A16.15,16.15,0,0,1,98.8.3ZM98.146-14.35a3.574,3.574,0,0,0-2.717,1.075,5.122,5.122,0,0,0-1.219,3.133h7.6a4.634,4.634,0,0,0-1-3.141A3.417,3.417,0,0,0,98.146-14.35ZM124.076,0H120.5V-10.293a4.5,4.5,0,0,0-.78-2.891,3.013,3.013,0,0,0-2.475-.954,3.935,3.935,0,0,0-3.3,1.332A7.354,7.354,0,0,0,112.9-8.34V0h-3.557V-16.741h2.785l.5,2.195h.182a4.953,4.953,0,0,1,2.149-1.847,7.2,7.2,0,0,1,3.088-.651q6.024,0,6.024,6.13Zm11.186-2.573a8.65,8.65,0,0,0,2.6-.409V-.3a7.181,7.181,0,0,1-1.521.431,10.481,10.481,0,0,1-1.93.174q-5.056,0-5.056-5.328v-9.021h-2.286v-1.574l2.452-1.3,1.211-3.542h2.195v3.724H137.7v2.694h-4.768v8.961a2.514,2.514,0,0,0,.643,1.9A2.345,2.345,0,0,0,135.262-2.573ZM148.521.3a8.1,8.1,0,0,1-6.108-2.278,8.648,8.648,0,0,1-2.2-6.274,9.488,9.488,0,0,1,2.043-6.448,7.058,7.058,0,0,1,5.616-2.346,6.9,6.9,0,0,1,5.237,2.013,7.693,7.693,0,0,1,1.922,5.54v1.922H143.875a5.5,5.5,0,0,0,1.317,3.746,4.587,4.587,0,0,0,3.5,1.309,12.908,12.908,0,0,0,2.762-.28,14.48,14.48,0,0,0,2.747-.931V-.833a10.922,10.922,0,0,1-2.634.878A16.15,16.15,0,0,1,148.521.3Zm-.651-14.652a3.574,3.574,0,0,0-2.717,1.075,5.122,5.122,0,0,0-1.219,3.133h7.6a4.634,4.634,0,0,0-1-3.141A3.417,3.417,0,0,0,147.871-14.35Z" transform="translate(885.58 970.351)" fill="#464545"/>
    <path id="Trazado_56425" data-name="Trazado 56425" d="M12.085,0,5.874-17.886H5.757q.249,3.984.249,7.471V0H2.827V-21.416H7.764L13.711-4.38H13.8l6.123-17.036h4.951V0H21.5V-10.591q0-1.6.081-4.16t.139-3.105h-.117L15.176,0ZM44.517-8.13a8.843,8.843,0,0,1-2.036,6.2A7.3,7.3,0,0,1,36.812.293,7.767,7.767,0,0,1,32.8-.732a6.769,6.769,0,0,1-2.681-2.944A10.028,10.028,0,0,1,29.18-8.13,8.783,8.783,0,0,1,31.2-14.282a7.329,7.329,0,0,1,5.7-2.212,7.137,7.137,0,0,1,5.566,2.263A8.742,8.742,0,0,1,44.517-8.13Zm-11.792,0q0,5.61,4.146,5.61,4.1,0,4.1-5.61,0-5.552-4.131-5.552A3.522,3.522,0,0,0,33.7-12.246,7.305,7.305,0,0,0,32.725-8.13ZM53.936.293A5.643,5.643,0,0,1,49.2-1.9a9.876,9.876,0,0,1-1.7-6.167,9.908,9.908,0,0,1,1.721-6.2,5.7,5.7,0,0,1,4.768-2.219,5.585,5.585,0,0,1,4.863,2.358h.176a20.635,20.635,0,0,1-.249-2.754v-5.9h3.457V0h-2.7l-.6-2.124h-.161A5.5,5.5,0,0,1,53.936.293Zm.923-2.783a3.747,3.747,0,0,0,3.091-1.194,6.285,6.285,0,0,0,1-3.875v-.483a7.262,7.262,0,0,0-1-4.351,3.7,3.7,0,0,0-3.12-1.289,3.166,3.166,0,0,0-2.8,1.472,7.544,7.544,0,0,0-.981,4.2A7.356,7.356,0,0,0,52-3.9,3.214,3.214,0,0,0,54.858-2.49ZM74.238.293a7.837,7.837,0,0,1-5.911-2.2A8.369,8.369,0,0,1,66.2-7.983a9.182,9.182,0,0,1,1.978-6.24,6.831,6.831,0,0,1,5.435-2.271,6.676,6.676,0,0,1,5.068,1.948,7.445,7.445,0,0,1,1.86,5.361v1.86h-10.8A5.321,5.321,0,0,0,71.016-3.7,4.439,4.439,0,0,0,74.4-2.432,12.491,12.491,0,0,0,77.073-2.7a14.013,14.013,0,0,0,2.659-.9v2.8a10.569,10.569,0,0,1-2.549.85A15.629,15.629,0,0,1,74.238.293Zm-.63-14.18a3.459,3.459,0,0,0-2.629,1.04A4.957,4.957,0,0,0,69.8-9.814h7.354a4.485,4.485,0,0,0-.967-3.04A3.307,3.307,0,0,0,73.608-13.887Zm19.058-2.607a8.287,8.287,0,0,1,1.714.146l-.337,3.208a6.506,6.506,0,0,0-1.523-.176,4.409,4.409,0,0,0-3.347,1.348,4.871,4.871,0,0,0-1.282,3.5V0H84.448V-16.2h2.7l.454,2.856h.176a6.419,6.419,0,0,1,2.1-2.3A5,5,0,0,1,92.666-16.494ZM107.52,0l-.688-2.256h-.117a6.637,6.637,0,0,1-2.358,2.014,7.458,7.458,0,0,1-3.047.535A5.156,5.156,0,0,1,97.581-1a4.824,4.824,0,0,1-1.34-3.647A4.283,4.283,0,0,1,98.1-8.423a10.727,10.727,0,0,1,5.669-1.392l2.8-.088v-.864a3.276,3.276,0,0,0-.725-2.322,2.957,2.957,0,0,0-2.249-.769,7.775,7.775,0,0,0-2.388.366,18.019,18.019,0,0,0-2.2.864L97.9-15.088a11.981,11.981,0,0,1,2.886-1.047,13.28,13.28,0,0,1,2.959-.359,7.008,7.008,0,0,1,4.666,1.348,5.276,5.276,0,0,1,1.575,4.233V0Zm-5.127-2.344a4.264,4.264,0,0,0,3.01-1.047,3.8,3.8,0,0,0,1.135-2.937V-7.734l-2.08.088a7.117,7.117,0,0,0-3.538.813,2.47,2.47,0,0,0-1.106,2.219,2.165,2.165,0,0,0,.645,1.677A2.769,2.769,0,0,0,102.393-2.344ZM120.249.293a5.643,5.643,0,0,1-4.731-2.2,9.876,9.876,0,0,1-1.7-6.167,9.908,9.908,0,0,1,1.721-6.2,5.7,5.7,0,0,1,4.768-2.219,5.585,5.585,0,0,1,4.863,2.358h.176a20.635,20.635,0,0,1-.249-2.754v-5.9h3.457V0h-2.7l-.6-2.124H125.1A5.5,5.5,0,0,1,120.249.293Zm.923-2.783a3.747,3.747,0,0,0,3.091-1.194,6.285,6.285,0,0,0,1-3.875v-.483a7.262,7.262,0,0,0-1-4.351,3.7,3.7,0,0,0-3.12-1.289,3.166,3.166,0,0,0-2.8,1.472,7.544,7.544,0,0,0-.981,4.2,7.356,7.356,0,0,0,.952,4.109A3.214,3.214,0,0,0,121.172-2.49ZM143.613,0l-.688-2.256h-.117a6.637,6.637,0,0,1-2.358,2.014A7.458,7.458,0,0,1,137.4.293,5.156,5.156,0,0,1,133.674-1a4.824,4.824,0,0,1-1.34-3.647,4.283,4.283,0,0,1,1.86-3.779,10.727,10.727,0,0,1,5.669-1.392l2.8-.088v-.864a3.276,3.276,0,0,0-.725-2.322,2.957,2.957,0,0,0-2.249-.769,7.775,7.775,0,0,0-2.388.366,18.019,18.019,0,0,0-2.2.864l-1.113-2.461a11.981,11.981,0,0,1,2.886-1.047,13.28,13.28,0,0,1,2.959-.359,7.008,7.008,0,0,1,4.666,1.348,5.276,5.276,0,0,1,1.575,4.233V0Zm-5.127-2.344a4.264,4.264,0,0,0,3.01-1.047,3.8,3.8,0,0,0,1.135-2.937V-7.734l-2.08.088a7.117,7.117,0,0,0-3.538.813,2.47,2.47,0,0,0-1.106,2.219,2.165,2.165,0,0,0,.645,1.677A2.769,2.769,0,0,0,138.486-2.344ZM164.531,0h-3.457V-9.99a4.53,4.53,0,0,0-.7-2.776,2.6,2.6,0,0,0-2.2-.916,3.352,3.352,0,0,0-2.922,1.3,7.606,7.606,0,0,0-.93,4.314V0h-3.442V-16.2h2.7l.483,2.124h.176a4.488,4.488,0,0,1,1.956-1.787,6.306,6.306,0,0,1,2.82-.63q3.735,0,4.951,2.549h.234a4.939,4.939,0,0,1,2.021-1.875,6.416,6.416,0,0,1,2.988-.674,5.442,5.442,0,0,1,4.226,1.465,6.487,6.487,0,0,1,1.326,4.468V0h-3.442V-9.99a4.5,4.5,0,0,0-.71-2.776,2.616,2.616,0,0,0-2.2-.916,3.417,3.417,0,0,0-2.937,1.252,6.456,6.456,0,0,0-.93,3.845Zm22.1.293a7.837,7.837,0,0,1-5.911-2.2,8.369,8.369,0,0,1-2.131-6.072,9.182,9.182,0,0,1,1.978-6.24,6.831,6.831,0,0,1,5.435-2.271,6.676,6.676,0,0,1,5.068,1.948,7.445,7.445,0,0,1,1.86,5.361v1.86h-10.8A5.321,5.321,0,0,0,183.413-3.7,4.439,4.439,0,0,0,186.8-2.432,12.491,12.491,0,0,0,189.47-2.7a14.013,14.013,0,0,0,2.659-.9v2.8a10.569,10.569,0,0,1-2.549.85A15.629,15.629,0,0,1,186.636.293Zm-.63-14.18a3.459,3.459,0,0,0-2.629,1.04A4.957,4.957,0,0,0,182.2-9.814h7.354a4.485,4.485,0,0,0-.967-3.04A3.307,3.307,0,0,0,186.006-13.887ZM211.1,0h-3.457V-9.961a4.36,4.36,0,0,0-.754-2.8,2.916,2.916,0,0,0-2.4-.923,3.808,3.808,0,0,0-3.193,1.289,7.117,7.117,0,0,0-1.011,4.321V0h-3.442V-16.2h2.7l.483,2.124h.176a4.793,4.793,0,0,1,2.08-1.787,6.971,6.971,0,0,1,2.988-.63q5.83,0,5.83,5.933Zm10.825-2.49a8.371,8.371,0,0,0,2.52-.4V-.293a6.949,6.949,0,0,1-1.472.417A10.143,10.143,0,0,1,221.1.293q-4.893,0-4.893-5.156v-8.73H214v-1.523l2.373-1.26,1.172-3.428h2.124v3.6h4.614v2.607h-4.614v8.672a2.433,2.433,0,0,0,.623,1.838A2.27,2.27,0,0,0,221.924-2.49ZM234.756.293a7.837,7.837,0,0,1-5.911-2.2,8.369,8.369,0,0,1-2.131-6.072,9.182,9.182,0,0,1,1.978-6.24,6.831,6.831,0,0,1,5.435-2.271,6.676,6.676,0,0,1,5.068,1.948,7.445,7.445,0,0,1,1.86,5.361v1.86h-10.8A5.321,5.321,0,0,0,231.533-3.7a4.439,4.439,0,0,0,3.384,1.267A12.491,12.491,0,0,0,237.59-2.7a14.013,14.013,0,0,0,2.659-.9v2.8a10.569,10.569,0,0,1-2.549.85A15.629,15.629,0,0,1,234.756.293Zm-.63-14.18a3.459,3.459,0,0,0-2.629,1.04,4.957,4.957,0,0,0-1.179,3.032h7.354a4.485,4.485,0,0,0-.967-3.04A3.307,3.307,0,0,0,234.126-13.887Z" transform="translate(837.906 1073.341)" fill="#464545"/>
    <path id="Trazado_56538" data-name="Trazado 56538" d="M2.827,0V-21.416h3.5V-3H15.4V0ZM22.163,0H18.721V-16.2h3.442ZM18.516-20.493a1.906,1.906,0,0,1,.505-1.421,1.969,1.969,0,0,1,1.443-.5,1.927,1.927,0,0,1,1.414.5,1.906,1.906,0,0,1,.505,1.421,1.871,1.871,0,0,1-.505,1.384,1.911,1.911,0,0,1-1.414.505,1.952,1.952,0,0,1-1.443-.505A1.871,1.871,0,0,1,18.516-20.493ZM40.767-16.2v1.89L38-13.8a4.469,4.469,0,0,1,.63,1.26,4.97,4.97,0,0,1,.249,1.582,4.847,4.847,0,0,1-1.729,3.94,7.233,7.233,0,0,1-4.761,1.436A7.719,7.719,0,0,1,30.981-5.7a1.939,1.939,0,0,0-1.113,1.611.9.9,0,0,0,.52.835,4.5,4.5,0,0,0,1.912.278h2.827A6.286,6.286,0,0,1,39.2-1.831a4.02,4.02,0,0,1,1.392,3.3A4.793,4.793,0,0,1,38.32,5.713a11.955,11.955,0,0,1-6.562,1.494A9.057,9.057,0,0,1,26.7,6.035,3.788,3.788,0,0,1,24.961,2.7,3.554,3.554,0,0,1,25.906.183,5.063,5.063,0,0,1,28.55-1.23a2.587,2.587,0,0,1-1.135-.945,2.385,2.385,0,0,1-.447-1.37,2.358,2.358,0,0,1,.513-1.538A5.915,5.915,0,0,1,29-6.328,4.512,4.512,0,0,1,26.96-8.093a5.192,5.192,0,0,1-.784-2.864,5.134,5.134,0,0,1,1.663-4.087,6.99,6.99,0,0,1,4.739-1.45,11.535,11.535,0,0,1,1.443.1,9.083,9.083,0,0,1,1.135.2ZM28.037,2.52a1.893,1.893,0,0,0,1,1.714,5.515,5.515,0,0,0,2.82.6,8.519,8.519,0,0,0,4.189-.806A2.415,2.415,0,0,0,37.427,1.89a1.6,1.6,0,0,0-.754-1.5,6.058,6.058,0,0,0-2.805-.447H31.26a3.664,3.664,0,0,0-2.351.7A2.282,2.282,0,0,0,28.037,2.52Zm1.479-13.477A3.26,3.26,0,0,0,30.3-8.613a2.964,2.964,0,0,0,2.249.82q2.988,0,2.988-3.193a3.622,3.622,0,0,0-.74-2.439,2.81,2.81,0,0,0-2.249-.857,2.9,2.9,0,0,0-2.263.85A3.572,3.572,0,0,0,29.517-10.957ZM50.845.293a7.837,7.837,0,0,1-5.911-2.2A8.369,8.369,0,0,1,42.8-7.983a9.182,9.182,0,0,1,1.978-6.24,6.831,6.831,0,0,1,5.435-2.271,6.676,6.676,0,0,1,5.068,1.948,7.445,7.445,0,0,1,1.86,5.361v1.86h-10.8A5.321,5.321,0,0,0,47.622-3.7a4.439,4.439,0,0,0,3.384,1.267A12.491,12.491,0,0,0,53.679-2.7a14.013,14.013,0,0,0,2.659-.9v2.8a10.569,10.569,0,0,1-2.549.85A15.629,15.629,0,0,1,50.845.293Zm-.63-14.18a3.459,3.459,0,0,0-2.629,1.04,4.957,4.957,0,0,0-1.179,3.032H53.76a4.485,4.485,0,0,0-.967-3.04A3.307,3.307,0,0,0,50.215-13.887Zm19.058-2.607a8.287,8.287,0,0,1,1.714.146l-.337,3.208a6.506,6.506,0,0,0-1.523-.176,4.409,4.409,0,0,0-3.347,1.348,4.871,4.871,0,0,0-1.282,3.5V0H61.055V-16.2h2.7l.454,2.856h.176a6.419,6.419,0,0,1,2.1-2.3A5,5,0,0,1,69.272-16.494ZM84.126,0l-.688-2.256H83.32A6.637,6.637,0,0,1,80.962-.242a7.458,7.458,0,0,1-3.047.535A5.156,5.156,0,0,1,74.187-1a4.824,4.824,0,0,1-1.34-3.647,4.283,4.283,0,0,1,1.86-3.779,10.727,10.727,0,0,1,5.669-1.392l2.8-.088v-.864a3.276,3.276,0,0,0-.725-2.322,2.957,2.957,0,0,0-2.249-.769,7.775,7.775,0,0,0-2.388.366,18.019,18.019,0,0,0-2.2.864L74.5-15.088a11.981,11.981,0,0,1,2.886-1.047,13.28,13.28,0,0,1,2.959-.359,7.008,7.008,0,0,1,4.666,1.348,5.276,5.276,0,0,1,1.575,4.233V0ZM79-2.344a4.264,4.264,0,0,0,3.01-1.047,3.8,3.8,0,0,0,1.135-2.937V-7.734l-2.08.088a7.117,7.117,0,0,0-3.538.813,2.47,2.47,0,0,0-1.106,2.219,2.165,2.165,0,0,0,.645,1.677A2.769,2.769,0,0,0,79-2.344ZM105.044,0h-3.457V-9.99a4.53,4.53,0,0,0-.7-2.776,2.6,2.6,0,0,0-2.2-.916,3.352,3.352,0,0,0-2.922,1.3,7.606,7.606,0,0,0-.93,4.314V0H91.392V-16.2h2.7l.483,2.124h.176A4.488,4.488,0,0,1,96.7-15.864a6.306,6.306,0,0,1,2.82-.63q3.735,0,4.951,2.549h.234a4.939,4.939,0,0,1,2.021-1.875,6.416,6.416,0,0,1,2.988-.674,5.442,5.442,0,0,1,4.226,1.465,6.487,6.487,0,0,1,1.326,4.468V0h-3.442V-9.99a4.5,4.5,0,0,0-.71-2.776,2.616,2.616,0,0,0-2.2-.916,3.417,3.417,0,0,0-2.937,1.252,6.456,6.456,0,0,0-.93,3.845Zm22.1.293a7.837,7.837,0,0,1-5.911-2.2,8.369,8.369,0,0,1-2.131-6.072,9.182,9.182,0,0,1,1.978-6.24,6.831,6.831,0,0,1,5.435-2.271,6.676,6.676,0,0,1,5.068,1.948,7.445,7.445,0,0,1,1.86,5.361v1.86h-10.8A5.321,5.321,0,0,0,123.926-3.7a4.439,4.439,0,0,0,3.384,1.267,12.491,12.491,0,0,0,2.673-.271,14.013,14.013,0,0,0,2.659-.9v2.8a10.569,10.569,0,0,1-2.549.85A15.629,15.629,0,0,1,127.148.293Zm-.63-14.18a3.459,3.459,0,0,0-2.629,1.04,4.957,4.957,0,0,0-1.179,3.032h7.354a4.485,4.485,0,0,0-.967-3.04A3.307,3.307,0,0,0,126.519-13.887ZM151.611,0h-3.457V-9.961a4.36,4.36,0,0,0-.754-2.8,2.916,2.916,0,0,0-2.4-.923,3.808,3.808,0,0,0-3.193,1.289A7.117,7.117,0,0,0,140.8-8.071V0h-3.442V-16.2h2.7l.483,2.124h.176a4.793,4.793,0,0,1,2.08-1.787,6.971,6.971,0,0,1,2.988-.63q5.83,0,5.83,5.933Zm10.825-2.49a8.371,8.371,0,0,0,2.52-.4V-.293a6.949,6.949,0,0,1-1.472.417,10.143,10.143,0,0,1-1.868.168q-4.893,0-4.893-5.156v-8.73h-2.212v-1.523l2.373-1.26,1.172-3.428h2.124v3.6h4.614v2.607h-4.614v8.672a2.433,2.433,0,0,0,.623,1.838A2.27,2.27,0,0,0,162.437-2.49ZM175.269.293a7.837,7.837,0,0,1-5.911-2.2,8.369,8.369,0,0,1-2.131-6.072,9.182,9.182,0,0,1,1.978-6.24,6.831,6.831,0,0,1,5.435-2.271,6.676,6.676,0,0,1,5.068,1.948,7.445,7.445,0,0,1,1.86,5.361v1.86h-10.8A5.321,5.321,0,0,0,172.046-3.7a4.439,4.439,0,0,0,3.384,1.267A12.491,12.491,0,0,0,178.1-2.7a14.013,14.013,0,0,0,2.659-.9v2.8a10.569,10.569,0,0,1-2.549.85A15.629,15.629,0,0,1,175.269.293Zm-.63-14.18a3.459,3.459,0,0,0-2.629,1.04,4.957,4.957,0,0,0-1.179,3.032h7.354a4.485,4.485,0,0,0-.967-3.04A3.307,3.307,0,0,0,174.639-13.887Z" transform="translate(869.055 1176.274)" fill="#464545"/>
    <path id="Trazado_56402" data-name="Trazado 56402" d="M43,138.908c0,7.254-4.428,11.148-9.831,11.148-5.623,0-9.517-4.366-9.517-10.771,0-6.723,4.146-11.12,9.8-11.12C39.26,128.165,43,132.594,43,138.908Zm0,150.846c0,7.254-4.428,11.148-9.831,11.148-5.623,0-9.517-4.366-9.517-10.771,0-6.723,4.146-11.12,9.8-11.12C39.26,279.011,43,283.44,43,289.754ZM38.349,187.422l-2.731-4.68c-1.1-1.789-1.76-2.951-2.42-4.177h-.063c-.6,1.226-1.223,2.357-2.291,4.208L28.3,187.422h-3.14l6.471-10.708-6.22-10.46H28.58l2.8,4.963c.786,1.383,1.38,2.449,1.946,3.58h.094c.6-1.257,1.131-2.229,1.917-3.58l2.857-4.963h3.174l-6.44,10.3,6.6,10.866Zm3.033,74.766a13.5,13.5,0,0,1-5.591,1c-5.968,0-10.428-3.768-10.428-10.74,0-6.66,4.491-11.12,11.057-11.12a11.467,11.467,0,0,1,5.026.943l-.691,2.229a9.7,9.7,0,0,0-4.24-.88c-4.963,0-8.262,3.174-8.262,8.734,0,5.214,2.985,8.511,8.105,8.511a10.988,10.988,0,0,0,4.491-.88ZM31.943,93.157H25.5V90.831H41.177v2.326H34.706V112H31.943Zm-5.405,46.066c0,4.554,2.451,8.606,6.785,8.606s6.783-3.989,6.783-8.794c0-4.24-2.2-8.637-6.751-8.637S26.538,134.605,26.538,139.222Zm0,150.846c0,4.554,2.451,8.606,6.785,8.606s6.783-3.988,6.783-8.794c0-4.24-2.2-8.64-6.751-8.64S26.538,285.451,26.538,290.068Zm8.171-86.1v21.168H31.946V203.965Z" transform="translate(515.218 763.493)" fill="#161615"/>
    <path id="Trazado_56403" data-name="Trazado 56403" d="M357.205,305.962c0,7.254-4.429,11.148-9.831,11.148-5.623,0-9.517-4.366-9.517-10.771,0-6.723,4.146-11.12,9.8-11.12C353.468,295.22,357.205,299.648,357.205,305.962Zm0,75.423c0,7.254-4.429,11.148-9.831,11.148-5.623,0-9.517-4.366-9.517-10.774,0-6.72,4.146-11.117,9.8-11.117C353.468,370.643,357.205,375.071,357.205,381.385ZM355.932,240.4a19.126,19.126,0,0,1-6.531,1.16,9.94,9.94,0,0,1-10.868-10.677c0-6.314,4.366-10.931,11.463-10.931a13.251,13.251,0,0,1,5.308.974l-.689,2.229a10.517,10.517,0,0,0-4.68-.911c-5.151,0-8.514,3.205-8.514,8.514,0,5.371,3.205,8.543,8.168,8.543a8.911,8.911,0,0,0,3.643-.566v-6.314h-4.271v-2.2h6.971Zm-15.187,65.875c0,4.554,2.451,8.605,6.785,8.605s6.783-3.989,6.783-8.794c0-4.243-2.2-8.64-6.751-8.64S340.746,301.659,340.746,306.276Zm0,75.42c0,4.557,2.451,8.608,6.785,8.608s6.783-3.991,6.783-8.794c0-4.243-2.2-8.64-6.751-8.64S340.746,377.08,340.746,381.7Zm1.1-30.549a9.262,9.262,0,0,0,4.868,1.383c2.794,0,4.429-1.477,4.429-3.614,0-1.946-1.131-3.109-3.989-4.177-3.457-1.254-5.591-3.077-5.591-6.029,0-3.3,2.731-5.748,6.846-5.748A9.463,9.463,0,0,1,353.059,334l-.752,2.229a7.838,7.838,0,0,0-3.991-1.006c-2.889,0-3.989,1.728-3.989,3.174,0,1.977,1.289,2.951,4.208,4.083,3.583,1.383,5.371,3.109,5.371,6.22,0,3.266-2.386,6.123-7.38,6.123a10.953,10.953,0,0,1-5.4-1.38Zm-.361-92.98a31.754,31.754,0,0,1,5.246-.44c2.92,0,4.837.566,6.123,1.726a5.41,5.41,0,0,1,1.666,4.054,5.562,5.562,0,0,1-3.957,5.371v.092c1.6.566,2.574,2.074,3.077,4.274a33.6,33.6,0,0,0,1.634,5.809h-2.828a26.507,26.507,0,0,1-1.38-5.057c-.628-2.92-1.791-4.02-4.271-4.114h-2.577v9.171h-2.732Zm.094-188.589a31.626,31.626,0,0,1,5.246-.409c2.7,0,4.68.629,5.934,1.76a5.792,5.792,0,0,1,1.854,4.428,6.233,6.233,0,0,1-1.634,4.523,8.822,8.822,0,0,1-6.469,2.323,9.411,9.411,0,0,1-2.2-.189V90.5h-2.731Zm11.557,48.705h-8.2v7.631h9.171v2.294H342.178V107.04h11.463v2.292h-8.7v6.691h8.2Zm-10.646,26.466h2.763v18.877H354.3v2.292H342.492Zm1.726,123.06h2.794c2.923,0,4.774-1.6,4.774-4.02,0-2.734-1.977-3.928-4.866-3.928a11.987,11.987,0,0,0-2.7.22Zm.094-188.023a9.168,9.168,0,0,0,2.263.22c3.3,0,5.308-1.634,5.308-4.491,0-2.828-2.011-4.177-4.994-4.177a11.475,11.475,0,0,0-2.577.22Zm4.6,102.675v21.168h-2.763V182.462Z" transform="translate(1023.873 728.429)" fill="#161615"/>
    <path id="Rect치ngulo_5537" data-name="Rect치ngulo 5537" d="M2.905-.5H75.3a3.409,3.409,0,0,1,3.4,3.4V440.14a3.408,3.408,0,0,1-3.4,3.4H2.905a3.409,3.409,0,0,1-3.4-3.4V2.9A3.409,3.409,0,0,1,2.905-.5ZM75.3,442.544a2.407,2.407,0,0,0,2.4-2.4V2.9A2.408,2.408,0,0,0,75.3.5H2.905A2.408,2.408,0,0,0,.5,2.9V440.139a2.408,2.408,0,0,0,2.4,2.4Z" transform="translate(509.461 722.178)" fill="#161615"/>
    <path id="Rect치ngulo_5538" data-name="Rect치ngulo 5538" d="M2.9-.5H75.3a3.409,3.409,0,0,1,3.4,3.4V440.14a3.408,3.408,0,0,1-3.4,3.4H2.905a3.409,3.409,0,0,1-3.405-3.4V2.9A3.409,3.409,0,0,1,2.9-.5ZM75.3,442.544a2.407,2.407,0,0,0,2.4-2.4V2.9A2.408,2.408,0,0,0,75.3.5H2.9A2.408,2.408,0,0,0,.5,2.9V440.139a2.408,2.408,0,0,0,2.405,2.4Z" transform="translate(1332.336 722.178)" fill="#161615"/>
    <path id="Trazado_56412" data-name="Trazado 56412" d="M363.186,2.05l41.3,74.627a4.1,4.1,0,0,1-3.552,6.151h-82.61a4.1,4.1,0,0,1-3.552-6.151L356.083,2.05a4.1,4.1,0,0,1,7.1,0" transform="translate(1128.854 760.907)" fill="#040506" fill-rule="evenodd"/>
    <path id="Trazado_56413" data-name="Trazado 56413" d="M356.494,5.274,317.572,72.687a1.187,1.187,0,0,0,1.028,1.78h77.842a1.187,1.187,0,0,0,1.028-1.78L358.548,5.274a1.186,1.186,0,0,0-2.054,0" transform="translate(1130.968 764)" fill="#ffe500" fill-rule="evenodd"/>
    <path id="Trazado_56414" data-name="Trazado 56414" d="M346.143,37.9l-1.895,4.208h3.79Zm6.751,4.426h0l-1.372,4.436H340.764l-1.372-4.436a12.316,12.316,0,0,1-4.761-9.783,11.531,11.531,0,1,1,23.024,0,12.312,12.312,0,0,1-4.761,9.783m-1.4-10.3h0a3.461,3.461,0,1,1-3.461,3.461,3.458,3.458,0,0,1,3.461-3.461m-10.71,0h0a3.461,3.461,0,1,1-3.461,3.461,3.458,3.458,0,0,1,3.461-3.461" transform="translate(1142.345 774.349)" fill="#040506" fill-rule="evenodd"/>
    <path id="Trazado_56415" data-name="Trazado 56415" d="M339.163,39.289h11.313l1.5-2.785H353l-.556,4.954L348.368,46.7h-7.1l-4.08-5.238-.556-4.954h1.028Z" transform="translate(1143.669 785.026)" fill="#040506" fill-rule="evenodd"/>
    <path id="Trazado_56416" data-name="Trazado 56416" d="M340.767,40.373l.03-3.353-4.318-2.846c-.287-.191-.882-.907-.707-1.2a2.58,2.58,0,1,0-4.736-.734,2.58,2.58,0,1,0,2.513,4.1c.206-.272,1.094,0,1.378.186Z" transform="translate(1138.565 780.119)" fill="#040506" fill-rule="evenodd"/>
    <path id="Trazado_56417" data-name="Trazado 56417" d="M347.09,40.373l-.032-3.353,4.318-2.846c.289-.191.884-.907.708-1.2a2.58,2.58,0,1,1,4.736-.734,2.58,2.58,0,1,1-2.511,4.1c-.208-.272-1.1,0-1.38.186Z" transform="translate(1150.555 780.119)" fill="#040506" fill-rule="evenodd"/>
    <path id="Trazado_56418" data-name="Trazado 56418" d="M340.767,36.97l.03,3.353-4.318,2.848c-.287.189-.882.907-.707,1.2a2.58,2.58,0,1,1-4.736.732,2.581,2.581,0,1,1,2.513-4.1c.206.274,1.094,0,1.378-.184Z" transform="translate(1138.565 785.334)" fill="#040506" fill-rule="evenodd"/>
    <path id="Trazado_56419" data-name="Trazado 56419" d="M347.09,36.97l-.032,3.353,4.318,2.848c.289.189.884.907.708,1.2a2.58,2.58,0,1,0,4.736.732,2.58,2.58,0,1,0-2.511-4.1c-.208.274-1.1,0-1.38-.184Z" transform="translate(1150.555 785.334)" fill="#040506" fill-rule="evenodd"/>
    <path id="Trazado_56412-2" data-name="Trazado 56412" d="M363.186,2.05l41.3,74.627a4.1,4.1,0,0,1-3.552,6.151h-82.61a4.1,4.1,0,0,1-3.552-6.151L356.083,2.05a4.1,4.1,0,0,1,7.1,0" transform="translate(1128.854 866.001)" fill="#040506" fill-rule="evenodd"/>
    <path id="Trazado_56413-2" data-name="Trazado 56413" d="M356.494,5.274,317.572,72.687a1.187,1.187,0,0,0,1.028,1.78h77.842a1.187,1.187,0,0,0,1.028-1.78L358.548,5.274a1.186,1.186,0,0,0-2.054,0" transform="translate(1130.968 869.095)" fill="#ffe500" fill-rule="evenodd"/>
    <path id="Trazado_56414-2" data-name="Trazado 56414" d="M346.143,37.9l-1.895,4.208h3.79Zm6.751,4.426h0l-1.372,4.436H340.764l-1.372-4.436a12.316,12.316,0,0,1-4.761-9.783,11.531,11.531,0,1,1,23.024,0,12.312,12.312,0,0,1-4.761,9.783m-1.4-10.3h0a3.461,3.461,0,1,1-3.461,3.461,3.458,3.458,0,0,1,3.461-3.461m-10.71,0h0a3.461,3.461,0,1,1-3.461,3.461,3.458,3.458,0,0,1,3.461-3.461" transform="translate(1142.345 879.443)" fill="#040506" fill-rule="evenodd"/>
    <path id="Trazado_56415-2" data-name="Trazado 56415" d="M339.163,39.289h11.313l1.5-2.785H353l-.556,4.954L348.368,46.7h-7.1l-4.08-5.238-.556-4.954h1.028Z" transform="translate(1143.669 890.121)" fill="#040506" fill-rule="evenodd"/>
    <path id="Trazado_56416-2" data-name="Trazado 56416" d="M340.767,40.373l.03-3.353-4.318-2.846c-.287-.191-.882-.907-.707-1.2a2.58,2.58,0,1,0-4.736-.734,2.58,2.58,0,1,0,2.513,4.1c.206-.272,1.094,0,1.378.186Z" transform="translate(1138.565 885.213)" fill="#040506" fill-rule="evenodd"/>
    <path id="Trazado_56417-2" data-name="Trazado 56417" d="M347.09,40.373l-.032-3.353,4.318-2.846c.289-.191.884-.907.708-1.2a2.58,2.58,0,1,1,4.736-.734,2.58,2.58,0,1,1-2.511,4.1c-.208-.272-1.1,0-1.38.186Z" transform="translate(1150.555 885.213)" fill="#040506" fill-rule="evenodd"/>
    <path id="Trazado_56418-2" data-name="Trazado 56418" d="M340.767,36.97l.03,3.353-4.318,2.848c-.287.189-.882.907-.707,1.2a2.58,2.58,0,1,1-4.736.732,2.581,2.581,0,1,1,2.513-4.1c.206.274,1.094,0,1.378-.184Z" transform="translate(1138.565 890.428)" fill="#040506" fill-rule="evenodd"/>
    <path id="Trazado_56419-2" data-name="Trazado 56419" d="M347.09,36.97l-.032,3.353,4.318,2.848c.289.189.884.907.708,1.2a2.58,2.58,0,1,0,4.736.732,2.58,2.58,0,1,0-2.511-4.1c-.208.274-1.1,0-1.38-.184Z" transform="translate(1150.555 890.428)" fill="#040506" fill-rule="evenodd"/>
    <path id="Trazado_56412-3" data-name="Trazado 56412" d="M363.186,2.05l41.3,74.627a4.1,4.1,0,0,1-3.552,6.151h-82.61a4.1,4.1,0,0,1-3.552-6.151L356.083,2.05a4.1,4.1,0,0,1,7.1,0" transform="translate(1128.854 971.096)" fill="#040506" fill-rule="evenodd"/>
    <path id="Trazado_56413-3" data-name="Trazado 56413" d="M356.494,5.274,317.572,72.687a1.187,1.187,0,0,0,1.028,1.78h77.842a1.187,1.187,0,0,0,1.028-1.78L358.548,5.274a1.186,1.186,0,0,0-2.054,0" transform="translate(1130.968 974.189)" fill="#ffe500" fill-rule="evenodd"/>
    <path id="Trazado_56412-4" data-name="Trazado 56412" d="M363.186,2.05l41.3,74.627a4.1,4.1,0,0,1-3.552,6.151h-82.61a4.1,4.1,0,0,1-3.552-6.151L356.083,2.05a4.1,4.1,0,0,1,7.1,0" transform="translate(82.788 760.907)" fill="#040506" fill-rule="evenodd"/>
    <path id="Trazado_56413-4" data-name="Trazado 56413" d="M356.494,5.274,317.572,72.687a1.187,1.187,0,0,0,1.028,1.78h77.842a1.187,1.187,0,0,0,1.028-1.78L358.548,5.274a1.186,1.186,0,0,0-2.054,0" transform="translate(84.901 764)" fill="#ffe500" fill-rule="evenodd"/>
    <path id="Trazado_56414-3" data-name="Trazado 56414" d="M346.143,37.9l-1.895,4.208h3.79Zm6.751,4.426h0l-1.372,4.436H340.764l-1.372-4.436a12.316,12.316,0,0,1-4.761-9.783,11.531,11.531,0,1,1,23.024,0,12.312,12.312,0,0,1-4.761,9.783m-1.4-10.3h0a3.461,3.461,0,1,1-3.461,3.461,3.458,3.458,0,0,1,3.461-3.461m-10.71,0h0a3.461,3.461,0,1,1-3.461,3.461,3.458,3.458,0,0,1,3.461-3.461" transform="translate(96.278 774.349)" fill="#040506" fill-rule="evenodd"/>
    <path id="Trazado_56415-3" data-name="Trazado 56415" d="M339.163,39.289h11.313l1.5-2.785H353l-.556,4.954L348.368,46.7h-7.1l-4.08-5.238-.556-4.954h1.028Z" transform="translate(97.603 785.026)" fill="#040506" fill-rule="evenodd"/>
    <path id="Trazado_56416-3" data-name="Trazado 56416" d="M340.767,40.373l.03-3.353-4.318-2.846c-.287-.191-.882-.907-.707-1.2a2.58,2.58,0,1,0-4.736-.734,2.58,2.58,0,1,0,2.513,4.1c.206-.272,1.094,0,1.378.186Z" transform="translate(92.499 780.119)" fill="#040506" fill-rule="evenodd"/>
    <path id="Trazado_56417-3" data-name="Trazado 56417" d="M347.09,40.373l-.032-3.353,4.318-2.846c.289-.191.884-.907.708-1.2a2.58,2.58,0,1,1,4.736-.734,2.58,2.58,0,1,1-2.511,4.1c-.208-.272-1.1,0-1.38.186Z" transform="translate(104.489 780.119)" fill="#040506" fill-rule="evenodd"/>
    <path id="Trazado_56418-3" data-name="Trazado 56418" d="M340.767,36.97l.03,3.353-4.318,2.848c-.287.189-.882.907-.707,1.2a2.58,2.58,0,1,1-4.736.732,2.581,2.581,0,1,1,2.513-4.1c.206.274,1.094,0,1.378-.184Z" transform="translate(92.499 785.334)" fill="#040506" fill-rule="evenodd"/>
    <path id="Trazado_56419-3" data-name="Trazado 56419" d="M347.09,36.97l-.032,3.353,4.318,2.848c.289.189.884.907.708,1.2a2.58,2.58,0,1,0,4.736.732,2.58,2.58,0,1,0-2.511-4.1c-.208.274-1.1,0-1.38-.184Z" transform="translate(104.489 785.334)" fill="#040506" fill-rule="evenodd"/>
    <path id="Trazado_56412-5" data-name="Trazado 56412" d="M363.186,2.05l41.3,74.627a4.1,4.1,0,0,1-3.552,6.151h-82.61a4.1,4.1,0,0,1-3.552-6.151L356.083,2.05a4.1,4.1,0,0,1,7.1,0" transform="translate(82.788 866.001)" fill="#040506" fill-rule="evenodd"/>
    <path id="Trazado_56413-5" data-name="Trazado 56413" d="M356.494,5.274,317.572,72.687a1.187,1.187,0,0,0,1.028,1.78h77.842a1.187,1.187,0,0,0,1.028-1.78L358.548,5.274a1.186,1.186,0,0,0-2.054,0" transform="translate(84.901 869.095)" fill="#ffe500" fill-rule="evenodd"/>
    <path id="Trazado_56414-4" data-name="Trazado 56414" d="M346.143,37.9l-1.895,4.208h3.79Zm6.751,4.426h0l-1.372,4.436H340.764l-1.372-4.436a12.316,12.316,0,0,1-4.761-9.783,11.531,11.531,0,1,1,23.024,0,12.312,12.312,0,0,1-4.761,9.783m-1.4-10.3h0a3.461,3.461,0,1,1-3.461,3.461,3.458,3.458,0,0,1,3.461-3.461m-10.71,0h0a3.461,3.461,0,1,1-3.461,3.461,3.458,3.458,0,0,1,3.461-3.461" transform="translate(96.278 879.443)" fill="#040506" fill-rule="evenodd"/>
    <path id="Trazado_56415-4" data-name="Trazado 56415" d="M339.163,39.289h11.313l1.5-2.785H353l-.556,4.954L348.368,46.7h-7.1l-4.08-5.238-.556-4.954h1.028Z" transform="translate(97.603 890.121)" fill="#040506" fill-rule="evenodd"/>
    <path id="Trazado_56416-4" data-name="Trazado 56416" d="M340.767,40.373l.03-3.353-4.318-2.846c-.287-.191-.882-.907-.707-1.2a2.58,2.58,0,1,0-4.736-.734,2.58,2.58,0,1,0,2.513,4.1c.206-.272,1.094,0,1.378.186Z" transform="translate(92.499 885.213)" fill="#040506" fill-rule="evenodd"/>
    <path id="Trazado_56417-4" data-name="Trazado 56417" d="M347.09,40.373l-.032-3.353,4.318-2.846c.289-.191.884-.907.708-1.2a2.58,2.58,0,1,1,4.736-.734,2.58,2.58,0,1,1-2.511,4.1c-.208-.272-1.1,0-1.38.186Z" transform="translate(104.489 885.213)" fill="#040506" fill-rule="evenodd"/>
    <path id="Trazado_56418-4" data-name="Trazado 56418" d="M340.767,36.97l.03,3.353-4.318,2.848c-.287.189-.882.907-.707,1.2a2.58,2.58,0,1,1-4.736.732,2.581,2.581,0,1,1,2.513-4.1c.206.274,1.094,0,1.378-.184Z" transform="translate(92.499 890.428)" fill="#040506" fill-rule="evenodd"/>
    <path id="Trazado_56419-4" data-name="Trazado 56419" d="M347.09,36.97l-.032,3.353,4.318,2.848c.289.189.884.907.708,1.2a2.58,2.58,0,1,0,4.736.732,2.58,2.58,0,1,0-2.511-4.1c-.208.274-1.1,0-1.38-.184Z" transform="translate(104.489 890.428)" fill="#040506" fill-rule="evenodd"/>
    <path id="Trazado_56539" data-name="Trazado 56539" d="M359.264,4.572H361V17h-1.89l-6.5-9.861V17h-1.731V4.572h1.872l6.5,9.817Zm8.771,12.595a4.274,4.274,0,0,1-4.456-4.526,4.456,4.456,0,1,1,8.9,0,4.423,4.423,0,0,1-1.248,3.292A4.356,4.356,0,0,1,368.035,17.167Zm-.018-1.389a2.6,2.6,0,0,0,2-.866,3.237,3.237,0,0,0,.791-2.272,3.221,3.221,0,0,0-.791-2.268,2.6,2.6,0,0,0-2-.861,2.556,2.556,0,0,0-1.978.861,3.243,3.243,0,0,0-.782,2.268,3.259,3.259,0,0,0,.782,2.272A2.55,2.55,0,0,0,368.018,15.778Zm8.4-5.968A2.547,2.547,0,0,1,377.5,8.659a3.341,3.341,0,0,1,1.688-.457V9.767a2.924,2.924,0,0,0-2.03.624,2.63,2.63,0,0,0-.686,2.03V17h-1.687V8.3h1.635Zm13.658-1.687a2.88,2.88,0,0,1,2.061.734,2.708,2.708,0,0,1,.778,2.07V17h-1.687V11.375a1.883,1.883,0,0,0-.461-1.38,1.571,1.571,0,0,0-1.165-.466,1.7,1.7,0,0,0-1.31.541,2.326,2.326,0,0,0-.5,1.63V17h-1.714V11.437a1.975,1.975,0,0,0-.466-1.424,1.577,1.577,0,0,0-1.187-.483,1.686,1.686,0,0,0-1.305.554,2.421,2.421,0,0,0-.505,1.679V17h-1.679V8.3h1.679V9.406a2.675,2.675,0,0,1,2.408-1.283,3.069,3.069,0,0,1,1.512.36,2.283,2.283,0,0,1,.976,1.046,2.76,2.76,0,0,1,1.063-1.046A3.082,3.082,0,0,1,390.078,8.123Zm7.734,9.044a3.515,3.515,0,0,1-1.332-.237,2.1,2.1,0,0,1-.958-.787,2.359,2.359,0,0,1-.374-1.358,2.527,2.527,0,0,1,.242-1.143,1.985,1.985,0,0,1,.721-.791,4.615,4.615,0,0,1,1.028-.492,8.947,8.947,0,0,1,1.314-.316l1.371-.237q.791-.149.791-.8a1.426,1.426,0,0,0-.527-1.226,2.152,2.152,0,0,0-1.318-.391,2.2,2.2,0,0,0-1.336.387,1.65,1.65,0,0,0-.624,1.2l-1.521-.308a2.742,2.742,0,0,1,1.121-1.9,4.2,4.2,0,0,1,2.439-.633,5.653,5.653,0,0,1,1.028.088,3.5,3.5,0,0,1,.918.308,2.561,2.561,0,0,1,.756.558,2.5,2.5,0,0,1,.5.87,3.6,3.6,0,0,1,.189,1.208V14.7a1.422,1.422,0,0,0,.2.883.841.841,0,0,0,.672.233h.132V17h-.817a1.49,1.49,0,0,1-1.687-1.169h-.079a2.953,2.953,0,0,1-1.244,1.011A4,4,0,0,1,397.813,17.167Zm.387-1.345a2.327,2.327,0,0,0,1.833-.8,3.163,3.163,0,0,0,.708-2.167l-2.276.466a2.9,2.9,0,0,0-1.257.453,1.042,1.042,0,0,0-.413.883,1.023,1.023,0,0,0,.391.879A1.661,1.661,0,0,0,398.2,15.822ZM418.432,17l-1.037-2.9H411.84L410.8,17h-1.819l4.579-12.428h2.109L420.251,17Zm-6.047-4.43h4.465L414.617,6.3Zm14.15-4.447a3.088,3.088,0,0,1,2.228.787,2.939,2.939,0,0,1,.822,2.228V17h-1.7V11.516a1.976,1.976,0,0,0-.514-1.5,1.844,1.844,0,0,0-1.323-.488,2.066,2.066,0,0,0-1.521.584,2.384,2.384,0,0,0-.6,1.745V17h-1.687V8.3h1.688V9.371a2.817,2.817,0,0,1,1.094-.923A3.417,3.417,0,0,1,426.535,8.123ZM438.822,3.5h1.688V17h-1.626l-.044-1.582a3.032,3.032,0,0,1-1.213,1.292,3.493,3.493,0,0,1-1.8.475,3.987,3.987,0,0,1-2.887-1.222,4.181,4.181,0,0,1-.883-1.437,5.248,5.248,0,0,1-.325-1.876,4.974,4.974,0,0,1,.558-2.386,3.916,3.916,0,0,1,3.538-2.14,3.505,3.505,0,0,1,1.784.461,3.047,3.047,0,0,1,1.213,1.261Zm-2.637,12.243a2.526,2.526,0,0,0,1.96-.883,3.19,3.19,0,0,0,.791-2.21,3.164,3.164,0,0,0-.8-2.206,2.535,2.535,0,0,0-1.956-.879,2.589,2.589,0,0,0-1.973.853,3.141,3.141,0,0,0-.8,2.232,3.157,3.157,0,0,0,.8,2.237A2.583,2.583,0,0,0,436.186,15.743Zm8.209-9.369a1.071,1.071,0,0,1-.778-.325,1.049,1.049,0,0,1-.33-.773,1.035,1.035,0,0,1,.33-.769,1.078,1.078,0,0,1,.778-.321,1.1,1.1,0,0,1,1.09,1.09,1.1,1.1,0,0,1-1.09,1.1ZM443.533,17V8.3h1.7V17Zm9.009-8.877a3.088,3.088,0,0,1,2.228.787,2.939,2.939,0,0,1,.822,2.228V17h-1.7V11.516a1.976,1.976,0,0,0-.514-1.5,1.844,1.844,0,0,0-1.323-.488,2.066,2.066,0,0,0-1.521.584,2.384,2.384,0,0,0-.6,1.745V17h-1.687V8.3h1.688V9.371a2.817,2.817,0,0,1,1.094-.923A3.417,3.417,0,0,1,452.542,8.123Zm7.928,9.044a3.515,3.515,0,0,1-1.332-.237,2.1,2.1,0,0,1-.958-.787,2.359,2.359,0,0,1-.374-1.358,2.527,2.527,0,0,1,.242-1.143,1.985,1.985,0,0,1,.721-.791,4.615,4.615,0,0,1,1.028-.492,8.947,8.947,0,0,1,1.314-.316l1.371-.237q.791-.149.791-.8a1.426,1.426,0,0,0-.527-1.226,2.152,2.152,0,0,0-1.318-.391,2.2,2.2,0,0,0-1.336.387,1.65,1.65,0,0,0-.624,1.2l-1.521-.308a2.742,2.742,0,0,1,1.121-1.9,4.2,4.2,0,0,1,2.439-.633,5.653,5.653,0,0,1,1.028.088,3.5,3.5,0,0,1,.918.308,2.561,2.561,0,0,1,.756.558,2.5,2.5,0,0,1,.5.87,3.6,3.6,0,0,1,.189,1.208V14.7a1.422,1.422,0,0,0,.2.883.841.841,0,0,0,.672.233h.132V17h-.817a1.49,1.49,0,0,1-1.687-1.169h-.079a2.953,2.953,0,0,1-1.244,1.011A4,4,0,0,1,460.47,17.167Zm.387-1.345a2.327,2.327,0,0,0,1.833-.8,3.163,3.163,0,0,0,.708-2.167l-2.276.466a2.9,2.9,0,0,0-1.257.453,1.042,1.042,0,0,0-.413.883,1.023,1.023,0,0,0,.391.879A1.661,1.661,0,0,0,460.856,15.822ZM479.05,3.5h1.688V17h-1.626l-.044-1.582a3.032,3.032,0,0,1-1.213,1.292,3.493,3.493,0,0,1-1.8.475,3.987,3.987,0,0,1-2.887-1.222,4.181,4.181,0,0,1-.883-1.437,5.248,5.248,0,0,1-.325-1.876,4.974,4.974,0,0,1,.558-2.386,3.916,3.916,0,0,1,3.538-2.14,3.505,3.505,0,0,1,1.784.461,3.047,3.047,0,0,1,1.213,1.261Zm-2.637,12.243a2.526,2.526,0,0,0,1.96-.883,3.19,3.19,0,0,0,.791-2.21,3.164,3.164,0,0,0-.8-2.206,2.535,2.535,0,0,0-1.956-.879,2.589,2.589,0,0,0-1.973.853,3.141,3.141,0,0,0-.8,2.232,3.157,3.157,0,0,0,.8,2.237A2.583,2.583,0,0,0,476.413,15.743Zm15.064-3.261-.026.448H484.71a2.947,2.947,0,0,0,.809,2.118,2.637,2.637,0,0,0,1.907.738,2.513,2.513,0,0,0,1.389-.4,2.587,2.587,0,0,0,.949-1.107l1.529.3a3.865,3.865,0,0,1-1.49,1.894,4.15,4.15,0,0,1-2.36.69,4.3,4.3,0,0,1-3.177-1.208,4.471,4.471,0,0,1-1.208-3.309,4.481,4.481,0,0,1,1.213-3.309,4.215,4.215,0,0,1,3.12-1.217,4,4,0,0,1,2.962,1.116A4.42,4.42,0,0,1,491.478,12.482ZM487.4,9.406a2.484,2.484,0,0,0-2.619,2.241h5a2.451,2.451,0,0,0-.747-1.67A2.366,2.366,0,0,0,487.4,9.406Zm10.046,7.752a4.265,4.265,0,0,1-3.16-1.252,4.433,4.433,0,0,1-1.244-3.265,4.433,4.433,0,0,1,1.244-3.265,4.632,4.632,0,0,1,5.73-.479,3.832,3.832,0,0,1,1.463,2.162l-1.573.237a2.56,2.56,0,0,0-.945-1.323,2.594,2.594,0,0,0-1.534-.461,2.47,2.47,0,0,0-1.938.861,3.3,3.3,0,0,0-.76,2.268,3.3,3.3,0,0,0,.76,2.263,2.465,2.465,0,0,0,1.938.866,2.594,2.594,0,0,0,1.534-.461,2.56,2.56,0,0,0,.945-1.323l1.573.237a3.836,3.836,0,0,1-1.472,2.158A4.282,4.282,0,0,1,497.445,17.158Zm7.066-10.784a1.071,1.071,0,0,1-.778-.325,1.049,1.049,0,0,1-.33-.773,1.035,1.035,0,0,1,.33-.769,1.078,1.078,0,0,1,.778-.321,1.1,1.1,0,0,1,1.09,1.09,1.1,1.1,0,0,1-1.09,1.1ZM503.65,17V8.3h1.7V17Zm7.523.167a4.249,4.249,0,0,1-2.382-.624,2.574,2.574,0,0,1-1.151-1.793l1.45-.413a1.872,1.872,0,0,0,.708,1.173,2.226,2.226,0,0,0,1.367.409,2.191,2.191,0,0,0,1.187-.3,1.017,1.017,0,0,0,.466-.962,1.334,1.334,0,0,0-.07-.387.727.727,0,0,0-.22-.312,3.514,3.514,0,0,0-.3-.233,1.918,1.918,0,0,0-.422-.2q-.281-.1-.461-.163t-.554-.167q-.374-.105-.576-.167a7.278,7.278,0,0,1-.879-.316,3.961,3.961,0,0,1-.721-.431,1.7,1.7,0,0,1-.554-.686,2.352,2.352,0,0,1-.185-.967,2.138,2.138,0,0,1,.879-1.859,3.776,3.776,0,0,1,2.25-.628,3.869,3.869,0,0,1,2.149.567,2.438,2.438,0,0,1,1.077,1.709l-1.362.334a1.626,1.626,0,0,0-.655-1.059A2.275,2.275,0,0,0,509.9,9.63a1.052,1.052,0,0,0-.312,1.411,1.113,1.113,0,0,0,.448.378,4.111,4.111,0,0,0,.606.246q.308.1.756.211.123.026.185.044.5.123.835.233a5.249,5.249,0,0,1,.751.325,2.617,2.617,0,0,1,.672.475,2.124,2.124,0,0,1,.431.681,2.447,2.447,0,0,1,.176.949,2.63,2.63,0,0,1-.176.984,2.086,2.086,0,0,1-.479.734,2.636,2.636,0,0,1-.725.492,3.69,3.69,0,0,1-.892.286A5.476,5.476,0,0,1,511.174,17.167Zm6.434-10.793a1.071,1.071,0,0,1-.778-.325,1.049,1.049,0,0,1-.33-.773,1.035,1.035,0,0,1,.33-.769,1.078,1.078,0,0,1,.778-.321,1.1,1.1,0,0,1,1.09,1.09,1.1,1.1,0,0,1-1.09,1.1ZM516.746,17V8.3h1.7V17Zm7.84-10.151,2.224-2.927.879.642L525.72,6.849Zm.615,10.318a4.274,4.274,0,0,1-4.456-4.526,4.456,4.456,0,1,1,8.9,0,4.423,4.423,0,0,1-1.248,3.292A4.356,4.356,0,0,1,525.2,17.167Zm-.018-1.389a2.6,2.6,0,0,0,2-.866,3.237,3.237,0,0,0,.791-2.272,3.221,3.221,0,0,0-.791-2.268,2.6,2.6,0,0,0-2-.861,2.556,2.556,0,0,0-1.978.861,3.243,3.243,0,0,0-.782,2.268,3.259,3.259,0,0,0,.782,2.272A2.55,2.55,0,0,0,525.184,15.778ZM536.24,8.123a3.088,3.088,0,0,1,2.228.787,2.939,2.939,0,0,1,.822,2.228V17h-1.7V11.516a1.976,1.976,0,0,0-.514-1.5,1.844,1.844,0,0,0-1.323-.488,2.066,2.066,0,0,0-1.521.584,2.384,2.384,0,0,0-.6,1.745V17h-1.687V8.3h1.688V9.371a2.817,2.817,0,0,1,1.094-.923A3.417,3.417,0,0,1,536.24,8.123Zm18.914,4.86V14.53h-1.846V17h-1.687V14.53h-5.906V12.975l5.036-8.4h2.558v8.411Zm-7.726,0h4.192V5.759Zm13.157,4.184q-4.192,0-4.192-4.447l1.714-.088a3.845,3.845,0,0,0,.549,2.276,2.243,2.243,0,0,0,1.929.747,2.628,2.628,0,0,0,1.85-.642,2.172,2.172,0,0,0,.7-1.679,2.173,2.173,0,0,0-.672-1.687,2.422,2.422,0,0,0-1.7-.615h-.6v-1.4h.58a1.743,1.743,0,0,0,1.3-.554,1.883,1.883,0,0,0,.536-1.362,1.659,1.659,0,0,0-.571-1.31,2.119,2.119,0,0,0-1.45-.5,1.7,1.7,0,0,0-1.525.646,3.172,3.172,0,0,0-.435,1.789l-1.714-.062a4.009,4.009,0,0,1,.954-2.874,3.553,3.553,0,0,1,2.7-1,3.8,3.8,0,0,1,2.6.914A2.906,2.906,0,0,1,564.181,7.6a2.708,2.708,0,0,1-.5,1.617,2.808,2.808,0,0,1-1.217.993,3.368,3.368,0,0,1,1.718,1.116,3.171,3.171,0,0,1,.672,2.083,3.433,3.433,0,0,1-1.2,2.725A4.525,4.525,0,0,1,560.586,17.167Zm14.643-4.315a4.377,4.377,0,0,1-.33,1.749,3.887,3.887,0,0,1-.932,1.362,4.391,4.391,0,0,1-1.389.87,4.511,4.511,0,0,1-1.683.316,4.656,4.656,0,0,1-2.21-.527,4,4,0,0,1-1.582-1.494,4.146,4.146,0,0,1-.584-2.188A4.972,4.972,0,0,1,567.6,9.951l4.113-5.379h1.969l-3.4,4.315a3.871,3.871,0,0,1,.976-.123,3.961,3.961,0,0,1,1.925.483,3.84,3.84,0,0,1,1.459,1.433A4.249,4.249,0,0,1,575.229,12.852Zm-4.377,2.733a2.688,2.688,0,0,0,1.973-.76,2.642,2.642,0,0,0,.751-2.008,2.614,2.614,0,0,0-2.733-2.751,2.589,2.589,0,0,0-1.96.813,2.748,2.748,0,0,0-.765,1.991,2.656,2.656,0,0,0,.765,1.991A2.726,2.726,0,0,0,570.852,15.585Z" transform="translate(498 1227)" fill="#00223d"/>
    <path id="Trazado_56477" data-name="Trazado 56477" d="M-28.164,0-29.8-4.656h-9.484L-40.93,0h-4.8l8.313-22.578h5.734L-23.367,0Zm-9.75-8.578h6.734l-3.359-9.578Zm27.063-7.8a5.7,5.7,0,0,1,4.242,1.523A6.13,6.13,0,0,1-5.1-10.359V0H-9.617V-9.625a3.147,3.147,0,0,0-.8-2.4,2.993,2.993,0,0,0-2.125-.742,4.1,4.1,0,0,0-1.258.188,3.6,3.6,0,0,0-1.117.6,2.72,2.72,0,0,0-.836,1.211,5.563,5.563,0,0,0-.32,1.906V0h-4.5V-24h4.5v9.859A6.358,6.358,0,0,1-10.852-16.375ZM6.711.313A10.1,10.1,0,0,1,2.164-.672,7.357,7.357,0,0,1-.953-3.562,8.614,8.614,0,0,1-2.086-8.047,7.857,7.857,0,0,1,.352-14.141a9.043,9.043,0,0,1,6.359-2.234,9.065,9.065,0,0,1,6.375,2.234,7.857,7.857,0,0,1,2.438,6.094A7.9,7.9,0,0,1,13.086-1.93,9.046,9.046,0,0,1,6.711.313ZM6.664-3.266a4.123,4.123,0,0,0,3.18-1.312,4.913,4.913,0,0,0,1.211-3.469,4.913,4.913,0,0,0-1.211-3.469,4.123,4.123,0,0,0-3.18-1.312,3.972,3.972,0,0,0-3.086,1.32,4.959,4.959,0,0,0-1.2,3.461,4.959,4.959,0,0,0,1.2,3.461A3.972,3.972,0,0,0,6.664-3.266ZM23.18-13.516a5.214,5.214,0,0,1,2.109-1.93,6.436,6.436,0,0,1,3.141-.8v4.016a6.085,6.085,0,0,0-3.844.969A4.229,4.229,0,0,0,23.4-7.828V0H18.867V-16.062H23.18ZM44.148-4.359a15.027,15.027,0,0,0,.391,3.922V0h-4.2l-.359-1.75A5.223,5.223,0,0,1,37.727-.2,8.292,8.292,0,0,1,34.82.313a7.642,7.642,0,0,1-1.5-.141A5.1,5.1,0,0,1,31.969-.3a4.1,4.1,0,0,1-1.117-.836,3.666,3.666,0,0,1-.75-1.273,5.073,5.073,0,0,1-.281-1.742,4.831,4.831,0,0,1,.3-1.742A4.083,4.083,0,0,1,30.9-7.2a4.739,4.739,0,0,1,1.266-.953,9.684,9.684,0,0,1,1.594-.687,19.043,19.043,0,0,1,1.906-.5L38.3-9.937a2.912,2.912,0,0,0,1.2-.508,1.013,1.013,0,0,0,.352-.8,1.658,1.658,0,0,0-.789-1.547,3.684,3.684,0,0,0-1.914-.469q-2.766,0-3.141,2.453l-3.984-.719A5.394,5.394,0,0,1,32.352-15.2a9.253,9.253,0,0,1,5.047-1.18q6.75,0,6.75,5.8ZM36.227-2.734A3.619,3.619,0,0,0,39.008-3.9a4.905,4.905,0,0,0,1.078-3.445L36.273-6.266a4.506,4.506,0,0,0-1.6.656,1.348,1.348,0,0,0-.555,1.156,1.5,1.5,0,0,0,.594,1.273A2.457,2.457,0,0,0,36.227-2.734Zm-95.8,13.156a6.8,6.8,0,0,1,5.2,2.1,7.31,7.31,0,0,1,1.969,5.2,7.13,7.13,0,0,1-1.953,5.164,6.918,6.918,0,0,1-5.219,2.023h-4.7V33h-4.687V10.422Zm-.781,10.563a3.445,3.445,0,0,0,2.578-.883,3.357,3.357,0,0,0,.859-2.445,3.329,3.329,0,0,0-.867-2.414,3.414,3.414,0,0,0-2.57-.9h-3.922v6.641Zm25.859,3.75-.047,1.078H-46.453a4.158,4.158,0,0,0,1.281,2.938,4.1,4.1,0,0,0,2.828,1.016,3.949,3.949,0,0,0,2.117-.555,3.41,3.41,0,0,0,1.352-1.617l4.125.609a7.013,7.013,0,0,1-2.812,3.766,8.362,8.362,0,0,1-4.75,1.344A8.7,8.7,0,0,1-48.57,31.1a8.067,8.067,0,0,1-2.32-6.133,8.115,8.115,0,0,1,2.328-6.133,8.437,8.437,0,0,1,6.109-2.242,8.063,8.063,0,0,1,5.766,2.047Q-34.516,20.688-34.5,24.734Zm-7.922-4.953a3.556,3.556,0,0,0-3.906,3.094h7.375a3.383,3.383,0,0,0-1.109-2.3A3.516,3.516,0,0,0-42.422,19.781ZM-31.078,33V9h4.547V33Zm11.5-18.469a2.526,2.526,0,0,1-1.844-.758,2.488,2.488,0,0,1-.766-1.836,2.457,2.457,0,0,1,.773-1.82,2.534,2.534,0,0,1,1.836-.758,2.49,2.49,0,0,1,1.813.758A2.47,2.47,0,0,1-17,11.938a2.488,2.488,0,0,1-.766,1.836A2.49,2.49,0,0,1-19.578,14.531ZM-21.875,33V16.938h4.531V33Zm20.25-16.062H2.656V31.8a12.016,12.016,0,0,1-.6,4A6.6,6.6,0,0,1,.313,38.539a7.262,7.262,0,0,1-2.672,1.539,11.264,11.264,0,0,1-3.5.5q-6.359,0-8.281-4.984L-10.406,34a5.449,5.449,0,0,0,1.734,2.328,4.421,4.421,0,0,0,2.641.75q4.172,0,4.172-4.953V30.25a5.06,5.06,0,0,1-2.023,1.586,6.727,6.727,0,0,1-2.852.6,7.109,7.109,0,0,1-2.82-.57,7.164,7.164,0,0,1-2.336-1.594,7.42,7.42,0,0,1-1.586-2.523,8.855,8.855,0,0,1-.586-3.25,8.837,8.837,0,0,1,.586-3.258,7.121,7.121,0,0,1,1.594-2.492,7.334,7.334,0,0,1,2.344-1.562A7.233,7.233,0,0,1-6.7,16.625a6.532,6.532,0,0,1,2.977.664,4.747,4.747,0,0,1,1.992,1.773Zm-6.9,10.625A3.938,3.938,0,0,0-5.578,28.8a3.939,3.939,0,0,0,2.953-1.25,4.23,4.23,0,0,0,1.2-3.047,4.264,4.264,0,0,0-1.2-3.062,3.932,3.932,0,0,0-2.961-1.25,3.937,3.937,0,0,0-2.961,1.227A4.273,4.273,0,0,0-9.719,24.5,4.23,4.23,0,0,0-8.523,27.563Zm20.164-8.078a5.214,5.214,0,0,1,2.109-1.93,6.436,6.436,0,0,1,3.141-.8v4.016a6.085,6.085,0,0,0-3.844.969,4.229,4.229,0,0,0-1.187,3.438V33H7.328V16.938h4.313ZM26.922,33.313a10.1,10.1,0,0,1-4.547-.984,7.357,7.357,0,0,1-3.117-2.891,8.614,8.614,0,0,1-1.133-4.484,7.857,7.857,0,0,1,2.438-6.094,9.043,9.043,0,0,1,6.359-2.234A9.065,9.065,0,0,1,33.3,18.859a7.857,7.857,0,0,1,2.438,6.094A7.9,7.9,0,0,1,33.3,31.07,9.046,9.046,0,0,1,26.922,33.313Zm-.047-3.578a4.123,4.123,0,0,0,3.18-1.312,4.913,4.913,0,0,0,1.211-3.469,4.913,4.913,0,0,0-1.211-3.469,4.123,4.123,0,0,0-3.18-1.312,3.972,3.972,0,0,0-3.086,1.32,4.959,4.959,0,0,0-1.2,3.461,4.959,4.959,0,0,0,1.2,3.461A3.972,3.972,0,0,0,26.875,29.734Zm17.859,3.578a8.977,8.977,0,0,1-4.687-1.125,4.755,4.755,0,0,1-2.3-3.344l3.766-1.062a3.026,3.026,0,0,0,3.219,2.391,3.324,3.324,0,0,0,1.641-.367,1.278,1.278,0,0,0,.641-1.242,1.314,1.314,0,0,0-.266-.828,2.1,2.1,0,0,0-.82-.594,10.22,10.22,0,0,0-1.094-.422q-.539-.172-1.43-.414t-1.484-.461a9.944,9.944,0,0,1-1.414-.6,6.031,6.031,0,0,1-1.172-.828,3.338,3.338,0,0,1-.875-1.258,4.537,4.537,0,0,1-.3-1.719A4.1,4.1,0,0,1,39.9,17.844a7.784,7.784,0,0,1,4.555-1.219,7.981,7.981,0,0,1,4.2,1.031,4.667,4.667,0,0,1,2.156,3.219l-3.484.781a2.729,2.729,0,0,0-2.859-2.031,3.131,3.131,0,0,0-1.578.359,1.155,1.155,0,0,0-.625,1.063,1.217,1.217,0,0,0,.094.484.959.959,0,0,0,.328.391,4.786,4.786,0,0,0,.453.3,3.418,3.418,0,0,0,.641.258q.422.133.7.2t.82.211l.836.219q.859.234,1.508.469a8.831,8.831,0,0,1,1.383.656,4.963,4.963,0,0,1,1.211.945,4.216,4.216,0,0,1,.789,1.328,4.905,4.905,0,0,1,.313,1.789,4.832,4.832,0,0,1-.539,2.328,4.046,4.046,0,0,1-1.477,1.57,7.187,7.187,0,0,1-2.086.844A10.821,10.821,0,0,1,44.734,33.313Zm17.328,0a10.1,10.1,0,0,1-4.547-.984A7.357,7.357,0,0,1,54.4,29.438a8.615,8.615,0,0,1-1.133-4.484A7.857,7.857,0,0,1,55.7,18.859a9.043,9.043,0,0,1,6.359-2.234,9.065,9.065,0,0,1,6.375,2.234,7.857,7.857,0,0,1,2.438,6.094,7.9,7.9,0,0,1-2.437,6.117A9.046,9.046,0,0,1,62.063,33.313Zm-.047-3.578a4.123,4.123,0,0,0,3.18-1.312,4.913,4.913,0,0,0,1.211-3.469A4.913,4.913,0,0,0,65.2,21.484a4.123,4.123,0,0,0-3.18-1.312,3.972,3.972,0,0,0-3.086,1.32,4.959,4.959,0,0,0-1.2,3.461,4.959,4.959,0,0,0,1.2,3.461A3.972,3.972,0,0,0,62.016,29.734Z" transform="translate(1188 705)" fill="#00223d"/>
    <path id="Trazado_56478" data-name="Trazado 56478" d="M-26.734,0l-1.641-4.656h-9.484L-39.5,0h-4.8l8.313-22.578h5.734L-21.937,0Zm-9.75-8.578h6.734l-3.359-9.578Zm26.828-7.8A6.262,6.262,0,0,1-5.219-14.93a5.359,5.359,0,0,1,1.547,4.117V0H-8.187V-9.844a2.8,2.8,0,0,0-.8-2.219,3.032,3.032,0,0,0-2.07-.7,4.229,4.229,0,0,0-1.344.2,3.452,3.452,0,0,0-1.125.633,2.8,2.8,0,0,0-.8,1.211,5.6,5.6,0,0,0-.3,1.859V0h-4.5V-16.062h4.5v1.781A6.189,6.189,0,0,1-9.656-16.375ZM6.672,0A4.851,4.851,0,0,1,3.047-1.3,5.074,5.074,0,0,1,1.766-5.016v-7.594H-1.391v-3.453H-.375a2.65,2.65,0,0,0,2-.672,3.459,3.459,0,0,0,.641-2.391V-21.25H6.328v5.188H9.641v3.453H6.328V-5.5q0,2.078,1.859,2.078H9.641V0Zm21.5-8.266-.047,1.078H16.219A4.158,4.158,0,0,0,17.5-4.25a4.1,4.1,0,0,0,2.828,1.016,3.949,3.949,0,0,0,2.117-.555A3.41,3.41,0,0,0,23.8-5.406l4.125.609a7.013,7.013,0,0,1-2.812,3.766A8.362,8.362,0,0,1,20.359.313,8.7,8.7,0,0,1,14.1-1.9a8.067,8.067,0,0,1-2.32-6.133,8.115,8.115,0,0,1,2.328-6.133,8.437,8.437,0,0,1,6.109-2.242,8.063,8.063,0,0,1,5.766,2.047Q28.156-12.312,28.172-8.266ZM20.25-13.219a3.556,3.556,0,0,0-3.906,3.094h7.375a3.383,3.383,0,0,0-1.109-2.3A3.516,3.516,0,0,0,20.25-13.219ZM37.25.313A8.977,8.977,0,0,1,32.563-.812a4.755,4.755,0,0,1-2.3-3.344l3.766-1.062A3.026,3.026,0,0,0,37.25-2.828,3.324,3.324,0,0,0,38.891-3.2a1.278,1.278,0,0,0,.641-1.242,1.314,1.314,0,0,0-.266-.828,2.1,2.1,0,0,0-.82-.594,10.22,10.22,0,0,0-1.094-.422q-.539-.172-1.43-.414t-1.484-.461a9.944,9.944,0,0,1-1.414-.6,6.031,6.031,0,0,1-1.172-.828,3.338,3.338,0,0,1-.875-1.258,4.537,4.537,0,0,1-.3-1.719,4.1,4.1,0,0,1,1.742-3.594,7.784,7.784,0,0,1,4.555-1.219,7.981,7.981,0,0,1,4.2,1.031,4.667,4.667,0,0,1,2.156,3.219l-3.484.781a2.729,2.729,0,0,0-2.859-2.031,3.131,3.131,0,0,0-1.578.359,1.155,1.155,0,0,0-.625,1.063,1.217,1.217,0,0,0,.094.484.959.959,0,0,0,.328.391,4.786,4.786,0,0,0,.453.3,3.418,3.418,0,0,0,.641.258q.422.133.7.2t.82.211l.836.219q.859.234,1.508.469a8.831,8.831,0,0,1,1.383.656,4.963,4.963,0,0,1,1.211.945,4.216,4.216,0,0,1,.789,1.328A4.905,4.905,0,0,1,43.859-4.7a4.832,4.832,0,0,1-.539,2.328A4.046,4.046,0,0,1,41.844-.8a7.187,7.187,0,0,1-2.086.844A10.821,10.821,0,0,1,37.25.313ZM-33.57,10.422v4.125H-38.93V33H-43.57V14.547h-5.391V10.422Zm6.484,4.328L-22.992,9l2.219,1.563L-24.32,14.75ZM-25.7,33.313a10.1,10.1,0,0,1-4.547-.984,7.357,7.357,0,0,1-3.117-2.891,8.615,8.615,0,0,1-1.133-4.484,7.857,7.857,0,0,1,2.438-6.094A9.043,9.043,0,0,1-25.7,16.625a9.065,9.065,0,0,1,6.375,2.234,7.857,7.857,0,0,1,2.438,6.094A7.9,7.9,0,0,1-19.32,31.07,9.046,9.046,0,0,1-25.7,33.313Zm-.047-3.578a4.123,4.123,0,0,0,3.18-1.312,4.913,4.913,0,0,0,1.211-3.469,4.913,4.913,0,0,0-1.211-3.469,4.123,4.123,0,0,0-3.18-1.312,3.972,3.972,0,0,0-3.086,1.32,4.959,4.959,0,0,0-1.2,3.461,4.959,4.959,0,0,0,1.2,3.461A3.972,3.972,0,0,0-25.742,29.734ZM-16.352,33l6.594-8.047-6.594-8.016h5.625L-7.039,22l3.719-5.062H2.258l-6.609,8.031L2.258,33H-3.32l-3.687-5.031L-10.711,33ZM7.023,14.531a2.526,2.526,0,0,1-1.844-.758,2.488,2.488,0,0,1-.766-1.836,2.457,2.457,0,0,1,.773-1.82,2.534,2.534,0,0,1,1.836-.758,2.49,2.49,0,0,1,1.813.758,2.565,2.565,0,0,1,0,3.656A2.49,2.49,0,0,1,7.023,14.531ZM4.727,33V16.938H9.258V33Zm16.453.3a8.582,8.582,0,0,1-6.2-2.312,7.987,7.987,0,0,1-2.406-6.031,7.969,7.969,0,0,1,2.4-6.031,8.609,8.609,0,0,1,6.211-2.3,8.559,8.559,0,0,1,5.2,1.547,6.906,6.906,0,0,1,2.688,4.359l-4.156.453a3.561,3.561,0,0,0-1.344-2.109,4.086,4.086,0,0,0-2.437-.7A3.684,3.684,0,0,0,18.2,21.484a5.146,5.146,0,0,0-1.125,3.469A5.152,5.152,0,0,0,18.2,28.414a3.675,3.675,0,0,0,2.938,1.32,4.05,4.05,0,0,0,2.43-.7,3.644,3.644,0,0,0,1.352-2.109l4.156.453a6.925,6.925,0,0,1-2.711,4.359A8.524,8.524,0,0,1,21.18,33.3Zm18.578.016a10.1,10.1,0,0,1-4.547-.984,7.357,7.357,0,0,1-3.117-2.891,8.614,8.614,0,0,1-1.133-4.484A7.857,7.857,0,0,1,33.4,18.859a9.043,9.043,0,0,1,6.359-2.234,9.065,9.065,0,0,1,6.375,2.234,7.857,7.857,0,0,1,2.438,6.094,7.9,7.9,0,0,1-2.437,6.117A9.046,9.046,0,0,1,39.758,33.313Zm-.047-3.578a4.123,4.123,0,0,0,3.18-1.312A4.913,4.913,0,0,0,44.1,24.953a4.913,4.913,0,0,0-1.211-3.469,4.123,4.123,0,0,0-3.18-1.312,3.972,3.972,0,0,0-3.086,1.32,4.959,4.959,0,0,0-1.2,3.461,4.959,4.959,0,0,0,1.2,3.461A3.972,3.972,0,0,0,39.711,29.734Z" transform="translate(734 705)" fill="#00223d"/>
    <path id="Trazado_56479" data-name="Trazado 56479" d="M-8.484,6.015.988-5.888-8.242-17.4l6.779-5.568L6.447-12.633l7.909-10.336,6.755,4.454L11.906-5.888,20.84,5.3l-6.8,7.4L6.447,1.706-1.147,12.7Z" transform="translate(1482.056 1031.182)" fill="#040506"/>
  </g>
</svg>
