<svg xmlns="http://www.w3.org/2000/svg" width="146" height="146" viewBox="0 0 146 146">
  <g id="Grupo_28135" data-name="Grupo 28135" transform="translate(-2846 -2054)">
    <g id="Grupo_28130" data-name="Grupo 28130" transform="translate(2236 294.272)">
      <g id="Grupo_27432" data-name="Grupo 27432" transform="translate(548 1747.734)">
        <rect id="Rect치ngulo_5322" data-name="Rect치ngulo 5322" width="106" height="122" rx="16" transform="translate(66 29.994)" fill="#c78640"/>
        <path id="Trazado_53431" data-name="Trazado 53431" d="M104,96h87.4V199.5H104Z" transform="translate(-28.5 -57.004)" fill="#e0edff"/>
        <path id="Trazado_53432" data-name="Trazado 53432" d="M197.4,53.9H223.4a5.4,5.4,0,0,0,5.4-5.4h0a5.4,5.4,0,0,0-.77-2.78L217.366,27.944a8.124,8.124,0,0,0-13.933,0L192.77,45.716A5.4,5.4,0,0,0,197.4,53.9Z" transform="translate(-91.2 -5.704)" fill="#ffc431"/>
        <g id="Grupo_27431" data-name="Grupo 27431" transform="translate(87 59.696)">
          <path id="Trazado_53433" data-name="Trazado 53433" d="M144,168h18.4v18.4H144Z" transform="translate(-144 -168)" fill="#e86c6c"/>
          <path id="Trazado_53434" data-name="Trazado 53434" d="M144,264h18.4v18.4H144Z" transform="translate(-144 -236.4)" fill="#e86c6c"/>
          <path id="Trazado_53435" data-name="Trazado 53435" d="M144,360h18.4v18.4H144Z" transform="translate(-144 -304.801)" fill="#e86c6c"/>
        </g>
        <path id="Trazado_53436" data-name="Trazado 53436" d="M110.261,21.057,106.4,27.5H70.9A6.908,6.908,0,0,0,64,34.4v112.7a6.908,6.908,0,0,0,6.9,6.9h96.6a6.908,6.908,0,0,0,6.9-6.9V34.4a6.908,6.908,0,0,0-6.9-6.9H132l-3.863-6.439a10.424,10.424,0,0,0-17.878,0ZM167.5,32.1a2.3,2.3,0,0,1,2.3,2.3v112.7a2.3,2.3,0,0,1-2.3,2.3H70.9a2.3,2.3,0,0,1-2.3-2.3V34.4a2.3,2.3,0,0,1,2.3-2.3h32.738l-2.76,4.6H75.5A2.3,2.3,0,0,0,73.2,39v103.5a2.3,2.3,0,0,0,2.3,2.3h87.4a2.3,2.3,0,0,0,2.3-2.3V39a2.3,2.3,0,0,0-2.3-2.3H137.521l-2.76-4.6ZM106.2,50.5H132.2a7.695,7.695,0,0,0,7.555-9.2H160.6v98.9H77.8V41.3H98.648a7.7,7.7,0,0,0,7.555,9.2Zm13-29.9a5.853,5.853,0,0,1,4.994,2.828L134.857,41.2a3.1,3.1,0,0,1-2.661,4.7H106.2a3.1,3.1,0,0,1-2.661-4.7l10.663-17.772A5.853,5.853,0,0,1,119.2,20.6Z" transform="translate(0 0)"/>
        <path id="Trazado_53437" data-name="Trazado 53437" d="M248,48h4.6v9.2H248Z" transform="translate(-131.1 -22.804)"/>
        <circle id="Elipse_1212" data-name="Elipse 1212" cx="2" cy="2" r="2" transform="translate(117 36.994)"/>
        <path id="Trazado_53438" data-name="Trazado 53438" d="M159.673,338.343l-16.1,16.1,3.253,3.253,7.574-7.574v10.547H140.6v-13.8h6.9v-4.6h-9.2a2.3,2.3,0,0,0-2.3,2.3v18.4a2.3,2.3,0,0,0,2.3,2.3h18.4a2.3,2.3,0,0,0,2.3-2.3V345.522l3.926-3.926Z" transform="translate(-51.3 -229.674)"/>
        <path id="Trazado_53439" data-name="Trazado 53439" d="M240,368h6.9v4.6H240Z" transform="translate(-125.4 -250.805)"/>
        <path id="Trazado_53440" data-name="Trazado 53440" d="M280,368h25.3v4.6H280Z" transform="translate(-153.901 -250.805)"/>
        <path id="Trazado_53441" data-name="Trazado 53441" d="M312,400h6.9v4.6H312Z" transform="translate(-176.701 -273.605)"/>
        <path id="Trazado_53442" data-name="Trazado 53442" d="M240,400h16.1v4.6H240Z" transform="translate(-125.4 -273.605)"/>
        <path id="Trazado_53443" data-name="Trazado 53443" d="M143.574,258.443l3.253,3.253,7.574-7.574v10.547H140.6v-13.8h6.9v-4.6h-9.2a2.3,2.3,0,0,0-2.3,2.3v18.4a2.3,2.3,0,0,0,2.3,2.3h18.4a2.3,2.3,0,0,0,2.3-2.3V249.522l3.926-3.926-3.253-3.253Z" transform="translate(-51.3 -161.274)"/>
        <path id="Trazado_53444" data-name="Trazado 53444" d="M240,272h6.9v4.6H240Z" transform="translate(-125.4 -182.405)"/>
        <path id="Trazado_53445" data-name="Trazado 53445" d="M280,272h25.3v4.6H280Z" transform="translate(-153.901 -182.405)"/>
        <path id="Trazado_53446" data-name="Trazado 53446" d="M312,304h6.9v4.6H312Z" transform="translate(-176.701 -205.205)"/>
        <path id="Trazado_53447" data-name="Trazado 53447" d="M240,304h16.1v4.6H240Z" transform="translate(-125.4 -205.205)"/>
        <path id="Trazado_53448" data-name="Trazado 53448" d="M146.826,165.7l7.574-7.574v10.547H140.6v-13.8h6.9v-4.6h-9.2a2.3,2.3,0,0,0-2.3,2.3v18.4a2.3,2.3,0,0,0,2.3,2.3h18.4a2.3,2.3,0,0,0,2.3-2.3V153.522l3.926-3.926-3.253-3.253-16.1,16.1Z" transform="translate(-51.3 -92.874)"/>
        <path id="Trazado_53449" data-name="Trazado 53449" d="M240,176h6.9v4.6H240Z" transform="translate(-125.4 -114.005)"/>
        <path id="Trazado_53450" data-name="Trazado 53450" d="M280,176h25.3v4.6H280Z" transform="translate(-153.901 -114.005)"/>
        <path id="Trazado_53451" data-name="Trazado 53451" d="M312,208h6.9v4.6H312Z" transform="translate(-176.701 -136.805)"/>
        <path id="Trazado_53452" data-name="Trazado 53452" d="M240,208h16.1v4.6H240Z" transform="translate(-125.4 -136.805)"/>
      </g>
      <g id="Grupo_27435" data-name="Grupo 27435" transform="translate(691 1800.728)">
        <circle id="Elipse_1214" data-name="Elipse 1214" cx="28" cy="28" r="28" transform="translate(4 4)" fill="#ff5d5d"/>
        <path id="Trazado_53455" data-name="Trazado 53455" d="M63.054,31.527A31.527,31.527,0,1,0,31.527,63.054,31.563,31.563,0,0,0,63.054,31.527ZM31.527,56.048A24.521,24.521,0,1,1,56.048,31.527,24.549,24.549,0,0,1,31.527,56.048Z"/>
        <path id="Trazado_53456" data-name="Trazado 53456" d="M78.152,54.914a3.5,3.5,0,0,0-4.954,0l-6.665,6.665-6.665-6.665a3.5,3.5,0,1,0-4.954,4.954l6.665,6.665L54.914,73.2a3.5,3.5,0,1,0,4.954,4.954l6.665-6.665L73.2,78.153A3.5,3.5,0,0,0,78.152,73.2l-6.665-6.665,6.665-6.665A3.5,3.5,0,0,0,78.152,54.914Z" transform="translate(-35.011 -35.011)"/>
      </g>
    </g>
    <rect id="Rect치ngulo_5529" data-name="Rect치ngulo 5529" width="146" height="146" transform="translate(2846 2054)" fill="none"/>
  </g>
</svg>
