<svg xmlns="http://www.w3.org/2000/svg" width="396.809" height="197.734" viewBox="0 0 396.809 197.734">
  <g id="Grupo_27420" data-name="Grupo 27420" transform="translate(3.866 16)">
    <rect id="Rect치ngulo_5320" data-name="Rect치ngulo 5320" width="396.809" height="197.734" transform="translate(-3.866 -16)" fill="#fff"/>
    <g id="Capa_2" data-name="Capa 2" transform="translate(5.976)">
      <g id="Capa_1-2" data-name="Capa 1-2" transform="translate(0)">
        <rect id="Rect치ngulo_5321" data-name="Rect치ngulo 5321" width="386.967" height="165.734" fill="none"/>
        <path id="Trazado_53298" data-name="Trazado 53298" d="M.3,55.6H3.61V73.421H.3Z" transform="translate(0.464 85.948)" fill="#2f7338"/>
        <path id="Trazado_53299" data-name="Trazado 53299" d="M2.8,57.733H5.6v1.528h0a3.977,3.977,0,0,1,3.819-2.037c2.8,0,4.073,2.291,4.073,5.092v8.4h-2.8V63.588c0-1.528,0-3.819-2.037-3.819s-2.8,2.8-2.8,4.582v6.365H2.8Z" transform="translate(4.328 88.398)" fill="#2f7338"/>
        <path id="Trazado_53300" data-name="Trazado 53300" d="M15.892,60.2a9.152,9.152,0,0,0-2.8-.509c-.764,0-1.782.255-1.782,1.528,0,2.037,5.346.764,5.346,5.6,0,3.055-2.546,4.328-5.092,4.328A17.19,17.19,0,0,1,8,70.638l.255-2.8a6.779,6.779,0,0,0,3.055.764c.764,0,2.037-.255,2.037-1.528,0-2.546-5.346-.764-5.346-5.6A4.021,4.021,0,0,1,12.073,57.4h.509a14.9,14.9,0,0,1,3.31.509Z" transform="translate(12.367 88.731)" fill="#2f7338"/>
        <path id="Trazado_53301" data-name="Trazado 53301" d="M14.091,62.11H11.8V59.564h2.291V57.018L17.146,56v3.819h2.8v2.546h-2.8v6.11c0,1.018.255,2.037,1.528,2.037a1.908,1.908,0,0,0,1.273-.255v2.8a7.048,7.048,0,0,1-2.291.255c-2.291,0-3.819-1.782-3.819-4.328Z" transform="translate(18.241 86.567)" fill="#2f7338"/>
        <path id="Trazado_53302" data-name="Trazado 53302" d="M15.8,55.2h3.055v3.31H15.8Zm0,5.6h3.055V74.039H15.8Z" transform="translate(24.424 85.33)" fill="#2f7338"/>
        <path id="Trazado_53303" data-name="Trazado 53303" d="M20.091,62.11H17.8V59.564h2.291V57.018L23.146,56v3.819h2.8v2.546h-2.8v6.11c0,1.018.255,2.037,1.528,2.037a1.908,1.908,0,0,0,1.273-.255v2.8a7.048,7.048,0,0,1-2.291.255c-2.546,0-3.819-1.782-3.819-4.328Z" transform="translate(27.516 86.567)" fill="#2f7338"/>
        <path id="Trazado_53304" data-name="Trazado 53304" d="M32.593,70.538h-2.8V68.756h0a4.489,4.489,0,0,1-3.819,2.037c-2.8,0-4.073-2.291-4.073-5.092V57.3h2.8v7.128c0,1.528,0,3.819,2.037,3.819s2.8-2.8,2.8-4.328V57.555h3.055Z" transform="translate(33.854 88.576)" fill="#2f7338"/>
        <path id="Trazado_53305" data-name="Trazado 53305" d="M29.091,62.11H26.8V59.564h2.291V57.018L32.146,56v3.819h2.8v2.546h-2.8v6.11c0,1.018.255,2.037,1.528,2.037a1.908,1.908,0,0,0,1.273-.255v2.8a7.048,7.048,0,0,1-2.291.255c-2.546,0-3.819-1.782-3.819-4.328Z" transform="translate(41.428 86.567)" fill="#2f7338"/>
        <path id="Trazado_53306" data-name="Trazado 53306" d="M36.749,57.3a6.3,6.3,0,0,1,6.365,6.365v.764a6.632,6.632,0,0,1-5.6,6.874,6.632,6.632,0,0,1-6.874-5.6V64.683a6.33,6.33,0,0,1,5.346-7.128A.935.935,0,0,1,36.749,57.3Zm0,10.947c2.291,0,3.055-2.291,3.055-4.582s-1.018-3.819-3.055-3.819-3.055,2.037-3.055,3.819C33.694,65.7,34.458,68.247,36.749,68.247Z" transform="translate(47.263 88.576)" fill="#2f7338"/>
        <path id="Trazado_53307" data-name="Trazado 53307" d="M51.175,73.221a17.191,17.191,0,0,1-3.564.509A8.2,8.2,0,0,1,38.7,66.6V64.82c0-6.11,3.31-9.42,8.91-9.42a8.131,8.131,0,0,1,3.564.764l-.255,3.055A5.845,5.845,0,0,0,47.356,58.2c-3.31,0-5.346,2.8-5.346,6.365a5.686,5.686,0,0,0,4.837,6.365h.509a8.985,8.985,0,0,0,3.564-.764Z" transform="translate(59.824 85.639)" fill="#2f7338"/>
        <path id="Trazado_53308" data-name="Trazado 53308" d="M50.4,57.3a5.947,5.947,0,0,1,6.11,6.365v.764a6.426,6.426,0,0,1-5.6,6.874c-3.564.509-6.365-2.037-6.874-5.6V64.428A6.33,6.33,0,0,1,49.386,57.3Zm0,10.947c2.291,0,3.055-2.291,3.055-4.582s-1.018-3.819-3.055-3.819-3.055,1.782-3.055,3.819S48.113,68.247,50.4,68.247Z" transform="translate(67.977 88.576)" fill="#2f7338"/>
        <path id="Trazado_53309" data-name="Trazado 53309" d="M49.9,55h3.055V74.094H49.9Z" transform="translate(77.137 85.021)" fill="#2f7338"/>
        <path id="Trazado_53310" data-name="Trazado 53310" d="M58.4,57.3a5.947,5.947,0,0,1,6.11,6.365v.764a6.632,6.632,0,0,1-5.6,6.874,6.632,6.632,0,0,1-6.874-5.6V64.683a6.33,6.33,0,0,1,5.346-7.128A1.925,1.925,0,0,1,58.4,57.3Zm0,10.947c2.291,0,3.055-2.291,3.055-4.582s-1.018-3.819-3.055-3.819-3.055,2.037-3.055,3.819C55.6,65.7,56.113,68.247,58.4,68.247Z" transform="translate(80.344 88.576)" fill="#2f7338"/>
        <path id="Trazado_53311" data-name="Trazado 53311" d="M58.055,57.555h2.8v1.782h0A4.063,4.063,0,0,1,64.419,57.3a3.6,3.6,0,0,1,3.564,2.291A3.84,3.84,0,0,1,71.548,57.3c2.8,0,3.819,2.291,3.819,5.092v8.4H72.311V62.9c0-1.273,0-3.055-1.782-3.055s-2.291,2.8-2.291,4.328v6.365h-3.31V62.646c0-1.273,0-3.055-1.782-3.055s-2.291,2.8-2.291,4.328v6.365H57.8V57.555Z" transform="translate(89.349 88.576)" fill="#2f7338"/>
        <path id="Trazado_53312" data-name="Trazado 53312" d="M65.9,55h3.055v7.638h0A4.063,4.063,0,0,1,72.519,60.6c3.564,0,4.837,3.31,4.837,6.874s-1.273,6.874-4.837,6.874a4.063,4.063,0,0,1-3.564-2.037h0v1.527H65.9Zm5.855,16.8c2.037,0,2.546-2.546,2.546-4.328S73.792,63.4,71.755,63.4s-2.8,2.291-2.8,4.073.764,4.328,2.8,4.328Z" transform="translate(101.871 85.021)" fill="#2f7338"/>
        <path id="Trazado_53313" data-name="Trazado 53313" d="M71.5,55.2h3.055v3.31H71.5Zm0,5.6h3.055V74.039H71.5Z" transform="translate(110.527 85.33)" fill="#2f7338"/>
        <path id="Trazado_53314" data-name="Trazado 53314" d="M74.742,58.318A11.983,11.983,0,0,1,78.816,57.3c3.564,0,5.092,1.782,5.092,5.6v5.092a12.394,12.394,0,0,0,.255,3.055H81.616a4.963,4.963,0,0,0-.255-2.037h0A4.311,4.311,0,0,1,77.8,71.3a3.76,3.76,0,0,1-4.073-3.564v-.255a3.977,3.977,0,0,1,2.037-3.819,10.554,10.554,0,0,1,4.073-.764h1.528c0-2.037-.764-2.8-2.546-2.8a5.026,5.026,0,0,0-3.564,1.527ZM78.561,68.5A2.268,2.268,0,0,0,80.6,67.229a3.135,3.135,0,0,0,.509-2.546H79.834c-1.273,0-3.31.255-3.31,2.291,0,1.018.764,1.527,2.037,1.527Z" transform="translate(113.904 88.576)" fill="#2f7338"/>
        <path id="Trazado_53315" data-name="Trazado 53315" d="M78.9,57.709h3.055v1.528h0A4.489,4.489,0,0,1,85.774,57.2c2.8,0,4.073,2.291,4.073,5.092v8.4H86.792V63.565c0-1.528,0-3.819-2.037-3.819s-2.8,2.546-2.8,4.328v6.365H78.9Z" transform="translate(121.966 88.422)" fill="#2f7338"/>
        <path id="Trazado_53316" data-name="Trazado 53316" d="M90.5,57.3a5.947,5.947,0,0,1,6.11,6.365v.764A6.27,6.27,0,1,1,84.139,65.7V64.428A6.33,6.33,0,0,1,89.486,57.3Zm0,10.947c2.291,0,3.055-2.291,3.055-4.582s-1.018-3.819-3.055-3.819-3.055,2.037-3.055,3.819C87.449,65.7,87.958,68.247,90.5,68.247Z" transform="translate(129.965 88.576)" fill="#2f7338"/>
        <path id="Trazado_53317" data-name="Trazado 53317" d="M98.419,55.6h3.564l6.365,17.821h-3.564l-1.527-4.073H96.637L95.11,73.421H91.8Zm1.782,3.564h0L97.91,66.547h4.583Z" transform="translate(141.908 85.948)" fill="#2f7338"/>
        <path id="Trazado_53318" data-name="Trazado 53318" d="M110.156,57.709V69.42c0,3.564-1.273,6.874-6.11,6.874a7.47,7.47,0,0,1-4.073-1.018l.255-2.8a8.9,8.9,0,0,0,3.31,1.273c3.31,0,3.564-2.8,3.564-5.092h0a4.063,4.063,0,0,1-3.564,2.037c-3.564,0-4.837-3.055-4.837-6.619s1.528-6.874,5.092-6.874a3.784,3.784,0,0,1,3.564,2.037h0V57.455ZM107.1,64.074c0-2.291-.764-4.073-2.546-4.073s-2.8,2.037-2.8,4.073.764,4.073,2.546,4.073S107.1,66.365,107.1,64.074Z" transform="translate(152.574 88.422)" fill="#2f7338"/>
        <path id="Trazado_53319" data-name="Trazado 53319" d="M104.5,57.555h2.8V60.61h0a3.542,3.542,0,0,1,3.31-3.31h1.018v3.31a3.229,3.229,0,0,0-1.528-.255c-2.546,0-2.546,3.31-2.546,5.346v4.837H104.5Z" transform="translate(161.54 88.576)" fill="#2f7338"/>
        <path id="Trazado_53320" data-name="Trazado 53320" d="M113.749,57.3a6.3,6.3,0,0,1,6.365,6.365v.764A6.27,6.27,0,1,1,107.639,65.7V64.683a6.33,6.33,0,0,1,5.346-7.128A.935.935,0,0,1,113.749,57.3Zm0,10.947c2.291,0,3.055-2.291,3.055-4.582s-1.018-3.819-3.055-3.819-3.055,2.037-3.055,3.819C110.695,65.7,111.2,68.247,113.749,68.247Z" transform="translate(166.292 88.576)" fill="#2f7338"/>
        <path id="Trazado_53321" data-name="Trazado 53321" d="M113.3,57.578h3.055v1.782h0a3.613,3.613,0,0,1,3.564-2.037c3.564,0,5.092,3.31,5.092,6.874s-1.273,6.874-5.092,6.874a4.129,4.129,0,0,1-3.564-1.782h0v6.874H113.3Zm3.31,6.619c0,1.782.764,4.328,2.8,4.328s2.546-2.546,2.546-4.328-.509-4.073-2.546-4.073S116.61,62.161,116.61,64.2Z" transform="translate(175.143 88.553)" fill="#2f7338"/>
        <path id="Trazado_53322" data-name="Trazado 53322" d="M128.783,70.029a7.47,7.47,0,0,1-4.073,1.018c-3.819,0-6.11-2.546-6.11-6.874,0-3.819,1.782-6.874,5.346-6.874,4.328,0,5.6,3.31,5.6,7.892H121.4a3.157,3.157,0,0,0,3.055,3.31h.255a7.693,7.693,0,0,0,4.073-1.273ZM126.747,62.9c0-1.782-.764-3.055-2.546-3.055s-2.546,1.273-2.8,3.055Z" transform="translate(183.336 88.576)" fill="#2f7338"/>
        <path id="Trazado_53323" data-name="Trazado 53323" d="M131.847,60.355a5.992,5.992,0,0,0-2.037-.509c-2.037,0-3.055,1.782-3.055,4.073,0,2.546,1.018,4.328,3.31,4.328a7.434,7.434,0,0,0,2.291-.509l.255,2.8a12.778,12.778,0,0,1-3.055.509c-3.819,0-5.855-3.055-5.855-6.874s2.037-6.874,5.6-6.874a6.458,6.458,0,0,1,3.055.509Z" transform="translate(191.22 88.576)" fill="#2f7338"/>
        <path id="Trazado_53324" data-name="Trazado 53324" d="M138.593,70.538h-2.8V68.756h0a4.489,4.489,0,0,1-3.819,2.037c-2.8,0-4.073-2.291-4.073-5.092V57.3h3.055v7.128c0,1.528,0,3.819,2.037,3.819s2.8-2.8,2.8-4.328V57.555h3.055Z" transform="translate(197.712 88.576)" fill="#2f7338"/>
        <path id="Trazado_53325" data-name="Trazado 53325" d="M134.527,58.318A11.983,11.983,0,0,1,138.6,57.3c3.564,0,5.092,1.782,5.092,5.6v8.147h-2.8c0-.764-.255-1.273-.255-2.037h0a4.311,4.311,0,0,1-3.564,2.291A4.021,4.021,0,0,1,133,67.229a4.063,4.063,0,0,1,2.037-3.564,10.554,10.554,0,0,1,4.073-.764h1.782c0-2.037-.764-2.8-2.8-2.8a5.026,5.026,0,0,0-3.564,1.527ZM138.092,68.5a3.038,3.038,0,0,0,2.291-1.273,5.132,5.132,0,0,0,.764-2.8h-1.273c-1.273,0-3.564.255-3.564,2.291-.255,1.273.764,1.782,1.782,1.782Z" transform="translate(205.596 88.576)" fill="#2f7338"/>
        <path id="Trazado_53326" data-name="Trazado 53326" d="M138.4,57.555h2.8V60.61h0a3.777,3.777,0,0,1,3.31-3.31h1.018v3.31a2.768,2.768,0,0,0-1.273-.255c-2.546,0-2.546,3.31-2.546,5.346v4.837h-3.055Z" transform="translate(213.944 88.576)" fill="#2f7338"/>
        <path id="Trazado_53327" data-name="Trazado 53327" d="M141.9,55.2h3.055v3.31H141.9Zm0,5.6h3.055V74.039H141.9Z" transform="translate(219.354 85.33)" fill="#2f7338"/>
        <path id="Trazado_53328" data-name="Trazado 53328" d="M150.249,57.3a6.3,6.3,0,0,1,6.365,6.365v.764A6.27,6.27,0,1,1,144.139,65.7V64.683a6.33,6.33,0,0,1,5.346-7.128A.935.935,0,0,1,150.249,57.3Zm0,10.947c2.291,0,3.055-2.291,3.055-4.582s-1.018-3.819-3.055-3.819-3.055,2.037-3.055,3.819C147.449,65.7,147.958,68.247,150.249,68.247Z" transform="translate(222.715 88.576)" fill="#2f7338"/>
        <path id="Trazado_53329" data-name="Trazado 53329" d="M120.921,25.365h.255l3.819,1.528,1.018.509-.255-.255,14.257-6.11-4.328-1.273L118.375,16.2,100.3,18.746l6.11,2.291Z" transform="translate(155.047 25.043)" fill="#2f7338"/>
        <path id="Trazado_53330" data-name="Trazado 53330" d="M123.948,20.746,143.805,15.4H117.329L107.4,17.437h0L124.712,21l-1.018-.255Z" transform="translate(166.023 23.806)" fill="#85bb40"/>
        <path id="Trazado_53331" data-name="Trazado 53331" d="M133.722,24.974l5.346-2.8-13.493-3.819-1.018-.255L110.3,24.21l.255.255h.509l.764.509,13.747,6.11h0l3.564,1.527,9.929-6.365-2.291-.509Z" transform="translate(170.506 27.98)" fill="#bfc630"/>
        <path id="Trazado_53332" data-name="Trazado 53332" d="M141.04,15.218l-7.128,2.037L114.055,22.6H113.8l1.018.255,4.328,1.273,1.018.255L133.658,28.2l1.273-.764L159.116,14.2Z" transform="translate(175.916 21.951)" fill="#009748"/>
        <path id="Trazado_53333" data-name="Trazado 53333" d="M156.415,12.8l-6.11,3.564L126.119,29.6l-1.273.764-5.346,2.8,3.055.764,2.291.509,5.092-3.055h0l13.748,2.291,1.528-1.273.509-.509L168.38,15.6l.255-.255h.255l3.564-2.546Z" transform="translate(184.727 19.787)" fill="#85bb40"/>
        <path id="Trazado_53334" data-name="Trazado 53334" d="M156.686,24.291l-1.018,1.018-.509.509L140.648,22,126.9,34.475h.255l2.8,1.018,17.057,5.6-2.546,2.8-1.018.764,4.073,1.273,19.858-19.348-3.819-.509Z" transform="translate(196.167 34.008)" fill="#bfc630"/>
        <path id="Trazado_53335" data-name="Trazado 53335" d="M154.2,15.346h-.255l-.255.255L131.037,31.894l-.509.509L129,33.676l2.037.255,4.073.764,3.31.509h.255L137.4,36.222l14.511,3.819.509-.509,1.018-1.018L179.917,12.8Z" transform="translate(199.413 19.787)" fill="#009748"/>
        <path id="Trazado_53336" data-name="Trazado 53336" d="M104.567,35.166l14-6.619L102.53,17.6,84.2,21.164l20.112,20.112,4.837-2.291-1.782-1.528Z" transform="translate(130.159 27.207)" fill="#2f7338"/>
        <path id="Trazado_53337" data-name="Trazado 53337" d="M121.868,21.346l-6.11-2.291L107.1,16,90.3,18.291l2.8,1.782L109.139,31.02,111.176,30l.764-.255,4.582,3.055,1.528-.509.255-.255,14.766-5.346.764-.255,2.546-.764Z" transform="translate(139.589 24.733)" fill="#85bb40"/>
        <path id="Trazado_53338" data-name="Trazado 53338" d="M131.151,36.675l-.255-.255h0l-11.711-8.147-5.092-3.31h0l-.509-.255-.255-.255h.255L109,21.4l-.764.255L106.2,22.673l-14,6.619L95,31.583l1.782,1.528L113.84,48.64l1.527-1.018Z" transform="translate(142.526 33.081)" fill="#bfc630"/>
        <path id="Trazado_53339" data-name="Trazado 53339" d="M126.148,27.273l3.819-2.546h.255L126.657,23.2h0l.509.255v.255L109.6,34.911l20.112,13.238,1.018-.764.509-.255,14.766-12.22Z" transform="translate(169.424 35.863)" fill="#85bb40"/>
        <path id="Trazado_53340" data-name="Trazado 53340" d="M107.4,27.3h0l.255.255h0Z" transform="translate(166.023 42.201)" fill="#8abf45"/>
        <path id="Trazado_53341" data-name="Trazado 53341" d="M144.486,27.918l-2.8-1.018h-.255l-.764.509-3.31,3.055-3.564-1.273-14.766,12.22-.509.255-1.018.764h0l4.328,3.055,17.312,11.2,18.839-19.6L159,36.32l2.546-2.8Z" transform="translate(181.636 41.583)" fill="#009748"/>
        <path id="Trazado_53342" data-name="Trazado 53342" d="M158.361,23.919h0l-3.31-.509-4.073-.764-2.037-.255L135.194,20.1h0L130.1,23.155l-9.929,6.365h-.255L116.1,32.065,135.958,39.7l3.564,1.273,3.31-3.055.764-.509,13.748-12.475,1.273-1.018Z" transform="translate(179.472 31.071)" fill="#2f7338"/>
        <path id="Trazado_53343" data-name="Trazado 53343" d="M110.909,20.6h0Z" transform="translate(170.66 31.844)" fill="#13a654"/>
        <path id="Trazado_53344" data-name="Trazado 53344" d="M140.724,28.456l-13.747-6.11-.764-.509H125.7l-1.018-.509L120.867,19.8h-.255l-2.546.764-.764.255-14.766,5.346-.255.255-1.528.509H100.5l.255.255.509.255h0l5.092,3.31,11.711,8.147.255.255.255-.255,1.273-.764.509-.255h0l3.31,2.291,17.566-11.2V28.71Z" transform="translate(155.356 30.608)" fill="#009748"/>
        <path id="Trazado_53345" data-name="Trazado 53345" d="M117.5,33h0l.509.509Z" transform="translate(181.636 51.013)" fill="#3d7f3c"/>
        <path id="Trazado_53346" data-name="Trazado 53346" d="M149.651,46.638l-17.312-11.2-2.8-2.037L110.7,53.767l23.931,24.44L159.58,53.258Z" transform="translate(171.124 51.631)" fill="#bfc630"/>
        <path id="Trazado_53347" data-name="Trazado 53347" d="M118.718,33.709,117.7,33.2Z" transform="translate(181.945 51.322)" fill="#3d7f3c"/>
        <path id="Trazado_53348" data-name="Trazado 53348" d="M143.052,42.939l-.509-.509L122.43,29.191l-3.31-2.291h0l-.509.255-1.273.764-.255.255h0L101.3,39.12l.509.764,23.422,24.185v-.255L144.07,43.448Z" transform="translate(156.593 41.583)" fill="#2f7338"/>
        <path id="Trazado_53349" data-name="Trazado 53349" d="M102.249,25.039h0l-.764.255.764-.255a12.411,12.411,0,0,0-1.782.764c-.764.764.255.764.764.509s1.528-.509,1.782-1.018,0-.255-.764-.255" transform="translate(154.881 38.607)" fill="#3d7f3c"/>
        <path id="Trazado_53350" data-name="Trazado 53350" d="M100.791,26.1h.255c-1.273,0-1.273,2.8.509,2.291,0-.255-.255-.764,0-1.018s.764-.255.764-.764-1.018-.509-1.528-.509" transform="translate(154.811 40.346)" fill="#3d7f3c"/>
        <path id="Trazado_53351" data-name="Trazado 53351" d="M100.218,25.5h0c-.764.255-1.018.255-1.018,1.018s0,.764.509.509a1.988,1.988,0,0,0,1.018-1.018c0-.255,0-.509-.509-.509" transform="translate(153.347 39.419)" fill="#3d7f3c"/>
        <path id="Trazado_53352" data-name="Trazado 53352" d="M100.173,26.8l-.764.764c-.255.255-.255.764-.509,1.018a.859.859,0,0,0,1.273.764c.255-1.018.509-2.037,0-2.546" transform="translate(152.883 41.428)" fill="#3d7f3c"/>
        <path id="Trazado_53353" data-name="Trazado 53353" d="M101.458,25.688l.255-1.018c0-.509-.509-.764-1.018-.509h.255c-1.018.764-1.782,2.546,0,1.782.255,0,.255.255.509-.255" transform="translate(154.398 37.194)" fill="#3d7f3c"/>
        <path id="Trazado_53354" data-name="Trazado 53354" d="M98.959,25.8h0c-.764.764-1.273,1.528-1.018,2.291.509,0,.764-.255,1.273-.255,0-.255.509-1.273.509-1.528s-.509-.509-.764-.509" transform="translate(151.297 39.883)" fill="#3d7f3c"/>
        <path id="Trazado_53355" data-name="Trazado 53355" d="M119.089,42.106c0-.255-.255-.509-.255-.764s-1.018.255-1.273.509c-.764,1.018.255,1.528,1.273,1.528s1.018,0,1.018-.764-.509-.255-.764-.509" transform="translate(181.319 63.801)" fill="#08a554"/>
        <path id="Trazado_53356" data-name="Trazado 53356" d="M122.868,43.527c0-.255.255-.764,0-1.018C122.613,42,122.1,42,121.595,42c-.255.255-1.018.509-.764,1.273s1.273.509,1.273,1.273c.764-.255.764-.509.764-1.018" transform="translate(186.706 64.925)" fill="#08a554"/>
        <path id="Trazado_53357" data-name="Trazado 53357" d="M118.573,40.428c.255,0,.764.764,1.018.255v-.509a3.068,3.068,0,0,0-1.273-1.273c-.255,0-1.018.255-1.018.764s1.018.509,1.273.764" transform="translate(181.327 60.133)" fill="#08a554"/>
        <path id="Trazado_53358" data-name="Trazado 53358" d="M118.269,40.5c-.255,0,0,.509,0,.764.255.764.255,1.018,1.018,1.273.255,0,.255-1.018,0-1.273s-.509-.764-1.018-.764" transform="translate(182.649 62.606)" fill="#08a554"/>
        <path id="Trazado_53359" data-name="Trazado 53359" d="M120,41.062h0c-.764-.509-.764,1.018-.509,1.527s1.018,1.273,1.527,1.018a1.683,1.683,0,0,0,.255-1.527c-.255-.255-.764-.255-1.273-1.018" transform="translate(184.48 63.317)" fill="#08a554"/>
        <path id="Trazado_53360" data-name="Trazado 53360" d="M121.091,41.391a.935.935,0,0,0-.255-.764,6.75,6.75,0,0,0-1.273-1.528,1.539,1.539,0,0,0-.764,1.528c.255.509,1.018.764,1.273,1.018s1.018.255,1.018-.255" transform="translate(183.645 60.442)" fill="#08a554"/>
        <path id="Trazado_53361" data-name="Trazado 53361" d="M122.243,41.373c.509,0,1.018.255.764-.509s-1.018-.764-1.782-.764c-.255,0-.509,0-.509.255a1.156,1.156,0,0,0,0,1.273c.255.509.255.509.509.255a1.323,1.323,0,0,1,1.018-.509" transform="translate(186.312 61.988)" fill="#08a554"/>
        <path id="Trazado_53362" data-name="Trazado 53362" d="M118.256,29.039c-.255,0-.509.255-.764.255-.509,0-.764.509,0,1.528s.764.764,1.018,0l.255-.764s.509-.255,0-.764-.509-.255-.509-.255" transform="translate(180.879 44.791)" fill="#3d7f3c"/>
        <path id="Trazado_53363" data-name="Trazado 53363" d="M115.989,28h-.255a.249.249,0,0,0-.255.255c-.764.509-.509,1.273.255,2.291.255.255.255.764.764-.255a3.618,3.618,0,0,0,.509-1.528c-.255-.509-.509-.764-1.018-.764" transform="translate(177.8 43.283)" fill="#3d7f3c"/>
        <path id="Trazado_53364" data-name="Trazado 53364" d="M119.295,27.8h-.764c-1.018.255-1.018,1.528.509,1.528s1.528-1.018.255-1.528" transform="translate(182.132 42.974)" fill="#3d7f3c"/>
        <path id="Trazado_53365" data-name="Trazado 53365" d="M116.984,28.14c1.018-.255,2.291-1.273.509-1.528s-1.528,2.037-.509,1.528" transform="translate(179.605 41.107)" fill="#3d7f3c"/>
        <path id="Trazado_53366" data-name="Trazado 53366" d="M118.243,29.851a4.333,4.333,0,0,0-.255-1.782c-.509-.255-.509,0-.764,0h-.255c-.509,0-.764.509-.509,1.782.255.509.764.509,1.273.255.255,0,.255,0,.509-.255" transform="translate(179.875 43.215)" fill="#3d7f3c"/>
        <path id="Trazado_53367" data-name="Trazado 53367" d="M116.74,27.33c-.255,0-.255-1.782-1.528-.255s1.273,1.782,2.037.764l-.509-.509" transform="translate(177.558 40.898)" fill="#3d7f3c"/>
        <path id="Trazado_53368" data-name="Trazado 53368" d="M128.737,23.364a2.311,2.311,0,0,0-1.782-.764.249.249,0,0,0-.255.255c.509.509.764,1.018,1.528,1.273.509.255.509-.509.509-.764" transform="translate(195.857 34.936)" fill="#91bf3f"/>
        <path id="Trazado_53369" data-name="Trazado 53369" d="M126.064,22.3h0c-.509,0-.764.255-.764.509s.509.255,1.018.255c1.782,0,.255-.764-.255-.764" transform="translate(193.693 34.472)" fill="#91bf3f"/>
        <path id="Trazado_53370" data-name="Trazado 53370" d="M125.3,24.264c-.255-.255-.255,0-.509.255h0c-.764.509,0,3.31,1.018,1.528a4.72,4.72,0,0,0-.509-1.782" transform="translate(192.423 37.345)" fill="#91bf3f"/>
        <path id="Trazado_53371" data-name="Trazado 53371" d="M126.673,23.2h0l-.509.255c-.255.255-.764.509-.764,1.018,0,.255.509.509.764.509s.255,0,.255-.255a.959.959,0,0,0,.255-1.527" transform="translate(193.848 35.863)" fill="#91bf3f"/>
        <path id="Trazado_53372" data-name="Trazado 53372" d="M125.328,22.561h-.509c-.255,0-.509.255-.255.509s.764,0,1.018,0c1.018-.509.255-.764-.255-.509" transform="translate(192.393 34.721)" fill="#91bf3f"/>
        <path id="Trazado_53373" data-name="Trazado 53373" d="M123.4,24.555c-.509.509-1.018,1.018-.764,1.528.255.764,1.528-1.018,1.782-1.782h0c-.509,0-.764.255-1.018.255" transform="translate(189.478 37.564)" fill="#91bf3f"/>
        <path id="Trazado_53374" data-name="Trazado 53374" d="M124.308,23.555c0-.255-.255-.255-.509-.255a.935.935,0,0,0-.764.255c-.764.764-1.528,2.546,0,1.782.509-.255,1.528-1.018,1.273-1.782" transform="translate(188.829 36.018)" fill="#91bf3f"/>
        <path id="Trazado_53375" data-name="Trazado 53375" d="M124.572,22.7c-.764.255-2.291,1.782-.255,1.273.509-.255,1.273-.764,1.273-1.018s-.764-.255-1.018-.255" transform="translate(190.603 35.09)" fill="#91bf3f"/>
        <path id="Trazado_53376" data-name="Trazado 53376" d="M125.544,23c-.764.255-2.037,2.8-.509,1.782.509-.255,1.018-1.528.509-1.782" transform="translate(192.176 35.554)" fill="#91bf3f"/>
        <path id="Trazado_53377" data-name="Trazado 53377" d="M127.508,16a3.229,3.229,0,0,0-1.528.255c-.764.255-.509.764.255,1.018s1.018-.255,1.273-.509c0-.255.255-.255.255-.509a.249.249,0,0,1-.255-.255" transform="translate(194.032 24.733)" fill="#91bf3f"/>
        <path id="Trazado_53378" data-name="Trazado 53378" d="M120.815,17.037c-.255.509,1.528,0,1.528-.509h0c.509-.509-1.528,0-1.528.509" transform="translate(186.722 25.224)" fill="#91bf3f"/>
        <path id="Trazado_53379" data-name="Trazado 53379" d="M122.661,17.3a3.268,3.268,0,0,0-2.546,1.018c-.255.509,1.528-.255,2.546-1.018h0" transform="translate(185.64 26.743)" fill="#91bf3f"/>
        <path id="Trazado_53380" data-name="Trazado 53380" d="M122.461,16.9c-1.528.255-4.073,1.273-2.291,1.018.764-.255,1.782-.509,2.546-.764.255,0,0-.255-.255-.255" transform="translate(184.821 26.125)" fill="#91bf3f"/>
        <path id="Trazado_53381" data-name="Trazado 53381" d="M119.624,17.464a17.542,17.542,0,0,0,2.037-.764h-.509c-.764.255-1.782.764-1.527.764" transform="translate(184.858 25.815)" fill="#91bf3f"/>
        <path id="Trazado_53382" data-name="Trazado 53382" d="M121.824,17.118c.255.255,1.018-.255,1.528-.509.255,0,.255-.255.509-.255a.249.249,0,0,0-.255-.255c-1.018.255-2.037.764-1.782,1.018" transform="translate(188.259 24.888)" fill="#91bf3f"/>
        <path id="Trazado_53383" data-name="Trazado 53383" d="M123.991,17.116a2.811,2.811,0,0,0-2.037,0l-.255.255c0,.509.255,1.018,2.291,0,.255.255.509-.255,0-.255" transform="translate(188.128 26.163)" fill="#91bf3f"/>
        <path id="Trazado_53384" data-name="Trazado 53384" d="M123.118,16.4c-1.018.255-1.018.509-1.018.764s1.528-.255,2.037-.764h-1.018" transform="translate(188.747 25.352)" fill="#91bf3f"/>
        <path id="Trazado_53385" data-name="Trazado 53385" d="M126.253,16.4H126a4.72,4.72,0,0,0-1.782.509c-.255,0-.255.255,0,.255.764.255,3.055-.255,2.037-.764" transform="translate(191.722 25.352)" fill="#91bf3f"/>
        <path id="Trazado_53386" data-name="Trazado 53386" d="M124.8,15.8c-.509,0-2.546.509-1.527.764,1.273-.255,1.782-.764,1.527-.764" transform="translate(190.122 24.424)" fill="#91bf3f"/>
        <path id="Trazado_53387" data-name="Trazado 53387" d="M124.851,16.378h0c.255-.509-.509-.255-1.018,0s0,.255.255.255h.255a.889.889,0,0,0,.509-.255" transform="translate(191.088 24.864)" fill="#91bf3f"/>
        <path id="Trazado_53388" data-name="Trazado 53388" d="M127.191,15.8a3.783,3.783,0,0,0-2.291.509.889.889,0,0,0,.509.255c.255,0,.764-.255,1.018-.255h.764c0-.255.255-.255,0-.509" transform="translate(193.075 24.424)" fill="#91bf3f"/>
        <path id="Trazado_53389" data-name="Trazado 53389" d="M126.082,15.855h0c.509-.255.255-.255,0-.255h-.509a1.4,1.4,0,0,0-1.273.764,16.226,16.226,0,0,1,1.782-.509" transform="translate(192.147 24.115)" fill="#91bf3f"/>
        <path id="Trazado_53390" data-name="Trazado 53390" d="M107,27.2Z" transform="translate(165.404 42.047)" fill="#8abf45"/>
        <path id="Trazado_53391" data-name="Trazado 53391" d="M110.509,20.555,110,20.3Z" transform="translate(170.042 31.38)" fill="#13a654"/>
        <path id="Trazado_53392" data-name="Trazado 53392" d="M117.3,33h0l.509.255Z" transform="translate(181.327 51.013)" fill="#3d7f3c"/>
        <path id="Trazado_53393" data-name="Trazado 53393" d="M118.264,33.609,117.5,33.1Z" transform="translate(181.636 51.167)" fill="#3d7f3c"/>
        <path id="Trazado_53394" data-name="Trazado 53394" d="M94.116,32.4h0L79.86,72.373h28.259ZM83.678,12.8h21.894l37.678,97H121.866l-8.4-22.149H74.513l-8.4,22.149H46Z" transform="translate(71.108 19.787)" fill="#2f7338"/>
        <path id="Trazado_53395" data-name="Trazado 53395" d="M85.784,93.312a53.278,53.278,0,0,1-20.876,3.819c-20.621,0-32.841-14.766-32.841-34.623S44.541,27.375,64.4,27.375a39.692,39.692,0,0,1,20.876,5.092h0l1.782,1.018,2.037-16.293L86.8,16.173h0A69.544,69.544,0,0,0,64.908,12.1C32.067,12.1,11.7,30.685,11.7,64.035S33.34,112.66,64.908,112.66a110.4,110.4,0,0,0,22.149-3.055l2.291-.764L87.311,92.8Z" transform="translate(18.086 18.705)" fill="#2f7338"/>
        <path id="Trazado_53396" data-name="Trazado 53396" d="M.3,12.8H19.648v97H.3Z" transform="translate(0.464 19.787)" fill="#2f7338"/>
      </g>
    </g>
  </g>
</svg>
