<svg xmlns="http://www.w3.org/2000/svg" width="803.599" height="396.153" viewBox="0 0 803.599 396.153">
  <g id="Grupo_27539" data-name="Grupo 27539" transform="translate(-17.075 -13.474)">
    <g id="Grupo_27492" data-name="Grupo 27492" transform="translate(17.075 13.474)">
      <g id="Grupo_27490" data-name="Grupo 27490">
        <path id="Rectángulo_5363" data-name="Rectángulo 5363" d="M6.674,0H123.256a6.675,6.675,0,0,1,6.675,6.675V123.256a6.674,6.674,0,0,1-6.674,6.674H6.675A6.675,6.675,0,0,1,0,123.256V6.674A6.674,6.674,0,0,1,6.674,0Z" transform="translate(0.924 92.799) rotate(-45)" fill="#fff"/>
        <path id="Trazado_54403" data-name="Trazado 54403" d="M197.073,92.713,123.433,19.074a19.215,19.215,0,0,0-27.119,0L22.675,92.713a19.215,19.215,0,0,0,0,27.119l73.639,73.639a19.21,19.21,0,0,0,27.119,0l73.641-73.639a19.215,19.215,0,0,0,0-27.119Zm-8.884,18.236L114.55,184.588a6.649,6.649,0,0,1-9.352,0L31.558,110.949a6.649,6.649,0,0,1,0-9.352L105.2,27.957a6.653,6.653,0,0,1,9.352,0L188.189,101.6a6.649,6.649,0,0,1,0,9.352Z" transform="translate(-17.075 -13.474)" fill="#ed1c24" fill-rule="evenodd"/>
      </g>
      <g id="Grupo_27491" data-name="Grupo 27491" transform="translate(43.212 33.215)">
        <path id="Trazado_54404" data-name="Trazado 54404" d="M63.968,57.831c-.842,5.481-4.793,8.614,3.41,8.614s4.254-3.133,3.41-8.614c-.249-1.621-1.592-4.368-3.41-4.308C65.56,53.464,64.217,56.211,63.968,57.831Z" transform="translate(-18.166 -9.371)"/>
        <path id="Trazado_54405" data-name="Trazado 54405" d="M52.177,76.522C51.072,86.092,57.8,86,61.343,85.337a41.37,41.37,0,0,1-.068,7.82c-.259,3.012-.442,5.152.991,7.119,2.191,3.008,11,7.194,15.561,7.194s13.341-4.2,15.559-7.184c2.567-3.46.1-10.646.842-14.958,3.529.676,10.331.813,9.222-8.805-.7-6.037-3.381-6.394-.732-12.568,5.581-13-.267-27.542-14.322-31.8a37.342,37.342,0,0,0-10.438-1.489,36.059,36.059,0,0,0-10.727,1.489c-13.843,4.31-19.567,18.882-14.322,31.8C55.438,70.178,52.872,70.485,52.177,76.522ZM91.553,98.927c-1.661,2.5-9.845,6.253-13.726,6.253s-11.964-3.837-13.72-6.246c-.923-1.267-.943-3.085-.552-5.591a32.389,32.389,0,0,0,.408-8.185A5.284,5.284,0,0,1,66,88.2a22.934,22.934,0,0,1,.58,6.089h0a1.14,1.14,0,0,0,.655,1.032,23.73,23.73,0,0,0,21.053.044,1.146,1.146,0,0,0,.757-1.076,23.017,23.017,0,0,1,.578-6.089,5.383,5.383,0,0,1,1.911-2.956C90.774,89.878,93.1,96.591,91.553,98.927Zm-23.6-64.606a37.359,37.359,0,0,1,10.011-1.395,30.8,30.8,0,0,1,9.721,1.395c8.971,2.99,15.136,10.237,15.026,20.86-.058,5.614-2.374,7.592-3.033,11.4a14.387,14.387,0,0,1-.821-9.182c.321-1.468-1.557-1.524-1.721-.029a22.8,22.8,0,0,0,.042,6.806c.634,3.64,9.176,18.124.663,19.1-3.176.367-5.11-1.14-6.143-.721-4.476,1.816-4.891,6.719-4.932,11a21.379,21.379,0,0,1-17.894,0c-.039-4.157-.467-9.329-4.982-11.015a1.135,1.135,0,0,0-.732-.021l0,0a13.647,13.647,0,0,1-5.357.763c-8.427-.97-.108-15.273.481-18.92a23.623,23.623,0,0,0,.222-6.989c-.164-1.5-1.773-1.354-1.609.141a25.713,25.713,0,0,1-.931,9.072,15.21,15.21,0,0,0-.883-3.342C50.139,51.173,55.217,38.027,67.948,34.321Z" transform="translate(-28.688 -30.668)"/>
        <path id="Trazado_54406" data-name="Trazado 54406" d="M63.364,60.369c4.646-1.7,8.162-3.5,8.388-9.8.143-3.978-11.311-1.319-13.474-.765-1.9.487-2.583,1.418-2.635,2.722v.313a14.748,14.748,0,0,0,.877,3.726C57.515,59.641,61.037,61.217,63.364,60.369Z" transform="translate(-24.349 -14.125)"/>
        <path id="Trazado_54407" data-name="Trazado 54407" d="M74.245,60.369c2.326.848,5.85-.728,6.844-3.8a15.243,15.243,0,0,0,.877-3.682v-.377c-.056-1.294-.748-2.218-2.637-2.7-2.164-.554-13.617-3.213-13.474.765C66.081,56.865,69.6,58.673,74.245,60.369Z" transform="translate(-14.835 -14.125)"/>
        <path id="Trazado_54408" data-name="Trazado 54408" d="M138.6,72.394a9.586,9.586,0,0,0-1.261-3.893,3.259,3.259,0,0,0-1.969-1.333,6.56,6.56,0,0,0-.164-3.723,6.769,6.769,0,0,0-1.028-1.992,4.634,4.634,0,0,0-1.762-1.449,3.876,3.876,0,0,0-2.878-.126c-3.781,1.24-5.059,3.516-6.369,5.846a10.54,10.54,0,0,1-3.612,4.294c-5.04,3.106-12.323,6.642-18.706,9.738-2.131,1.035-4.161,2.021-6.182,3.031l0,0c-.251.126-.974.5-1.723.881-1.2.614-2.5,1.285-3.893,1.932-1.625-.8-3.176-1.576-4.555-2.266l-1.1-.547,0,0c-1.119-.56-2.237-1.109-3.377-1.665L77.2,79.754c-6.379-3.1-13.658-6.63-18.7-9.734a10.555,10.555,0,0,1-3.612-4.294c-1.308-2.33-2.589-4.607-6.369-5.846A3.88,3.88,0,0,0,45.649,60a4.648,4.648,0,0,0-1.764,1.451,6.8,6.8,0,0,0-1.028,1.994,6.536,6.536,0,0,0-.162,3.721,3.264,3.264,0,0,0-1.97,1.333,9.555,9.555,0,0,0-1.26,3.891,6.816,6.816,0,0,0,.74,3.692c1.743,3.4,6.166,3.056,9.561,2.791.653-.05,1.265-.1,1.7-.112,2.3-.068,18.511,8.017,26.62,12.062l.068.035c-1.814.858-3.508,1.6-4.936,2.16A14.577,14.577,0,0,1,69.5,94.154c-.44-.014-1.053-.062-1.708-.112-3.392-.267-7.816-.61-9.559,2.79a6.816,6.816,0,0,0-.74,3.692,9.549,9.549,0,0,0,1.261,3.891,3.253,3.253,0,0,0,1.969,1.335,6.552,6.552,0,0,0,.162,3.721,6.85,6.85,0,0,0,1.028,1.994,4.675,4.675,0,0,0,1.764,1.449,3.875,3.875,0,0,0,2.878.124c3.781-1.238,5.059-3.516,6.367-5.846a10.55,10.55,0,0,1,3.612-4.292c2.054-1.265,4.157-2.448,6.3-3.582,2.071-1.1,4.1-2.117,6.13-3.114l.056-.027c4.381,2.158,8.751,4.4,12.512,6.723a10.528,10.528,0,0,1,3.612,4.294c1.308,2.33,2.589,4.605,6.369,5.844a3.871,3.871,0,0,0,2.876-.124,4.661,4.661,0,0,0,1.764-1.449,6.79,6.79,0,0,0,1.028-2,6.529,6.529,0,0,0,.162-3.719,3.266,3.266,0,0,0,1.97-1.335,9.584,9.584,0,0,0,1.26-3.891,6.816,6.816,0,0,0-.74-3.692c-1.744-3.4-6.168-3.056-9.562-2.79-.653.05-1.265.1-1.7.112-1.03.029-4.47-1.393-8.662-3.325,8.66-4.312,24.511-12.13,26.688-12.066.439.014,1.051.062,1.706.112,3.394.265,7.816.61,9.559-2.79A6.839,6.839,0,0,0,138.6,72.394Zm-56.83,24.9c-2.156,1.144-4.3,2.349-6.431,3.663a12.378,12.378,0,0,0-4.408,5.117c-1.088,1.938-2.152,3.829-5.081,4.789a1.654,1.654,0,0,1-1.232-.035,2.367,2.367,0,0,1-.887-.751,4.473,4.473,0,0,1-.67-1.312A3.864,3.864,0,0,1,63,106.152l.025-.06A9.047,9.047,0,0,0,65.8,105.8a1.141,1.141,0,0,0-.67-2.181,7.71,7.71,0,0,1-3,.106,2.778,2.778,0,0,1-1.389-.419,7.311,7.311,0,0,1-.972-2.952,4.587,4.587,0,0,1,.489-2.484c1.047-2.04,4.617-1.762,7.358-1.547.622.048,1.2.095,1.814.112a15.257,15.257,0,0,0,4.619-1.285c1.912-.75,4.25-1.8,6.705-3.006,1.275.628,2.531,1.24,3.792,1.853.62.3,1.254.612,1.882.918C84.846,95.7,83.277,96.491,81.766,97.293Zm26.86-.86c.612-.017,1.192-.064,1.81-.112,2.741-.214,6.317-.493,7.362,1.547a4.589,4.589,0,0,1,.491,2.484,7.315,7.315,0,0,1-.974,2.952,2.753,2.753,0,0,1-1.387.417,7.685,7.685,0,0,1-3-.1,1.141,1.141,0,1,0-.67,2.181,9.06,9.06,0,0,0,2.776.294l.023.06a3.845,3.845,0,0,1-.054,2.61,4.531,4.531,0,0,1-.67,1.314,2.4,2.4,0,0,1-.887.751,1.66,1.66,0,0,1-1.234.035c-2.929-.958-3.991-2.851-5.081-4.789a12.35,12.35,0,0,0-4.408-5.117c-5.17-3.186-11.347-6.186-17.182-9.018q-2.069-1.006-3.956-1.928a1.1,1.1,0,0,0-.547-.27c-.336-.166-.705-.344-1.022-.5l-.2-.1a.838.838,0,0,0-.083-.044l-.628-.315c-8.278-4.128-24.82-12.381-27.7-12.294-.612.017-1.192.064-1.81.112-2.743.213-6.315.493-7.36-1.547a4.6,4.6,0,0,1-.491-2.486,7.315,7.315,0,0,1,.974-2.952,2.753,2.753,0,0,1,1.387-.417,7.683,7.683,0,0,1,3,.106,1.141,1.141,0,0,0,.67-2.181A9.06,9.06,0,0,0,45,66.825l-.025-.062a3.87,3.87,0,0,1,.056-2.61,4.477,4.477,0,0,1,.672-1.312,2.373,2.373,0,0,1,.887-.753,1.654,1.654,0,0,1,1.232-.035c2.929.96,3.993,2.853,5.081,4.789a12.373,12.373,0,0,0,4.406,5.117c5.164,3.182,12.485,6.736,18.9,9.85,1.329.645,2.621,1.275,3.808,1.855.85.417,1.646.807,2.359,1.165h0l0,0,1.1.547C91.733,89.5,105.794,96.516,108.626,96.433Zm27.2-21.385c-1.045,2.04-4.617,1.76-7.36,1.547-.618-.048-1.2-.095-1.812-.112-2.9-.087-21.132,8.987-29.4,13.107-1.839-.871-3.746-1.795-5.616-2.712.813-.4,1.6-.8,2.337-1.182.448-.23.869-.446,1.706-.864l0,0h0c1.706-.854,3.877-1.907,6.157-3.014,6.419-3.116,13.745-6.672,18.911-9.856a12.377,12.377,0,0,0,4.41-5.115c1.088-1.938,2.15-3.831,5.079-4.791a1.668,1.668,0,0,1,1.234.035,2.406,2.406,0,0,1,.887.753,4.472,4.472,0,0,1,.67,1.312,3.858,3.858,0,0,1,.056,2.61l-.025.062a9.06,9.06,0,0,0-2.776.294,1.141,1.141,0,0,0,.67,2.181,7.683,7.683,0,0,1,3-.106,2.753,2.753,0,0,1,1.387.417,7.323,7.323,0,0,1,.974,2.954A4.592,4.592,0,0,1,135.824,75.048Z" transform="translate(-39.444 -3.65)"/>
      </g>
    </g>
    <g id="Grupo_27494" data-name="Grupo 27494" transform="translate(220.236 13.474)">
      <g id="Grupo_27493" data-name="Grupo 27493">
        <path id="Trazado_54409" data-name="Trazado 54409" d="M129.253,94.127l73.641-73.641a12.931,12.931,0,0,1,18.234,0l73.641,73.641a12.931,12.931,0,0,1,0,18.234L221.128,186a12.934,12.934,0,0,1-18.234,0l-73.641-73.641A12.931,12.931,0,0,1,129.253,94.127Z" transform="translate(-119.212 -10.445)" fill="#fff" fill-rule="evenodd"/>
        <path id="Trazado_54410" data-name="Trazado 54410" d="M302.24,92.713,228.6,19.074a19.213,19.213,0,0,0-27.117,0L127.841,92.713a19.215,19.215,0,0,0,0,27.119l73.641,73.639a19.208,19.208,0,0,0,27.117,0l73.641-73.639a19.215,19.215,0,0,0,0-27.119Zm-8.882,18.236-73.641,73.639a6.649,6.649,0,0,1-9.352,0l-73.641-73.639a6.653,6.653,0,0,1,0-9.352l73.641-73.641a6.653,6.653,0,0,1,9.352,0L293.357,101.6a6.653,6.653,0,0,1,0,9.352Z" transform="translate(-122.241 -13.474)" fill="#ed1c24" fill-rule="evenodd"/>
      </g>
      <path id="Trazado_54411" data-name="Trazado 54411" d="M200.869,66.04l-20.691,5.727,14.251-39.307L175.9,35.392,159.6,89.637,181.8,83.3l-11.223,39.341-5.29.65L166.33,144.7l16.361-23.544-6.808.837Z" transform="translate(-87.433 4.218)" fill-rule="evenodd"/>
    </g>
    <g id="Grupo_27497" data-name="Grupo 27497" transform="translate(428.779 13.474)">
      <g id="Grupo_27495" data-name="Grupo 27495">
        <path id="Trazado_54412" data-name="Trazado 54412" d="M237.209,94.127l73.639-73.641a12.931,12.931,0,0,1,18.234,0L402.72,94.127a12.931,12.931,0,0,1,0,18.234L329.082,186a12.934,12.934,0,0,1-18.234,0l-73.639-73.641A12.924,12.924,0,0,1,237.209,94.127Z" transform="translate(-227.163 -10.445)" fill="#fff" fill-rule="evenodd"/>
        <path id="Trazado_54413" data-name="Trazado 54413" d="M410.192,92.713,336.553,19.074a19.213,19.213,0,0,0-27.117,0L235.793,92.713a19.215,19.215,0,0,0,0,27.119l73.643,73.639a19.208,19.208,0,0,0,27.117,0l73.639-73.639a19.215,19.215,0,0,0,0-27.119Zm-8.882,18.236-73.643,73.639a6.646,6.646,0,0,1-9.35,0l-73.639-73.639a6.644,6.644,0,0,1,0-9.352l73.639-73.641a6.651,6.651,0,0,1,9.35,0L401.309,101.6a6.649,6.649,0,0,1,0,9.352Z" transform="translate(-230.193 -13.474)" fill="#ed1c24" fill-rule="evenodd"/>
      </g>
      <g id="Grupo_27496" data-name="Grupo 27496" transform="translate(45.784 33.177)">
        <path id="Trazado_54414" data-name="Trazado 54414" d="M334.227,104c-1.292-9.222,16.519-13.362,7.441-29.132-.012,7.395-9.52,4.831-12.715,11.481-2.121-14.112,11.6-21.789-4.822-38.737,1.615,11.572-5.11,10.89-8.57,23.883,4.184-24.291-7.082-35.516-17.632-40.85,4.088,18.88-11.172,18.567-9.379,39.6-3.46-12.993-11.247-12.814-10.165-23.132-16.687,15.955-.245,22.645-5.523,39.239-3.993-5.9-12.972-3.835-12.715-11.481-14.127,15.52,7.414,19.9,6.908,27.878-6.75-1.1-6.18-4.594-13.163-1.321,7.957,3.431,4.787,22.836,34.04,27.213a49.572,49.572,0,0,1-8.214-4.014c-4.4-2.71-6.448-6.369-10.938-9.027,5.448-2.274,8.548-.033,14.149.066-.122-6.81-11.689-4.466-9.991-16.084,3.242,4.887,9.715.019,13.254,5.79,2.842-9.6-8.409-6.074-3.694-21.049.767,7.109,8.844,4.567,10.1,9.224a23.266,23.266,0,0,0,6.2-14.058,85.5,85.5,0,0,1,2.637-14.025c-.431,5.083,3.958,10.322,4.449,13.519.817,5.334-1.049,10.034,2.158,14.168,3-6.545,9.9-2.119,11.033-9.331,4.712,14.977-4.976,10.21-2.137,19.813,2.747-3.782,9.489-.9,11.939-4.051,1.7,11.618-9.607,7.536-9.727,14.346,5.6-.1,8.436-.6,13.884,1.673-4.49,2.658-6.535,6.317-10.938,9.027a49.471,49.471,0,0,1-8.251,4.028c29.294-4.321,26.12-23.572,34.077-27.227C340.94,98.155,339.915,101.9,334.227,104Z" transform="translate(-253.893 -30.648)" fill-rule="evenodd"/>
        <rect id="Rectángulo_5364" data-name="Rectángulo 5364" width="52.129" height="5.958" transform="translate(20.951 102.758)"/>
      </g>
    </g>
    <g id="Grupo_27499" data-name="Grupo 27499" transform="translate(635.075 13.474)">
      <path id="Rectángulo_5365" data-name="Rectángulo 5365" d="M6.674,0H123.257a6.673,6.673,0,0,1,6.673,6.673V123.256a6.674,6.674,0,0,1-6.674,6.674H6.673A6.673,6.673,0,0,1,0,123.257V6.674A6.674,6.674,0,0,1,6.674,0Z" transform="translate(0.923 92.797) rotate(-44.999)" fill="#fff"/>
      <g id="Grupo_27498" data-name="Grupo 27498" transform="translate(37.771 10.529)">
        <path id="Trazado_54415" data-name="Trazado 54415" d="M374.4,97.7c-4.043-5.2-4.716-12.418-.678-17.817l3.883,4.478,7.507-1.086,4.505,4.843L398.21,85.5l1.565,5.282,8.954-3.245C403.669,98.579,384.09,110.182,374.4,97.7Z" transform="translate(-342.787 37.881)" fill-rule="evenodd"/>
        <path id="Trazado_54416" data-name="Trazado 54416" d="M368.282,85.274l5.173-6.047-6.864-4.3A19.581,19.581,0,0,0,368.282,85.274Z" transform="translate(-347.041 33.258)" fill-rule="evenodd"/>
        <path id="Trazado_54417" data-name="Trazado 54417" d="M392.973,74.665l-2.909-6.719-8.535,7.171,3.875,6.022Z" transform="translate(-332.989 26.754)" fill-rule="evenodd"/>
        <path id="Trazado_54418" data-name="Trazado 54418" d="M393.223,88.91a22.6,22.6,0,0,0,11.572-1.327l-7.38-4.918Z" transform="translate(-322.092 40.469)" fill-rule="evenodd"/>
        <path id="Trazado_54419" data-name="Trazado 54419" d="M461.253,67.859l-70.376,36.93L461.249,57.3a9.458,9.458,0,0,1,0,10.563Z" transform="translate(-324.278 16.831)" fill-rule="evenodd"/>
        <path id="Trazado_54420" data-name="Trazado 54420" d="M416.859,66.313a22.639,22.639,0,0,0,.57-11.635l-6.052,6.481Z" transform="translate(-305.176 14.391)" fill-rule="evenodd"/>
        <path id="Trazado_54421" data-name="Trazado 54421" d="M458.044,56.232,389.891,106.1l65.75-52.06Z" transform="translate(-325.197 13.801)" fill-rule="evenodd"/>
        <path id="Trazado_54422" data-name="Trazado 54422" d="M440.668,47.671,383.83,120.7l49.257-79.923Z" transform="translate(-330.845 1.44)" fill-rule="evenodd"/>
        <path id="Trazado_54423" data-name="Trazado 54423" d="M428.707,39.47l-45.922,84.274,43.168-86.779Z" transform="translate(-331.818 -2.114)" fill-rule="evenodd"/>
        <path id="Trazado_54424" data-name="Trazado 54424" d="M443.437,47.849l-57.011,66.262,54.585-68.465Z" transform="translate(-328.426 5.975)" fill-rule="evenodd"/>
        <path id="Trazado_54425" data-name="Trazado 54425" d="M428.363,63.551l-6.218-2.167L388.131,97.522Z" transform="translate(-326.837 20.641)" fill-rule="evenodd"/>
        <path id="Trazado_54426" data-name="Trazado 54426" d="M367.545,37.5l17.873,79.331L360.92,44.8Z" transform="translate(-352.193 -1.611)" fill-rule="evenodd"/>
        <path id="Trazado_54427" data-name="Trazado 54427" d="M359.887,43.378l25.163,63.048L358.076,45.37Z" transform="translate(-354.843 3.862)" fill-rule="evenodd"/>
        <path id="Trazado_54428" data-name="Trazado 54428" d="M368.327,34.435l14.04,80.078-16.5-77.372Z" transform="translate(-347.583 -4.472)" fill-rule="evenodd"/>
        <path id="Trazado_54429" data-name="Trazado 54429" d="M388.547,31.991l4.01,6.866,6.319-5.063A19.543,19.543,0,0,0,388.547,31.991Z" transform="translate(-326.449 -6.807)" fill-rule="evenodd"/>
        <path id="Trazado_54430" data-name="Trazado 54430" d="M396.993,21.157,375.332,136.364l9.054-114.825a9.426,9.426,0,0,1,12.607-.382Z" transform="translate(-338.763 -18.924)" fill-rule="evenodd"/>
        <path id="Trazado_54431" data-name="Trazado 54431" d="M415.717,36.492,386.85,97.861l23.023-66.677Z" transform="translate(-328.031 -7.501)" fill-rule="evenodd"/>
        <path id="Trazado_54432" data-name="Trazado 54432" d="M398.208,23.592l-19.02,87.151,16.156-89.752Z" transform="translate(-335.171 -16.998)" fill-rule="evenodd"/>
        <path id="Trazado_54433" data-name="Trazado 54433" d="M375.194,26.948l-.14,73.189L372.6,29.8Z" transform="translate(-341.308 -11.448)" fill-rule="evenodd"/>
        <path id="Trazado_54434" data-name="Trazado 54434" d="M357.64,58.755l4.275.362-1.332-6.389-4.181.326Z" transform="translate(-356.402 12.575)" fill-rule="evenodd"/>
        <path id="Trazado_54435" data-name="Trazado 54435" d="M404,40.639l-7.373-3.764-18.258,83.969Z" transform="translate(-335.93 -2.198)" fill-rule="evenodd"/>
        <path id="Trazado_54436" data-name="Trazado 54436" d="M413.974,35.127,391.445,80.7,415.6,36.608Z" transform="translate(-323.749 -3.827)" fill-rule="evenodd"/>
        <path id="Trazado_54437" data-name="Trazado 54437" d="M378.348,24.431l-1.811,56,4.388-58.836Z" transform="translate(-337.64 -16.438)" fill-rule="evenodd"/>
        <path id="Trazado_54438" data-name="Trazado 54438" d="M370.8,46.188l3.483-4.447-4.2-5.846A30.16,30.16,0,0,0,370.8,46.188Z" transform="translate(-343.823 -3.111)" fill-rule="evenodd"/>
      </g>
      <path id="Trazado_54439" data-name="Trazado 54439" d="M516.847,92.713,443.208,19.074a19.217,19.217,0,0,0-27.121,0L342.448,92.713a19.22,19.22,0,0,0,0,27.119l73.639,73.639a19.213,19.213,0,0,0,27.121,0l73.639-73.639a19.215,19.215,0,0,0,0-27.119Zm-8.88,18.236-73.643,73.639a6.646,6.646,0,0,1-9.35,0l-73.643-73.639a6.653,6.653,0,0,1,0-9.352l73.643-73.641a6.651,6.651,0,0,1,9.35,0L507.966,101.6a6.653,6.653,0,0,1,0,9.352Z" transform="translate(-336.85 -13.474)" fill="#ed1c24" fill-rule="evenodd"/>
    </g>
    <g id="Grupo_27502" data-name="Grupo 27502" transform="translate(17.075 224.026)">
      <g id="Grupo_27500" data-name="Grupo 27500">
        <path id="Trazado_54440" data-name="Trazado 54440" d="M24.087,203.118l73.641-73.639a12.931,12.931,0,0,1,18.234,0L189.6,203.118a12.934,12.934,0,0,1,0,18.234l-73.641,73.641a12.931,12.931,0,0,1-18.234,0L24.087,221.352A12.931,12.931,0,0,1,24.087,203.118Z" transform="translate(-14.046 -119.436)" fill="#fff" fill-rule="evenodd"/>
        <path id="Trazado_54441" data-name="Trazado 54441" d="M197.073,201.707l-73.641-73.641a19.215,19.215,0,0,0-27.119,0L22.675,201.707a19.215,19.215,0,0,0,0,27.119l73.639,73.639a19.21,19.21,0,0,0,27.119,0l73.641-73.639a19.215,19.215,0,0,0,0-27.119Zm-8.884,18.234L114.55,293.582a6.649,6.649,0,0,1-9.352,0L31.558,219.941a6.646,6.646,0,0,1,0-9.35L105.2,136.951a6.649,6.649,0,0,1,9.352,0l73.639,73.641a6.646,6.646,0,0,1,0,9.35Z" transform="translate(-17.075 -122.466)" fill="#ed1c24" fill-rule="evenodd"/>
      </g>
      <g id="Grupo_27501" data-name="Grupo 27501" transform="translate(44.128 52.068)">
        <path id="Trazado_54442" data-name="Trazado 54442" d="M75.275,189.259h34.431a48.676,48.676,0,0,0-23-39.84l-16.2,28.061-1.016,1.76c.352.257.692.531,1.016.817A14.293,14.293,0,0,1,75.275,189.259Z" transform="translate(-12.363 -149.419)"/>
        <path id="Trazado_54443" data-name="Trazado 54443" d="M59.684,175.9a10.483,10.483,0,1,0,1.014-4.5A10.471,10.471,0,0,0,59.684,175.9Z" transform="translate(-21.5 -134.517)"/>
        <path id="Trazado_54444" data-name="Trazado 54444" d="M79.116,180.061c.326-.288.666-.562,1.016-.821l-1.016-1.76-16.2-28.061a48.672,48.672,0,0,0-23,39.84H74.349A14.3,14.3,0,0,1,79.116,180.061Z" transform="translate(-39.918 -149.419)"/>
        <path id="Trazado_54445" data-name="Trazado 54445" d="M81.993,177.625a14.346,14.346,0,0,1-11.57,0l-3.688,6.385-13.53,23.439a48.652,48.652,0,0,0,46.006,0L85.679,184.01Z" transform="translate(-27.537 -123.138)"/>
      </g>
    </g>
    <g id="Grupo_27505" data-name="Grupo 27505" transform="translate(220.236 224.026)">
      <g id="Grupo_27503" data-name="Grupo 27503">
        <path id="Trazado_54446" data-name="Trazado 54446" d="M129.253,203.118l73.641-73.639a12.931,12.931,0,0,1,18.234,0l73.641,73.639a12.931,12.931,0,0,1,0,18.234l-73.641,73.641a12.931,12.931,0,0,1-18.234,0l-73.641-73.641A12.931,12.931,0,0,1,129.253,203.118Z" transform="translate(-119.212 -119.436)" fill="#fff" fill-rule="evenodd"/>
        <path id="Trazado_54447" data-name="Trazado 54447" d="M302.24,201.707,228.6,128.066a19.213,19.213,0,0,0-27.117,0l-73.641,73.641a19.215,19.215,0,0,0,0,27.119l73.641,73.639a19.208,19.208,0,0,0,27.117,0l73.641-73.639a19.215,19.215,0,0,0,0-27.119Zm-8.882,18.234-73.641,73.641a6.649,6.649,0,0,1-9.352,0l-73.639-73.641a6.646,6.646,0,0,1,0-9.35l73.639-73.641a6.649,6.649,0,0,1,9.352,0l73.641,73.641a6.651,6.651,0,0,1,0,9.35Z" transform="translate(-122.241 -122.466)" fill="#ed1c24" fill-rule="evenodd"/>
      </g>
      <g id="Grupo_27504" data-name="Grupo 27504" transform="translate(40.017 37.114)">
        <path id="Trazado_54448" data-name="Trazado 54448" d="M155.438,167.777c-.071.831-.11,1.671-.11,2.519a28.794,28.794,0,0,0,16.332,25.962,18.329,18.329,0,0,0,1.8-3.356A25,25,0,0,1,159.13,170.3c0-.792.039-1.578.11-2.353A18.371,18.371,0,0,0,155.438,167.777Z" transform="translate(-131.428 -117.39)"/>
        <path id="Trazado_54449" data-name="Trazado 54449" d="M163.948,162.271a25,25,0,0,1,28.5.317,18.42,18.42,0,0,0,2.092-3.176,28.792,28.792,0,0,0-32.617-.365A18.161,18.161,0,0,0,163.948,162.271Z" transform="translate(-125.28 -130.044)"/>
        <path id="Trazado_54450" data-name="Trazado 54450" d="M175.824,192.833a18.251,18.251,0,0,0,1.781,3.361,28.791,28.791,0,0,0,16.2-25.9q0-1.278-.112-2.531a18.362,18.362,0,0,0-3.8.2c.072.765.11,1.542.11,2.326A24.992,24.992,0,0,1,175.824,192.833Z" transform="translate(-112.329 -117.39)"/>
        <path id="Trazado_54451" data-name="Trazado 54451" d="M175.211,192.744a20.933,20.933,0,0,1,8,6.873l5.417-3.126a7.246,7.246,0,0,1,5.057-8.763v-6.564a21.1,21.1,0,0,1-18.474-17.6,21.226,21.226,0,0,1,0-6.707,21.021,21.021,0,0,1,6.734-12.333l.3-.27v-2.577l-1.424.983a26.818,26.818,0,0,0-5.61,39c.522.639,1.068,1.252,1.646,1.841q-.817-.22-1.646-.39A26.793,26.793,0,0,0,143.1,207.251l-.139,1.727,2.231-1.289.085-.4a21.066,21.066,0,0,1,29.939-14.55Z" transform="translate(-142.956 -141.678)"/>
        <path id="Trazado_54452" data-name="Trazado 54452" d="M225.472,203.614a21.027,21.027,0,0,1-15.951-1.173c-.381-.191-.759-.394-1.132-.608a21.113,21.113,0,0,1-8.738-26.794l-5.6-3.232a7.24,7.24,0,0,1-10.115,0l-5.448,3.145a21.115,21.115,0,0,1-8.7,26.881c-.4.234-.811.452-1.229.657a21.033,21.033,0,0,1-15.856,1.124l-.384-.128-2.231,1.29,1.565.742a26.8,26.8,0,0,0,37.435-17.328,26.8,26.8,0,0,0,37.435,17.328l1.565-.742-2.231-1.29Z" transform="translate(-136.308 -113.603)"/>
        <path id="Trazado_54453" data-name="Trazado 54453" d="M222.022,207.251a26.791,26.791,0,0,0-32.211-24.115c-.259.054-.52.11-.777.174.265-.278.525-.56.777-.846a26.824,26.824,0,0,0-4.932-39.8l-1.428-.983v2.577l.3.269a21.08,21.08,0,0,1-12.51,36.712v6.493a7.255,7.255,0,0,1,5.059,8.763l5.548,3.2a21.081,21.081,0,0,1,37.995,7.6l.083.4,2.233,1.289Z" transform="translate(-116.597 -141.678)"/>
      </g>
    </g>
    <g id="Grupo_27507" data-name="Grupo 27507" transform="translate(428.779 224.026)">
      <g id="Grupo_27506" data-name="Grupo 27506">
        <path id="Trazado_54454" data-name="Trazado 54454" d="M237.209,203.118l73.639-73.639a12.93,12.93,0,0,1,18.234,0l73.639,73.639a12.931,12.931,0,0,1,0,18.234l-73.639,73.641a12.931,12.931,0,0,1-18.234,0l-73.639-73.641A12.924,12.924,0,0,1,237.209,203.118Z" transform="translate(-227.163 -119.436)" fill="#fff" fill-rule="evenodd"/>
        <path id="Trazado_54455" data-name="Trazado 54455" d="M410.192,201.707l-73.639-73.641a19.213,19.213,0,0,0-27.117,0l-73.643,73.641a19.215,19.215,0,0,0,0,27.119l73.643,73.639a19.208,19.208,0,0,0,27.117,0l73.639-73.639a19.215,19.215,0,0,0,0-27.119Zm-8.882,18.234-73.643,73.641a6.646,6.646,0,0,1-9.35,0l-73.639-73.641a6.642,6.642,0,0,1,0-9.35l73.639-73.641a6.646,6.646,0,0,1,9.35,0l73.643,73.641a6.646,6.646,0,0,1,0,9.35Z" transform="translate(-230.193 -122.466)" fill="#ed1c24" fill-rule="evenodd"/>
      </g>
      <path id="Trazado_54456" data-name="Trazado 54456" d="M294.263,152.541l-4.822,61.378a4.793,4.793,0,0,1-4.787,4.426h-2.4a4.793,4.793,0,0,1-4.787-4.426l-4.822-61.378c-.008-.112-.012-.218-.019-.328v-1.246c.676-12.118,21.016-12.109,21.658.035v1.2c-.008.114-.008.226-.019.344Zm-10.81,72.619A10.34,10.34,0,1,1,273.116,235.5,10.344,10.344,0,0,1,283.453,225.159Z" transform="translate(-190.654 -104.371)" fill-rule="evenodd"/>
    </g>
    <g id="Grupo_27540" data-name="Grupo 27540" transform="translate(635.075 223.58)">
      <g id="Grupo_27513" data-name="Grupo 27513">
        <path id="Trazado_54470" data-name="Trazado 54470" d="M24.087,312.111l73.641-73.641a12.934,12.934,0,0,1,18.234,0L189.6,312.111a12.936,12.936,0,0,1,0,18.236l-73.641,73.639a12.931,12.931,0,0,1-18.234,0L24.087,330.348A12.933,12.933,0,0,1,24.087,312.111Z" transform="translate(-14.046 -228.429)" fill="#fff" fill-rule="evenodd"/>
        <path id="Trazado_54471" data-name="Trazado 54471" d="M197.073,310.7l-73.641-73.641a19.215,19.215,0,0,0-27.119,0L22.675,310.7a19.215,19.215,0,0,0,0,27.119l73.639,73.639a19.215,19.215,0,0,0,27.119,0l73.641-73.639a19.215,19.215,0,0,0,0-27.119Zm-8.884,18.234L114.55,402.573a6.649,6.649,0,0,1-9.352,0L31.558,328.934a6.649,6.649,0,0,1,0-9.352L105.2,245.944a6.649,6.649,0,0,1,9.352,0l73.639,73.639a6.649,6.649,0,0,1,0,9.352Z" transform="translate(-17.075 -231.459)" fill="#ed1c24" fill-rule="evenodd"/>
      </g>
      <g id="Grupo_27514" data-name="Grupo 27514" transform="translate(37.447 59.826)">
        <path id="Trazado_54472" data-name="Trazado 54472" d="M112.876,286.431c-2.61-2.486-7.144-3.839-12.118-4.727L82.328,278.41c-3.755-.67-4.82,4.936-1.1,5.656l8.193,1.586c1.654.321,1.513,2.372-1.119,2.372H70.2c-.143,1.173-1.5,2.09-3.145,2.09s-3-.918-3.143-2.09H60.744c-3.3,0-3.3,5,0,5h21.75l-.317,1.088H57.847c-3.3,0-3.3,5,0,5H81.9V300.2H61.685c-3.3,0-3.3,5,0,5H82.3l.326,1.232H67.917c-3.3,0-3.3,5,0,5h35.07c8.658,0,10.61-2.212,22.048-1.945V290.729C118.969,290.729,116.983,290.343,112.876,286.431Z" transform="translate(-18.836 -247.587)" fill-rule="evenodd"/>
        <path id="Trazado_54473" data-name="Trazado 54473" d="M81.3,276.774a2.258,2.258,0,0,0,1.034.083v0a2.186,2.186,0,0,0,1.812-2.45l-1.364-10.092a2.184,2.184,0,0,0-3.9-1.03,2.2,2.2,0,0,0-.406.9L59.057,266.8l-17.574,2.374a5.814,5.814,0,0,0-4.972,6.524l0,.008h0l.01.046a5.814,5.814,0,0,0,6.512,4.918l.008,0v0l.039-.008,15.978-2.156,20.972-2.832A2.167,2.167,0,0,0,81.3,276.774Zm-.489-12.19L81.3,268.2l.873,6.475c.027.2-.315.39-.394-.008l-.479-3.551-.875-6.479A.2.2,0,0,1,80.811,264.584ZM77.589,274H38.565a3.839,3.839,0,0,1,3.184-2.853l17.309-2.338,19.475-2.627,1.02,7.553Z" transform="translate(-36.459 -262.428)" fill-rule="evenodd"/>
        <path id="Trazado_54474" data-name="Trazado 54474" d="M62.649,278.163a2.545,2.545,0,0,0,2.544-2.544c0-1.41-1.76-3.184-2.544-4.312-.782,1.128-2.544,2.9-2.544,4.312A2.545,2.545,0,0,0,62.649,278.163Z" transform="translate(-14.426 -254.154)" fill-rule="evenodd"/>
        <path id="Trazado_54475" data-name="Trazado 54475" d="M60.105,281.411a2.544,2.544,0,0,0,5.088,0c0-1.41-1.76-3.184-2.544-4.314C61.867,278.227,60.105,280,60.105,281.411Z" transform="translate(-14.426 -248.759)" fill-rule="evenodd"/>
      </g>
    </g>
  </g>
</svg>
