<svg xmlns="http://www.w3.org/2000/svg" width="501" height="350.649" viewBox="0 0 501 350.649">
  <g id="Grupo_22895" data-name="Grupo 22895" transform="translate(-528.993 -340.205)">
    <g id="Grupo_22869" data-name="Grupo 22869" transform="translate(588.148 340.205)">
      <g id="Grupo_22855" data-name="Grupo 22855" transform="translate(297.156 160.358)">
        <path id="Trazado_50502" data-name="Trazado 50502" d="M678.648,556.047c18.158-1.072,41.208-2.224,49.82-25.522,6.818-18.437-9.073-35.809,6.917-48.476,9.627-7.624,24.809-12.2,28.167-25.232,3.5-13.576-13.873-22.18-10.752-35.21,2.583-10.764,17.521-11.481,13.622-25.5-3.457-12.439-14.4-15.571-23.1-13.087-11.626,3.32-12.591,13.957-20.306,21.344-5.151,4.93-12.45-.023-20.009-.931-7.524-.908-17.162-.237-23.538,3.083-20.7,10.787-4.113,33.626-7.871,52.219-3.636,17.975-28.945,7.112-42.021,20.612-15.274,15.77-3.751,43.039,11.3,55.909C650.905,543.834,660.719,555.429,678.648,556.047Z" transform="translate(-622.377 -382.232)" fill="#fb345b"/>
        <g id="Grupo_22850" data-name="Grupo 22850" transform="translate(35.131 21.891)">
          <path id="Trazado_50503" data-name="Trazado 50503" d="M632.185,535.2a1.14,1.14,0,0,0,.339.13,1.344,1.344,0,0,0,1.591-.9c.145-.481,13.992-46.763,47.71-77.246,18.982-17.155,23.5-34.878,27.021-48.724,2.057-8.081,3.812-14.961,7.849-18.685a1.023,1.023,0,0,0-.08-1.358.893.893,0,0,0-1.267-.279c-4.354,3.987-6.174,11.077-8.311,19.41-3.5,13.663-7.986,31.15-26.712,47.946-34.4,30.849-48.549,77.864-48.694,78.352A1.176,1.176,0,0,0,632.185,535.2Z" transform="translate(-631.584 -387.97)" fill="#fff"/>
        </g>
        <g id="Grupo_22851" data-name="Grupo 22851" transform="translate(74.429 31.835)">
          <path id="Trazado_50504" data-name="Trazado 50504" d="M651.465,448.5a1.012,1.012,0,0,0,1.358-.05,1.105,1.105,0,0,0-.13-1.519c-6.822-6.723-11.256-19.688-6.811-27.853.522-.965,1.133-1.988,1.774-3.06,3.022-5.055,6.715-11.244,4.8-17.269-.942-2.949-3.174-5.616-6.589-7.948a.936.936,0,0,0-1.408.191,1.258,1.258,0,0,0,.526,1.5c2.953,2,4.739,4.1,5.506,6.486,1.637,5.136-1.858,10.943-4.708,15.689-.66,1.091-1.286,2.141-1.824,3.117-5.1,9.314-.073,23.294,7.383,30.6A.82.82,0,0,0,651.465,448.5Z" transform="translate(-641.884 -390.576)" fill="#fff"/>
        </g>
        <g id="Grupo_22852" data-name="Grupo 22852" transform="translate(84.71 70.361)">
          <path id="Trazado_50505" data-name="Trazado 50505" d="M649.129,424.328c3.583,2.557,7.089,3.728,10.455,3.514,5.22-.324,9.974-4.044,13.778-10.664.37-.645.778-1.408,1.229-2.244,2.515-4.67,6.25-11.615,10.821-12.252a5.794,5.794,0,0,1,4.468,1.469.757.757,0,0,0,1.183-.16,1.143,1.143,0,0,0-.343-1.358l-.008-.008a7.651,7.651,0,0,0-5.815-1.9c-5.307.717-9.283,8.058-11.958,13.007-.446.813-.851,1.564-1.217,2.2-3.541,6.124-7.853,9.547-12.484,9.814-4.048.233-8.4-1.923-12.923-6.437a1.013,1.013,0,0,0-1.48-.076,1.108,1.108,0,0,0,.111,1.522A33.8,33.8,0,0,0,649.129,424.328Z" transform="translate(-644.578 -400.673)" fill="#fff"/>
        </g>
        <g id="Grupo_22853" data-name="Grupo 22853" transform="translate(25.918 95.839)">
          <path id="Trazado_50506" data-name="Trazado 50506" d="M641.273,458.271a12.471,12.471,0,0,0,4.357,1.652,1.249,1.249,0,0,0,1.45-.973,1.2,1.2,0,0,0-1.015-1.393c-8.146-1.416-13.53-14.48-14.217-21.375-.282-2.865.7-6.41,1.74-10.142,1.828-6.586,3.7-13.324-.946-18.215a1.348,1.348,0,0,0-1.832-.206,1.11,1.11,0,0,0-.05,1.683c3.693,3.876,1.973,10.012.3,16-1.106,3.953-2.156,7.708-1.828,11.008C629.842,442.524,633.943,453.848,641.273,458.271Z" transform="translate(-629.17 -407.351)" fill="#fff"/>
        </g>
        <g id="Grupo_22854" data-name="Grupo 22854" transform="translate(43.069 123.08)">
          <path id="Trazado_50507" data-name="Trazado 50507" d="M638.328,443.476a14.629,14.629,0,0,0,4.468,1.74c9.066,1.969,20.589-3.216,26.007-7.055,2.839-2.018,5.338-5.819,7.951-9.791,4.071-6.193,8.2-12.465,13.393-11.676a.949.949,0,0,0,1.084-.9,1.146,1.146,0,0,0-.924-1.206c-6.406-1-11.1,6.1-15.338,12.5-2.514,3.808-4.922,7.444-7.444,9.214-4.918,3.461-15.945,8.429-24.187,6.6a10.787,10.787,0,0,1-7.33-5.212,1.293,1.293,0,0,0-1.7-.473,1.173,1.173,0,0,0-.488,1.629A12.915,12.915,0,0,0,638.328,443.476Z" transform="translate(-633.665 -414.49)" fill="#fff"/>
        </g>
      </g>
      <g id="Grupo_22861" data-name="Grupo 22861" transform="translate(0 139.456)">
        <path id="Trazado_50508" data-name="Trazado 50508" d="M652.428,563.879c12.282-13.862,48.564-32.711,39.033-54.329-8.112-18.383-47.022-16.121-42.341-38.289,2.77-13.11,6.364-24.3-2.1-39.212-9.222-16.243-36.782-7.4-46.336-22.481-8.211-12.954,2.671-21.153-14.286-29.8-15.052-7.681-35.916,0-38.735,15.556-3.846,20.18,15.647,17.7,17.761,32.177,1.347,9.214-7.047,12.423-11.859,18.879-4.6,6.177-8.741,15.064-9.047,22.714-.916,23,24.29,25.972,36.236,40.594,11.065,13.541-9.341,22.267-6.284,36.992,3.3,15.888,25.923,24.568,41.841,24.332C627.356,570.842,644.816,572.467,652.428,563.879Z" transform="translate(-544.496 -376.754)" fill="#6a9aee"/>
        <g id="Grupo_22856" data-name="Grupo 22856" transform="translate(32.119 29.511)">
          <path id="Trazado_50509" data-name="Trazado 50509" d="M612.679,549.676a.99.99,0,0,0,.29-.092.83.83,0,0,0,.385-1.252c-.218-.328-22.718-34.164-24.019-76.685-.862-28.346-12.641-46.485-22.306-61.365-5.838-8.986-10.924-16.827-11.706-24.683a1.268,1.268,0,0,0-1.317-1.11,1.1,1.1,0,0,0-1.087,1.213c.855,8.413,6.093,16.464,12.1,25.694,9.52,14.625,21.138,32.463,22.027,60.225,1.385,43.039,24.209,77.257,24.435,77.589A1.206,1.206,0,0,0,612.679,549.676Z" transform="translate(-552.915 -384.489)" fill="#fff"/>
        </g>
        <g id="Grupo_22857" data-name="Grupo 22857" transform="translate(16.343 78.868)">
          <path id="Trazado_50510" data-name="Trazado 50510" d="M599.05,435.338a1,1,0,0,0,.847-1.08,1.176,1.176,0,0,0-1.259-.965c-9.531.568-22.263-5-26.114-14.289-.462-1.118-.927-2.354-1.412-3.655-2.328-6.235-5.254-14.064-11.378-16.88-3-1.377-6.468-1.381-10.26-.073a1,1,0,0,0-.595,1.385,1.281,1.281,0,0,0,1.53.649c3.259-1.122,5.994-1.137,8.406-.034,5.189,2.392,7.933,9.707,10.123,15.541.5,1.32.973,2.579,1.442,3.716,4.384,10.538,18.173,16.323,28.506,15.708A1.053,1.053,0,0,0,599.05,435.338Z" transform="translate(-548.78 -397.424)" fill="#fff"/>
        </g>
        <g id="Grupo_22858" data-name="Grupo 22858" transform="translate(66.581 61.196)">
          <path id="Trazado_50511" data-name="Trazado 50511" d="M568.744,447.306c4.426-1,7.783-2.934,10.012-5.8,3.537-4.548,4.09-11.4,1.561-19.864-.252-.836-.572-1.809-.919-2.869-1.988-6.048-5.021-15.281-2.034-20.405A7.273,7.273,0,0,1,582.19,395a1.1,1.1,0,0,0,.817-1.374,1.232,1.232,0,0,0-1.465-.8l-.015,0a9.58,9.58,0,0,0-6.258,4.434c-3.446,5.933-.221,15.7,1.889,22.084.344,1.042.656,1.992.9,2.816,2.354,7.822,1.923,14.064-1.206,18.1-2.671,3.438-7.349,5.346-13.877,5.7a1.008,1.008,0,0,0-1.026,1.1,1.171,1.171,0,0,0,1.251.977A32.868,32.868,0,0,0,568.744,447.306Z" transform="translate(-561.947 -392.793)" fill="#fff"/>
        </g>
        <g id="Grupo_22859" data-name="Grupo 22859" transform="translate(39.064 157.287)">
          <path id="Trazado_50512" data-name="Trazado 50512" d="M594.471,441.992a10.8,10.8,0,0,0,3.667-1.335.852.852,0,0,0,.229-1.316,1.214,1.214,0,0,0-1.53-.252c-5.7,3.442-17.307-1.03-22.241-4.51-2.06-1.454-3.911-3.976-5.868-6.654-3.51-4.792-7.158-9.783-12.927-9.943a.932.932,0,0,0-1.065.935,1.12,1.12,0,0,0,1.133,1c4.544.134,7.849,4.644,11.027,8.97,2.072,2.823,4.021,5.479,6.379,7.139C577.7,439.145,587.374,443.285,594.471,441.992Z" transform="translate(-554.735 -417.977)" fill="#fff"/>
        </g>
        <g id="Grupo_22860" data-name="Grupo 22860" transform="translate(81.513 127.969)">
          <path id="Trazado_50513" data-name="Trazado 50513" d="M572.487,461.543a13.693,13.693,0,0,0,3.949-1.393c7.185-3.819,11.447-13.606,12.557-19.307.6-3.06-.321-7.1-1.293-11.408-1.561-6.88-3.186-14.056,1.29-17.326a.951.951,0,0,0,.141-1.442,1.261,1.261,0,0,0-1.614-.149c-5.506,4.033-3.652,12.168-2.03,19.265.942,4.121,1.824,7.986,1.3,10.691-1,5.159-5.013,14.564-11.553,18.048a10.808,10.808,0,0,1-8,.958,1.1,1.1,0,0,0-1.339.633.984.984,0,0,0,.79,1.183A13.457,13.457,0,0,0,572.487,461.543Z" transform="translate(-565.86 -410.293)" fill="#fff"/>
        </g>
      </g>
      <g id="Grupo_22862" data-name="Grupo 22862" transform="translate(89.574)">
        <rect id="Rectángulo_5131" data-name="Rectángulo 5131" width="10.923" height="61.208" transform="translate(70.434 269.923)" fill="#110239"/>
        <rect id="Rectángulo_5132" data-name="Rectángulo 5132" width="10.923" height="61.208" transform="translate(194.454 269.923)" fill="#110239"/>
        <rect id="Rectángulo_5133" data-name="Rectángulo 5133" width="275.811" height="275.496" fill="#c0d3e8"/>
        <rect id="Rectángulo_5134" data-name="Rectángulo 5134" width="241.566" height="245.992" transform="translate(17.123 14.752)" fill="#fff"/>
        <rect id="Rectángulo_5135" data-name="Rectángulo 5135" width="29.026" height="10.82" transform="translate(61.383 323.355)" fill="#c6d1de"/>
        <rect id="Rectángulo_5136" data-name="Rectángulo 5136" width="29.026" height="10.82" transform="translate(185.403 323.355)" fill="#c6d1de"/>
        <rect id="Rectángulo_5137" data-name="Rectángulo 5137" width="61.294" height="10.742" transform="translate(181.172 32.598)" fill="#e4e5ec"/>
        <rect id="Rectángulo_5138" data-name="Rectángulo 5138" width="61.294" height="10.742" transform="translate(181.172 56.501)" fill="#81ebeb"/>
        <rect id="Rectángulo_5139" data-name="Rectángulo 5139" width="61.294" height="10.742" transform="translate(181.172 80.404)" fill="#e4e5ec"/>
        <rect id="Rectángulo_5140" data-name="Rectángulo 5140" width="61.294" height="10.742" transform="translate(181.172 104.307)" fill="#fd425f"/>
        <rect id="Rectángulo_5141" data-name="Rectángulo 5141" width="11.193" height="11.193" transform="translate(34.058 32.117)" fill="#81ebeb"/>
        <rect id="Rectángulo_5142" data-name="Rectángulo 5142" width="50.767" height="11.193" transform="translate(56.044 32.117)" fill="#e4e5ec"/>
        <rect id="Rectángulo_5143" data-name="Rectángulo 5143" width="11.193" height="11.193" transform="translate(34.058 50.905)" fill="#81ebeb"/>
        <rect id="Rectángulo_5144" data-name="Rectángulo 5144" width="50.767" height="11.193" transform="translate(56.044 50.905)" fill="#e4e5ec"/>
        <rect id="Rectángulo_5145" data-name="Rectángulo 5145" width="11.193" height="11.193" transform="translate(34.058 69.693)" fill="#81ebeb"/>
        <rect id="Rectángulo_5146" data-name="Rectángulo 5146" width="50.767" height="11.193" transform="translate(56.044 69.693)" fill="#e4e5ec"/>
      </g>
      <g id="Grupo_22863" data-name="Grupo 22863" transform="translate(131.983 93.101)">
        <path id="Trazado_50514" data-name="Trazado 50514" d="M691.2,496.541A72.048,72.048,0,1,0,591.26,476.72,72.045,72.045,0,0,0,691.2,496.541Z" transform="translate(-579.088 -364.605)" fill="#6a9aee"/>
        <path id="Trazado_50515" data-name="Trazado 50515" d="M595.251,365.365a72.045,72.045,0,0,1,20.677,142.6Z" transform="translate(-533.579 -364.57)" fill="#fb345b"/>
        <path id="Trazado_50516" data-name="Trazado 50516" d="M596.909,485.016c-.118-.008-.233-.023-.351-.034l5.025-71.747,60.152-40.239a72.015,72.015,0,0,1-64.826,112.021Z" transform="translate(-529.899 -340.984)" fill="#81ebeb"/>
        <path id="Trazado_50517" data-name="Trazado 50517" d="M641.618,461.933a72.661,72.661,0,0,0,12.4.588l-2.869-72-71.412-9.527A72.043,72.043,0,0,0,641.618,461.933Z" transform="translate(-579.076 -318.474)" fill="#e5e6ed"/>
      </g>
      <g id="Grupo_22867" data-name="Grupo 22867" transform="translate(77.855 213.074)">
        <path id="Trazado_50518" data-name="Trazado 50518" d="M595.257,517.129c-14.675-3.461-26.377-6.589-29.788-21.44C563.7,488,566,482.7,573.176,478.435c5.8-3.445,8.9-4.632,8.978-11.435.118-10.886-7.356-21.619-2.74-32.146,5.151-11.748,23.45-6.391,29.147-17.04,5.113-9.554,6.418-21.943,21.489-21.764,12.683.145,20.623,13.427,17.135,22.641-1.961,5.182-6.532,8.837-7.532,14.388-.954,5.3,2.221,9.627,5.262,14.465,6.723,10.687,10.123,21.707-.6,28.769-6.41,4.22-11.256,7.925-6.971,15.842,4.506,8.318,6.738,13.064-2,19.326-6.532,4.682-13.461,4.3-22.012,4.662-8.02.34-18.36,2.564-26.732-.954Z" transform="translate(-564.901 -396.048)" fill="#fc3"/>
        <g id="Grupo_22864" data-name="Grupo 22864" transform="translate(29.072 21.304)">
          <path id="Trazado_50519" data-name="Trazado 50519" d="M576.715,493.709a14.013,14.013,0,0,1-3.236-4.182c-2.991-6.231,1.6-12.473,5.754-18.128,2.1-2.85,4.1-5.571,4.819-7.894,1.969-6.322,1.77-11.969-.782-20.814-3.033-10.489-1.13-14.781,5.937-21.718,5.956-5.857,11.706-12.305,12.366-18.692.05-.5.626-.767,1.282-.6s1.156.7,1.1,1.194c-.713,6.8-6.669,13.442-12.824,19.448-6.853,6.677-8.6,10.55-5.731,20.528,2.167,7.543,3.106,14.072.752,21.546-.774,2.476-2.839,5.258-4.991,8.165-4.025,5.43-8.474,11.428-5.8,17.006,1.03,2.152,3.052,4.125,6.185,6.029.511.324.767.82.546,1.118s-.82.286-1.343-.031A26.535,26.535,0,0,1,576.715,493.709Z" transform="translate(-572.521 -401.632)" fill="#fff"/>
        </g>
        <g id="Grupo_22865" data-name="Grupo 22865" transform="translate(41.934 54.502)">
          <path id="Trazado_50520" data-name="Trazado 50520" d="M576.271,428.121a1.189,1.189,0,0,1-.359-.542c-.114-.465.263-.794.855-.733,5.159.553,8.058-3.4,11.184-7.665,2.766-3.774,5.67-7.738,10.557-8.822a1.676,1.676,0,0,1,1.606.652.655.655,0,0,1-.4,1.1c-4.285.939-7.059,4.689-9.7,8.264-3.251,4.392-6.536,8.848-12.809,8.165A1.727,1.727,0,0,1,576.271,428.121Z" transform="translate(-575.892 -410.333)" fill="#fff"/>
        </g>
        <g id="Grupo_22866" data-name="Grupo 22866" transform="translate(24.303 42.16)">
          <path id="Trazado_50521" data-name="Trazado 50521" d="M587.961,450.137a1.3,1.3,0,0,1-.252-.294,21.85,21.85,0,0,1-1.6-3.365A12.474,12.474,0,0,0,583,441.51a39.369,39.369,0,0,0-3.045-2.64c-2.129-1.74-4.331-3.51-5.746-6.36-2.03-4.075-3.014-9.142-2.93-15.109a25.968,25.968,0,0,1,.4-3.239c.279-1.786.813-5.132.248-5.876-.34-.446-.274-.958.183-1.125a1.418,1.418,0,0,1,1.461.446c1.11,1.274.824,3.613.232,7.28a26.135,26.135,0,0,0-.389,3.071c-.065,3.964.355,9.65,2.74,14.446,1.183,2.392,2.972,3.842,5.056,5.525,1.072.866,2.182,1.77,3.285,2.854a14.722,14.722,0,0,1,3.656,5.761,19.274,19.274,0,0,0,1.461,3.091.564.564,0,0,1-.45.931A1.616,1.616,0,0,1,587.961,450.137Z" transform="translate(-571.271 -407.098)" fill="#fff"/>
        </g>
      </g>
      <g id="Grupo_22868" data-name="Grupo 22868" transform="translate(191.173 33.738)">
        <path id="Trazado_50522" data-name="Trazado 50522" d="M619.22,374.875c-2.079-.652-4.071-1.3-5.529-2.873a7.179,7.179,0,0,0-2.221-1.889,15.207,15.207,0,0,1-2.743-1.923,6.019,6.019,0,0,0-2.892-1.618c-1.381-.126-.648,1.484,0,2.488.7,1.1,4.472,2.587,4.3,3.953s-4.651-.744-5.536-1.175c-2.087-1.023-2.228-2.762-3.472-4.464-.721-1-1.354-1.229-1.8.122-.328,1.007.363,2.037.866,2.869a12.569,12.569,0,0,0,4.3,4.376,14.744,14.744,0,0,1-4.434-3.663c-.7-.843-3.056-4.968-4.483-3.983-2.862,1.98,5.006,9.26,6.883,9.825a17.171,17.171,0,0,1-4.7-3.4c-.859-.767-2.8-2.663-3.133-.63-.488,3,5.372,5.185,7.814,6.628-1.9-.4-3.194-1.3-5.044-2.236-2.19-1.1-2.236.889-.195,2.4a27.56,27.56,0,0,0,3.205,1.828c4.464,2.152,7.215,2.19,11.954,1.683,1.706-.183,5.014,1.274,6.017.183C620.323,381.266,619.3,377.3,619.22,374.875Z" transform="translate(-594.6 -299.755)" fill="#ff9d8a"/>
        <path id="Trazado_50523" data-name="Trazado 50523" d="M603.294,380.325l-3.476,11.489s41.6,14.343,51.495,15.884,33.355-19.967,33.355-19.967,4.2-23.569-1.339-23.332c-4.27.183-34.885,22.336-36.606,23.26S603.294,380.325,603.294,380.325Z" transform="translate(-579.91 -305.827)" fill="#edf6ff"/>
        <path id="Trazado_50524" data-name="Trazado 50524" d="M630.04,364.292c5.208-.63,8.985-2.93,12.713-6.532-1.065,10,2.094,20.329,2.094,20.329s-.5,32.772-13.823,28.834-4.754-25.27-4.754-25.27C629.357,376.742,630,369.344,630.04,364.292Z" transform="translate(-513.065 -324.515)" fill="#e17c5e"/>
        <path id="Trazado_50525" data-name="Trazado 50525" d="M641.154,350.774s-15.251-1.614-18.036,4.544.443,14.407-.439,17.193-.439,20.344,4.544,20.783,20.676-10.848,21.115-24.046S644.969,350.961,641.154,350.774Z" transform="translate(-517.57 -344.723)" fill="#ff9d8a"/>
        <path id="Trazado_50526" data-name="Trazado 50526" d="M626.769,365.793c-.073-.008-.145-.019-.221-.027-.5.011-.935.023-1.381.038-.156-.37-.29-.733-.458-1.107-.3-.672-.6-1.351-.9-2.022-.446-1.286-.82-2.583-1.175-3.88a18.878,18.878,0,0,0,2.118-.359q2.925,1.408,5.857,2.8c.374.183.759.351,1.137.527A61.592,61.592,0,0,0,626.769,365.793Z" transform="translate(-515.674 -322.609)" fill="#fff"/>
        <path id="Trazado_50527" data-name="Trazado 50527" d="M653.378,426.313s1.839,10.981.7,14.018c-.87,2.328-33.932,2.667-35.79.641s1.24-5.544,2.865-6.357,18.509-8.215,18.509-8.215Z" transform="translate(-529.527 -131.502)" fill="#110239"/>
        <path id="Trazado_50528" data-name="Trazado 50528" d="M635.6,426.862h14.117s7.448,10.111,7.337,12.668-11.45,7.337-14.007,7.337-11.672-6.113-11.561-7.223S635.6,426.862,635.6,426.862Z" transform="translate(-490.754 -129.956)" fill="#110239"/>
        <path id="Trazado_50529" data-name="Trazado 50529" d="M625.137,370.368a7.28,7.28,0,0,1-4.025-8.139c1.175-5.865,4.105-9.531,12.759-11.95s16.571-1.629,17.632,5.563c0,0-4.071,12.545-14.114,11.958S624.282,367.213,625.137,370.368Z" transform="translate(-520.44 -349.047)" fill="#110239"/>
        <path id="Trazado_50530" data-name="Trazado 50530" d="M624.907,396.847c6.467,4.128,17.25-4.731,24.328-14.053,3.72-4.9,12.618-26.613-.98-32.623l-5.826,6.448s-5.2,3.007-3.812,10.485-.71,6.33.221,7.7,2.015.328,2.308-1.286,1.282-4.472,3.19-3.629,3.041,4.105-.515,6.452c0,0-3.846,8.036-7.379,7.994-.527-.008-3.686-5.487-9.337-5.426-3.446.034-4.911,1.576-4.911,1.576S620.924,394.306,624.907,396.847Zm.66-13.244a12.315,12.315,0,0,0,4.949.95C627.216,388.221,625.567,383.6,625.567,383.6Z" transform="translate(-517.452 -345.88)" fill="#110239"/>
        <path id="Trazado_50531" data-name="Trazado 50531" d="M622.877,384.24l40.071-.755s6.1,9.989,7.459,38.823c.935,19.742,1.74,25.209,3.705,51.3,1.332,17.715,7.615,76.177,7.615,76.177H660.434s-9.016-68.046-9.478-72.266c-.164-1.492-5.437-42.974-5.437-42.974s.862,37.625.862,41.94.931,71.11.931,71.11H624.88s-2.518-55.383-2.732-70.218C621.8,453.366,619.749,391.993,622.877,384.24Z" transform="translate(-519.802 -252.088)" fill="#110239"/>
        <path id="Trazado_50532" data-name="Trazado 50532" d="M655.361,362.867s18.608,2.53,23.111,4.972c0,0-12.652,20.264-8.715,33.306,0,0,2.156,27.415,2.953,44.012.221,4.609,5.826,51.456,5.761,53.578,0,0-34.2,6.837-58.694-.679,0,0,3.316-49.923,3.4-59.87.118-14.942.267-34.557.256-39.14,0,0,.942-17.75-1.835-27.788a44.5,44.5,0,0,1,16.708-6.715s-.821,1.038,3.453,6.486C644.318,374.294,654.6,369.525,655.361,362.867Z" transform="translate(-523.715 -310.136)" fill="#edf6ff"/>
        <path id="Trazado_50533" data-name="Trazado 50533" d="M624.085,365.523c-.641,4.789-.214,8.818.305,14.259l6.311-4.926,5.128,6.753c4.063-4.537,8.864-11.336,11.157-18.33-1.732-.259-2.846-.412-2.846-.412-.759,6.658-11.042,11.427-13.606,8.161-4.273-5.449-3.453-6.486-3.453-6.486C626.435,364.664,624.7,365.381,624.085,365.523Z" transform="translate(-512.493 -310.136)" fill="#c0d3e8"/>
        <path id="Trazado_50534" data-name="Trazado 50534" d="M630.552,365.568h0a2.766,2.766,0,0,1-.809-.477h0l-5.575,129.747c.523.046,1.042.1,1.564.134Z" transform="translate(-511.349 -303.875)" fill="#c6d1de"/>
        <path id="Trazado_50535" data-name="Trazado 50535" d="M619.777,484.732a68.135,68.135,0,0,0,6.975,1.686c2.053-21.34.359-42.288,1.786-64.444,1.026-15.945,6-36.587-3.3-51.018-.725-1.129-1.4-2.24-2.087-3.358a151.7,151.7,0,0,1,.282,18.124c.011,4.583-.137,24.2-.256,39.14C623.093,434.81,619.777,484.732,619.777,484.732Z" transform="translate(-523.715 -296.813)" fill="#c6d1de"/>
        <path id="Trazado_50536" data-name="Trazado 50536" d="M639.817,395.251c-3.014-9.985,3.682-24.175,6.994-30.292-1.217,1.45-2.533,2.915-4.063,4.441-16.258,16.208-12.755,36.438-9.92,56.844,3.083,22.161,4.43,45.828,2.327,68.489,7.994-.824,13.377-1.892,13.377-1.892.065-2.121-5.54-48.969-5.761-53.578C641.972,422.666,639.817,395.251,639.817,395.251Z" transform="translate(-493.775 -304.244)" fill="#c6d1de"/>
        <path id="Trazado_50537" data-name="Trazado 50537" d="M637.453,397.5c-1.385,1.7-6.006,7.223-5.254,9.665s4.6-1.973,6-3.472,1.595,3.564,1.221,6.284-5.91,7.227-5.349,9.1,3.754-.748,7.2-5.815c0,0-5.445,6.254-4.193,7.131s4.315-2.316,6.757-6.006c0,0-5.254,5.91-3.941,6.612s4.926-3.422,6.284-5.532c0,0-4.464,4.849-3.236,5.647.984.637,4.224-2.27,5.487-6.116s-2.484-16.418-2.3-18.811a38.093,38.093,0,0,1,.954-5.38s-7.715-1.74-7.757-1.751C639.483,389.087,639.518,394.963,637.453,397.5Z" transform="translate(-488.97 -236.409)" fill="#ff9d8a"/>
        <path id="Trazado_50538" data-name="Trazado 50538" d="M637.229,463.427l10.695,2.816s12.442-40.9,10.565-50.659-6.448-46.351-14.892-51.414c0,0-10.756,3.106-11.4,16.323-.363,7.494,2.69,16.983,2.69,16.983s6.734,12.9,7.6,21.92C643.2,426.9,637.229,463.427,637.229,463.427Z" transform="translate(-488.841 -306.468)" fill="#edf6ff"/>
        <path id="Trazado_50539" data-name="Trazado 50539" d="M627.483,364.421l3.823,7.317,12.336-9.422,3.754,2.832-11.779,16.191-4.873-7.943-5.857,5.926-1.048-12.655Z" transform="translate(-512.282 -311.691)" fill="#edf6ff"/>
      </g>
    </g>
    <g id="Grupo_22894" data-name="Grupo 22894" transform="translate(528.993 433.638)">
      <path id="Trazado_50540" data-name="Trazado 50540" d="M590.909,393.053s5.632,16.544,8.928,23.813c18.452,40.693-15.686,35.492-28.666,33.577s-27.766-6.818-26.957-17.311c.55-7.154,4.88-7.94,6.643-10.321s-1.675-6.292-.176-12.156,11.306-7.059,13.248-8.673,5.849-6.1,3.93-14.594-2.736-13.034,2.759-18.566c5.521-5.555,14.129-3.125,14.129-3.125Z" transform="translate(-486.225 -363.358)" fill="#110239"/>
      <path id="Trazado_50541" data-name="Trazado 50541" d="M571.093,391.563c.179.164,5.212-2.072,5.941-3.186a16.493,16.493,0,0,0-2.083-4.487c-.408-.584-.824-1.122-1.2-1.652-.355,1.038-.714,2.076-1.1,2.961-.282.649-2.625.851-3.224,1.706C568.922,388.465,570.3,390.831,571.093,391.563Z" transform="translate(-415.449 -315.292)" fill="#ff9d8a"/>
      <g id="Grupo_22870" data-name="Grupo 22870" transform="translate(104.256 54.668)">
        <path id="Trazado_50542" data-name="Trazado 50542" d="M605.449,394.282l4.521,5.494s-20.356,27.743-28.277,28.163-24.538-29.979-24.538-29.979l8.017-18.94s2.919,1.549,4.945,6.624c3.6,9.008,7.646,24.034,10.806,24.912C585.86,411.929,605.449,394.282,605.449,394.282Z" transform="translate(-553.955 -379.02)" fill="#edf6ff"/>
        <path id="Trazado_50543" data-name="Trazado 50543" d="M598.032,410.127c-3.918,2.938-12.622,8.627-12.858,8.669-4.51.809-13.473-15.983-18.395-30.254-2.705-7.852-8.772-5.864-10.462-8.009l3.2,13.164s16.617,30.4,24.538,29.979c4.548-.24,13.69-9.859,20.249-17.937C603.53,406.388,598.856,409.513,598.032,410.127Z" transform="translate(-556.317 -374.757)" fill="#c6d1de"/>
      </g>
      <g id="Grupo_22872" data-name="Grupo 22872" transform="translate(59.989 138.497)">
        <g id="Grupo_22871" data-name="Grupo 22871" transform="translate(10.898 6.316)">
          <rect id="Rectángulo_5147" data-name="Rectángulo 5147" width="4.062" height="107.002" fill="#a9c9f6"/>
          <rect id="Rectángulo_5148" data-name="Rectángulo 5148" width="4.062" height="107.002" transform="translate(75.2)" fill="#a9c9f6"/>
        </g>
        <rect id="Rectángulo_5149" data-name="Rectángulo 5149" width="101.057" height="10.463" fill="#110239"/>
      </g>
      <path id="Trazado_50544" data-name="Trazado 50544" d="M566.657,418.14s-10.306,8.982-10.252,10.283,17.643,31.2,20.707,31.291,3.778-5.09,3.278-7.059-6.143-30.479-6.143-30.479Z" transform="translate(-451.813 -214.208)" fill="#110239"/>
      <path id="Trazado_50545" data-name="Trazado 50545" d="M562.5,419.6s-10.031,9.287-9.936,10.588,18.574,30.65,21.642,30.65,3.621-5.2,3.064-7.15-7.059-30.28-7.059-30.28Z" transform="translate(-462.628 -210.109)" fill="#110239"/>
      <path id="Trazado_50546" data-name="Trazado 50546" d="M578.23,404.078s13.034,6.208,28.025,12.053c9.516,3.709,22.809,8.57,22.374,18.78-.317,7.444-30.28,79.184-30.28,79.184l-13.625-6.814s24.935-60.381,24.5-64.483-3.331-.473-27.979-2.709-32.131-6.921-31.959-18.627,6.612-28.048,16.59-32.2S578.23,404.078,578.23,404.078Z" transform="translate(-471.867 -297.202)" fill="#6a9aee"/>
      <path id="Trazado_50547" data-name="Trazado 50547" d="M578.23,404.078s4.972,6.33,19.963,12.175c9.512,3.709,21.329,10.5,21.317,17.036-.008,7.448-27.907,77.433-27.907,77.433l-6.88-3.442s24.935-60.381,24.5-64.483-3.331-.473-27.979-2.709-32.131-6.921-31.959-18.627,6.612-28.048,16.59-32.2S578.23,404.078,578.23,404.078Z" transform="translate(-471.867 -297.202)" fill="#4556ba"/>
      <path id="Trazado_50548" data-name="Trazado 50548" d="M580.5,391.826s3.964,16.525,13.377,20.486,31.032,8.4,31.024,18.826c-.008,7.452-32.264,81.241-32.264,81.241l-16.533-7.738s21.84-59.709,21.283-63.8,1.618-2.079-23.092-3.568-28.036-6.2-28.223-17.906,14.987-27.544,14.987-27.544C570.908,387.365,580.5,391.826,580.5,391.826Z" transform="translate(-480.899 -293.878)" fill="#6a9aee"/>
      <path id="Trazado_50549" data-name="Trazado 50549" d="M569.462,382.564s-3.9,15.976,3.343,24.149c0,0,9.661,13-5.571,15.235s-13.251-17.773-13.251-17.773,2.6-22.046-1.362-31.581C552.62,372.594,562.525,378.043,569.462,382.564Z" transform="translate(-462.47 -342.445)" fill="#e17c5e"/>
      <path id="Trazado_50550" data-name="Trazado 50550" d="M559.338,365.937s20.882,1.057,21.016,6.223-1.759,8.555-1.061,13.072c1.5,9.714-4.147,20.4-6.62,20.841-3.827.683-16.781-5.033-18.811-12.893S551.3,362.8,559.338,365.937Z" transform="translate(-462.583 -362.027)" fill="#ff9d8a"/>
      <path id="Trazado_50551" data-name="Trazado 50551" d="M576.547,384.643s-14.549,3.312-19.3-7.848c-3.755-8.814-2.469-9.886-2.469-9.886s8.028-6.246,17.475,2.236C578.584,374.821,576.547,384.643,576.547,384.643Z" transform="translate(-456.99 -364.692)" fill="#110239"/>
      <path id="Trazado_50552" data-name="Trazado 50552" d="M565.738,365.213s7.734,6.8,3.446,13.247c-3.865,5.819-1.309,8.94-2.118,12.843a4.315,4.315,0,0,1-2.255-2.667c-.4-1.809-1-6.406-3.43-5.742s-4.7,3.671-.015,7.509c0,0,2.545,5.231-.748,9.363,0,0-12.466-10.706-8.856-22.764S565.738,365.213,565.738,365.213Z" transform="translate(-466.732 -363.227)" fill="#110239"/>
      <path id="Trazado_50553" data-name="Trazado 50553" d="M638.817,467.826c-3.11-12.736-14.014-13.606-23.53-17.315-8.8-3.43-16.9-6.979-22.111-9.329.79-5.7,3.873-27.533,5.162-31.188,1.488-4.208,3.419-6.719,1.488-12.858-2.724-8.669-3.453-10.886-3.453-10.886s-4.766-4.5-7.654-5.845c0,0-.034,4.842-2.759,6.2s-11.4-10.157-11.4-10.157-13.149,5.525-16.125,7.944,1.351,25.6,1.351,25.6-7.559,22.985-8.055,31.6c-3.087,4.9-5.735,10.554-5.658,15.48.187,11.706,3.51,16.567,28.223,17.906,9.718.53,12.381.6,14.69,3.274,1.209,1.4,1.622,4.773,2.427,6.368,0,0,26.953,1.969,46.916-2.678C639.267,477.873,639.831,471.982,638.817,467.826Z" transform="translate(-480.899 -331.582)" fill="#edf6ff"/>
      <path id="Trazado_50554" data-name="Trazado 50554" d="M599.081,476.915c-3.64-11.6-13.8-10.9-23.263-13.511-5.609-1.549-16-4.094-17.124-11.378-1.671-10.779.988-24.1,4.643-34.252,2.606-7.242,6.3-15.117,6.307-22.962.015-10.206-3.751-13.908-11.153-16.289l-.053.038c-2.976,2.419,1.351,25.6,1.351,25.6s-7.559,22.985-8.055,31.6c-3.087,4.9-5.735,10.554-5.658,15.48.187,11.706,3.51,16.567,28.223,17.906,9.718.53,12.381.6,14.69,3.274,1.209,1.4,1.622,4.773,2.427,6.368,0,0,3.278.24,8.383.355C599.57,478.449,599.337,477.724,599.081,476.915Z" transform="translate(-480.899 -325.749)" fill="#c6d1de"/>
      <path id="Trazado_50555" data-name="Trazado 50555" d="M554.961,382.595c1.6,2.8,3.167,5.636,4.781,8.432a30.113,30.113,0,0,0,1.671,2.85,19.918,19.918,0,0,0,3.4-2.515c.832-.714,1.423-1.561,2.2-2.35.332.187.492.53.748.794a12.748,12.748,0,0,0,1.16.92,9.87,9.87,0,0,0,2.312,1.629c.275-1.744.763-8.833.389-10.508-.233-1.053-2.083.217-2-.763-.118,1.374-.615,4.472-2.717,5.525-2.724,1.362-11.4-10.157-11.4-10.157s-1.084.458-2.675,1.152A31.769,31.769,0,0,0,554.961,382.595Z" transform="translate(-461.85 -331.582)" fill="#8397a9" opacity="0.32" style="mix-blend-mode: multiply;isolation: isolate"/>
      <path id="Trazado_50556" data-name="Trazado 50556" d="M594.983,476.495c.809-4.632,1.618-15.648-1.255-18.563-5.487-5.574-18.826-12.977-28.7-18.055-6.887-3.541-9.337-6.17-9.135-7.566,3.228-22.248,4.533-50.77,4.537-53.013l-.469,1.568s-.855,9.321-1.667,20.432c-1.045,14.278-3.277,27.472-3.277,31.566,0,2.511,1.133,3.262,4.754,5.227,3.911,2.125,10.63,5.555,19.333,10.878a108.9,108.9,0,0,1,13.8,9.55c2.393,1.98,2.286,10.943,1.176,18.044C594.377,476.545,594.682,476.518,594.983,476.495Z" transform="translate(-455.735 -323.569)" fill="#c6d1de"/>
      <path id="Trazado_50557" data-name="Trazado 50557" d="M565.356,370.6s-.24,3.083,2.385,3.8c1.084.294.977,3.671,1.847,7.074,1.656,6.475.6,10.882-4.216,12.759-3.457,1.347-8.352,2.419-13.915,6.319s-1.984-12.37,5.037-16.491S565.356,370.6,565.356,370.6Z" transform="translate(-473.428 -348.048)" fill="#110239"/>
      <g id="Grupo_22877" data-name="Grupo 22877" transform="translate(0 107.66)">
        <g id="Grupo_22876" data-name="Grupo 22876">
          <g id="Grupo_22875" data-name="Grupo 22875" transform="translate(9.474 2.937)">
            <g id="Grupo_22873" data-name="Grupo 22873">
              <rect id="Rectángulo_5150" data-name="Rectángulo 5150" width="2.973" height="141.219" fill="#a9c9f6"/>
            </g>
            <g id="Grupo_22874" data-name="Grupo 22874" transform="translate(237.028)">
              <rect id="Rectángulo_5151" data-name="Rectángulo 5151" width="2.972" height="141.219" fill="#a9c9f6"/>
            </g>
          </g>
          <rect id="Rectángulo_5152" data-name="Rectángulo 5152" width="258.949" height="6.862" fill="#110239"/>
        </g>
      </g>
      <g id="Grupo_22889" data-name="Grupo 22889" transform="translate(173.951 68.454)">
        <g id="Grupo_22879" data-name="Grupo 22879" transform="translate(9.479)">
          <g id="Grupo_22878" data-name="Grupo 22878" transform="translate(0.863 0.816)">
            <path id="Trazado_50558" data-name="Trazado 50558" d="M583.376,382.847V409c0,1.6-1.087,2.179-2.427,2.179h-.05c-1.339,0-2.427-.576-2.427-2.179V382.847h-1.179v27.64a3.6,3.6,0,0,0,3.594,3.594h.073a3.593,3.593,0,0,0,3.594-3.594v-27.64Z" transform="translate(-577.293 -382.847)" fill="#edf6ff"/>
            <rect id="Rectángulo_5153" data-name="Rectángulo 5153" width="1.18" height="2.451" transform="translate(6.083 0.001)" fill="#b7d0d2"/>
            <rect id="Rectángulo_5154" data-name="Rectángulo 5154" width="1.18" height="2.451" transform="translate(0 0.001)" fill="#b7d0d2"/>
            <path id="Trazado_50559" data-name="Trazado 50559" d="M580.079,411.177h-.05c-1.339,0-2.427-.576-2.427-2.179V382.847h4.9V409C582.506,410.6,581.419,411.177,580.079,411.177Z" transform="translate(-576.423 -382.847)" fill="#fff" opacity="0.32" style="mix-blend-mode: screen;isolation: isolate"/>
            <path id="Trazado_50560" data-name="Trazado 50560" d="M577.6,386.063v13.881c0,1.6,1.087,2.179,2.427,2.179h.05c1.339,0,2.427-.576,2.427-2.179V386.063Z" transform="translate(-576.423 -373.792)" fill="#6a9aee"/>
          </g>
          <rect id="Rectángulo_5155" data-name="Rectángulo 5155" width="8.989" height="1.861" rx="0.241" fill="#edf6ff"/>
          <path id="Trazado_50561" data-name="Trazado 50561" d="M579.267,387.244a.635.635,0,1,1-.637-.637A.635.635,0,0,1,579.267,387.244Z" transform="translate(-574.454 -371.444)" fill="#6fc6ec"/>
          <circle id="Elipse_845" data-name="Elipse 845" cx="1.021" cy="1.021" r="1.021" transform="translate(2.565 19.385)" fill="#6fc6ec"/>
          <circle id="Elipse_846" data-name="Elipse 846" cx="0.534" cy="0.534" r="0.534" transform="translate(4.381 22.654)" fill="#6fc6ec"/>
          <circle id="Elipse_847" data-name="Elipse 847" cx="0.976" cy="0.976" r="0.976" transform="translate(4.177 25.332)" fill="#6fc6ec"/>
          <path id="Trazado_50562" data-name="Trazado 50562" d="M579.729,387.945a.658.658,0,1,1-.656-.66A.656.656,0,0,1,579.729,387.945Z" transform="translate(-573.282 -369.535)" fill="#6fc6ec"/>
          <circle id="Elipse_848" data-name="Elipse 848" cx="0.537" cy="0.537" r="0.537" transform="translate(2.466 24.258)" fill="#6fc6ec"/>
        </g>
        <g id="Grupo_22881" data-name="Grupo 22881" transform="translate(21.901)">
          <g id="Grupo_22880" data-name="Grupo 22880" transform="translate(0.862 0.816)">
            <path id="Trazado_50563" data-name="Trazado 50563" d="M586.631,382.847V409c0,1.6-1.083,2.179-2.427,2.179h-.046c-1.343,0-2.431-.576-2.431-2.179V382.847h-1.179v27.64a3.6,3.6,0,0,0,3.594,3.594h.073a3.6,3.6,0,0,0,3.6-3.594v-27.64Z" transform="translate(-580.549 -382.847)" fill="#edf6ff"/>
            <rect id="Rectángulo_5156" data-name="Rectángulo 5156" width="1.18" height="2.451" transform="translate(6.084 0.001)" fill="#b7d0d2"/>
            <rect id="Rectángulo_5157" data-name="Rectángulo 5157" width="1.18" height="2.451" transform="translate(0 0.001)" fill="#b7d0d2"/>
            <path id="Trazado_50564" data-name="Trazado 50564" d="M583.334,411.177h-.046c-1.343,0-2.431-.576-2.431-2.179V382.847h4.9V409C585.761,410.6,584.677,411.177,583.334,411.177Z" transform="translate(-579.679 -382.847)" fill="#fff" opacity="0.32" style="mix-blend-mode: screen;isolation: isolate"/>
            <path id="Trazado_50565" data-name="Trazado 50565" d="M580.858,386.885V397.63c0,1.6,1.088,2.179,2.431,2.179h.046c1.343,0,2.427-.576,2.427-2.179V386.885Z" transform="translate(-579.679 -371.478)" fill="#6a9aee"/>
          </g>
          <path id="Rectángulo_5158" data-name="Rectángulo 5158" d="M.242,0H8.747a.241.241,0,0,1,.241.241V1.62a.241.241,0,0,1-.241.241H.242A.242.242,0,0,1,0,1.62V.242A.242.242,0,0,1,.242,0Z" fill="#edf6ff"/>
          <circle id="Elipse_849" data-name="Elipse 849" cx="1.021" cy="1.021" r="1.021" transform="translate(4.426 17.195)" fill="#6fc6ec"/>
          <path id="Trazado_50566" data-name="Trazado 50566" d="M582.679,388.734a.534.534,0,1,1-.534-.534A.533.533,0,0,1,582.679,388.734Z" transform="translate(-576.697 -366.959)" fill="#6fc6ec"/>
          <path id="Trazado_50567" data-name="Trazado 50567" d="M582.8,390.1a.859.859,0,1,1-.858-.858A.86.86,0,0,1,582.8,390.1Z" transform="translate(-578.195 -364.034)" fill="#6fc6ec"/>
          <circle id="Elipse_850" data-name="Elipse 850" cx="0.739" cy="0.739" r="0.739" transform="translate(3.97 22.982)" fill="#6fc6ec"/>
          <path id="Trazado_50568" data-name="Trazado 50568" d="M582.4,388.37a.658.658,0,1,1-.66-.656A.663.663,0,0,1,582.4,388.37Z" transform="translate(-578.195 -368.327)" fill="#6fc6ec"/>
          <path id="Trazado_50569" data-name="Trazado 50569" d="M582.686,390.181a.538.538,0,1,1-.538-.538A.537.537,0,0,1,582.686,390.181Z" transform="translate(-576.7 -362.896)" fill="#6fc6ec"/>
        </g>
        <g id="Grupo_22883" data-name="Grupo 22883" transform="translate(34.322)">
          <g id="Grupo_22882" data-name="Grupo 22882" transform="translate(0.862 0.816)">
            <path id="Trazado_50570" data-name="Trazado 50570" d="M589.887,382.847V409c0,1.6-1.087,2.179-2.427,2.179h-.05c-1.339,0-2.427-.576-2.427-2.179V382.847h-1.179v27.64a3.593,3.593,0,0,0,3.594,3.594h.072a3.6,3.6,0,0,0,3.594-3.594v-27.64Z" transform="translate(-583.803 -382.847)" fill="#edf6ff"/>
            <rect id="Rectángulo_5159" data-name="Rectángulo 5159" width="1.18" height="2.451" transform="translate(6.083 0.001)" fill="#b7d0d2"/>
            <rect id="Rectángulo_5160" data-name="Rectángulo 5160" width="1.18" height="2.451" transform="translate(0 0.001)" fill="#b7d0d2"/>
            <path id="Trazado_50571" data-name="Trazado 50571" d="M586.59,411.177h-.05c-1.339,0-2.427-.576-2.427-2.179V382.847h4.9V409C589.017,410.6,587.93,411.177,586.59,411.177Z" transform="translate(-582.933 -382.847)" fill="#fff" opacity="0.32" style="mix-blend-mode: screen;isolation: isolate"/>
            <path id="Trazado_50572" data-name="Trazado 50572" d="M584.114,386.427v12.492c0,1.6,1.087,2.179,2.427,2.179h.05c1.339,0,2.427-.576,2.427-2.179V386.427Z" transform="translate(-582.933 -372.767)" fill="#6a9aee"/>
          </g>
          <rect id="Rectángulo_5161" data-name="Rectángulo 5161" width="8.989" height="1.861" rx="0.241" fill="#edf6ff"/>
          <path id="Trazado_50573" data-name="Trazado 50573" d="M585.533,387.845a.637.637,0,1,1-.637-.637A.637.637,0,0,1,585.533,387.845Z" transform="translate(-581.663 -369.752)" fill="#6fc6ec"/>
          <circle id="Elipse_851" data-name="Elipse 851" cx="1.021" cy="1.021" r="1.021" transform="translate(4.381 15.413)" fill="#6fc6ec"/>
          <path id="Trazado_50574" data-name="Trazado 50574" d="M586.269,388.87a.908.908,0,1,1-.908-.908A.91.91,0,0,1,586.269,388.87Z" transform="translate(-581.116 -367.629)" fill="#6fc6ec"/>
          <path id="Trazado_50575" data-name="Trazado 50575" d="M586.421,390.482a.975.975,0,1,1-.973-.977A.972.972,0,0,1,586.421,390.482Z" transform="translate(-581.065 -363.285)" fill="#6fc6ec"/>
          <path id="Trazado_50576" data-name="Trazado 50576" d="M586.268,388.221a.658.658,0,1,1-.656-.66A.656.656,0,0,1,586.268,388.221Z" transform="translate(-579.711 -368.758)" fill="#6fc6ec"/>
          <path id="Trazado_50577" data-name="Trazado 50577" d="M585.361,389.476a.538.538,0,1,1-.538-.538A.537.537,0,0,1,585.361,389.476Z" transform="translate(-581.589 -364.881)" fill="#6fc6ec"/>
          <path id="Trazado_50578" data-name="Trazado 50578" d="M586,389.335a.538.538,0,1,1-.538-.538A.54.54,0,0,1,586,389.335Z" transform="translate(-579.776 -365.278)" fill="#6fc6ec"/>
        </g>
        <g id="Grupo_22885" data-name="Grupo 22885" transform="translate(46.743)">
          <g id="Grupo_22884" data-name="Grupo 22884" transform="translate(0.863 0.816)">
            <path id="Trazado_50579" data-name="Trazado 50579" d="M593.142,382.847V409c0,1.6-1.087,2.179-2.427,2.179h-.05c-1.339,0-2.427-.576-2.427-2.179V382.847H587.06v27.64a3.6,3.6,0,0,0,3.594,3.594h.073a3.6,3.6,0,0,0,3.6-3.594v-27.64Z" transform="translate(-587.06 -382.847)" fill="#edf6ff"/>
            <rect id="Rectángulo_5162" data-name="Rectángulo 5162" width="1.18" height="2.451" transform="translate(6.083 0.001)" fill="#b7d0d2"/>
            <rect id="Rectángulo_5163" data-name="Rectángulo 5163" width="1.18" height="2.451" transform="translate(0 0.001)" fill="#b7d0d2"/>
            <path id="Trazado_50580" data-name="Trazado 50580" d="M589.845,411.177h-.05c-1.339,0-2.427-.576-2.427-2.179V382.847h4.9V409C592.272,410.6,591.184,411.177,589.845,411.177Z" transform="translate(-586.19 -382.847)" fill="#fff" opacity="0.32" style="mix-blend-mode: screen;isolation: isolate"/>
            <path id="Trazado_50581" data-name="Trazado 50581" d="M587.369,385.719v15.193c0,1.6,1.087,2.179,2.427,2.179h.05c1.339,0,2.427-.576,2.427-2.179V385.719Z" transform="translate(-586.19 -374.761)" fill="#6a9aee"/>
          </g>
          <rect id="Rectángulo_5164" data-name="Rectángulo 5164" width="8.989" height="1.861" rx="0.241" fill="#edf6ff"/>
          <path id="Trazado_50582" data-name="Trazado 50582" d="M589.282,387.2a.635.635,0,1,1-.637-.637A.638.638,0,0,1,589.282,387.2Z" transform="translate(-583.517 -371.579)" fill="#6fc6ec"/>
          <path id="Trazado_50583" data-name="Trazado 50583" d="M590.035,389.948a1.021,1.021,0,1,1-1.019-1.019A1.019,1.019,0,0,1,590.035,389.948Z" transform="translate(-583.568 -364.907)" fill="#6fc6ec"/>
          <path id="Trazado_50584" data-name="Trazado 50584" d="M588.783,390.178a.534.534,0,1,1-.534-.534A.536.536,0,0,1,588.783,390.178Z" transform="translate(-584.356 -362.893)" fill="#6fc6ec"/>
          <path id="Trazado_50585" data-name="Trazado 50585" d="M589.551,387.955a.977.977,0,1,1-.977-.977A.976.976,0,0,1,589.551,387.955Z" transform="translate(-584.682 -370.4)" fill="#6fc6ec"/>
          <path id="Trazado_50586" data-name="Trazado 50586" d="M589.721,388.442a.805.805,0,1,1-.8-.805A.805.805,0,0,1,589.721,388.442Z" transform="translate(-583.238 -368.544)" fill="#6fc6ec"/>
          <path id="Trazado_50587" data-name="Trazado 50587" d="M588.858,386.684a.658.658,0,1,1-.66-.656A.658.658,0,0,1,588.858,386.684Z" transform="translate(-584.84 -373.074)" fill="#6fc6ec"/>
          <circle id="Elipse_852" data-name="Elipse 852" cx="0.907" cy="0.907" r="0.907" transform="translate(2.883 21.179)" fill="#6fc6ec"/>
          <path id="Trazado_50588" data-name="Trazado 50588" d="M588.556,389.525a.538.538,0,1,1-.538-.534A.538.538,0,0,1,588.556,389.525Z" transform="translate(-585.015 -364.732)" fill="#6fc6ec"/>
        </g>
        <g id="Grupo_22888" data-name="Grupo 22888" transform="translate(0 4.974)">
          <g id="Grupo_22886" data-name="Grupo 22886" transform="translate(3.845 1.109)">
            <rect id="Rectángulo_5165" data-name="Rectángulo 5165" width="3.401" height="30.314" fill="#8397ca"/>
            <rect id="Rectángulo_5166" data-name="Rectángulo 5166" width="3.401" height="30.314" transform="translate(54.121)" fill="#8397ca"/>
          </g>
          <g id="Grupo_22887" data-name="Grupo 22887" transform="translate(3.845 1.109)" style="mix-blend-mode: multiply;isolation: isolate">
            <rect id="Rectángulo_5167" data-name="Rectángulo 5167" width="3.401" height="6.507" fill="#8397a9"/>
            <rect id="Rectángulo_5168" data-name="Rectángulo 5168" width="3.401" height="6.507" transform="translate(54.121)" fill="#8397a9"/>
          </g>
          <rect id="Rectángulo_5169" data-name="Rectángulo 5169" width="65.211" height="3.993" transform="translate(0 30.239)" fill="#edf6ff"/>
          <rect id="Rectángulo_5170" data-name="Rectángulo 5170" width="65.211" height="3.993" fill="#edf6ff"/>
        </g>
      </g>
      <path id="Trazado_50589" data-name="Trazado 50589" d="M558.356,375.548l-5.514,5.113,10.109,13.416,3.954-4.922Z" transform="translate(-461.845 -334.129)" fill="#edf6ff"/>
      <path id="Trazado_50590" data-name="Trazado 50590" d="M557.682,376.452l-1.154,10.156,3.86,3.446,1.051-8.353Z" transform="translate(-451.467 -331.582)" fill="#edf6ff"/>
      <g id="Grupo_22890" data-name="Grupo 22890" transform="translate(128.279 77.421)">
        <path id="Trazado_50591" data-name="Trazado 50591" d="M578.734,392.107v-6.685h-1.175v6.807s8.509,12.175,8.509,15.918c0,1.82-.584,2.972-2.156,3.548a5.207,5.207,0,0,1-1.778.294H568.306a5.185,5.185,0,0,1-1.774-.294c-1.576-.576-2.16-1.728-2.16-3.548,0-3.743,8.509-15.918,8.509-15.918v-6.807h-1.175v6.685s-9.093,13.061-9.093,17.41c0,2.114.679,3.457,2.507,4.125a6.023,6.023,0,0,0,2.064.34h16.071a6.026,6.026,0,0,0,2.064-.34c1.828-.668,2.507-2.011,2.507-4.125C587.826,405.167,578.734,392.107,578.734,392.107Z" transform="translate(-562.613 -383.748)" fill="#edf6ff"/>
        <rect id="Rectángulo_5171" data-name="Rectángulo 5171" width="1.174" height="2.031" transform="translate(14.947 1.675)" fill="#b7d0d2"/>
        <rect id="Rectángulo_5172" data-name="Rectángulo 5172" width="1.174" height="2.031" transform="translate(9.092 1.675)" fill="#b7d0d2"/>
        <path id="Trazado_50592" data-name="Trazado 50592" d="M576.261,392.229v-6.807h-4.678v6.807s-8.509,12.175-8.509,15.918c0,1.82.584,2.972,2.16,3.548a5.185,5.185,0,0,0,1.774.294h13.828a5.207,5.207,0,0,0,1.778-.294c1.572-.576,2.156-1.728,2.156-3.548C584.769,404.4,576.261,392.229,576.261,392.229Z" transform="translate(-561.315 -383.748)" fill="#fff" opacity="0.32" style="mix-blend-mode: screen;isolation: isolate"/>
        <path id="Trazado_50593" data-name="Trazado 50593" d="M581.1,389.557a16.245,16.245,0,0,1-2.946,1.454c-2.537.954-4.605.3-6.933-.858a8.422,8.422,0,0,0-4.685-.832c-1.832,3.14-3.461,6.391-3.461,8.028,0,1.82.584,2.972,2.16,3.548a5.185,5.185,0,0,0,1.774.294h13.828a5.207,5.207,0,0,0,1.778-.294c1.572-.576,2.156-1.728,2.156-3.548,0-1.625-1.6-4.838-3.419-7.959C581.266,389.447,581.186,389.5,581.1,389.557Z" transform="translate(-561.315 -372.949)" fill="#fb345b"/>
        <rect id="Rectángulo_5173" data-name="Rectángulo 5173" width="9.139" height="2.596" rx="0.337" transform="translate(8.037)" fill="#edf6ff"/>
        <path id="Trazado_50594" data-name="Trazado 50594" d="M566.37,391.882a1.318,1.318,0,1,1-1.32-1.32A1.32,1.32,0,0,1,566.37,391.882Z" transform="translate(-559.457 -369.276)" fill="#fc889f"/>
        <path id="Trazado_50595" data-name="Trazado 50595" d="M565.938,390.512a.691.691,0,1,1-.691-.691A.69.69,0,0,1,565.938,390.512Z" transform="translate(-557.139 -371.362)" fill="#fc889f"/>
        <path id="Trazado_50596" data-name="Trazado 50596" d="M566.714,392.417a.96.96,0,1,1-.958-.958A.958.958,0,0,1,566.714,392.417Z" transform="translate(-556.469 -366.75)" fill="#fc889f"/>
        <path id="Trazado_50597" data-name="Trazado 50597" d="M567.66,391.56a1.181,1.181,0,1,1-1.183-1.179A1.184,1.184,0,0,1,567.66,391.56Z" transform="translate(-555.053 -369.785)" fill="#fc889f"/>
        <path id="Trazado_50598" data-name="Trazado 50598" d="M570,391.881a1.7,1.7,0,1,1-1.7-1.7A1.7,1.7,0,0,1,570,391.881Z" transform="translate(-551.368 -370.343)" fill="#fc889f"/>
        <path id="Trazado_50599" data-name="Trazado 50599" d="M567.773,392.518a.769.769,0,1,1-.767-.771A.77.77,0,0,1,567.773,392.518Z" transform="translate(-552.412 -365.939)" fill="#fc889f"/>
        <path id="Trazado_50600" data-name="Trazado 50600" d="M569.269,392.127a.87.87,0,1,1-.87-.874A.869.869,0,0,1,569.269,392.127Z" transform="translate(-548.772 -367.33)" fill="#fc889f"/>
        <path id="Trazado_50601" data-name="Trazado 50601" d="M569.275,390.949a.675.675,0,1,1-.675-.675A.679.679,0,0,1,569.275,390.949Z" transform="translate(-547.659 -370.087)" fill="#fc889f"/>
        <path id="Trazado_50602" data-name="Trazado 50602" d="M565.248,392.251a.708.708,0,1,1-.706-.71A.707.707,0,0,1,565.248,392.251Z" transform="translate(-559.181 -366.519)" fill="#fc889f"/>
      </g>
      <path id="Trazado_50603" data-name="Trazado 50603" d="M561.207,393.68s3.445-.446,4.155-.633,8.589-7.776,9.768-7.322,12.252,4.533,12.3,5.887-2.774,1.267-8.844-1.637c0,0,7.848,2.957,6.868,4.426s-8.123-2.274-8.123-2.274,7.124,2.888,5.964,4.254-7.8-2.564-7.8-2.564,5.155,2.9,4.762,3.709-3.3.355-6.826-1.553c0,0-.6-.149-1.9,1.049s-9.928,3.27-9.928,3.27Z" transform="translate(-438.293 -305.531)" fill="#ff9d8a"/>
      <path id="Trazado_50604" data-name="Trazado 50604" d="M611.545,411.454,613.9,422.7s-54.07,12.343-61.751,11.355S541,422.908,545.956,413.992s14.949-35.191,21.39-35.687,10.573,8.222,5.246,17.757-10.661,21.89-8.554,23.5S611.545,411.454,611.545,411.454Z" transform="translate(-487.723 -326.422)" fill="#edf6ff"/>
      <g id="Grupo_22892" data-name="Grupo 22892" transform="translate(149.597 47.072)">
        <g id="Grupo_22891" data-name="Grupo 22891" transform="translate(0.816 0.801)">
          <path id="Trazado_50605" data-name="Trazado 50605" d="M573.645,377.842l13.347,22.489c.82,1.381.176,2.427-.977,3.114l-.042.023c-1.152.683-2.381.744-3.2-.633l-13.347-22.489-1.015.6,14.106,23.767a3.6,3.6,0,0,0,4.926,1.259l.065-.038a3.6,3.6,0,0,0,1.255-4.926L574.66,377.239Z" transform="translate(-568.414 -377.239)" fill="#edf6ff"/>
          <rect id="Rectángulo_5174" data-name="Rectángulo 5174" width="1.181" height="2.451" transform="matrix(0.86, -0.51, 0.51, 0.86, 5.233, 0.603)" fill="#b7d0d2"/>
          <rect id="Rectángulo_5175" data-name="Rectángulo 5175" width="1.181" height="2.451" transform="matrix(0.86, -0.51, 0.51, 0.86, 0.001, 3.708)" fill="#b7d0d2"/>
          <path id="Trazado_50606" data-name="Trazado 50606" d="M585.266,403l-.042.023c-1.152.683-2.381.744-3.2-.633L568.68,379.9l4.216-2.5,13.347,22.489C587.063,401.267,586.418,402.313,585.266,403Z" transform="translate(-567.665 -376.794)" fill="#fff" opacity="0.32" style="mix-blend-mode: screen;isolation: isolate"/>
          <path id="Trazado_50607" data-name="Trazado 50607" d="M581.833,392.127l-.057-.091-.034-.061-4.876-8.215c-.1-.156-.191-.328-.3-.481a.486.486,0,0,1-.038-.092l-1.79-3.018a1.02,1.02,0,0,0-1.061-.061c-.382.229-.584.672-1.023.9a4.779,4.779,0,0,1-1.175.309c-.3.076-1.137.271-1.3.561a.3.3,0,0,0-.023.172l7.745,13.057c.817,1.377,2.045,1.316,3.24.61a2.232,2.232,0,0,0,1.332-2.141,2.483,2.483,0,0,0-.355-.973Z" transform="translate(-563.533 -369.509)" fill="#6a9aee"/>
        </g>
        <path id="Trazado_50608" data-name="Trazado 50608" d="M575.746,378.757,569.6,382.4a.921.921,0,0,1-1.263-.32l-.008-.015a.924.924,0,0,1,.321-1.263l6.147-3.648a.923.923,0,0,1,1.263.321l.008.019A.916.916,0,0,1,575.746,378.757Z" transform="translate(-568.2 -377.029)" fill="#edf6ff"/>
        <path id="Trazado_50609" data-name="Trazado 50609" d="M572.179,381.288a.635.635,0,1,1-.87-.221A.635.635,0,0,1,572.179,381.288Z" transform="translate(-560.321 -365.912)" fill="#6fc6ec"/>
        <path id="Trazado_50610" data-name="Trazado 50610" d="M573.281,382.494a1.022,1.022,0,1,1-1.4-.359A1.025,1.025,0,0,1,573.281,382.494Z" transform="translate(-559.245 -363.051)" fill="#6fc6ec"/>
        <path id="Trazado_50611" data-name="Trazado 50611" d="M573.173,382.83a.535.535,0,1,1-.733-.183A.537.537,0,0,1,573.173,382.83Z" transform="translate(-556.996 -361.426)" fill="#6fc6ec"/>
        <path id="Trazado_50612" data-name="Trazado 50612" d="M574.351,383.606a.976.976,0,1,1-1.339-.344A.973.973,0,0,1,574.351,383.606Z" transform="translate(-555.995 -359.863)" fill="#6fc6ec"/>
        <path id="Trazado_50613" data-name="Trazado 50613" d="M572.931,381.667a.659.659,0,1,1-.9-.229A.659.659,0,0,1,572.931,381.667Z" transform="translate(-558.334 -364.879)" fill="#6fc6ec"/>
        <path id="Trazado_50614" data-name="Trazado 50614" d="M572.963,383.451a.536.536,0,0,1-.187.737.543.543,0,0,1-.737-.187.537.537,0,0,1,.923-.55Z" transform="translate(-557.606 -359.689)" fill="#6fc6ec"/>
        <path id="Trazado_50615" data-name="Trazado 50615" d="M572,380.94a.813.813,0,1,1-1.114-.282A.81.81,0,0,1,572,380.94Z" transform="translate(-561.745 -367.136)" fill="#6fc6ec"/>
        <path id="Trazado_50616" data-name="Trazado 50616" d="M572.006,380.478a.537.537,0,1,1-.736-.187A.535.535,0,0,1,572.006,380.478Z" transform="translate(-560.297 -368.059)" fill="#6fc6ec"/>
      </g>
      <path id="Trazado_50617" data-name="Trazado 50617" d="M574.549,380.295c-1.015.519-3.957,2.228-3.5,3.869.389,1.37,4.193-.931,4.193-.931-1.4.874-3.846,1.366-3.434,2.526.462,1.29,3.667.053,4.38-.321-.687.065-4.277,1.545-3.125,2.793.79.851,3.434-.267,4.235-.664-1.011.145-2.465.8-2.419,2.179.309.8,1.847.542,2.713.34,1.309-.309,2.461-.706,2.8-2.221.061-.282-.782-4.43-2.4-6.383C577.01,380.295,575.82,379.6,574.549,380.295Z" transform="translate(-410.706 -321.54)" fill="#ff9d8a"/>
      <path id="Trazado_50618" data-name="Trazado 50618" d="M570.487,383.135a3.661,3.661,0,0,0-.4,2.534c.153,1.137,1,3.827.984,4.147-.011.286-.149.607-.015.87.214.424,1.03.862,1.381,1.194.221.206,2.64,2.625,2.4,2.85l1.37-1.263-2.682-4.941a6.559,6.559,0,0,1-1.061-2.7,7.75,7.75,0,0,1,.63-2.511c.313-.839,1.087-1.87.618-2.793C572.875,378.9,570.769,382.6,570.487,383.135Z" transform="translate(-413.489 -321.278)" fill="#ff9d8a"/>
      <g id="Grupo_22893" data-name="Grupo 22893" transform="translate(19.322 67.037)">
        <path id="Trazado_50619" data-name="Trazado 50619" d="M555.733,391.838v-8.986h-1.58V392s11.439,16.372,11.439,21.405c0,2.446-.786,4-2.9,4.769a6.935,6.935,0,0,1-2.385.4h-18.6a6.951,6.951,0,0,1-2.385-.4c-2.114-.771-2.9-2.323-2.9-4.769,0-5.033,11.435-21.405,11.435-21.405v-9.15h-1.576v8.986S534.057,409.4,534.057,415.25c0,2.843.912,4.644,3.373,5.544a8.131,8.131,0,0,0,2.77.458h21.611a8.154,8.154,0,0,0,2.774-.458c2.457-.9,3.369-2.7,3.369-5.544C567.954,409.4,555.733,391.838,555.733,391.838Z" transform="translate(-534.057 -380.599)" fill="#edf6ff"/>
        <rect id="Rectángulo_5176" data-name="Rectángulo 5176" width="1.579" height="2.731" transform="translate(20.096 2.253)" fill="#b7d0d2"/>
        <rect id="Rectángulo_5177" data-name="Rectángulo 5177" width="1.579" height="2.731" transform="translate(12.224 2.253)" fill="#b7d0d2"/>
        <path id="Trazado_50620" data-name="Trazado 50620" d="M552.408,392v-9.15h-6.3V392s-11.435,16.372-11.435,21.405c0,2.446.786,4,2.9,4.769a6.951,6.951,0,0,0,2.385.4h18.6a6.935,6.935,0,0,0,2.385-.4c2.118-.771,2.9-2.323,2.9-4.769C563.847,408.374,552.408,392,552.408,392Z" transform="translate(-532.311 -380.599)" fill="#fff" opacity="0.32" style="mix-blend-mode: screen;isolation: isolate"/>
        <path id="Trazado_50621" data-name="Trazado 50621" d="M558.913,388.411a22.344,22.344,0,0,1-3.96,1.957c-3.411,1.282-6.193.4-9.325-1.16a11.326,11.326,0,0,0-6.3-1.114c-2.461,4.22-4.651,8.593-4.651,10.794,0,2.446.786,4,2.9,4.769a6.951,6.951,0,0,0,2.385.4h18.6a6.935,6.935,0,0,0,2.385-.4c2.118-.771,2.9-2.323,2.9-4.769,0-2.182-2.16-6.505-4.6-10.7C559.138,388.262,559.028,388.339,558.913,388.411Z" transform="translate(-532.311 -366.081)" fill="#fc3"/>
        <rect id="Rectángulo_5178" data-name="Rectángulo 5178" width="12.288" height="3.491" rx="0.453" transform="translate(10.805)" fill="#edf6ff"/>
        <path id="Trazado_50622" data-name="Trazado 50622" d="M539.111,391.536a1.774,1.774,0,1,1-1.774-1.774A1.773,1.773,0,0,1,539.111,391.536Z" transform="translate(-529.817 -361.144)" fill="#ffe081"/>
        <circle id="Elipse_853" data-name="Elipse 853" cx="0.929" cy="0.929" r="0.929" transform="translate(9.971 24.818)" fill="#ffe081"/>
        <path id="Trazado_50623" data-name="Trazado 50623" d="M539.566,392.255a1.288,1.288,0,1,1-1.286-1.286A1.287,1.287,0,0,1,539.566,392.255Z" transform="translate(-525.796 -357.746)" fill="#ffe081"/>
        <path id="Trazado_50624" data-name="Trazado 50624" d="M540.844,391.106a1.589,1.589,0,1,1-1.587-1.587A1.589,1.589,0,0,1,540.844,391.106Z" transform="translate(-523.896 -361.828)" fill="#ffe081"/>
        <path id="Trazado_50625" data-name="Trazado 50625" d="M543.989,391.535a2.282,2.282,0,1,1-2.282-2.282A2.283,2.283,0,0,1,543.989,391.535Z" transform="translate(-518.94 -362.577)" fill="#ffe081"/>
        <circle id="Elipse_854" data-name="Elipse 854" cx="1.035" cy="1.035" r="1.035" transform="translate(18.586 34.701)" fill="#ffe081"/>
        <circle id="Elipse_855" data-name="Elipse 855" cx="1.172" cy="1.172" r="1.172" transform="translate(25.216 32.167)" fill="#ffe081"/>
        <circle id="Elipse_856" data-name="Elipse 856" cx="0.908" cy="0.908" r="0.908" transform="translate(27.243 27.141)" fill="#ffe081"/>
        <circle id="Elipse_857" data-name="Elipse 857" cx="0.95" cy="0.95" r="0.95" transform="translate(6.254 33.645)" fill="#ffe081"/>
      </g>
    </g>
  </g>
</svg>
