<svg xmlns="http://www.w3.org/2000/svg" xmlns:xlink="http://www.w3.org/1999/xlink" width="966.133" height="570.736" viewBox="0 0 966.133 570.736">
  <defs>
    <clipPath id="clip-path">
      <rect id="Rectángulo_5536" data-name="Rectángulo 5536" width="966.133" height="570.736" fill="none"/>
    </clipPath>
  </defs>
  <g id="Grupo_28130" data-name="Grupo 28130" transform="translate(-476.934 -616.452)">
    <path id="Trazado_56436" data-name="Trazado 56436" d="M0,0H372.626V56.659H0Z" transform="translate(587.661 773.991)" fill="#db0016"/>
    <path id="Trazado_56437" data-name="Trazado 56437" d="M0,0H372.626V56.659H0Z" transform="translate(959.713 773.991)" fill="#db0016"/>
    <path id="Trazado_56438" data-name="Trazado 56438" d="M8.641-.506V0H.7V-.506h.656a1.98,1.98,0,0,0,1.668-.67A4.164,4.164,0,0,0,3.35-3.281V-15.258a6.139,6.139,0,0,0-.178-1.859,1.232,1.232,0,0,0-.561-.588,2.591,2.591,0,0,0-1.258-.328H.7v-.506H8.641v.506h-.67a1.963,1.963,0,0,0-1.654.67,4.018,4.018,0,0,0-.342,2.105V-3.281a6.139,6.139,0,0,0,.178,1.859,1.224,1.224,0,0,0,.574.588,2.515,2.515,0,0,0,1.244.328Z" transform="translate(728.702 808.991)" fill="#fff"/>
    <path id="Trazado_56439" data-name="Trazado 56439" d="M9.258-.542V0H.747V-.542h.7A2.121,2.121,0,0,0,3.237-1.26a4.461,4.461,0,0,0,.352-2.256V-16.348A6.577,6.577,0,0,0,3.4-18.34a1.32,1.32,0,0,0-.6-.63,2.776,2.776,0,0,0-1.348-.352h-.7v-.542H9.258v.542H8.54a2.1,2.1,0,0,0-1.772.718A4.306,4.306,0,0,0,6.4-16.348V-3.516a6.577,6.577,0,0,0,.19,1.992,1.312,1.312,0,0,0,.615.63A2.694,2.694,0,0,0,8.54-.542ZM18.53-1.934A22.115,22.115,0,0,1,15.938-.088a3.961,3.961,0,0,1-1.685.366A3.019,3.019,0,0,1,11.96-.674a3.5,3.5,0,0,1-.9-2.5,3.19,3.19,0,0,1,.439-1.7,5.819,5.819,0,0,1,2.087-1.875A32.478,32.478,0,0,1,18.53-8.892v-.527a4.375,4.375,0,0,0-.637-2.754,2.3,2.3,0,0,0-1.853-.747,2.081,2.081,0,0,0-1.465.5,1.5,1.5,0,0,0-.557,1.143l.029.85A1.461,1.461,0,0,1,13.7-9.39a1.179,1.179,0,0,1-.9.366,1.14,1.14,0,0,1-.886-.381,1.494,1.494,0,0,1-.344-1.04,3,3,0,0,1,1.289-2.314,5.566,5.566,0,0,1,3.618-1.055,6.276,6.276,0,0,1,2.93.6,2.761,2.761,0,0,1,1.274,1.421,8.006,8.006,0,0,1,.264,2.578v4.556a20.865,20.865,0,0,0,.073,2.351.987.987,0,0,0,.242.579.574.574,0,0,0,.388.146.8.8,0,0,0,.41-.1,9.151,9.151,0,0,0,1.187-1.069v.82q-1.641,2.2-3.135,2.2a1.425,1.425,0,0,1-1.143-.5A2.69,2.69,0,0,1,18.53-1.934Zm0-.952V-8a28.925,28.925,0,0,0-2.856,1.245,4.933,4.933,0,0,0-1.655,1.348,2.6,2.6,0,0,0-.5,1.538,2.51,2.51,0,0,0,.63,1.75,1.909,1.909,0,0,0,1.45.7A5.315,5.315,0,0,0,18.53-2.886Z" transform="translate(1176.558 810.991)" fill="#fff"/>
    <path id="Trazado_56431" data-name="Trazado 56431" d="M0,0H372.626V56.659H0Z" transform="translate(587.661 879.245)" fill="#fddf00"/>
    <path id="Trazado_56432" data-name="Trazado 56432" d="M0,0H372.626V56.659H0Z" transform="translate(959.713 879.245)" fill="#db0016"/>
    <path id="Trazado_56433" data-name="Trazado 56433" d="M9.258-.542V0H.747V-.542h.7A2.121,2.121,0,0,0,3.237-1.26a4.461,4.461,0,0,0,.352-2.256V-16.348A6.577,6.577,0,0,0,3.4-18.34a1.32,1.32,0,0,0-.6-.63,2.776,2.776,0,0,0-1.348-.352h-.7v-.542H9.258v.542H8.54a2.1,2.1,0,0,0-1.772.718A4.306,4.306,0,0,0,6.4-16.348V-3.516a6.577,6.577,0,0,0,.19,1.992,1.312,1.312,0,0,0,.615.63A2.694,2.694,0,0,0,8.54-.542Zm9.99,0V0H10.737V-.542h.7a2.121,2.121,0,0,0,1.787-.718,4.461,4.461,0,0,0,.352-2.256V-16.348a6.577,6.577,0,0,0-.19-1.992,1.32,1.32,0,0,0-.6-.63,2.776,2.776,0,0,0-1.348-.352h-.7v-.542h8.511v.542H18.53a2.1,2.1,0,0,0-1.772.718,4.306,4.306,0,0,0-.366,2.256V-3.516a6.577,6.577,0,0,0,.19,1.992,1.312,1.312,0,0,0,.615.63,2.694,2.694,0,0,0,1.333.352Z" transform="translate(723.47 918.746)" fill="#161615"/>
    <path id="Trazado_56434" data-name="Trazado 56434" d="M9.566-.56V0H.772V-.56H1.5A2.192,2.192,0,0,0,3.345-1.3a4.61,4.61,0,0,0,.363-2.331v-13.26a6.8,6.8,0,0,0-.2-2.059,1.364,1.364,0,0,0-.621-.651A2.869,2.869,0,0,0,1.5-19.965H.772v-.56H9.566v.56H8.825a2.173,2.173,0,0,0-1.832.742,4.449,4.449,0,0,0-.378,2.331v13.26a6.8,6.8,0,0,0,.2,2.059,1.355,1.355,0,0,0,.636.651A2.784,2.784,0,0,0,8.825-.56Zm5.525-10.914q2.013-2.8,4.344-2.8a4.807,4.807,0,0,1,3.724,1.824,7.334,7.334,0,0,1,1.589,4.988A7.7,7.7,0,0,1,22.3-1.514,6.764,6.764,0,0,1,17.6.424a7.386,7.386,0,0,1-2.46-.439,11.289,11.289,0,0,1-2.551-1.317V-15.7A20.75,20.75,0,0,0,12.48-18.6a1.273,1.273,0,0,0-.356-.742.929.929,0,0,0-.605-.2,3.107,3.107,0,0,0-1.06.242l-.212-.53,4.163-1.7h.681Zm0,.969V-2.21a5.831,5.831,0,0,0,1.6,1.143,3.943,3.943,0,0,0,1.688.386,3.315,3.315,0,0,0,2.566-1.514A7.017,7.017,0,0,0,22.13-6.6a6.248,6.248,0,0,0-1.188-4.094,3.465,3.465,0,0,0-2.7-1.43,3.507,3.507,0,0,0-1.6.409A6.955,6.955,0,0,0,15.091-10.5Z" transform="translate(1175.693 919.746)" fill="#fff"/>
    <path id="Trazado_56421" data-name="Trazado 56421" d="M0,0H372.626V56.659H0Z" transform="translate(587.661 984.5)" fill="#003b8b"/>
    <path id="Trazado_56426" data-name="Trazado 56426" d="M0,0H372.626V56.659H0Z" transform="translate(959.713 984.5)" fill="#fddf00"/>
    <path id="Trazado_56422" data-name="Trazado 56422" d="M9.566-.56V0H.772V-.56H1.5A2.192,2.192,0,0,0,3.345-1.3a4.61,4.61,0,0,0,.363-2.331v-13.26a6.8,6.8,0,0,0-.2-2.059,1.364,1.364,0,0,0-.621-.651A2.869,2.869,0,0,0,1.5-19.965H.772v-.56H9.566v.56H8.825a2.173,2.173,0,0,0-1.832.742,4.449,4.449,0,0,0-.378,2.331v13.26a6.8,6.8,0,0,0,.2,2.059,1.355,1.355,0,0,0,.636.651A2.784,2.784,0,0,0,8.825-.56Zm10.323,0V0H11.1V-.56h.727A2.192,2.192,0,0,0,13.668-1.3a4.61,4.61,0,0,0,.363-2.331v-13.26a6.8,6.8,0,0,0-.2-2.059,1.364,1.364,0,0,0-.621-.651,2.869,2.869,0,0,0-1.393-.363H11.1v-.56H19.89v.56h-.742a2.173,2.173,0,0,0-1.832.742,4.449,4.449,0,0,0-.378,2.331v13.26a6.8,6.8,0,0,0,.2,2.059,1.355,1.355,0,0,0,.636.651,2.784,2.784,0,0,0,1.377.363Zm10.323,0V0H21.418V-.56h.727A2.192,2.192,0,0,0,23.992-1.3a4.61,4.61,0,0,0,.363-2.331v-13.26a6.8,6.8,0,0,0-.2-2.059,1.364,1.364,0,0,0-.621-.651,2.869,2.869,0,0,0-1.393-.363h-.727v-.56h8.794v.56h-.742a2.173,2.173,0,0,0-1.832.742,4.449,4.449,0,0,0-.378,2.331v13.26a6.8,6.8,0,0,0,.2,2.059,1.355,1.355,0,0,0,.636.651,2.784,2.784,0,0,0,1.377.363Z" transform="translate(718.237 1023.697)" fill="#fff"/>
    <path id="Trazado_56430" data-name="Trazado 56430" d="M8.641-.506V0H.7V-.506h.656a1.98,1.98,0,0,0,1.668-.67A4.164,4.164,0,0,0,3.35-3.281V-15.258a6.139,6.139,0,0,0-.178-1.859,1.232,1.232,0,0,0-.561-.588,2.591,2.591,0,0,0-1.258-.328H.7v-.506H8.641v.506h-.67a1.963,1.963,0,0,0-1.654.67,4.018,4.018,0,0,0-.342,2.105V-3.281a6.139,6.139,0,0,0,.178,1.859,1.224,1.224,0,0,0,.574.588,2.515,2.515,0,0,0,1.244.328Z" transform="translate(1183.534 1020.697)" fill="#161615"/>
    <path id="Trazado_56423" data-name="Trazado 56423" d="M0,0H372.626V56.659H0Z" transform="translate(587.661 1089.754)" fill="#1b5522"/>
    <path id="Trazado_56427" data-name="Trazado 56427" d="M0,0H372.626V56.659H0Z" transform="translate(959.713 1089.754)" fill="#003b8b"/>
    <path id="Trazado_56424" data-name="Trazado 56424" d="M9.566-.56V0H.772V-.56H1.5A2.192,2.192,0,0,0,3.345-1.3a4.61,4.61,0,0,0,.363-2.331v-13.26a6.8,6.8,0,0,0-.2-2.059,1.364,1.364,0,0,0-.621-.651A2.869,2.869,0,0,0,1.5-19.965H.772v-.56H9.566v.56H8.825a2.173,2.173,0,0,0-1.832.742,4.449,4.449,0,0,0-.378,2.331v13.26a6.8,6.8,0,0,0,.2,2.059,1.355,1.355,0,0,0,.636.651A2.784,2.784,0,0,0,8.825-.56ZM32.332-20.525v.56a3.333,3.333,0,0,0-1.65.7A6.279,6.279,0,0,0,29.259-17L22.1.469h-.56L13.85-17.226a9.753,9.753,0,0,0-.833-1.665,2.653,2.653,0,0,0-.931-.734,4.308,4.308,0,0,0-1.491-.341v-.56h8.386v.56a3.812,3.812,0,0,0-1.847.484,1.1,1.1,0,0,0-.424.893,6.839,6.839,0,0,0,.7,2.361L22.629-4.193l4.844-11.882a8,8,0,0,0,.711-2.437,1.148,1.148,0,0,0-.439-.84,2.887,2.887,0,0,0-1.483-.568q-.076-.015-.257-.045v-.56Z" transform="translate(717.639 1127.753)" fill="#fff"/>
    <path id="Trazado_56429" data-name="Trazado 56429" d="M9.258-.542V0H.747V-.542h.7A2.121,2.121,0,0,0,3.237-1.26a4.461,4.461,0,0,0,.352-2.256V-16.348A6.577,6.577,0,0,0,3.4-18.34a1.32,1.32,0,0,0-.6-.63,2.776,2.776,0,0,0-1.348-.352h-.7v-.542H9.258v.542H8.54a2.1,2.1,0,0,0-1.772.718A4.306,4.306,0,0,0,6.4-16.348V-3.516a6.577,6.577,0,0,0,.19,1.992,1.312,1.312,0,0,0,.615.63A2.694,2.694,0,0,0,8.54-.542Zm9.99,0V0H10.737V-.542h.7a2.121,2.121,0,0,0,1.787-.718,4.461,4.461,0,0,0,.352-2.256V-16.348a6.577,6.577,0,0,0-.19-1.992,1.32,1.32,0,0,0-.6-.63,2.776,2.776,0,0,0-1.348-.352h-.7v-.542h8.511v.542H18.53a2.1,2.1,0,0,0-1.772.718,4.306,4.306,0,0,0-.366,2.256V-3.516a6.577,6.577,0,0,0,.19,1.992,1.312,1.312,0,0,0,.615.63,2.694,2.694,0,0,0,1.333.352Z" transform="translate(1178.315 1126.753)" fill="#fff"/>
    <path id="Trazado_56442" data-name="Trazado 56442" d="M15.806,0,14.253-5.1H6.445L4.893,0H0L7.559-21.5H13.11L20.7,0ZM13.169-8.906q-2.153-6.929-2.424-7.837t-.388-1.436Q9.873-16.3,7.588-8.906ZM38.159,0H33.691V-9.565a4.6,4.6,0,0,0-.63-2.659,2.292,2.292,0,0,0-2.007-.886,3.017,3.017,0,0,0-2.71,1.252,7.768,7.768,0,0,0-.835,4.153V0H23.042V-16.377h3.413l.6,2.095H27.3a4.721,4.721,0,0,1,2.058-1.794,7.008,7.008,0,0,1,2.981-.608,5.727,5.727,0,0,1,4.336,1.545,6.2,6.2,0,0,1,1.479,4.46Zm11.5-3.267a9.685,9.685,0,0,0,2.813-.513V-.454a10.028,10.028,0,0,1-4.1.747,5.02,5.02,0,0,1-3.9-1.355,5.9,5.9,0,0,1-1.223-4.065v-7.9H41.1v-1.89l2.461-1.494,1.289-3.457H47.71v3.486h4.585v3.354H47.71v7.9a1.744,1.744,0,0,0,.535,1.406A2.11,2.11,0,0,0,49.658-3.267ZM62.563-13.506a2.834,2.834,0,0,0-2.227.9,4.169,4.169,0,0,0-.923,2.556h6.27a3.724,3.724,0,0,0-.864-2.556A2.926,2.926,0,0,0,62.563-13.506Zm.63,13.8A8.453,8.453,0,0,1,57.012-1.89a8.264,8.264,0,0,1-2.227-6.182,9.089,9.089,0,0,1,2.058-6.365,7.328,7.328,0,0,1,5.691-2.249,7.213,7.213,0,0,1,5.405,1.978,7.481,7.481,0,0,1,1.934,5.464v2.168H59.312A4.3,4.3,0,0,0,60.439-4.1,3.969,3.969,0,0,0,63.4-3.032a12.284,12.284,0,0,0,2.8-.308,14,14,0,0,0,2.754-.981V-.864a10.491,10.491,0,0,1-2.5.872A15.793,15.793,0,0,1,63.193.293ZM84.932-4.863a4.509,4.509,0,0,1-1.75,3.838A8.649,8.649,0,0,1,77.944.293,16.448,16.448,0,0,1,74.9.051a11.525,11.525,0,0,1-2.358-.71V-4.351a15.575,15.575,0,0,0,2.805.981,11.359,11.359,0,0,0,2.747.4q2.432,0,2.432-1.406a1.174,1.174,0,0,0-.322-.857,4.672,4.672,0,0,0-1.113-.747Q78.3-6.4,76.978-6.958A13.251,13.251,0,0,1,74.2-8.423a4.123,4.123,0,0,1-1.289-1.545,5.1,5.1,0,0,1-.4-2.146A3.89,3.89,0,0,1,74.2-15.491,8.241,8.241,0,0,1,79-16.685,13.617,13.617,0,0,1,84.756-15.4l-1.348,3.223q-1.23-.527-2.3-.864a7.222,7.222,0,0,0-2.183-.337q-1.978,0-1.978,1.069a1.257,1.257,0,0,0,.637,1.04,17.329,17.329,0,0,0,2.791,1.3,12.964,12.964,0,0,1,2.813,1.45,4.289,4.289,0,0,1,1.318,1.553A4.771,4.771,0,0,1,84.932-4.863Z" transform="translate(688.852 709.74)" fill="#161615"/>
    <path id="Trazado_56440" data-name="Trazado 56440" d="M11.322,0H6.63V-18.225H.621V-22.13H17.332v3.905H11.322Zm12.73-8.492a7.1,7.1,0,0,0,.825,3.8,2.95,2.95,0,0,0,2.687,1.287A2.9,2.9,0,0,0,30.22-4.685a7.2,7.2,0,0,0,.81-3.807,6.99,6.99,0,0,0-.817-3.769,2.955,2.955,0,0,0-2.679-1.256,2.946,2.946,0,0,0-2.664,1.249A6.984,6.984,0,0,0,24.052-8.492Zm11.7,0a9.094,9.094,0,0,1-2.18,6.463A7.9,7.9,0,0,1,27.5.3,8.491,8.491,0,0,1,23.2-.764,7.1,7.1,0,0,1,20.344-3.83a10.3,10.3,0,0,1-1-4.662,9.044,9.044,0,0,1,2.165-6.448,7.949,7.949,0,0,1,6.085-2.3,8.539,8.539,0,0,1,4.3,1.06,7.072,7.072,0,0,1,2.861,3.042A10.2,10.2,0,0,1,35.753-8.492ZM25.021-18.785v-.409a42.616,42.616,0,0,0,3.557-4.556h5.177v.318q-.787.787-2.687,2.339t-2.974,2.308ZM43.034-8.643l-5.449-8.28h5.237l3.285,5.389,3.315-5.389h5.237l-5.51,8.28L54.916,0H49.664L46.106-5.8,42.534,0H37.3ZM57.292-21.3q0-2.255,2.513-2.255T62.318-21.3a2.2,2.2,0,0,1-.628,1.673,2.64,2.64,0,0,1-1.885.6Q57.292-19.027,57.292-21.3ZM62.106,0H57.489V-16.923h4.617ZM73.822.3q-7.9,0-7.9-8.673,0-4.314,2.149-6.592a8.063,8.063,0,0,1,6.161-2.278A11.745,11.745,0,0,1,79.5-16.09l-1.362,3.572q-1.09-.439-2.028-.719a6.535,6.535,0,0,0-1.877-.28q-3.6,0-3.6,5.116,0,4.965,3.6,4.965A8.214,8.214,0,0,0,76.7-3.792,8.908,8.908,0,0,0,78.968-4.9V-.954A7.441,7.441,0,0,1,76.705.03,12.726,12.726,0,0,1,73.822.3ZM86.567-8.492a7.1,7.1,0,0,0,.825,3.8,2.95,2.95,0,0,0,2.687,1.287,2.9,2.9,0,0,0,2.656-1.279,7.2,7.2,0,0,0,.81-3.807,6.99,6.99,0,0,0-.817-3.769,2.955,2.955,0,0,0-2.679-1.256,2.946,2.946,0,0,0-2.664,1.249A6.984,6.984,0,0,0,86.567-8.492Zm11.7,0a9.094,9.094,0,0,1-2.18,6.463A7.9,7.9,0,0,1,90.018.3a8.491,8.491,0,0,1-4.3-1.067A7.1,7.1,0,0,1,82.858-3.83a10.3,10.3,0,0,1-1-4.662,9.044,9.044,0,0,1,2.165-6.448,7.949,7.949,0,0,1,6.085-2.3,8.539,8.539,0,0,1,4.3,1.06,7.072,7.072,0,0,1,2.861,3.042A10.2,10.2,0,0,1,98.268-8.492Z" transform="translate(683.416 748.451)" fill="#161615"/>
    <path id="Trazado_56443" data-name="Trazado 56443" d="M15.806,0,14.253-5.1H6.445L4.893,0H0L7.559-21.5H13.11L20.7,0ZM13.169-8.906q-2.153-6.929-2.424-7.837t-.388-1.436Q9.873-16.3,7.588-8.906ZM38.159,0H33.691V-9.565q0-3.545-2.637-3.545a3,3,0,0,0-2.71,1.274,7.783,7.783,0,0,0-.835,4.131V0H23.042V-22.793H27.51v4.644q0,.542-.1,2.549l-.1,1.318h.234a5.175,5.175,0,0,1,4.746-2.4,5.8,5.8,0,0,1,4.38,1.553,6.169,6.169,0,0,1,1.494,4.453Zm8.159-8.218a6.874,6.874,0,0,0,.8,3.677,2.855,2.855,0,0,0,2.6,1.245,2.81,2.81,0,0,0,2.571-1.238,6.972,6.972,0,0,0,.784-3.684,6.765,6.765,0,0,0-.791-3.647,2.86,2.86,0,0,0-2.593-1.216,2.851,2.851,0,0,0-2.578,1.208A6.759,6.759,0,0,0,46.318-8.218Zm11.323,0a8.8,8.8,0,0,1-2.109,6.255A7.648,7.648,0,0,1,49.658.293,8.217,8.217,0,0,1,45.5-.74a6.872,6.872,0,0,1-2.769-2.966,9.968,9.968,0,0,1-.967-4.512,8.752,8.752,0,0,1,2.095-6.24,7.693,7.693,0,0,1,5.889-2.227,8.264,8.264,0,0,1,4.16,1.025,6.844,6.844,0,0,1,2.769,2.944A9.875,9.875,0,0,1,57.642-8.218Zm12.832-8.467a7.205,7.205,0,0,1,1.509.132l-.337,4.189a5.118,5.118,0,0,0-1.318-.146,4.738,4.738,0,0,0-3.333,1.1A3.971,3.971,0,0,0,65.8-8.335V0H61.333V-16.377h3.384l.659,2.754h.22a6.156,6.156,0,0,1,2.058-2.219A5.075,5.075,0,0,1,70.474-16.685ZM85.356,0l-.864-2.227h-.117a6.6,6.6,0,0,1-2.322,1.97A7.5,7.5,0,0,1,78.94.293a5.033,5.033,0,0,1-3.713-1.348,5.175,5.175,0,0,1-1.355-3.838A4.322,4.322,0,0,1,75.7-8.738a10.568,10.568,0,0,1,5.5-1.37l2.842-.088v-.718a2.227,2.227,0,0,0-2.549-2.49,11.615,11.615,0,0,0-4.614,1.187L75.4-15.234a13.314,13.314,0,0,1,6.27-1.479,7.81,7.81,0,0,1,5.054,1.436,5.305,5.305,0,0,1,1.758,4.365V0ZM84.038-7.588l-1.729.059a5.535,5.535,0,0,0-2.9.7,2.208,2.208,0,0,0-.952,1.963q0,1.89,2.168,1.89a3.434,3.434,0,0,0,2.483-.894,3.139,3.139,0,0,0,.93-2.373Z" transform="translate(1138.562 709.74)" fill="#161615"/>
    <path id="Trazado_56441" data-name="Trazado 56441" d="M11.322,0H6.63V-18.225H.621V-22.13H17.332v3.905H11.322Zm12.73-8.492a7.1,7.1,0,0,0,.825,3.8,2.95,2.95,0,0,0,2.687,1.287A2.9,2.9,0,0,0,30.22-4.685a7.2,7.2,0,0,0,.81-3.807,6.99,6.99,0,0,0-.817-3.769,2.955,2.955,0,0,0-2.679-1.256,2.946,2.946,0,0,0-2.664,1.249A6.984,6.984,0,0,0,24.052-8.492Zm11.7,0a9.094,9.094,0,0,1-2.18,6.463A7.9,7.9,0,0,1,27.5.3,8.491,8.491,0,0,1,23.2-.764,7.1,7.1,0,0,1,20.344-3.83a10.3,10.3,0,0,1-1-4.662,9.044,9.044,0,0,1,2.165-6.448,7.949,7.949,0,0,1,6.085-2.3,8.539,8.539,0,0,1,4.3,1.06,7.072,7.072,0,0,1,2.861,3.042A10.2,10.2,0,0,1,35.753-8.492ZM25.021-18.785v-.409a42.616,42.616,0,0,0,3.557-4.556h5.177v.318q-.787.787-2.687,2.339t-2.974,2.308ZM43.034-8.643l-5.449-8.28h5.237l3.285,5.389,3.315-5.389h5.237l-5.51,8.28L54.916,0H49.664L46.106-5.8,42.534,0H37.3ZM57.292-21.3q0-2.255,2.513-2.255T62.318-21.3a2.2,2.2,0,0,1-.628,1.673,2.64,2.64,0,0,1-1.885.6Q57.292-19.027,57.292-21.3ZM62.106,0H57.489V-16.923h4.617ZM73.822.3q-7.9,0-7.9-8.673,0-4.314,2.149-6.592a8.063,8.063,0,0,1,6.161-2.278A11.745,11.745,0,0,1,79.5-16.09l-1.362,3.572q-1.09-.439-2.028-.719a6.535,6.535,0,0,0-1.877-.28q-3.6,0-3.6,5.116,0,4.965,3.6,4.965A8.214,8.214,0,0,0,76.7-3.792,8.908,8.908,0,0,0,78.968-4.9V-.954A7.441,7.441,0,0,1,76.705.03,12.726,12.726,0,0,1,73.822.3ZM86.567-8.492a7.1,7.1,0,0,0,.825,3.8,2.95,2.95,0,0,0,2.687,1.287,2.9,2.9,0,0,0,2.656-1.279,7.2,7.2,0,0,0,.81-3.807,6.99,6.99,0,0,0-.817-3.769,2.955,2.955,0,0,0-2.679-1.256,2.946,2.946,0,0,0-2.664,1.249A6.984,6.984,0,0,0,86.567-8.492Zm11.7,0a9.094,9.094,0,0,1-2.18,6.463A7.9,7.9,0,0,1,90.018.3a8.491,8.491,0,0,1-4.3-1.067A7.1,7.1,0,0,1,82.858-3.83a10.3,10.3,0,0,1-1-4.662,9.044,9.044,0,0,1,2.165-6.448,7.949,7.949,0,0,1,6.085-2.3,8.539,8.539,0,0,1,4.3,1.06,7.072,7.072,0,0,1,2.861,3.042A10.2,10.2,0,0,1,98.268-8.492Z" transform="translate(1135.577 748.451)" fill="#161615"/>
    <path id="Trazado_56435" data-name="Trazado 56435" d="M15.439,0H2.921V-22.13H15.439v3.058h-8.9v6.024h8.34v3.027H6.539v6.948h8.9Zm8.128-8.552-5.616-8.189h4.057l3.814,5.858,3.845-5.858h4.026L28.063-8.552,33.982,0H29.956L25.823-6.267,21.706,0H17.68ZM43.155-2.573a8.65,8.65,0,0,0,2.6-.409V-.3a7.181,7.181,0,0,1-1.521.431A10.481,10.481,0,0,1,42.307.3q-5.056,0-5.056-5.328v-9.021H34.966v-1.574l2.452-1.3,1.211-3.542h2.195v3.724h4.768v2.694H40.824v8.961a2.514,2.514,0,0,0,.643,1.9A2.345,2.345,0,0,0,43.155-2.573ZM57.6-17.044a8.563,8.563,0,0,1,1.771.151l-.348,3.315a6.723,6.723,0,0,0-1.574-.182,4.556,4.556,0,0,0-3.459,1.393,5.034,5.034,0,0,0-1.324,3.618V0H49.1V-16.741h2.785l.469,2.952h.182a6.633,6.633,0,0,1,2.172-2.376A5.163,5.163,0,0,1,57.6-17.044ZM69.78.3a8.1,8.1,0,0,1-6.108-2.278,8.648,8.648,0,0,1-2.2-6.274A9.488,9.488,0,0,1,63.514-14.7a7.058,7.058,0,0,1,5.616-2.346,6.9,6.9,0,0,1,5.237,2.013,7.693,7.693,0,0,1,1.922,5.54v1.922H65.133A5.5,5.5,0,0,0,66.45-3.822a4.587,4.587,0,0,0,3.5,1.309,12.908,12.908,0,0,0,2.762-.28,14.48,14.48,0,0,0,2.747-.931V-.833a10.922,10.922,0,0,1-2.634.878A16.15,16.15,0,0,1,69.78.3ZM69.129-14.35a3.574,3.574,0,0,0-2.717,1.075,5.122,5.122,0,0,0-1.219,3.133h7.6a4.634,4.634,0,0,0-1-3.141A3.417,3.417,0,0,0,69.129-14.35ZM94.438,0H90.866V-10.323a4.681,4.681,0,0,0-.727-2.868,2.681,2.681,0,0,0-2.271-.946,3.463,3.463,0,0,0-3.02,1.34,7.86,7.86,0,0,0-.961,4.458V0H80.331V-16.741h2.785l.5,2.195H83.8a4.638,4.638,0,0,1,2.021-1.847,6.516,6.516,0,0,1,2.914-.651q3.86,0,5.116,2.634h.242a5.1,5.1,0,0,1,2.089-1.937,6.629,6.629,0,0,1,3.088-.7,5.623,5.623,0,0,1,4.367,1.514A6.7,6.7,0,0,1,105-10.914V0h-3.557V-10.323a4.645,4.645,0,0,0-.734-2.868,2.7,2.7,0,0,0-2.278-.946A3.531,3.531,0,0,0,95.4-12.844a6.671,6.671,0,0,0-.961,3.973Zm26,0-.711-2.331h-.121A6.858,6.858,0,0,1,117.173-.25,7.707,7.707,0,0,1,114.025.3a5.328,5.328,0,0,1-3.852-1.332A4.984,4.984,0,0,1,108.788-4.8,4.425,4.425,0,0,1,110.71-8.7a11.084,11.084,0,0,1,5.858-1.438l2.891-.091v-.893a3.385,3.385,0,0,0-.749-2.4,3.056,3.056,0,0,0-2.323-.795,8.034,8.034,0,0,0-2.467.378,18.619,18.619,0,0,0-2.271.893l-1.15-2.543a12.381,12.381,0,0,1,2.982-1.082,13.723,13.723,0,0,1,3.058-.371,7.242,7.242,0,0,1,4.821,1.393,5.452,5.452,0,0,1,1.627,4.375V0Zm-5.3-2.422A4.406,4.406,0,0,0,118.256-3.5a3.923,3.923,0,0,0,1.173-3.035V-7.992l-2.149.091a7.355,7.355,0,0,0-3.656.84,2.552,2.552,0,0,0-1.143,2.293,2.238,2.238,0,0,0,.666,1.733A2.861,2.861,0,0,0,115.145-2.422ZM133.6.3a5.831,5.831,0,0,1-4.889-2.271,10.205,10.205,0,0,1-1.756-6.373,10.238,10.238,0,0,1,1.779-6.41,5.887,5.887,0,0,1,4.927-2.293,5.771,5.771,0,0,1,5.025,2.437h.182a21.322,21.322,0,0,1-.257-2.846v-6.1h3.572V0h-2.785l-.621-2.195h-.167A5.687,5.687,0,0,1,133.6.3Zm.954-2.876a3.872,3.872,0,0,0,3.194-1.234,6.5,6.5,0,0,0,1.029-4v-.5q0-3.164-1.029-4.5a3.818,3.818,0,0,0-3.224-1.332,3.271,3.271,0,0,0-2.891,1.521,7.8,7.8,0,0,0-1.014,4.337,7.6,7.6,0,0,0,.984,4.246A3.322,3.322,0,0,0,134.55-2.573ZM157.74,0l-.711-2.331h-.121A6.858,6.858,0,0,1,154.47-.25,7.707,7.707,0,0,1,151.322.3a5.328,5.328,0,0,1-3.852-1.332A4.984,4.984,0,0,1,146.084-4.8,4.425,4.425,0,0,1,148.007-8.7a11.084,11.084,0,0,1,5.858-1.438l2.891-.091v-.893a3.385,3.385,0,0,0-.749-2.4,3.056,3.056,0,0,0-2.323-.795,8.034,8.034,0,0,0-2.467.378,18.619,18.619,0,0,0-2.271.893l-1.15-2.543a12.381,12.381,0,0,1,2.982-1.082,13.723,13.723,0,0,1,3.058-.371,7.242,7.242,0,0,1,4.821,1.393,5.452,5.452,0,0,1,1.627,4.375V0Zm-5.3-2.422A4.406,4.406,0,0,0,155.552-3.5a3.923,3.923,0,0,0,1.173-3.035V-7.992l-2.149.091a7.355,7.355,0,0,0-3.656.84,2.552,2.552,0,0,0-1.143,2.293,2.238,2.238,0,0,0,.666,1.733A2.861,2.861,0,0,0,152.442-2.422ZM179.355,0h-3.572V-10.323a4.681,4.681,0,0,0-.727-2.868,2.681,2.681,0,0,0-2.271-.946,3.463,3.463,0,0,0-3.02,1.34A7.86,7.86,0,0,0,168.8-8.34V0h-3.557V-16.741h2.785l.5,2.195h.182a4.638,4.638,0,0,1,2.021-1.847,6.516,6.516,0,0,1,2.914-.651q3.86,0,5.116,2.634h.242a5.1,5.1,0,0,1,2.089-1.937,6.629,6.629,0,0,1,3.088-.7,5.623,5.623,0,0,1,4.367,1.514,6.7,6.7,0,0,1,1.37,4.617V0h-3.557V-10.323a4.645,4.645,0,0,0-.734-2.868,2.7,2.7,0,0,0-2.278-.946,3.531,3.531,0,0,0-3.035,1.294,6.671,6.671,0,0,0-.961,3.973ZM202.2.3a8.1,8.1,0,0,1-6.108-2.278,8.648,8.648,0,0,1-2.2-6.274A9.488,9.488,0,0,1,195.93-14.7a7.058,7.058,0,0,1,5.616-2.346,6.9,6.9,0,0,1,5.237,2.013,7.693,7.693,0,0,1,1.922,5.54v1.922H197.549a5.5,5.5,0,0,0,1.317,3.746,4.587,4.587,0,0,0,3.5,1.309,12.908,12.908,0,0,0,2.762-.28,14.48,14.48,0,0,0,2.747-.931V-.833a10.922,10.922,0,0,1-2.634.878A16.15,16.15,0,0,1,202.2.3Zm-.651-14.652a3.574,3.574,0,0,0-2.717,1.075,5.122,5.122,0,0,0-1.219,3.133h7.6a4.634,4.634,0,0,0-1-3.141A3.417,3.417,0,0,0,201.545-14.35ZM227.475,0H223.9V-10.293a4.5,4.5,0,0,0-.78-2.891,3.013,3.013,0,0,0-2.475-.954,3.935,3.935,0,0,0-3.3,1.332A7.354,7.354,0,0,0,216.3-8.34V0h-3.557V-16.741h2.785l.5,2.195h.182a4.953,4.953,0,0,1,2.149-1.847,7.2,7.2,0,0,1,3.088-.651q6.024,0,6.024,6.13Zm11.186-2.573a8.65,8.65,0,0,0,2.6-.409V-.3a7.181,7.181,0,0,1-1.521.431,10.481,10.481,0,0,1-1.93.174q-5.056,0-5.056-5.328v-9.021h-2.286v-1.574l2.452-1.3,1.211-3.542h2.195v3.724H241.1v2.694H236.33v8.961a2.514,2.514,0,0,0,.643,1.9A2.345,2.345,0,0,0,238.661-2.573ZM251.92.3a8.1,8.1,0,0,1-6.108-2.278,8.648,8.648,0,0,1-2.2-6.274,9.488,9.488,0,0,1,2.043-6.448,7.058,7.058,0,0,1,5.616-2.346,6.9,6.9,0,0,1,5.237,2.013,7.693,7.693,0,0,1,1.922,5.54v1.922H247.273a5.5,5.5,0,0,0,1.317,3.746,4.587,4.587,0,0,0,3.5,1.309,12.908,12.908,0,0,0,2.762-.28,14.48,14.48,0,0,0,2.747-.931V-.833a10.922,10.922,0,0,1-2.634.878A16.15,16.15,0,0,1,251.92.3ZM251.27-14.35a3.574,3.574,0,0,0-2.717,1.075,5.122,5.122,0,0,0-1.219,3.133h7.6a4.634,4.634,0,0,0-1-3.141A3.417,3.417,0,0,0,251.27-14.35Z" transform="translate(833.161 862.498)" fill="#464545"/>
    <path id="Trazado_56428" data-name="Trazado 56428" d="M16.65,0,14.44-6.146H5.979L3.814,0H0L8.28-22.221h3.936L20.5,0ZM13.487-9.264l-2.074-6.024q-.227-.605-.628-1.907T10.232-19.1a33.924,33.924,0,0,1-1.2,4.072l-2,5.767ZM26.6,0H23.038V-23.553H26.6ZM37.917-2.573a8.65,8.65,0,0,0,2.6-.409V-.3A7.181,7.181,0,0,1,39,.129,10.481,10.481,0,0,1,37.07.3q-5.056,0-5.056-5.328v-9.021H29.729v-1.574l2.452-1.3,1.211-3.542h2.195v3.724h4.768v2.694H35.586v8.961a2.514,2.514,0,0,0,.643,1.9A2.345,2.345,0,0,0,37.917-2.573ZM54.341,0l-.711-2.331h-.121A6.858,6.858,0,0,1,51.071-.25,7.707,7.707,0,0,1,47.923.3a5.328,5.328,0,0,1-3.852-1.332A4.984,4.984,0,0,1,42.686-4.8,4.425,4.425,0,0,1,44.608-8.7a11.084,11.084,0,0,1,5.858-1.438l2.891-.091v-.893a3.385,3.385,0,0,0-.749-2.4,3.056,3.056,0,0,0-2.323-.795,8.034,8.034,0,0,0-2.467.378,18.619,18.619,0,0,0-2.271.893L44.4-15.591a12.381,12.381,0,0,1,2.982-1.082,13.723,13.723,0,0,1,3.058-.371,7.242,7.242,0,0,1,4.821,1.393,5.452,5.452,0,0,1,1.627,4.375V0Zm-5.3-2.422A4.406,4.406,0,0,0,52.154-3.5a3.923,3.923,0,0,0,1.173-3.035V-7.992L51.177-7.9a7.355,7.355,0,0,0-3.656.84,2.552,2.552,0,0,0-1.143,2.293,2.238,2.238,0,0,0,.666,1.733A2.861,2.861,0,0,0,49.043-2.422ZM75.956,0H72.384V-10.323a4.681,4.681,0,0,0-.727-2.868,2.681,2.681,0,0,0-2.271-.946,3.463,3.463,0,0,0-3.02,1.34,7.86,7.86,0,0,0-.961,4.458V0H61.849V-16.741h2.785l.5,2.195h.182a4.638,4.638,0,0,1,2.021-1.847,6.516,6.516,0,0,1,2.914-.651q3.86,0,5.116,2.634h.242A5.1,5.1,0,0,1,77.7-16.348a6.629,6.629,0,0,1,3.088-.7,5.623,5.623,0,0,1,4.367,1.514,6.7,6.7,0,0,1,1.37,4.617V0H82.964V-10.323a4.645,4.645,0,0,0-.734-2.868,2.7,2.7,0,0,0-2.278-.946,3.531,3.531,0,0,0-3.035,1.294,6.671,6.671,0,0,0-.961,3.973ZM98.8.3A8.1,8.1,0,0,1,92.69-1.975a8.648,8.648,0,0,1-2.2-6.274A9.488,9.488,0,0,1,92.531-14.7a7.058,7.058,0,0,1,5.616-2.346,6.9,6.9,0,0,1,5.237,2.013,7.693,7.693,0,0,1,1.922,5.54v1.922H94.15a5.5,5.5,0,0,0,1.317,3.746,4.587,4.587,0,0,0,3.5,1.309,12.908,12.908,0,0,0,2.762-.28,14.48,14.48,0,0,0,2.747-.931V-.833a10.922,10.922,0,0,1-2.634.878A16.15,16.15,0,0,1,98.8.3ZM98.146-14.35a3.574,3.574,0,0,0-2.717,1.075,5.122,5.122,0,0,0-1.219,3.133h7.6a4.634,4.634,0,0,0-1-3.141A3.417,3.417,0,0,0,98.146-14.35ZM124.076,0H120.5V-10.293a4.5,4.5,0,0,0-.78-2.891,3.013,3.013,0,0,0-2.475-.954,3.935,3.935,0,0,0-3.3,1.332A7.354,7.354,0,0,0,112.9-8.34V0h-3.557V-16.741h2.785l.5,2.195h.182a4.953,4.953,0,0,1,2.149-1.847,7.2,7.2,0,0,1,3.088-.651q6.024,0,6.024,6.13Zm11.186-2.573a8.65,8.65,0,0,0,2.6-.409V-.3a7.181,7.181,0,0,1-1.521.431,10.481,10.481,0,0,1-1.93.174q-5.056,0-5.056-5.328v-9.021h-2.286v-1.574l2.452-1.3,1.211-3.542h2.195v3.724H137.7v2.694h-4.768v8.961a2.514,2.514,0,0,0,.643,1.9A2.345,2.345,0,0,0,135.262-2.573ZM148.521.3a8.1,8.1,0,0,1-6.108-2.278,8.648,8.648,0,0,1-2.2-6.274,9.488,9.488,0,0,1,2.043-6.448,7.058,7.058,0,0,1,5.616-2.346,6.9,6.9,0,0,1,5.237,2.013,7.693,7.693,0,0,1,1.922,5.54v1.922H143.875a5.5,5.5,0,0,0,1.317,3.746,4.587,4.587,0,0,0,3.5,1.309,12.908,12.908,0,0,0,2.762-.28,14.48,14.48,0,0,0,2.747-.931V-.833a10.922,10.922,0,0,1-2.634.878A16.15,16.15,0,0,1,148.521.3Zm-.651-14.652a3.574,3.574,0,0,0-2.717,1.075,5.122,5.122,0,0,0-1.219,3.133h7.6a4.634,4.634,0,0,0-1-3.141A3.417,3.417,0,0,0,147.871-14.35Z" transform="translate(885.58 970.351)" fill="#464545"/>
    <path id="Trazado_56425" data-name="Trazado 56425" d="M12.085,0,5.874-17.886H5.757q.249,3.984.249,7.471V0H2.827V-21.416H7.764L13.711-4.38H13.8l6.123-17.036h4.951V0H21.5V-10.591q0-1.6.081-4.16t.139-3.105h-.117L15.176,0ZM44.517-8.13a8.843,8.843,0,0,1-2.036,6.2A7.3,7.3,0,0,1,36.812.293,7.767,7.767,0,0,1,32.8-.732a6.769,6.769,0,0,1-2.681-2.944A10.028,10.028,0,0,1,29.18-8.13,8.783,8.783,0,0,1,31.2-14.282a7.329,7.329,0,0,1,5.7-2.212,7.137,7.137,0,0,1,5.566,2.263A8.742,8.742,0,0,1,44.517-8.13Zm-11.792,0q0,5.61,4.146,5.61,4.1,0,4.1-5.61,0-5.552-4.131-5.552A3.522,3.522,0,0,0,33.7-12.246,7.305,7.305,0,0,0,32.725-8.13ZM53.936.293A5.643,5.643,0,0,1,49.2-1.9a9.876,9.876,0,0,1-1.7-6.167,9.908,9.908,0,0,1,1.721-6.2,5.7,5.7,0,0,1,4.768-2.219,5.585,5.585,0,0,1,4.863,2.358h.176a20.635,20.635,0,0,1-.249-2.754v-5.9h3.457V0h-2.7l-.6-2.124h-.161A5.5,5.5,0,0,1,53.936.293Zm.923-2.783a3.747,3.747,0,0,0,3.091-1.194,6.285,6.285,0,0,0,1-3.875v-.483a7.262,7.262,0,0,0-1-4.351,3.7,3.7,0,0,0-3.12-1.289,3.166,3.166,0,0,0-2.8,1.472,7.544,7.544,0,0,0-.981,4.2A7.356,7.356,0,0,0,52-3.9,3.214,3.214,0,0,0,54.858-2.49ZM74.238.293a7.837,7.837,0,0,1-5.911-2.2A8.369,8.369,0,0,1,66.2-7.983a9.182,9.182,0,0,1,1.978-6.24,6.831,6.831,0,0,1,5.435-2.271,6.676,6.676,0,0,1,5.068,1.948,7.445,7.445,0,0,1,1.86,5.361v1.86h-10.8A5.321,5.321,0,0,0,71.016-3.7,4.439,4.439,0,0,0,74.4-2.432,12.491,12.491,0,0,0,77.073-2.7a14.013,14.013,0,0,0,2.659-.9v2.8a10.569,10.569,0,0,1-2.549.85A15.629,15.629,0,0,1,74.238.293Zm-.63-14.18a3.459,3.459,0,0,0-2.629,1.04A4.957,4.957,0,0,0,69.8-9.814h7.354a4.485,4.485,0,0,0-.967-3.04A3.307,3.307,0,0,0,73.608-13.887Zm19.058-2.607a8.287,8.287,0,0,1,1.714.146l-.337,3.208a6.506,6.506,0,0,0-1.523-.176,4.409,4.409,0,0,0-3.347,1.348,4.871,4.871,0,0,0-1.282,3.5V0H84.448V-16.2h2.7l.454,2.856h.176a6.419,6.419,0,0,1,2.1-2.3A5,5,0,0,1,92.666-16.494ZM107.52,0l-.688-2.256h-.117a6.637,6.637,0,0,1-2.358,2.014,7.458,7.458,0,0,1-3.047.535A5.156,5.156,0,0,1,97.581-1a4.824,4.824,0,0,1-1.34-3.647A4.283,4.283,0,0,1,98.1-8.423a10.727,10.727,0,0,1,5.669-1.392l2.8-.088v-.864a3.276,3.276,0,0,0-.725-2.322,2.957,2.957,0,0,0-2.249-.769,7.775,7.775,0,0,0-2.388.366,18.019,18.019,0,0,0-2.2.864L97.9-15.088a11.981,11.981,0,0,1,2.886-1.047,13.28,13.28,0,0,1,2.959-.359,7.008,7.008,0,0,1,4.666,1.348,5.276,5.276,0,0,1,1.575,4.233V0Zm-5.127-2.344a4.264,4.264,0,0,0,3.01-1.047,3.8,3.8,0,0,0,1.135-2.937V-7.734l-2.08.088a7.117,7.117,0,0,0-3.538.813,2.47,2.47,0,0,0-1.106,2.219,2.165,2.165,0,0,0,.645,1.677A2.769,2.769,0,0,0,102.393-2.344ZM120.249.293a5.643,5.643,0,0,1-4.731-2.2,9.876,9.876,0,0,1-1.7-6.167,9.908,9.908,0,0,1,1.721-6.2,5.7,5.7,0,0,1,4.768-2.219,5.585,5.585,0,0,1,4.863,2.358h.176a20.635,20.635,0,0,1-.249-2.754v-5.9h3.457V0h-2.7l-.6-2.124H125.1A5.5,5.5,0,0,1,120.249.293Zm.923-2.783a3.747,3.747,0,0,0,3.091-1.194,6.285,6.285,0,0,0,1-3.875v-.483a7.262,7.262,0,0,0-1-4.351,3.7,3.7,0,0,0-3.12-1.289,3.166,3.166,0,0,0-2.8,1.472,7.544,7.544,0,0,0-.981,4.2,7.356,7.356,0,0,0,.952,4.109A3.214,3.214,0,0,0,121.172-2.49ZM143.613,0l-.688-2.256h-.117a6.637,6.637,0,0,1-2.358,2.014A7.458,7.458,0,0,1,137.4.293,5.156,5.156,0,0,1,133.674-1a4.824,4.824,0,0,1-1.34-3.647,4.283,4.283,0,0,1,1.86-3.779,10.727,10.727,0,0,1,5.669-1.392l2.8-.088v-.864a3.276,3.276,0,0,0-.725-2.322,2.957,2.957,0,0,0-2.249-.769,7.775,7.775,0,0,0-2.388.366,18.019,18.019,0,0,0-2.2.864l-1.113-2.461a11.981,11.981,0,0,1,2.886-1.047,13.28,13.28,0,0,1,2.959-.359,7.008,7.008,0,0,1,4.666,1.348,5.276,5.276,0,0,1,1.575,4.233V0Zm-5.127-2.344a4.264,4.264,0,0,0,3.01-1.047,3.8,3.8,0,0,0,1.135-2.937V-7.734l-2.08.088a7.117,7.117,0,0,0-3.538.813,2.47,2.47,0,0,0-1.106,2.219,2.165,2.165,0,0,0,.645,1.677A2.769,2.769,0,0,0,138.486-2.344ZM164.531,0h-3.457V-9.99a4.53,4.53,0,0,0-.7-2.776,2.6,2.6,0,0,0-2.2-.916,3.352,3.352,0,0,0-2.922,1.3,7.606,7.606,0,0,0-.93,4.314V0h-3.442V-16.2h2.7l.483,2.124h.176a4.488,4.488,0,0,1,1.956-1.787,6.306,6.306,0,0,1,2.82-.63q3.735,0,4.951,2.549h.234a4.939,4.939,0,0,1,2.021-1.875,6.416,6.416,0,0,1,2.988-.674,5.442,5.442,0,0,1,4.226,1.465,6.487,6.487,0,0,1,1.326,4.468V0h-3.442V-9.99a4.5,4.5,0,0,0-.71-2.776,2.616,2.616,0,0,0-2.2-.916,3.417,3.417,0,0,0-2.937,1.252,6.456,6.456,0,0,0-.93,3.845Zm22.1.293a7.837,7.837,0,0,1-5.911-2.2,8.369,8.369,0,0,1-2.131-6.072,9.182,9.182,0,0,1,1.978-6.24,6.831,6.831,0,0,1,5.435-2.271,6.676,6.676,0,0,1,5.068,1.948,7.445,7.445,0,0,1,1.86,5.361v1.86h-10.8A5.321,5.321,0,0,0,183.413-3.7,4.439,4.439,0,0,0,186.8-2.432,12.491,12.491,0,0,0,189.47-2.7a14.013,14.013,0,0,0,2.659-.9v2.8a10.569,10.569,0,0,1-2.549.85A15.629,15.629,0,0,1,186.636.293Zm-.63-14.18a3.459,3.459,0,0,0-2.629,1.04A4.957,4.957,0,0,0,182.2-9.814h7.354a4.485,4.485,0,0,0-.967-3.04A3.307,3.307,0,0,0,186.006-13.887ZM211.1,0h-3.457V-9.961a4.36,4.36,0,0,0-.754-2.8,2.916,2.916,0,0,0-2.4-.923,3.808,3.808,0,0,0-3.193,1.289,7.117,7.117,0,0,0-1.011,4.321V0h-3.442V-16.2h2.7l.483,2.124h.176a4.793,4.793,0,0,1,2.08-1.787,6.971,6.971,0,0,1,2.988-.63q5.83,0,5.83,5.933Zm10.825-2.49a8.371,8.371,0,0,0,2.52-.4V-.293a6.949,6.949,0,0,1-1.472.417A10.143,10.143,0,0,1,221.1.293q-4.893,0-4.893-5.156v-8.73H214v-1.523l2.373-1.26,1.172-3.428h2.124v3.6h4.614v2.607h-4.614v8.672a2.433,2.433,0,0,0,.623,1.838A2.27,2.27,0,0,0,221.924-2.49ZM234.756.293a7.837,7.837,0,0,1-5.911-2.2,8.369,8.369,0,0,1-2.131-6.072,9.182,9.182,0,0,1,1.978-6.24,6.831,6.831,0,0,1,5.435-2.271,6.676,6.676,0,0,1,5.068,1.948,7.445,7.445,0,0,1,1.86,5.361v1.86h-10.8A5.321,5.321,0,0,0,231.533-3.7a4.439,4.439,0,0,0,3.384,1.267A12.491,12.491,0,0,0,237.59-2.7a14.013,14.013,0,0,0,2.659-.9v2.8a10.569,10.569,0,0,1-2.549.85A15.629,15.629,0,0,1,234.756.293Zm-.63-14.18a3.459,3.459,0,0,0-2.629,1.04,4.957,4.957,0,0,0-1.179,3.032h7.354a4.485,4.485,0,0,0-.967-3.04A3.307,3.307,0,0,0,234.126-13.887Z" transform="translate(837.906 1073.341)" fill="#464545"/>
    <g id="Grupo_28124" data-name="Grupo 28124" transform="translate(476.934 616.452)" clip-path="url(#clip-path)">
      <text id="Ligeramente" transform="translate(392.122 559.822)" fill="#464545" font-size="30" font-family="OpenSans-Semibold, Open Sans" font-weight="600"><tspan x="0" y="0">Ligeramente</tspan></text>
    </g>
    <path id="Trazado_56402" data-name="Trazado 56402" d="M43,138.908c0,7.254-4.428,11.148-9.831,11.148-5.623,0-9.517-4.366-9.517-10.771,0-6.723,4.146-11.12,9.8-11.12C39.26,128.165,43,132.594,43,138.908Zm0,150.846c0,7.254-4.428,11.148-9.831,11.148-5.623,0-9.517-4.366-9.517-10.771,0-6.723,4.146-11.12,9.8-11.12C39.26,279.011,43,283.44,43,289.754ZM38.349,187.422l-2.731-4.68c-1.1-1.789-1.76-2.951-2.42-4.177h-.063c-.6,1.226-1.223,2.357-2.291,4.208L28.3,187.422h-3.14l6.471-10.708-6.22-10.46H28.58l2.8,4.963c.786,1.383,1.38,2.449,1.946,3.58h.094c.6-1.257,1.131-2.229,1.917-3.58l2.857-4.963h3.174l-6.44,10.3,6.6,10.866Zm3.033,74.766a13.5,13.5,0,0,1-5.591,1c-5.968,0-10.428-3.768-10.428-10.74,0-6.66,4.491-11.12,11.057-11.12a11.467,11.467,0,0,1,5.026.943l-.691,2.229a9.7,9.7,0,0,0-4.24-.88c-4.963,0-8.262,3.174-8.262,8.734,0,5.214,2.985,8.511,8.105,8.511a10.988,10.988,0,0,0,4.491-.88ZM31.943,93.157H25.5V90.831H41.177v2.326H34.706V112H31.943Zm-5.405,46.066c0,4.554,2.451,8.606,6.785,8.606s6.783-3.989,6.783-8.794c0-4.24-2.2-8.637-6.751-8.637S26.538,134.605,26.538,139.222Zm0,150.846c0,4.554,2.451,8.606,6.785,8.606s6.783-3.988,6.783-8.794c0-4.24-2.2-8.64-6.751-8.64S26.538,285.451,26.538,290.068Zm8.171-86.1v21.168H31.946V203.965Z" transform="translate(515.218 763.493)" fill="#161615"/>
    <path id="Trazado_56403" data-name="Trazado 56403" d="M357.205,305.962c0,7.254-4.429,11.148-9.831,11.148-5.623,0-9.517-4.366-9.517-10.771,0-6.723,4.146-11.12,9.8-11.12C353.468,295.22,357.205,299.648,357.205,305.962Zm0,75.423c0,7.254-4.429,11.148-9.831,11.148-5.623,0-9.517-4.366-9.517-10.774,0-6.72,4.146-11.117,9.8-11.117C353.468,370.643,357.205,375.071,357.205,381.385ZM355.932,240.4a19.126,19.126,0,0,1-6.531,1.16,9.94,9.94,0,0,1-10.868-10.677c0-6.314,4.366-10.931,11.463-10.931a13.251,13.251,0,0,1,5.308.974l-.689,2.229a10.517,10.517,0,0,0-4.68-.911c-5.151,0-8.514,3.205-8.514,8.514,0,5.371,3.205,8.543,8.168,8.543a8.911,8.911,0,0,0,3.643-.566v-6.314h-4.271v-2.2h6.971Zm-15.187,65.875c0,4.554,2.451,8.605,6.785,8.605s6.783-3.989,6.783-8.794c0-4.243-2.2-8.64-6.751-8.64S340.746,301.659,340.746,306.276Zm0,75.42c0,4.557,2.451,8.608,6.785,8.608s6.783-3.991,6.783-8.794c0-4.243-2.2-8.64-6.751-8.64S340.746,377.08,340.746,381.7Zm1.1-30.549a9.262,9.262,0,0,0,4.868,1.383c2.794,0,4.429-1.477,4.429-3.614,0-1.946-1.131-3.109-3.989-4.177-3.457-1.254-5.591-3.077-5.591-6.029,0-3.3,2.731-5.748,6.846-5.748A9.463,9.463,0,0,1,353.059,334l-.752,2.229a7.838,7.838,0,0,0-3.991-1.006c-2.889,0-3.989,1.728-3.989,3.174,0,1.977,1.289,2.951,4.208,4.083,3.583,1.383,5.371,3.109,5.371,6.22,0,3.266-2.386,6.123-7.38,6.123a10.953,10.953,0,0,1-5.4-1.38Zm-.361-92.98a31.754,31.754,0,0,1,5.246-.44c2.92,0,4.837.566,6.123,1.726a5.41,5.41,0,0,1,1.666,4.054,5.562,5.562,0,0,1-3.957,5.371v.092c1.6.566,2.574,2.074,3.077,4.274a33.6,33.6,0,0,0,1.634,5.809h-2.828a26.507,26.507,0,0,1-1.38-5.057c-.628-2.92-1.791-4.02-4.271-4.114h-2.577v9.171h-2.732Zm.094-188.589a31.626,31.626,0,0,1,5.246-.409c2.7,0,4.68.629,5.934,1.76a5.792,5.792,0,0,1,1.854,4.428,6.233,6.233,0,0,1-1.634,4.523,8.822,8.822,0,0,1-6.469,2.323,9.411,9.411,0,0,1-2.2-.189V90.5h-2.731Zm11.557,48.705h-8.2v7.631h9.171v2.294H342.178V107.04h11.463v2.292h-8.7v6.691h8.2Zm-10.646,26.466h2.763v18.877H354.3v2.292H342.492Zm1.726,123.06h2.794c2.923,0,4.774-1.6,4.774-4.02,0-2.734-1.977-3.928-4.866-3.928a11.987,11.987,0,0,0-2.7.22Zm.094-188.023a9.168,9.168,0,0,0,2.263.22c3.3,0,5.308-1.634,5.308-4.491,0-2.828-2.011-4.177-4.994-4.177a11.475,11.475,0,0,0-2.577.22Zm4.6,102.675v21.168h-2.763V182.462Z" transform="translate(1023.873 728.429)" fill="#161615"/>
    <g id="Grupo_28126" data-name="Grupo 28126" transform="translate(476.934 616.452)" clip-path="url(#clip-path)">
      <path id="Rectángulo_5537" data-name="Rectángulo 5537" d="M2.905-.5H75.3a3.409,3.409,0,0,1,3.4,3.4V440.14a3.408,3.408,0,0,1-3.4,3.4H2.905a3.409,3.409,0,0,1-3.4-3.4V2.9A3.409,3.409,0,0,1,2.905-.5ZM75.3,442.544a2.407,2.407,0,0,0,2.4-2.4V2.9A2.408,2.408,0,0,0,75.3.5H2.905A2.408,2.408,0,0,0,.5,2.9V440.139a2.408,2.408,0,0,0,2.4,2.4Z" transform="translate(32.527 105.726)" fill="#161615"/>
      <path id="Rectángulo_5538" data-name="Rectángulo 5538" d="M2.9-.5H75.3a3.409,3.409,0,0,1,3.4,3.4V440.14a3.408,3.408,0,0,1-3.4,3.4H2.905a3.409,3.409,0,0,1-3.405-3.4V2.9A3.409,3.409,0,0,1,2.9-.5ZM75.3,442.544a2.407,2.407,0,0,0,2.4-2.4V2.9A2.408,2.408,0,0,0,75.3.5H2.9A2.408,2.408,0,0,0,.5,2.9V440.139a2.408,2.408,0,0,0,2.405,2.4Z" transform="translate(855.403 105.726)" fill="#161615"/>
      <path id="Trazado_56404" data-name="Trazado 56404" d="M77.229,3.233l65.136,117.683a6.467,6.467,0,0,1-5.6,9.7H6.492a6.316,6.316,0,0,1-5.6-3.234,6.318,6.318,0,0,1,0-6.466L66.029,3.233a6.466,6.466,0,0,1,11.2,0" transform="translate(0 -0.002)" fill="#040506" fill-rule="evenodd"/>
      <path id="Trazado_56405" data-name="Trazado 56405" d="M64.83,5.616,3.452,111.923a1.872,1.872,0,0,0,1.621,2.807H127.826a1.872,1.872,0,0,0,1.621-2.807L68.069,5.616a1.871,1.871,0,0,0-3.24,0" transform="translate(5.177 7.578)" fill="#ffe500" fill-rule="evenodd"/>
      <path id="Trazado_56406" data-name="Trazado 56406" d="M38.573,48.033l-2.988,6.636h5.976Zm10.646,6.979h0l-2.163,6.995H30.09l-2.163-6.995a19.422,19.422,0,0,1-7.508-15.428A19,19,0,0,1,38.573,20.344,18.993,18.993,0,0,1,56.727,39.585a19.415,19.415,0,0,1-7.508,15.428m-2.2-16.237h0a5.458,5.458,0,1,1-5.458,5.458,5.454,5.454,0,0,1,5.458-5.458m-16.889,0h0a5.458,5.458,0,1,1-5.458,5.458,5.454,5.454,0,0,1,5.458-5.458" transform="translate(33.055 32.934)" fill="#040506" fill-rule="evenodd"/>
      <path id="Trazado_56407" data-name="Trazado 56407" d="M26.409,40.9h17.84L46.613,36.5h1.621l-.877,7.812-6.432,8.26H29.735L23.3,44.317,22.423,36.5h1.621Z" transform="translate(36.299 59.095)" fill="#040506" fill-rule="evenodd"/>
      <path id="Trazado_56408" data-name="Trazado 56408" d="M33.4,46.891l.047-5.287-6.809-4.489c-.453-.3-1.391-1.43-1.116-1.9a4.069,4.069,0,1,0-7.469-1.158,4.069,4.069,0,1,0,3.962,6.463c.325-.429,1.726,0,2.174.293Z" transform="translate(23.795 47.071)" fill="#040506" fill-rule="evenodd"/>
      <path id="Trazado_56409" data-name="Trazado 56409" d="M32.895,46.891l-.05-5.287,6.809-4.489c.456-.3,1.393-1.43,1.116-1.9a4.069,4.069,0,1,1,7.469-1.158,4.068,4.068,0,1,1-3.96,6.463c-.327-.429-1.728,0-2.176.293Z" transform="translate(53.171 47.071)" fill="#040506" fill-rule="evenodd"/>
      <path id="Trazado_56410" data-name="Trazado 56410" d="M33.4,36.97l.047,5.287-6.809,4.491c-.453.3-1.391,1.43-1.116,1.9A4.069,4.069,0,1,1,18.049,49.8a4.07,4.07,0,1,1,3.962-6.466c.325.432,1.726.005,2.174-.291Z" transform="translate(23.795 59.849)" fill="#040506" fill-rule="evenodd"/>
      <path id="Trazado_56411" data-name="Trazado 56411" d="M32.895,36.97l-.05,5.287,6.809,4.491c.456.3,1.393,1.43,1.116,1.9A4.069,4.069,0,1,0,48.239,49.8a4.068,4.068,0,1,0-3.96-6.466c-.327.432-1.728.005-2.176-.291Z" transform="translate(53.171 59.849)" fill="#040506" fill-rule="evenodd"/>
      <path id="Trazado_56412" data-name="Trazado 56412" d="M391.442,3.233l65.136,117.683a6.467,6.467,0,0,1-5.6,9.7H320.7a6.467,6.467,0,0,1-5.6-9.7L380.241,3.233a6.466,6.466,0,0,1,11.2,0" transform="translate(508.662 -0.002)" fill="#040506" fill-rule="evenodd"/>
      <path id="Trazado_56413" data-name="Trazado 56413" d="M379.043,5.616,317.665,111.923a1.872,1.872,0,0,0,1.621,2.807H442.039a1.872,1.872,0,0,0,1.621-2.807L382.282,5.616a1.871,1.871,0,0,0-3.24,0" transform="translate(513.841 7.578)" fill="#ffe500" fill-rule="evenodd"/>
      <path id="Trazado_56414" data-name="Trazado 56414" d="M352.785,48.033,349.8,54.669h5.976Zm10.646,6.979h0l-2.163,6.995H344.3l-2.163-6.995a19.422,19.422,0,0,1-7.508-15.428,18.185,18.185,0,1,1,36.308,0,19.415,19.415,0,0,1-7.508,15.428m-2.2-16.237h0a5.458,5.458,0,1,1-5.458,5.458,5.454,5.454,0,0,1,5.458-5.458m-16.889,0h0a5.458,5.458,0,1,1-5.458,5.458,5.454,5.454,0,0,1,5.458-5.458" transform="translate(541.717 32.934)" fill="#040506" fill-rule="evenodd"/>
      <path id="Trazado_56415" data-name="Trazado 56415" d="M340.621,40.9h17.84l2.365-4.392h1.621l-.877,7.812-6.432,8.26h-11.19l-6.435-8.26-.877-7.812h1.621Z" transform="translate(544.962 59.095)" fill="#040506" fill-rule="evenodd"/>
      <path id="Trazado_56416" data-name="Trazado 56416" d="M347.607,46.891l.047-5.287-6.809-4.489c-.453-.3-1.391-1.43-1.116-1.9a4.069,4.069,0,1,0-7.469-1.158,4.069,4.069,0,1,0,3.962,6.463c.325-.429,1.726,0,2.174.293Z" transform="translate(532.457 47.071)" fill="#040506" fill-rule="evenodd"/>
      <path id="Trazado_56417" data-name="Trazado 56417" d="M347.108,46.891l-.05-5.287,6.809-4.489c.456-.3,1.393-1.43,1.116-1.9a4.069,4.069,0,1,1,7.469-1.158,4.068,4.068,0,1,1-3.96,6.463c-.327-.429-1.729,0-2.176.293Z" transform="translate(561.835 47.071)" fill="#040506" fill-rule="evenodd"/>
      <path id="Trazado_56418" data-name="Trazado 56418" d="M347.607,36.97l.047,5.287-6.809,4.491c-.453.3-1.391,1.43-1.116,1.9a4.069,4.069,0,1,1-7.469,1.155,4.07,4.07,0,1,1,3.962-6.466c.325.432,1.726.005,2.174-.291Z" transform="translate(532.457 59.849)" fill="#040506" fill-rule="evenodd"/>
      <path id="Trazado_56419" data-name="Trazado 56419" d="M347.108,36.97l-.05,5.287,6.809,4.491c.456.3,1.393,1.43,1.116,1.9a4.069,4.069,0,1,0,7.469,1.155,4.068,4.068,0,1,0-3.96-6.466c-.327.432-1.729.005-2.176-.291Z" transform="translate(561.835 59.849)" fill="#040506" fill-rule="evenodd"/>
    </g>
  </g>
</svg>
