<?xml version="1.0" encoding="utf-8"?>
<!-- Generator: Adobe Illustrator 25.0.0, SVG Export Plug-In . SVG Version: 6.00 Build 0)  -->
<svg version="1.1" id="Layer_1" xmlns="http://www.w3.org/2000/svg" xmlns:xlink="http://www.w3.org/1999/xlink" x="0px" y="0px"
	 viewBox="0 0 1437 378.4" style="enable-background:new 0 0 1437 378.4;" xml:space="preserve">
<style type="text/css">
	.st0{clip-path:url(#SVGID_2_);}
	.st1{fill:#FFFFFF;}
	.st2{fill:#61B0E5;}
	.st3{opacity:0.992;fill:#233680;enable-background:new    ;}
	.st4{fill:#00A19A;}
	.st5{opacity:0.59;fill:#007C73;enable-background:new    ;}
	.st6{fill:#006633;}
	.st7{fill:#261309;}
</style>
<g>
	<g>
		<g>
			<defs>
				<rect id="SVGID_1_" y="1.8" width="1437" height="368"/>
			</defs>
			<clipPath id="SVGID_2_">
				<use xlink:href="#SVGID_1_"  style="overflow:visible;"/>
			</clipPath>
			<g id="Web_1920_1" class="st0">
				<rect y="1.8" class="st1" width="1437" height="368"/>
				<g id="Grupo_1" transform="translate(-243 -129.45)">
					<g id="BACKGROUND">
						<rect id="Rectángulo_5509" y="129.4" class="st2" width="1923.5" height="372.4"/>
						<path id="Trazado_25137" class="st3" d="M3.8,498h1920v5H3.8V498z"/>
					</g>
					<g id="OBJECTS">
						<g id="Grupo_27811">
							<path id="Trazado_56254" class="st4" d="M609.8,503"/>
							<path id="Trazado_56255" class="st4" d="M1923.5,129.4v369.3H1754c-13.9,1.9-27.9,1.9-41.8,0H3.8V129.4h523.6
								c36.1,36.1,78.4,59.1,132,56.9l0,0c3.1-0.1,6.3-0.3,9.5-0.6l0,0h0.1c2.2-0.2,4.5-0.5,6.8-0.8l0,0c7.9-1,15.7-2.5,23.4-4.4
								c19.9-4.9,37.2-6.9,52.7-6.6c15.3,0.2,30.4,3.1,44.6,8.7c72.1,28.3,98.1,117.4,205.8,138.3
								c127.9,24.8,250.8-12.3,353.2-191.4h469.6c0.2-0.4,0.4-0.8,0.6-1.1c0,0.4,0.1,0.8,0.1,1.1L1923.5,129.4L1923.5,129.4z"/>
							<path id="Trazado_56256" class="st5" d="M328.9,490.6c-6.7-8.2-13.2-16.8-19.6-25.7c-15.5-21.7-30.1-45.4-44.3-69.7
								c-1.2-2-2.4-4.1-3.6-6.2c-9.6-16.5-19.1-33.1-28.6-49.6c-6.5-11.2-12.9-22.3-19.5-33.2c-1.7-2.8-3.5-5.6-5.2-8.3
								c-27-41.1-59.6-65.4-91.2-79.4l0,0c-3.3-1.4-6.5-2.8-9.8-4c-23.7-9-48.7-13.8-74-14.2c-9.8-0.2-19.5,0.3-29.2,1.4v296.9
								h331.9C333.4,496.1,331.1,493.5,328.9,490.6z"/>
							<path id="Trazado_56257" class="st5" d="M1923.5,129.4v369.3H1754c-13.9,1.9-27.9,1.9-41.8,0h-524.1
								c10.6-19.6,20.9-40.8,31.1-63.7c21.7-49.1,42.7-89.3,63.9-121.9c5.1-7.8,10.2-15.2,15.3-22.2c4.6-6.2,9.2-12.1,13.8-17.7
								c1.8-2.2,3.7-4.4,5.5-6.5c0.5-0.6,1.1-1.2,1.6-1.9c3.2-3.6,6.4-7.1,9.6-10.4c21.9-22.6,44.7-38.5,69.2-49.1
								c36.1-15.7,75.9-19.8,122.4-16.8c2.4,0.2,4.8,0.3,7.3,0.5c17.7,1.4,36.4,3.8,56.2,7c8.2,1.3,16.7,2.8,25.3,4.3l0.7,0.1
								c10.3,1.9,20,3.3,29.3,4.5c11.3,1.4,21.9,2.3,31.8,2.7c20.9,0.9,39-0.2,54.8-3.1c2.2-0.4,4.4-0.8,6.6-1.3l0,0
								c9.7-2.1,19.2-5.1,28.3-9.1c9.6-4.2,18.5-9.6,26.7-16.2c13.9-11.1,24.3-24.8,32.9-39.6c1.7-2.9,3.3-6,4.9-9
								c0.2-0.4,0.4-0.8,0.6-1.1c0,0.4,0.1,0.8,0.1,1.1L1923.5,129.4z"/>
						</g>
						<g id="Grupo_27830">
							<g id="Grupo_27815">
								<g id="Grupo_27812">
									<path id="Trazado_56258" class="st6" d="M1595.8,317.6c-12.3,17.6-0.6,15.9,16.9,11.8c26.6-6.2,66.4-18,55.5,24.6
										c-6.1,23.8-20.4,41.3-36.8,54.1l0,0c-2,1.6-4.1,3.1-6.2,4.6c-11.8,8.1-24.6,14.6-38,19.6c-5.6,2.1-10.6,3.7-14.8,4.9
										c-3.7,1.1-6.8,1.8-9.1,2.3c-0.4,0.1-0.7,0.2-1.1,0.3c-0.3,0.1-0.7,0.2-1,0.3c-2.1,0.6-4.2,1.2-6.3,2
										c-20.8,7.1-43.8,8.3-64.6,5.6c-1.9-0.2-3.8-0.5-5.7-0.9c-7.8-1.3-15.6-3.2-23.1-5.8c-22.9-7.9-38.6-20.8-37.2-34.1
										c0-0.1,0-0.2,0-0.3c1.4-12.2,7.3-15.4,14.7-16.2c1.2-0.1,2.5-0.2,3.8-0.2c5-0.1,10.4,0.3,15.2-0.7c0.8-0.2,1.6-0.4,2.4-0.6
										c3.8-1.1,7.2-3.6,9.3-6.9c4.6-7-2.5-13.1-13.5-19.8c-3.3-2-7.1-4.1-10.9-6.2c-0.1-0.1-0.2-0.1-0.3-0.1l0,0
										c-1.8-1-3.7-2.1-5.6-3.1c-2.3-1.3-4.6-2.6-6.9-4s-4.6-2.8-6.8-4.3c-9.2-6.2-17.4-13.4-21.4-22.1c-0.6-1.4-1.2-2.8-1.6-4.3
										c-6.3-21.7,37.9-16.9,54.6-16.8s45.3-23.9-8.8-56.1c-22-13.1-38.9-26.8-50.1-39.7c-16.4-18.8-20.8-35.7-12.1-46.5
										c14.8-18.1,70.8,32.2,94.2,27.3c12.6-2.6,7.4-27.8-1.5-56.7h42.3c0.2,1.4,0.5,2.8,0.8,4.1c4.4,19.4,20.6,17.1,34.4-4.1
										h56.8c-5,19.1-16.3,39.7-26.9,62c-0.8,1.7-1.5,3.2-2.1,4.7c-9.8,24,9.6,15.9,25.9,4.4c3.6-2.6,7.2-5.3,10.5-8.2
										c3.4-2.9,7.2-5.3,11.2-7.3c19.2-9.6,47.2-12.3,39.4,22.7c-0.9,3.9-2,7.8-3.4,11.6c-2.8,8.1-6.2,16.1-10.1,23.8
										c-3,5.9-6.5,11.5-10.5,16.9c-13.8,18.6-29.2,27.1-48.7,53.9C1597.6,315.1,1596.7,316.4,1595.8,317.6z"/>
									<path id="Trazado_56259" class="st7" d="M1576.6,498.8h-11.2c-0.1-4.4-0.3-8.8-0.5-13.2c-0.6-14.9-1.6-30.2-2.8-45.8
										c-0.1-1-0.2-2-0.2-3l0,0c-1.6-20.1-3.7-40.7-6.3-61.9c-7.9-62.7-19.6-124.9-34.9-186.2c-4.8-19.4-10.1-39.1-15.8-59.1h5.4
										c5.7,17.6,11.7,37.6,17.7,59.7c22,81.2,36.8,164.2,44.4,248c1.4,15.7,2.6,31.7,3.6,48l0,0
										C1576.1,489.6,1576.3,494.1,1576.6,498.8z"/>
								</g>
								<g id="Grupo_27813">
									<path id="Trazado_56260" class="st6" d="M1843.9,399.1c-7.7,16.1-27.5,24-49.8,32.5c-3.7,1.4-7.4,2.8-11.2,4.3
										c-1.7,0.7-3.2,1.3-4.4,2c-18.7,9.3,6.9,14.8,22.1,15.3c6.6,0.4,13.1,2.3,18.9,5.6c4.3,2.4,7.8,5.5,9.4,9.1
										c1.3,3,1.1,6.6-0.6,9.4l0,0c-1.1,1.9-2.5,3.6-4.1,5.1l0,0c-3.6,3.2-7.6,5.9-12,8c-1.3,0.7-2.6,1.4-3.9,2l0,0
										c-5,2.5-10.1,4.6-15.3,6.4h-39c-13.9,1.9-27.9,1.9-41.8,0h-119.3c-4.5-10.8-5.4-20.5-1.7-26.5l0,0c0.6-1,1.4-1.9,2.3-2.6
										c1-0.9,2.2-1.7,3.4-2.4c10.4-5.9,15.6,6.4,23.9,10.7l0,0c2.6,1.4,5.6,1.7,8.4,1c2.9-0.7,4.1-2.7,4.4-5.6
										c1.1-12.6-17.4-42.5-8.4-60.6c0,0,0-0.1,0.1-0.1c1.5-3,3.7-4.4,6.2-4.5l0,0c9.3-0.5,23.8,15.9,30.6,22.4
										c4.1,3.6,9.7,5.2,15.1,4.2c8.5-1.8,15.2-11.7,7.5-37.9c-0.5-1.6-0.9-3.2-1.4-4.9c-10.9-40.7-5.3-68.5,10.7-70.7
										c0.8-0.1,1.6-0.1,2.3,0.1c2.8,0.5,5.2,2.7,7.4,5.9c9.6,13.9,15.1,47.5,26.4,54.4c9.9,6,22.4-20.4,34-46l0,0
										c4.1-9,8.1-17.8,11.8-25.1l0,0c1.4-2.8,2.8-5.3,4.1-7.5c8.6-14.6,18.9-18.2,25.8-13.2c5.1,3.6,8.3,11.9,7.5,23.8
										c-1,15.7-9.3,28.1-18,38.6c-6.9,8.3-13.9,15.4-17.8,22.1c-8.7,15.1,7.8,21.8,33.2,9.8c1.1-0.5,2.2-1,3.3-1.5
										c9-3.8,16.7-4.8,22.4-3.7C1845.5,380.6,1849.2,388.1,1843.9,399.1z"/>
									<path id="Trazado_56261" class="st7" d="M1799.3,302.9c-0.4,1.4-6.3,19.4-19.2,48.5c-22.5,50.5-49.3,99-79.9,145.1
										c-0.5,0.8-1,1.5-1.5,2.3h-7.9c0.9-1.3,1.8-2.7,2.8-4l0,0c31.2-46.1,59.2-94.3,83.6-144.4
										C1784.6,335.1,1792,319.2,1799.3,302.9z"/>
								</g>
								<g id="Grupo_27814">
									<path id="Trazado_56262" class="st6" d="M1415.6,411.5c-1.4,0.6-2.8,1.3-4.1,2.1c-8.1,4.7-42.3,22.5-70.1,4.6
										c-31.8-20.4,42.1-33.6,14.7-39.5s-34.3,2.5-62-11.9s-3.3-26.7,8.4-27s32.1-4.9,12.8-12.5s-37.8-13.1-44.2-26.7
										s5.7-19.7,24.2-11s30.4,3.9,24.1-7.1s-24.7-23.6-26-44s13.4-26.1,24.2-7.7s25.6,63.5,36.2,57s14.2-45.4,26.2-43.8
										s16,23.4,6.7,54.8s10.1,30.4,16.4,24.5s21.5-23.5,26.7-13c8.1,16.1-14.1,45.3-2.9,48.1s14.2-16.8,26-6.7
										C1464.2,361.5,1444.8,398.4,1415.6,411.5z"/>
									<path id="Trazado_56263" class="st7" d="M1493,498.8h-11.2c-22.4-21.4-43.4-44.2-62.9-68.3c-4-4.9-7.9-9.8-11.6-14.7
										c-46-59.6-74.3-114.7-89.5-149.1c-10-22.5-14.3-36.1-14.3-36.1c5.2,11.8,10.6,23.2,16,34.2
										c29.3,59.8,61.2,108.6,92.6,148.4c5.6,7,11.1,13.8,16.7,20.2C1448.5,456.8,1470,478.6,1493,498.8z"/>
								</g>
							</g>
							<g id="Grupo_27819">
								<g id="Grupo_27816">
									<path id="Trazado_56264" class="st6" d="M229.1,258.6c-3.8,14.6-11,28.2-21.1,39.4c-4.8,5.4-10,10.3-15.6,14.7l0,0
										c-2,1.6-4.1,3.1-6.2,4.6c-19.1,13.3-39.9,20.7-52.9,24.4c-3.7,1.1-6.8,1.8-9.1,2.3c-0.4,0.1-0.7,0.2-1.1,0.3
										c-2.5,0.6-4.9,1.4-7.4,2.2c-39.2,13.4-86.4,5.8-112-9.5v-42.3c9.6-0.2,20.6,1.4,26.8-8.2c4.5-7-2.5-13.1-13.5-19.8
										c-4-2.4-8.5-4.9-13.2-7.5v-54c5.6,0.1,10.6,0.4,14.4,0.4c5.4-0.2,10.6-2,14.8-5.3c11.4-8.8,15.2-27.7-23.7-50.8
										c-1.9-1.1-3.7-2.2-5.6-3.4v-16.9h222.9c-19.6,51.3-39.9,49.9-69.9,92.8C125.8,266.6,247.3,188.1,229.1,258.6z"/>
									<path id="Trazado_56265" class="st7" d="M139,498.8h-12.9c0.4-8.7,0.6-17.5,0.8-26.4c0.1-5.1,0.2-10.2,0.2-15.5
										c0.3-35.2-0.9-72.7-4-112.5c-3.2-40.9-8.4-84.2-16.1-129.8c-4.7-27.6-10.3-55.9-16.8-85.2H98c6.6,27.2,13,57.1,18.7,89.2
										l0,0c6.7,38,12.5,79.2,16.5,123.2C138,394,139.9,446.4,139,498.8z"/>
								</g>
								<g id="Grupo_27817">
									<path id="Trazado_56266" class="st6" d="M205.7,456.6c1.9,0.8,3.8,1.8,5.7,2.8c11.2,6.5,58.2,31,96.6,6.4
										c43.8-28.1-58.1-46.2-20.2-54.4s47.2,3.5,85.4-16.4s4.6-36.7-11.6-37.2s-44.2-6.8-17.6-17.2s52-18.1,61-36.8
										s-7.9-27.2-33.3-15.1s-41.9,5.4-33.2-9.8s34-32.5,35.8-60.7s-18.5-35.9-33.3-10.6s-35.2,87.5-49.9,78.6
										s-19.6-62.6-36.1-60.3s-22,32.3-9.3,75.5s-13.9,41.9-22.6,33.7s-29.6-32.3-36.8-17.9c-11.1,22.1,19.4,62.4,4,66.3
										s-19.6-23.1-35.8-9.3C138.7,387.8,165.5,438.6,205.7,456.6z"/>
									<path id="Trazado_56267" class="st7" d="M360.3,207.5c-0.6,1.9-27.1,83.3-95.3,187.8c-14.1,21.6-30,44.2-47.8,67.3
										c-9.2,11.9-18.9,24-29.1,36.1h-10.5c11-12.4,22.1-25.6,33.2-39.7c16.9-21.4,33.9-44.6,50.7-69.9
										C295.6,337.6,329.3,277.5,360.3,207.5z"/>
								</g>
								<g id="Grupo_27818">
									<path id="Trazado_56268" class="st6" d="M17,266.9c-0.7,7.9-5.5,18.2-13.2,27.7v-40c2.7-1.6,5.8-1.8,10,1.8
										C16.4,258.6,17.4,262.4,17,266.9z"/>
									<path id="Trazado_56269" class="st7" d="M133.3,460.5c-1.6,4.7-2.4,9.6-2.6,14.5c-1.3-0.9-2.5-1.7-3.8-2.6
										C81.8,440.8,40.5,404.1,3.8,363.1v-9c47.5,52.1,92.1,84.2,123.3,102.7C129.2,458.1,131.3,459.4,133.3,460.5z"/>
								</g>
							</g>
							<g id="Grupo_27824">
								<g id="Grupo_27820">
									<path id="Trazado_56270" class="st6" d="M615.7,498.8c6.7-5.2,12.4-11.1,15.5-17.9c0.6-1.4,1.2-2.8,1.6-4.3
										c6.3-21.7-38-16.9-54.6-16.8s-45.3-23.9,8.8-56.1s77-68,62.2-86.2c-12.5-15.3-54.5,18.3-81.3,26.1l0,0
										c-2.5,0.8-5.1,1.3-7.7,1.5l0,0c-1.7,0.2-3.5,0.1-5.2-0.3c-23.4-4.9,14.8-88,23.6-128s-19.3-51.4-44.2-20.9
										s-15.5,72.4-20.9,96.2s-28.6,15-43.2-21.6s-39.8-44-48.5-16.3s10.2,59.7,27.5,95.8s-17.4,15.8-34.4,0.9
										c-14.6-12.8-53.8-25.5-51.9,7c0.3,5.4,1.8,12,4.7,20.1c2.2,6.1,4.4,11.6,6.6,16.4c18.2,40.3,37.7,42.2,65.3,81.8
										c28.6,40.9-72.5-22.7-74.2,22.5L615.7,498.8L615.7,498.8z"/>
									<path id="Trazado_56271" class="st7" d="M484.6,498.8h-9.4c28.9-182,82.5-298,83.7-300.4c-21.4,62.2-39.4,125.6-53.8,189.9
										l0,0c-0.9,3.8-1.7,7.6-2.5,11.4C495.2,433.8,489.2,466.9,484.6,498.8z"/>
								</g>
								<g id="Grupo_27821">
									<path id="Trazado_56272" class="st6" d="M263.1,476.4c3.3,7,6.8,14.7,10.3,22.4h-42.1c-4.8-7.7-8.5-16.4-9.1-26.5
										c-0.2-2.4-0.1-4.8,0-7.2l0,0c1.8-22.1,19.8-26.4,33.3-3.5C257.9,465.8,260.4,470.8,263.1,476.4z"/>
									<path id="Trazado_56273" class="st6" d="M356.5,498.8h-31.1c1.1-2.9,2.3-5.6,3.5-8c3.5-6.9,7.5-11.5,12.6-10.8
										C349,481,354.2,487.6,356.5,498.8z"/>
									<path id="Trazado_56274" class="st7" d="M240.9,472.1c4.1,9,8.2,17.9,12.4,26.6h-2.8c-4.8-11.4-8.4-20.6-10.7-26.9
										s-3.5-9.9-3.6-10.3C237.7,465.1,239.3,468.6,240.9,472.1z"/>
								</g>
								<g id="Grupo_27822">
									<path id="Trazado_56275" class="st6" d="M608.5,498.8c-3.2-9.8-7-21.5-2.9-29.8c5-9.9,18.8,5.2,25.6,11.9
										c0.4,0.4,0.8,0.7,1.1,1.1c6.3,5.9,25.7,7,16.4-24.5s-5.3-53.2,6.7-54.8s15.6,37.4,26.2,43.8s25.4-38.7,36.2-57
										s25.5-12.7,24.2,7.7s-19.7,33-26,44s5.6,15.8,24.1,7.1s30.7-2.6,24.2,11s-24.9,19.1-44.2,26.7s1,12.2,12.8,12.5
										c1.1,0,2.1,0.1,3.2,0.3L608.5,498.8L608.5,498.8z"/>
									<path id="Trazado_56276" class="st7" d="M732,389.2c-0.5,1.4-15.4,47.1-52.4,109.4h-5C696.2,463.6,715.3,427.1,732,389.2z"
										/>
								</g>
								<g id="Grupo_27823">
									<path id="Trazado_56277" class="st6" d="M597.6,300.4c0.9,0.4,1.8,0.8,2.6,1.3c5.2,3,27.1,14.4,45,3
										c20.4-13.1-27-21.5-9.4-25.3s22,1.6,39.8-7.6s2.1-17.1-5.4-17.3s-20.6-3.1-8.2-8s24.2-8.4,28.4-17.1s-3.7-12.7-15.5-7
										s-19.5,2.5-15.4-4.5s15.8-15.2,16.7-28.3s-8.6-16.7-15.5-5s-16.4,40.7-23.2,36.6s-9.1-29.1-16.8-28.1s-10.3,15-4.3,35.2
										s-6.5,19.5-10.5,15.7s-13.8-15-17.1-8.3c-5.2,10.3,9,29.1,1.9,30.9s-9.1-10.8-16.7-4.3C566.4,268.4,578.8,292,597.6,300.4z
										"/>
									<path id="Trazado_56278" class="st7" d="M497.1,393c38.8-22.1,115.2-79.3,172.5-208.6c0,0-41.3,128.8-170.8,217.9
										C498.6,399.1,498,396,497.1,393z"/>
								</g>
							</g>
							<g id="Grupo_27829">
								<g id="Grupo_27825">
									<path id="Trazado_56279" class="st6" d="M1841,369.1c-0.4,1.5-1,2.9-1.6,4.3c-0.9,1.9-1.9,3.6-3.1,5.3
										c-4.4,6.4-11,11.9-18.3,16.8c-4.4,3-9.1,5.8-13.7,8.4c-5.9,3.4-11.8,6.5-16.8,9.5l0,0c-11.1,6.6-18.1,12.7-13.5,19.7
										c1.2,1.9,2.7,3.4,4.5,4.7c6.3,4.3,14.8,3.3,22.4,3.5c9,0.2,16.8,2.1,18.4,16.4c0,0.1,0,0.2,0,0.3c0,0.2,0.1,0.5,0.1,0.7
										c1,18.1-28.8,35.1-65.5,40c-13.9,1.9-27.9,1.9-41.8,0c-4.1-0.6-8.1-1.3-12.1-2.3c-2.2-0.5-4.4-1.1-6.6-1.8l0,0
										c-1.6-0.5-3.1-1-4.7-1.5c-2.4-0.8-4.9-1.6-7.4-2.2c-0.4-0.1-0.7-0.2-1.1-0.3c-2.2-0.5-5.3-1.3-9.1-2.3
										c-13.1-3.7-25.7-8.8-37.7-15.1c-5.2-2.8-10.3-5.9-15.2-9.3c-2.1-1.5-4.2-3-6.2-4.6l0,0c-9.8-7.6-18.3-16.7-25-27.1
										c-5.3-8.3-9.3-17.4-11.7-27c-18.2-70.6,103.3,8,72.3-36.4c-13.3-19.1-24.7-29.4-35-39.5c-5.1-4.8-9.8-10-14.2-15.4
										c-7.9-10-15.3-22.7-22.6-43.2c-20.3-56.8,30.2-42,47.2-27.1c6.7,5.9,16.2,12.6,24.1,16.4c12.1,5.8,20.7,4.6,10.5-16.9
										c-0.1-0.1-0.1-0.3-0.2-0.4c-6.3-13.1-12.8-25.7-18.1-37.7c-2.9-6.5-5.5-13.2-7.7-20c-4.1-13.4-5.5-26.1-1.8-38
										c8.6-27.7,33.9-20.3,48.4,16.3s37.8,45.4,43.2,21.6c3.2-14.1,1.2-34.7,4.3-55.4h55.4c-6.2,20.2-15,44.4-20.5,64.8
										c-6.2,22.9-8.1,41,2.4,43.2c1.7,0.3,3.5,0.4,5.2,0.3c2.6-0.2,5.2-0.7,7.7-1.5c26.8-7.8,68.8-41.4,81.3-26.1
										c13.8,16.9-5.1,49.2-51.6,79.6c-3.4,2.2-6.9,4.4-10.5,6.6c-7,4-13.4,8.7-19.4,14.1l0,0c-10.3,9.7-13.1,18.3-11.8,25.1l0,0
										c1.3,7,6.9,12.1,13.1,14.7c1,0.4,1.9,0.8,2.9,1.1c2.1,0.6,4.2,1,6.4,1c2.4,0,5.5-0.1,8.8-0.2
										C1814.9,351.5,1846.4,350.6,1841,369.1z"/>
									<path id="Trazado_56280" class="st7" d="M1754.3,129.4c-8,25.1-15.3,49.8-21.9,73.9l0,0c-7.2,26.4-13.6,52.2-19.2,77.4l0,0
										c-0.9,3.8-1.7,7.6-2.5,11.4c-2.5,11.8-4.9,23.5-7.1,35c-10.5,54.2-17.9,108.9-22.2,163.9c-0.2,2.6-0.4,5.2-0.6,7.7h-10.5
										c0.3-3.5,0.6-6.9,0.9-10.3c1.7-18.4,3.6-36.3,5.9-53.8c1.9-14.6,3.9-28.9,6.1-42.8c3.9-24.8,8.3-48.4,13-70.6
										c9.3-44.6,19.7-83.8,29.6-116.6c9.4-31.1,18.3-56.4,25.4-75.2L1754.3,129.4z"/>
								</g>
								<g id="Grupo_27826">
									<path id="Trazado_56281" class="st6" d="M1620.8,477.9L1620.8,477.9c-0.3,6.8-2.3,14-4.4,20.9h-147.1
										c4.2-2.9,3.3-6.8-8.7-11.5c-26.6-10.5-52-18-61-36.8c-7.2-15,2.2-23.4,19.3-20c3.3,0.7,6.6,1.7,9.7,3
										c1.4,0.6,2.8,1.2,4.3,1.9c12.1,5.7,22.1,7.2,28.4,5.6c7-1.8,9.3-7.4,4.7-15.4c-5.4-9.4-17.2-19.6-25.8-32.8
										c-0.5-0.8-1-1.6-1.5-2.4c-4.5-7.5-7.9-15.9-8.5-25.5c-0.1-2.1-0.1-4.2,0-6.3c0.2-3.4,0.8-6.8,2.1-10
										c5.4-13.7,19.9-13.7,31.3,5.6c14.8,25.3,35.2,87.4,49.9,78.6s19.6-62.6,36.1-60.3c2.1,0.3,4.2,1.1,5.9,2.3
										c10.5,7.3,13.8,30.2,6.3,61.9l0,0c-0.2,1.1-0.5,2.1-0.8,3.2c-0.7,2.6-1.4,5.3-2.2,8.1c-7.3,24.7-1.7,34.9,6,37.5
										c3.6,1.1,7.5,1,10.9-0.4l0,0c2.1-0.7,4-1.9,5.7-3.4c2.4-2.3,5.9-5.9,9.7-9.5l0,0c1.8-1.7,3.7-3.5,5.7-5.1
										c5.3-4.5,10.9-8,15.3-7.8l0,0c2.5,0.1,4.6,1.5,6.2,4.5v0.1C1620.4,468.4,1621.2,473.1,1620.8,477.9z"/>
									<path id="Trazado_56282" class="st7" d="M1490.2,447.6c9.7,17.9,19.5,34.9,29.4,51.2h-6.7c-10.9-18.6-20.3-36.1-28.4-52
										c-11.5-22.6-20.2-42.1-26.6-57.2c-2.2-5.2-4.1-10-5.8-14.1c-3.9-9.9-6.2-16.6-7.2-19.5l0,0c-0.3-1-0.5-1.5-0.6-1.7
										c0.3,0.6,0.5,1.2,0.8,1.8c2.6,5.9,5.2,11.6,7.9,17.4c2.4,5.2,4.8,10.4,7.3,15.5C1470,409.2,1480,428.9,1490.2,447.6z"/>
								</g>
								<g id="Grupo_27827">
									<path id="Trazado_56283" class="st6" d="M1923.5,317.6v-30.8c-10.5,20.3-23.8,58.2-33.6,52.2
										c-10.6-6.4-14.2-45.4-26.2-43.8s-16,23.4-6.7,54.8s-10.1,30.4-16.4,24.5c-0.3-0.3-0.7-0.7-1.1-1.1
										c-6.8-6.7-20.6-21.8-25.6-11.9c-2.9,5.9-1.9,13.5,0.2,21c1.2,4.6,2.8,9,4.1,13c2.3,7.3,3.3,13-1.3,14.1
										c-5.4,1.4-8.9-2.5-12.4-5.8c-3.8-3.5-7.5-6.2-13.6-1c-2.6,2.3-3.6,6-3.2,10.5l0,0c0.5,5.3,2.8,11.7,6.6,18.2
										c2,3.4,4.3,6.7,6.8,9.8c5.2,6.5,11.5,12.1,18.5,16.7c2.7,1.8,5.6,3.3,8.5,4.6c1.2,0.5,2.4,1.1,3.6,1.8
										c0.2,0.1,0.3,0.2,0.5,0.3c1,0.6,2.4,1.4,4.2,2.3c12.3,6.3,41.6,18,65.9,2.4c31.8-20.4-42.1-33.6-14.7-39.5
										c16.4-3.5,25.4-1.9,36-3.2v-39.1c-3.6-1.7-4.7-4,0-6.9v-38.6c-1.2-1.7-1.2-4,0-6.8v-17.7H1923.5z"/>
									<path id="Trazado_56284" class="st7" d="M1923.5,317.6c-29.1,59.1-60.7,107.5-91.9,146.9c-0.9,1.1-1.8,2.2-2.7,3.4
										c-6.9,8.6-13.8,16.8-20.6,24.5l0,0c-1.9,2.1-3.8,4.3-5.7,6.4h7.8c4.7-5.5,9.3-10.9,13.7-16.4l0,0c1.4-1.7,2.8-3.4,4.1-5.1
										l0,0c2.7-3.4,5.4-6.8,8-10.2c34.4-44.5,63.7-92.8,87.2-143.9L1923.5,317.6z"/>
								</g>
								<g id="Grupo_27828">
									<path id="Trazado_56285" class="st6" d="M1796.1,129.4c-3.5,10.5,9.3,27.8,2.4,29.5c-7.2,1.8-9.1-10.8-16.7-4.3
										c-4.5,3.8-1.6,14.1,5.6,23.4c4.8,6.4,11.1,11.5,18.3,14.9c0.8,0.4,1.5,0.7,2.3,1.1c0.1,0.1,0.2,0.1,0.3,0.2
										c0.7,0.4,1.6,0.9,2.7,1.5c7.9,4.1,26.6,11.5,42.3,1.5c20.4-13.1-27-21.5-9.4-25.3s22,1.6,39.8-7.6s2.2-17.1-5.4-17.3
										s-20.6-3.1-8.2-8c8-3.2,15.8-5.7,21.4-9.5h-65.6c0.2,6.1-2.5,8.6-5.5,9c-2.4,0.3-4.8-0.5-6.6-2c-1.7-1.6-4.5-4.6-7.4-7
										L1796.1,129.4z"/>
									<path id="Trazado_56286" class="st7" d="M1854.1,129.4c-12.5,23.2-26.9,45.4-43,66.3c-10.9,14.1-22.6,27.6-35,40.5
										c-20,20.7-41.8,39.4-65.3,55.9c-1.3,0.9-2.6,1.8-3.9,2.7c-0.1-3.2-0.7-6.3-1.7-9.3c2.5-1.4,5.2-3,8.1-4.8l0,0
										c19.8-12.4,38.3-26.8,55.1-43.1c14.2-13.6,27.5-28.2,39.7-43.6c16.1-20.4,30.6-42,43.3-64.7L1854.1,129.4L1854.1,129.4z"/>
								</g>
							</g>
						</g>
					</g>
				</g>
			</g>
		</g>
	</g>
	<rect y="369.5" class="st6" width="1437" height="8.8"/>
</g>
</svg>
