<?xml version="1.0" encoding="utf-8"?>
<!-- Generator: Adobe Illustrator 25.0.0, SVG Export Plug-In . SVG Version: 6.00 Build 0)  -->
<svg version="1.1" id="Layer_1" xmlns="http://www.w3.org/2000/svg" xmlns:xlink="http://www.w3.org/1999/xlink" x="0px" y="0px"
	 viewBox="0 0 2109.2 1847.5" style="enable-background:new 0 0 2109.2 1847.5;" xml:space="preserve">
<style type="text/css">
	.st0{opacity:0.1;}
	.st1{fill:#FFFFFF;}
</style>
<g class="st0">
	<g>
		<g>
			<g>
				<path class="st1" d="M312.1,746.6l-3.8-9.9l-6.7,8.3c-0.2,0.3-21.4,26.1-49.3,30c-5.3,0.8-10.2,1.7-15,2.8
					c1.3-21.7-7.5-42.3-26.3-61.6l-7.4-7.6l-2.9,10.2c-0.1,0.2-6.5,22.3-22.8,32.2c-17.8,10.9-29.2,23-34.7,36.9
					c-5.5,13.1-5.7,27.9-0.4,41.1c3.7,9.1,10.9,16.3,19.9,20.1c0.9,0.3,1.8,0.6,2.7,0.9c-0.5,6.1,0.1,12.3,1.6,18.3
					c-3.3,0.3-6.5,0.4-9.4,0.4c-8.1,0.2-16.3-1-24-3.3l-4.2,11.6c9.2,2.9,18.7,4.2,28.3,4c4.8,0,9.5-0.3,14.3-0.9
					c2,3.5,4.5,6.8,7.4,9.7c10,9.3,23.2,14.1,36.8,13.5c20.8-0.5,40.9-7.7,57.2-20.5l1.8-1.4C291.9,868.2,343.4,828,312.1,746.6z
					 M167.5,837.8L167.5,837.8c-6.2-2.6-11-7.4-13.4-13.6c-4-10.2-3.8-21.6,0.5-31.7c4.5-11.3,14.1-21.4,29.7-30.9
					c10.8-7.2,19.3-17.5,24.4-29.5c12,13.4,17.8,31.3,15.8,49.2c-13.7,4.2-26.2,11.5-36.5,21.5C178.1,812.5,171.1,824.5,167.5,837.8
					z M267.5,871.8l-1.8,1.5c-25,19.8-62,23.6-77.7,7.9c-1-1-2-2.1-2.9-3.3c25.2-5.7,55.9-20.6,87.4-54.6l-9-8.4
					c-30.8,33.3-60.5,46.9-84.1,51.7c-1.7-5.7-2.2-11.8-1.5-17.7c1.9-14.2,8.5-27.3,18.8-37.3c12.7-12.7,31.5-20.7,57.4-24.4
					c18.9-3.7,36.3-13,49.8-26.8C324.8,826.9,283.4,859.2,267.5,871.8z"/>
				<path class="st1" d="M271.3,805.9l9.4,7.9c2.6-3.1,5.3-6.4,7.9-9.8l-9.7-7.5C276.4,799.8,273.8,802.9,271.3,805.9z"/>
			</g>
		</g>
	</g>
	<g>
		<g>
			<g>
				<path class="st1" d="M1151.9,145l-3.8-9.9l-6.7,8.3c-0.2,0.3-21.4,26.1-49.3,30c-5.3,0.8-10.2,1.7-15,2.8
					c1.3-21.7-7.5-42.3-26.3-61.6l-7.4-7.6l-2.9,10.2c-0.1,0.2-6.5,22.3-22.8,32.2c-17.8,10.9-29.2,23-34.7,36.9
					c-5.5,13.1-5.7,27.9-0.4,41.1c3.7,9.1,10.9,16.3,19.9,20.1c0.9,0.3,1.8,0.6,2.7,0.9c-0.5,6.1,0.1,12.3,1.6,18.3
					c-3.3,0.3-6.5,0.4-9.4,0.4c-8.1,0.2-16.3-1-24-3.3l-4.2,11.6c9.2,2.9,18.7,4.2,28.3,4c4.8,0,9.5-0.3,14.3-0.9
					c2,3.5,4.5,6.8,7.4,9.7c10,9.3,23.2,14.1,36.8,13.5c20.8-0.5,40.9-7.7,57.2-20.5l1.8-1.4C1131.7,266.6,1183.2,226.3,1151.9,145z
					 M1007.3,236.1L1007.3,236.1c-6.2-2.6-11-7.4-13.4-13.6c-4-10.2-3.8-21.6,0.5-31.7c4.5-11.3,14.1-21.4,29.7-30.9
					c10.8-7.2,19.3-17.5,24.4-29.5c12,13.4,17.8,31.3,15.8,49.2c-13.7,4.2-26.2,11.5-36.5,21.5
					C1017.9,210.8,1010.9,222.9,1007.3,236.1z M1107.3,270.1l-1.8,1.5c-25,19.8-62,23.6-77.7,7.9c-1-1-2-2.1-2.9-3.3
					c25.2-5.7,55.9-20.6,87.4-54.6l-9-8.4c-30.8,33.3-60.5,46.9-84.1,51.7c-1.7-5.7-2.2-11.8-1.5-17.7c1.9-14.2,8.5-27.3,18.8-37.3
					c12.7-12.7,31.5-20.7,57.4-24.4c18.9-3.7,36.3-13,49.8-26.8C1164.6,225.3,1123.3,257.6,1107.3,270.1z"/>
				<path class="st1" d="M1111.1,204.2l9.4,7.9c2.6-3.1,5.3-6.4,7.9-9.8l-9.7-7.5C1116.2,198.1,1113.6,201.2,1111.1,204.2z"/>
			</g>
		</g>
	</g>
	<g>
		<g>
			<g>
				<rect x="135.1" y="290.1" class="st1" width="182.7" height="11.4"/>
				<path class="st1" d="M157.9,187.3c12.6,0,22.8-10.2,22.8-22.8c0-10.7-15.1-33.1-18.1-37.5l-4.7-6.8l-4.7,6.8
					c-3,4.4-18.1,26.8-18.1,37.5C135.1,177.1,145.3,187.3,157.9,187.3z M157.9,140.6c6.1,9.7,11.4,20.1,11.4,23.9
					c0,6.3-5.1,11.4-11.4,11.4c-6.3,0-11.4-5.1-11.4-11.4C146.5,160.7,151.8,150.3,157.9,140.6z"/>
				<path class="st1" d="M283.6,211.5l-4.7,6.8c-3,4.4-18.1,26.8-18.1,37.5c0,12.6,10.2,22.8,22.8,22.8c12.6,0,22.8-10.2,22.8-22.8
					c0-10.7-15.1-33.1-18.1-37.5L283.6,211.5z M283.6,267.2c-6.3,0-11.4-5.1-11.4-11.4c0-3.8,5.3-14.1,11.4-23.9
					c6.1,9.7,11.4,20.1,11.4,23.9C295,262.1,289.9,267.2,283.6,267.2z"/>
				<path class="st1" d="M295,187.3c12.6,0,22.8-10.2,22.8-22.8c0-10.7-15.1-33.1-18.1-37.5l-4.7-6.8l-4.7,6.8
					c-3,4.4-18.1,26.8-18.1,37.5C272.1,177.1,282.4,187.3,295,187.3z M295,140.6c6.1,9.7,11.4,20.1,11.4,23.9
					c0,6.3-5.1,11.4-11.4,11.4c-6.3,0-11.4-5.1-11.4-11.4C283.6,160.7,288.9,150.3,295,140.6z"/>
				<path class="st1" d="M220.7,278.6c15.8,0,28.5-12.8,28.6-28.6v-49l13.1,13.1l8.1-8.1l-26.9-26.9l-26.9,26.9l8.1,8.1l13.1-13.1
					v49c0,9.5-7.7,17.1-17.1,17.1s-17.1-7.7-17.1-17.1V141.6h-11.4v108.5C192.2,265.9,205,278.6,220.7,278.6z"/>
				<rect x="146.5" y="198.7" class="st1" width="11.4" height="11.4"/>
				<rect x="157.9" y="221.5" class="st1" width="11.4" height="11.4"/>
				<rect x="169.4" y="244.4" class="st1" width="11.4" height="11.4"/>
				<rect x="135.1" y="244.4" class="st1" width="11.4" height="11.4"/>
				<rect x="146.5" y="267.2" class="st1" width="11.4" height="11.4"/>
				<rect x="295" y="198.7" class="st1" width="11.4" height="11.4"/>
				<rect x="249.3" y="130.2" class="st1" width="11.4" height="11.4"/>
				<rect x="226.5" y="141.6" class="st1" width="11.4" height="11.4"/>
				<rect x="192.2" y="118.8" class="st1" width="11.4" height="11.4"/>
			</g>
		</g>
	</g>
	<g>
		<g>
			<g>
				<path class="st1" d="M1064.2,806.1c-2.7-9.2-4.2-18.7-4.4-28.3v-9l7.3,7.3l8-8l-37.9-37.9l-37.9,37.9l8,8l7.3-7.3v9
					c-0.3,9.6-1.8,19.1-4.4,28.3h-63.4v11.3h60c-4,11.7-8.9,23-14.7,33.9h-45.3v11.3h38.8c-7.7,13.6-18.1,25.5-30.6,34.9l6.3,9.4
					c24.6-16.4,46.7-54.8,57.6-89.5h36.9c10.9,34.7,32.9,73.1,57.6,89.5l6.3-9.4c-12.5-9.4-22.9-21.3-30.6-34.9h38.8v-11.3h-45.3
					c-5.8-10.9-10.7-22.2-14.7-33.9h60v-11.3H1064.2L1064.2,806.1z M1021.9,806.1c2.4-9.2,3.8-18.7,4-28.3v-20.3l11.3-11.3
					l11.3,11.3v20.3c0.2,9.5,1.5,19,4,28.3H1021.9z"/>
				<rect x="946.7" y="828.2" class="st1" width="11.3" height="11.3"/>
				<rect x="969.3" y="828.2" class="st1" width="11.3" height="11.3"/>
				<rect x="1093.7" y="828.2" class="st1" width="11.3" height="11.3"/>
				<rect x="1116.3" y="828.2" class="st1" width="11.3" height="11.3"/>
				<path class="st1" d="M1037.2,824.4l-4.7,6.7c-3.9,5.7-23.6,34.9-23.6,48.4c0,15.6,12.7,28.3,28.3,28.3
					c15.6,0,28.3-12.7,28.3-28.3c0-13.6-19.7-42.7-23.6-48.4L1037.2,824.4z M1037.2,896.5c-9.4,0-17-7.6-17-17c0-6.2,8.8-22.3,17-35
					c8.1,12.7,17,28.8,17,35C1054.1,888.9,1046.5,896.5,1037.2,896.5z"/>
			</g>
		</g>
	</g>
	<g>
		<path class="st1" d="M754.1,437.2c2.1-0.1,4.1-0.9,5.7-2.5l14.9-14.9c3.8-3.8,3.8-10.1,0-14l-3.5-3.5c-3.9-3.9-10.2-3.8-14,0
			l-14.9,14.9c-1.6,1.6-2.4,3.6-2.5,5.7l-24.4,24.4c-1.9,1.9-3,4.4-3,7.2v32.8c-4.3,3-7.2,7.7-7.6,13.2
			c-5.8-7.4-14.8-12.2-24.9-12.2h-3.9v-6.9c0-1.4,0.7-2.8,1.9-3.6c3.1-2.1,7.5-5.7,10.4-10.8c1.7-3.1,1.7-6.7-0.1-9.7
			c-1.3-2.2-3.2-3.7-5.5-4.4v-9.2c0-15.5-12.6-28-28-28h-10.1c-15.5,0-28,12.6-28,28v9.2c-2.3,0.7-4.3,2.2-5.5,4.4
			c-1.8,3-1.8,6.7-0.1,9.7c2.9,5.1,7.2,8.7,10.4,10.8c1.2,0.8,1.9,2.1,1.9,3.6v6.9h-3.9c-17.4,0-31.6,14.2-31.6,31.6v36.8
			c0,1.9,1.5,3.4,3.4,3.4c1.9,0,3.4-1.5,3.4-3.4v-25.7h110.4v55.9H594.2v-16.7c0-1.9-1.5-3.4-3.4-3.4c-1.9,0-3.4,1.5-3.4,3.4v27.8
			c0,17.4,14.2,31.6,31.6,31.6h60.7c14.8,0,27.3-10.3,30.7-24.1c8.3,7.6,21.5,5.6,27.3-4c26.1-4.9,45.1-27.7,45.1-54.3
			c0-11.6-3.6-22.7-10.3-32.1c-1.1-1.5-3.2-1.9-4.7-0.8c-1.5,1.1-1.9,3.2-0.8,4.7c5.9,8.3,9.1,18,9.1,28.2c0,22.2-15,41.2-35.9,46.9
			c0.2-1.6,0-3.4,0.1-7.1c17.3-5.5,29.1-21.5,29.1-39.8s-11.8-34.3-29.1-39.8c0-3.7,0.1-5.5-0.1-7.1c6.7,1.8,12.9,5,18.3,9.5
			c1.4,1.2,3.6,1,4.7-0.4c1.2-1.4,1-3.6-0.4-4.7c-7.3-6-15.9-10.1-25.1-11.8c-1.3-2.2-3.1-4.1-5.2-5.5v-28.6L754.1,437.2z
			 M747,421.9l14.9-14.9c1.2-1.2,3.2-1.2,4.4,0l3.5,3.5c1.2,1.2,1.2,3.2,0,4.4L755,429.9c-0.9,0.9-2.2,0.6-2.8,0
			c-0.5-0.5-2.7-2.7-2.6-2.6c-2.7-2.7-3-2.8-3.1-3.6C746.4,423.1,746.6,422.4,747,421.9z M711.4,502c0-4.3,2.5-8.2,6.4-10
			c5.6-2.6,12.3-0.1,14.8,5.6c1.4,3.2,0.8,2.5,0.9,43.6h-22.2C711.4,536.5,711.4,502,711.4,502z M736.9,564.6h-25.5v-16.8h25.5
			c4.6,0,8.4,3.8,8.4,8.4C745.3,560.8,741.6,564.6,736.9,564.6z M623.1,443.7c0-11.7,9.6-21.3,21.3-21.3h10.1
			c11.7,0,21.3,9.6,21.3,21.3v8.8h-10.3v-8.8c0-6.1-4.9-11-11-11h-10.1c-6.1,0-11,4.9-11,11v8.8h-10.3L623.1,443.7L623.1,443.7z
			 M640.1,452.5v-8.8c0-2.3,1.9-4.3,4.2-4.3h10.1c2.3,0,4.3,1.9,4.3,4.3v8.8L640.1,452.5L640.1,452.5z M624.9,472.2
			c-2.5-1.7-6-4.5-8.2-8.5c-0.8-1.4-0.2-2.5,0-3c0.3-0.4,1-1.5,2.6-1.5h0.5h17h25.4h17h0.5c1.5,0,2.3,1,2.6,1.5c0.3,0.4,0.8,1.6,0,3
			c-2.2,3.9-5.7,6.8-8.2,8.5c-3.1,2.1-4.9,5.5-4.9,9.2v6.9h-39.3v-6.9C629.8,477.7,627.9,474.2,624.9,472.2L624.9,472.2z
			 M594.2,524.2v-4.3c0-13.7,11.2-24.9,24.9-24.9h7.3h46.1h7.3c13.7,0,24.9,11.2,24.9,24.9v4.3H594.2z M679.8,622.7h-60.7
			c-13.7,0-24.9-11.1-24.9-24.9v-4.3h110.4v4.3C704.6,611.6,693.5,622.7,679.8,622.7L679.8,622.7z M722.5,603.3
			c-6.1,0-11.1-5-11.1-11.1v-20.9h22.2c0,23.1,0.2,22.8-0.9,25.4C730.9,600.6,727,603.3,722.5,603.3L722.5,603.3z M762.6,547.1
			c0,14.6-9,27.5-22.3,32.7V571c6.7-1.5,11.8-7.6,11.8-14.8c0-7.2-5-13.2-11.8-14.8v-27C753.6,519.6,762.6,532.5,762.6,547.1
			L762.6,547.1z M719.1,484.5v-30c0-0.9,0.4-1.7,1-2.4l22.4-22.4c0,0,1,1,4.8,4.8l-20.4,20.4c-0.6,0.6-1,1.5-1,2.4v27.2
			C725.8,484.4,722.7,483.7,719.1,484.5L719.1,484.5z"/>
	</g>
</g>
<g class="st0">
	<g>
		<g>
			<path class="st1" d="M1523.6,746.6l-3.8-9.9l-6.7,8.3c-0.2,0.3-21.4,26.1-49.3,30c-5.3,0.8-10.2,1.7-15,2.8
				c1.3-21.7-7.5-42.3-26.3-61.6l-7.4-7.6l-2.9,10.2c-0.1,0.2-6.5,22.3-22.8,32.2c-17.8,10.9-29.2,23-34.7,36.9
				c-5.5,13.1-5.7,27.9-0.4,41.1c3.7,9.1,10.9,16.3,19.9,20.1c0.9,0.3,1.8,0.6,2.7,0.9c-0.5,6.1,0.1,12.3,1.6,18.3
				c-3.3,0.3-6.5,0.4-9.4,0.4c-8.1,0.2-16.3-1-24-3.3l-4.2,11.6c9.2,2.9,18.7,4.2,28.3,4c4.8,0,9.5-0.3,14.3-0.9
				c2,3.5,4.5,6.8,7.4,9.7c10,9.3,23.2,14.1,36.8,13.5c20.8-0.5,40.9-7.7,57.2-20.5l1.8-1.4C1503.4,868.2,1554.8,828,1523.6,746.6z
				 M1378.9,837.8L1378.9,837.8c-6.2-2.6-11-7.4-13.4-13.6c-4-10.2-3.8-21.6,0.5-31.7c4.5-11.3,14.1-21.4,29.7-30.9
				c10.8-7.2,19.3-17.5,24.4-29.5c12,13.4,17.8,31.3,15.8,49.2c-13.7,4.2-26.2,11.5-36.5,21.5
				C1389.6,812.5,1382.6,824.5,1378.9,837.8z M1479,871.8l-1.8,1.5c-25,19.8-62,23.6-77.7,7.9c-1-1-2-2.1-2.9-3.3
				c25.2-5.7,55.9-20.6,87.4-54.6l-9-8.4c-30.8,33.3-60.5,46.9-84.1,51.7c-1.7-5.7-2.2-11.8-1.5-17.7c1.9-14.2,8.5-27.3,18.8-37.3
				c12.7-12.7,31.5-20.7,57.4-24.4c18.9-3.7,36.3-13,49.8-26.8C1536.2,826.9,1494.9,859.2,1479,871.8z"/>
			<path class="st1" d="M1482.8,805.9l9.4,7.9c2.6-3.1,5.3-6.4,7.9-9.8l-9.7-7.5C1487.8,799.8,1485.3,802.9,1482.8,805.9z"/>
		</g>
	</g>
</g>
<g class="st0">
	<g>
		<g>
			<rect x="1346.6" y="290.1" class="st1" width="182.7" height="11.4"/>
			<path class="st1" d="M1369.4,187.3c12.6,0,22.8-10.2,22.8-22.8c0-10.7-15.1-33.1-18.1-37.5l-4.7-6.8l-4.7,6.8
				c-3,4.4-18.1,26.8-18.1,37.5C1346.6,177.1,1356.8,187.3,1369.4,187.3z M1369.4,140.6c6.1,9.7,11.4,20.1,11.4,23.9
				c0,6.3-5.1,11.4-11.4,11.4s-11.4-5.1-11.4-11.4C1358,160.7,1363.3,150.3,1369.4,140.6z"/>
			<path class="st1" d="M1495,211.5l-4.7,6.8c-3,4.4-18.1,26.8-18.1,37.5c0,12.6,10.2,22.8,22.8,22.8s22.8-10.2,22.8-22.8
				c0-10.7-15.1-33.1-18.1-37.5L1495,211.5z M1495,267.2c-6.3,0-11.4-5.1-11.4-11.4c0-3.8,5.3-14.1,11.4-23.9
				c6.1,9.7,11.4,20.1,11.4,23.9C1506.5,262.1,1501.4,267.2,1495,267.2z"/>
			<path class="st1" d="M1506.5,187.3c12.6,0,22.8-10.2,22.8-22.8c0-10.7-15.1-33.1-18.1-37.5l-4.7-6.8l-4.7,6.8
				c-3,4.4-18.1,26.8-18.1,37.5C1483.6,177.1,1493.9,187.3,1506.5,187.3z M1506.5,140.6c6.1,9.7,11.4,20.1,11.4,23.9
				c0,6.3-5.1,11.4-11.4,11.4s-11.4-5.1-11.4-11.4C1495,160.7,1500.4,150.3,1506.5,140.6z"/>
			<path class="st1" d="M1432.2,278.6c15.8,0,28.5-12.8,28.6-28.6v-49l13.1,13.1l8.1-8.1l-26.9-26.9l-26.9,26.9l8.1,8.1l13.1-13.1
				v49c0,9.5-7.7,17.1-17.1,17.1s-17.1-7.7-17.1-17.1V141.6h-11.4v108.5C1403.7,265.9,1416.5,278.6,1432.2,278.6z"/>
			<rect x="1358" y="198.7" class="st1" width="11.4" height="11.4"/>
			<rect x="1369.4" y="221.5" class="st1" width="11.4" height="11.4"/>
			<rect x="1380.8" y="244.4" class="st1" width="11.4" height="11.4"/>
			<rect x="1346.6" y="244.4" class="st1" width="11.4" height="11.4"/>
			<rect x="1358" y="267.2" class="st1" width="11.4" height="11.4"/>
			<rect x="1506.5" y="198.7" class="st1" width="11.4" height="11.4"/>
			<rect x="1460.8" y="130.2" class="st1" width="11.4" height="11.4"/>
			<rect x="1437.9" y="141.6" class="st1" width="11.4" height="11.4"/>
			<rect x="1403.7" y="118.8" class="st1" width="11.4" height="11.4"/>
		</g>
	</g>
</g>
<g class="st0">
	<path class="st1" d="M1965.5,437.2c2.1-0.1,4.1-0.9,5.7-2.5l14.9-14.9c3.8-3.8,3.8-10.1,0-14l-3.5-3.5c-3.9-3.9-10.2-3.8-14,0
		l-14.9,14.9c-1.6,1.6-2.4,3.6-2.5,5.7l-24.4,24.4c-1.9,1.9-3,4.4-3,7.2v32.8c-4.3,3-7.2,7.7-7.6,13.2c-5.8-7.4-14.8-12.2-24.9-12.2
		h-3.9v-6.9c0-1.4,0.7-2.8,1.9-3.6c3.1-2.1,7.5-5.7,10.4-10.8c1.7-3.1,1.7-6.7-0.1-9.7c-1.3-2.2-3.2-3.7-5.5-4.4v-9.2
		c0-15.5-12.6-28-28-28h-10.1c-15.5,0-28,12.6-28,28v9.2c-2.3,0.7-4.3,2.2-5.5,4.4c-1.8,3-1.8,6.7-0.1,9.7
		c2.9,5.1,7.2,8.7,10.4,10.8c1.2,0.8,1.9,2.1,1.9,3.6v6.9h-3.9c-17.4,0-31.6,14.2-31.6,31.6v36.8c0,1.9,1.5,3.4,3.4,3.4
		s3.4-1.5,3.4-3.4v-25.7h110.4v55.9h-110.4v-16.7c0-1.9-1.5-3.4-3.4-3.4c-1.9,0-3.4,1.5-3.4,3.4v27.8c0,17.4,14.2,31.6,31.6,31.6
		h60.7c14.8,0,27.3-10.3,30.7-24.1c8.3,7.6,21.5,5.6,27.3-4c26.1-4.9,45.1-27.7,45.1-54.3c0-11.6-3.6-22.7-10.3-32.1
		c-1.1-1.5-3.2-1.9-4.7-0.8c-1.5,1.1-1.9,3.2-0.8,4.7c5.9,8.3,9.1,18,9.1,28.2c0,22.2-15,41.2-35.9,46.9c0.2-1.6,0-3.4,0.1-7.1
		c17.3-5.5,29.1-21.5,29.1-39.8s-11.8-34.3-29.1-39.8c0-3.7,0.1-5.5-0.1-7.1c6.7,1.8,12.9,5,18.3,9.5c1.4,1.2,3.6,1,4.7-0.4
		c1.2-1.4,1-3.6-0.4-4.7c-7.3-6-15.9-10.1-25.1-11.8c-1.3-2.2-3.1-4.1-5.2-5.5v-28.6L1965.5,437.2z M1958.5,421.9l14.9-14.9
		c1.2-1.2,3.2-1.2,4.4,0l3.5,3.5c1.2,1.2,1.2,3.2,0,4.4l-14.9,14.9c-0.9,0.9-2.2,0.6-2.8,0c-0.5-0.5-2.7-2.7-2.6-2.6
		c-2.7-2.7-3-2.8-3.1-3.6C1957.9,423.1,1958.1,422.4,1958.5,421.9z M1922.9,502c0-4.3,2.5-8.2,6.4-10c5.6-2.6,12.3-0.1,14.8,5.6
		c1.4,3.2,0.8,2.5,0.9,43.6h-22.2C1922.9,536.5,1922.9,502,1922.9,502z M1948.4,564.6h-25.5v-16.8h25.5c4.6,0,8.4,3.8,8.4,8.4
		C1956.8,560.8,1953,564.6,1948.4,564.6z M1834.6,443.7c0-11.7,9.6-21.3,21.3-21.3h10.1c11.7,0,21.3,9.6,21.3,21.3v8.8H1877v-8.8
		c0-6.1-4.9-11-11-11h-10.1c-6.1,0-11,4.9-11,11v8.8h-10.3L1834.6,443.7L1834.6,443.7z M1851.6,452.5v-8.8c0-2.3,1.9-4.3,4.2-4.3
		h10.1c2.3,0,4.3,1.9,4.3,4.3v8.8L1851.6,452.5L1851.6,452.5z M1836.3,472.2c-2.5-1.7-6-4.5-8.2-8.5c-0.8-1.4-0.2-2.5,0-3
		c0.3-0.4,1-1.5,2.6-1.5h0.5h17h25.4h17h0.5c1.5,0,2.3,1,2.6,1.5c0.3,0.4,0.8,1.6,0,3c-2.2,3.9-5.7,6.8-8.2,8.5
		c-3.1,2.1-4.9,5.5-4.9,9.2v6.9h-39.3v-6.9C1841.3,477.7,1839.4,474.2,1836.3,472.2L1836.3,472.2z M1805.7,524.2v-4.3
		c0-13.7,11.2-24.9,24.9-24.9h7.3h46.1h7.3c13.7,0,24.9,11.2,24.9,24.9v4.3H1805.7z M1891.3,622.7h-60.7
		c-13.7,0-24.9-11.1-24.9-24.9v-4.3h110.4v4.3C1916.1,611.6,1905,622.7,1891.3,622.7L1891.3,622.7z M1933.9,603.3
		c-6.1,0-11.1-5-11.1-11.1v-20.9h22.2c0,23.1,0.2,22.8-0.9,25.4C1942.4,600.6,1938.5,603.3,1933.9,603.3L1933.9,603.3z
		 M1974.1,547.1c0,14.6-9,27.5-22.3,32.7V571c6.7-1.5,11.8-7.6,11.8-14.8c0-7.2-5-13.2-11.8-14.8v-27
		C1965.1,519.6,1974.1,532.5,1974.1,547.1L1974.1,547.1z M1930.6,484.5v-30c0-0.9,0.4-1.7,1-2.4l22.4-22.4c0,0,1,1,4.8,4.8
		l-20.4,20.4c-0.6,0.6-1,1.5-1,2.4v27.2C1937.3,484.4,1934.2,483.7,1930.6,484.5L1930.6,484.5z"/>
</g>
<g class="st0">
	<g>
		<g>
			<g>
				<path class="st1" d="M763.6,1623.3l-3.8-9.9l-6.7,8.3c-0.2,0.3-21.5,26.1-49.6,30c-5.3,0.8-10.3,1.7-15.1,2.8
					c1.3-21.7-7.6-42.3-26.5-61.6l-7.5-7.6l-2.9,10.2c-0.1,0.2-6.5,22.3-22.9,32.2c-18,10.9-29.4,23-34.9,36.9
					c-5.6,13.1-5.7,27.9-0.4,41.1c3.7,9.1,10.9,16.3,20,20.1c0.9,0.3,1.8,0.6,2.7,0.9c-0.5,6.1,0.1,12.3,1.6,18.3
					c-3.3,0.3-6.5,0.4-9.5,0.4c-8.2,0.2-16.4-1-24.2-3.3l-4.3,11.6c9.2,2.9,18.8,4.2,28.5,4c4.8,0,9.6-0.3,14.3-0.9
					c2,3.5,4.5,6.8,7.4,9.7c10,9.3,23.4,14.1,37,13.5c20.9-0.5,41.1-7.7,57.6-20.5l1.8-1.4C743.4,1744.8,795.1,1704.6,763.6,1623.3z
					 M618.1,1714.4L618.1,1714.4c-6.2-2.6-11-7.4-13.5-13.6c-4-10.2-3.8-21.6,0.5-31.7c4.5-11.3,14.2-21.4,29.8-30.9
					c10.9-7.2,19.4-17.5,24.6-29.5c12.1,13.4,17.9,31.3,15.9,49.2c-13.8,4.2-26.4,11.5-36.8,21.5
					C628.8,1689.1,621.7,1701.2,618.1,1714.4z M718.7,1748.4l-1.9,1.5c-25.2,19.8-62.4,23.6-78.2,7.9c-1-1-2-2.1-2.9-3.3
					c25.3-5.7,56.2-20.6,88-54.6l-9.1-8.4c-31,33.3-60.8,46.9-84.7,51.7c-1.7-5.7-2.2-11.8-1.5-17.7c1.9-14.2,8.6-27.3,18.9-37.3
					c12.8-12.7,31.7-20.7,57.8-24.4c19.1-3.7,36.5-13,50.2-26.8C776.4,1703.5,734.8,1735.9,718.7,1748.4z"/>
				<path class="st1" d="M722.6,1682.5l9.5,7.9c2.6-3.1,5.3-6.4,7.9-9.8l-9.8-7.5C727.7,1676.4,725.1,1679.5,722.6,1682.5z"/>
			</g>
		</g>
	</g>
	<g>
		<g>
			<g>
				<path class="st1" d="M1608.9,1021.6l-3.8-9.9l-6.7,8.3c-0.2,0.3-21.5,26.1-49.6,30c-5.3,0.8-10.3,1.7-15.1,2.8
					c1.3-21.7-7.6-42.3-26.5-61.6l-7.5-7.6l-2.9,10.2c-0.1,0.2-6.5,22.3-22.9,32.2c-18,10.9-29.4,23-34.9,36.9
					c-5.6,13.1-5.7,27.9-0.4,41.1c3.7,9.1,10.9,16.3,20,20.1c0.9,0.3,1.8,0.6,2.7,0.9c-0.5,6.1,0.1,12.3,1.6,18.3
					c-3.3,0.3-6.5,0.4-9.5,0.4c-8.2,0.2-16.4-1-24.2-3.3l-4.3,11.6c9.2,2.9,18.8,4.2,28.5,4c4.8,0,9.6-0.3,14.3-0.9
					c2,3.5,4.5,6.8,7.4,9.7c10,9.3,23.4,14.1,37,13.5c20.9-0.5,41.1-7.7,57.6-20.5l1.8-1.4
					C1588.6,1143.2,1640.3,1102.9,1608.9,1021.6z M1463.3,1112.8L1463.3,1112.8c-6.2-2.6-11-7.4-13.5-13.6
					c-4-10.2-3.8-21.6,0.5-31.7c4.5-11.3,14.2-21.4,29.8-30.9c10.9-7.2,19.4-17.5,24.6-29.5c12.1,13.4,17.9,31.3,15.9,49.2
					c-13.8,4.2-26.4,11.5-36.8,21.5C1474,1087.5,1466.9,1099.5,1463.3,1112.8z M1563.9,1146.7l-1.9,1.5
					c-25.2,19.8-62.4,23.6-78.2,7.9c-1-1-2-2.1-2.9-3.3c25.3-5.7,56.2-20.6,88-54.6l-9.1-8.4c-31,33.3-60.8,46.9-84.7,51.7
					c-1.7-5.7-2.2-11.8-1.5-17.7c1.9-14.2,8.6-27.3,18.9-37.3c12.8-12.7,31.7-20.7,57.8-24.4c19.1-3.7,36.5-13,50.2-26.8
					C1621.6,1101.9,1580,1134.2,1563.9,1146.7z"/>
				<path class="st1" d="M1567.8,1080.9l9.5,7.9c2.6-3.1,5.3-6.4,7.9-9.8l-9.8-7.5C1572.9,1074.7,1570.4,1077.9,1567.8,1080.9z"/>
			</g>
		</g>
	</g>
	<g>
		<g>
			<g>
				<rect x="585.5" y="1166.7" class="st1" width="183.9" height="11.4"/>
				<path class="st1" d="M608.5,1063.9c12.7,0,23-10.2,23-22.8c0-10.7-15.2-33.1-18.3-37.5l-4.7-6.8l-4.7,6.8
					c-3.1,4.4-18.3,26.8-18.3,37.5C585.5,1053.7,595.8,1063.9,608.5,1063.9z M608.5,1017.2c6.1,9.7,11.5,20.1,11.5,23.9
					c0,6.3-5.1,11.4-11.5,11.4s-11.5-5.1-11.5-11.4C597,1037.3,602.4,1026.9,608.5,1017.2z"/>
				<path class="st1" d="M734.9,1088.1l-4.7,6.8c-3.1,4.4-18.3,26.8-18.3,37.5c0,12.6,10.3,22.8,23,22.8c12.7,0,23-10.2,23-22.8
					c0-10.7-15.2-33.1-18.3-37.5L734.9,1088.1z M734.9,1143.9c-6.3,0-11.5-5.1-11.5-11.4c0-3.8,5.4-14.1,11.5-23.9
					c6.1,9.7,11.5,20.1,11.5,23.9C746.4,1138.7,741.3,1143.9,734.9,1143.9z"/>
				<path class="st1" d="M746.4,1063.9c12.7,0,23-10.2,23-22.8c0-10.7-15.2-33.1-18.3-37.5l-4.7-6.8l-4.7,6.8
					c-3.1,4.4-18.3,26.8-18.3,37.5C723.4,1053.7,733.7,1063.9,746.4,1063.9z M746.4,1017.2c6.1,9.7,11.5,20.1,11.5,23.9
					c0,6.3-5.1,11.4-11.5,11.4s-11.5-5.1-11.5-11.4C734.9,1037.3,740.3,1026.9,746.4,1017.2z"/>
				<path class="st1" d="M671.7,1155.3c15.9,0,28.7-12.8,28.7-28.6v-49l13.2,13.1l8.1-8.1l-27.1-26.9l-27.1,26.9l8.1,8.1l13.2-13.1
					v49c0,9.5-7.7,17.1-17.2,17.1s-17.2-7.7-17.2-17.1v-108.5H643v108.5C643,1142.5,655.8,1155.3,671.7,1155.3z"/>
				<rect x="597" y="1075.3" class="st1" width="11.5" height="11.4"/>
				<rect x="608.5" y="1098.2" class="st1" width="11.5" height="11.4"/>
				<rect x="620" y="1121" class="st1" width="11.5" height="11.4"/>
				<rect x="585.5" y="1121" class="st1" width="11.5" height="11.4"/>
				<rect x="597" y="1143.9" class="st1" width="11.5" height="11.4"/>
				<rect x="746.4" y="1075.3" class="st1" width="11.5" height="11.4"/>
				<rect x="700.4" y="1006.8" class="st1" width="11.5" height="11.4"/>
				<rect x="677.5" y="1018.2" class="st1" width="11.5" height="11.4"/>
				<rect x="643" y="995.4" class="st1" width="11.5" height="11.4"/>
			</g>
		</g>
	</g>
	<g>
		<g>
			<g>
				<path class="st1" d="M1520.6,1682.7c-2.7-9.2-4.2-18.7-4.4-28.3v-9l7.4,7.3l8-8l-38.2-37.9l-38.2,37.9l8,8l7.4-7.3v9
					c-0.3,9.6-1.8,19.1-4.4,28.3h-63.8v11.3h60.4c-4,11.7-8.9,23-14.8,33.9h-45.6v11.3h39.1c-7.8,13.6-18.3,25.5-30.8,34.9l6.3,9.4
					c24.8-16.4,47-54.8,57.9-89.5h37.1c10.9,34.7,33.2,73.1,57.9,89.5l6.3-9.4c-12.6-9.4-23.1-21.3-30.8-34.9h39.1v-11.3h-45.6
					c-5.8-10.9-10.8-22.2-14.8-33.9h60.4v-11.3H1520.6L1520.6,1682.7z M1478,1682.7c2.4-9.2,3.8-18.7,4-28.3v-20.3l11.4-11.3
					l11.4,11.3v20.3c0.2,9.5,1.5,19,4,28.3H1478z"/>
				<rect x="1402.3" y="1704.8" class="st1" width="11.4" height="11.3"/>
				<rect x="1425.1" y="1704.8" class="st1" width="11.4" height="11.3"/>
				<rect x="1550.3" y="1704.8" class="st1" width="11.4" height="11.3"/>
				<rect x="1573" y="1704.8" class="st1" width="11.4" height="11.3"/>
				<path class="st1" d="M1493.4,1701l-4.7,6.7c-4,5.7-23.8,34.9-23.8,48.4c0,15.6,12.7,28.3,28.4,28.3s28.4-12.7,28.4-28.3
					c0-13.6-19.8-42.7-23.8-48.4L1493.4,1701z M1493.4,1773.1c-9.4,0-17.1-7.6-17.1-17c0-6.2,8.9-22.3,17.1-35
					c8.2,12.7,17.1,28.8,17.1,35C1510.5,1765.5,1502.8,1773.1,1493.4,1773.1z"/>
			</g>
		</g>
	</g>
	<g>
		<path class="st1" d="M1208.5,1313.8c2.1-0.1,4.1-0.9,5.7-2.5l15-14.9c3.9-3.8,3.9-10.1,0-14l-3.5-3.5c-4-3.9-10.2-3.8-14,0
			l-15,14.9c-1.6,1.6-2.4,3.6-2.5,5.7l-24.6,24.4c-1.9,1.9-3,4.4-3,7.2v32.8c-4.3,3-7.2,7.7-7.7,13.2c-5.8-7.4-14.9-12.2-25.1-12.2
			h-4v-6.9c0-1.4,0.7-2.8,1.9-3.6c3.2-2.1,7.5-5.7,10.4-10.8c1.7-3.1,1.7-6.7-0.1-9.7c-1.3-2.2-3.2-3.7-5.6-4.4v-9.2
			c0-15.5-12.7-28-28.2-28h-10.2c-15.6,0-28.2,12.6-28.2,28v9.2c-2.3,0.7-4.3,2.2-5.6,4.4c-1.8,3-1.8,6.7-0.1,9.7
			c2.9,5.1,7.3,8.7,10.4,10.8c1.2,0.8,1.9,2.1,1.9,3.6v6.9h-4c-17.5,0-31.8,14.2-31.8,31.6v36.8c0,1.9,1.5,3.4,3.4,3.4
			c1.9,0,3.4-1.5,3.4-3.4v-25.7h111.1v55.9h-111.1v-16.7c0-1.9-1.5-3.4-3.4-3.4c-1.9,0-3.4,1.5-3.4,3.4v27.8
			c0,17.4,14.3,31.6,31.8,31.6h61.1c14.9,0,27.5-10.3,30.9-24.1c8.4,7.6,21.6,5.6,27.5-4c26.2-4.9,45.4-27.7,45.4-54.3
			c0-11.6-3.6-22.7-10.4-32.1c-1.1-1.5-3.2-1.9-4.7-0.8c-1.5,1.1-1.9,3.2-0.8,4.7c6,8.3,9.1,18,9.1,28.2c0,22.2-15.1,41.2-36.1,46.9
			c0.2-1.6,0-3.4,0.1-7.1c17.4-5.5,29.3-21.5,29.3-39.8c0-18.3-11.9-34.3-29.3-39.8c0-3.7,0.1-5.5-0.1-7.1c6.7,1.8,13,5,18.4,9.5
			c1.4,1.2,3.6,1,4.8-0.4c1.2-1.4,1-3.6-0.4-4.7c-7.3-6-16-10.1-25.2-11.8c-1.3-2.2-3.1-4.1-5.2-5.5v-28.6L1208.5,1313.8z
			 M1201.4,1298.6l15-14.9c1.2-1.2,3.2-1.2,4.5,0l3.5,3.5c1.2,1.2,1.2,3.2,0,4.4l-15,14.9c-0.9,0.9-2.2,0.6-2.8,0
			c-0.5-0.5-2.8-2.7-2.6-2.6c-2.7-2.7-3-2.8-3.2-3.6C1200.7,1299.7,1200.9,1299,1201.4,1298.6z M1165.5,1378.6c0-4.3,2.5-8.2,6.4-10
			c5.7-2.6,12.4-0.1,14.9,5.6c1.4,3.2,0.8,2.5,0.9,43.6h-22.3C1165.5,1413.2,1165.5,1378.6,1165.5,1378.6z M1191.2,1441.2h-25.7
			v-16.8h25.7c4.7,0,8.5,3.8,8.5,8.4C1199.7,1437.5,1195.9,1441.2,1191.2,1441.2z M1076.6,1320.3c0-11.7,9.6-21.3,21.4-21.3h10.2
			c11.8,0,21.4,9.6,21.4,21.3v8.8h-10.4v-8.8c0-6.1-5-11-11.1-11h-10.2c-6.1,0-11.1,4.9-11.1,11v8.8h-10.4L1076.6,1320.3
			L1076.6,1320.3z M1093.8,1329.1v-8.8c0-2.3,1.9-4.3,4.3-4.3h10.2c2.4,0,4.3,1.9,4.3,4.3v8.8L1093.8,1329.1L1093.8,1329.1z
			 M1078.4,1348.8c-2.6-1.7-6.1-4.5-8.3-8.5c-0.8-1.4-0.2-2.5,0-3c0.3-0.4,1-1.5,2.6-1.5h0.5h17.2h25.5h17.2h0.5
			c1.5,0,2.3,1,2.6,1.5c0.3,0.4,0.8,1.6,0,3c-2.2,3.9-5.7,6.8-8.3,8.5c-3.1,2.1-4.9,5.5-4.9,9.2v6.9h-39.6v-6.9
			C1083.4,1354.3,1081.5,1350.9,1078.4,1348.8L1078.4,1348.8z M1047.6,1400.8v-4.3c0-13.7,11.2-24.9,25-24.9h7.4h46.4h7.4
			c13.8,0,25,11.2,25,24.9v4.3H1047.6z M1133.7,1499.4h-61.1c-13.8,0-25-11.1-25-24.9v-4.3h111.1v4.3
			C1158.7,1488.2,1147.5,1499.4,1133.7,1499.4L1133.7,1499.4z M1176.7,1480c-6.2,0-11.2-5-11.2-11.1V1448h22.3
			c0,23.1,0.2,22.8-1,25.4C1185.1,1477.2,1181.2,1480,1176.7,1480L1176.7,1480z M1217.1,1423.7c0,14.6-9.1,27.5-22.5,32.7v-8.8
			c6.8-1.5,11.9-7.6,11.9-14.8c0-7.2-5.1-13.2-11.9-14.8v-27C1208,1396.2,1217.1,1409.1,1217.1,1423.7L1217.1,1423.7z
			 M1173.3,1361.1v-30c0-0.9,0.4-1.7,1-2.4l22.5-22.4c0,0,1,1,4.8,4.8l-20.6,20.4c-0.6,0.6-1,1.5-1,2.4v27.2
			C1180,1361.1,1176.9,1360.4,1173.3,1361.1L1173.3,1361.1z"/>
	</g>
	<g>
		<path class="st1" d="M294.2,1313.8c2.1-0.1,4.1-0.9,5.7-2.5l15-14.9c3.9-3.8,3.9-10.1,0-14l-3.5-3.5c-4-3.9-10.2-3.8-14,0
			l-15,14.9c-1.6,1.6-2.4,3.6-2.5,5.7l-24.6,24.4c-1.9,1.9-3,4.4-3,7.2v32.8c-4.3,3-7.2,7.7-7.7,13.2c-5.8-7.4-14.9-12.2-25.1-12.2
			h-4v-6.9c0-1.4,0.7-2.8,1.9-3.6c3.2-2.1,7.5-5.7,10.4-10.8c1.7-3.1,1.7-6.7-0.1-9.7c-1.3-2.2-3.2-3.7-5.6-4.4v-9.2
			c0-15.5-12.7-28-28.2-28h-10.2c-15.6,0-28.2,12.6-28.2,28v9.2c-2.3,0.7-4.3,2.2-5.6,4.4c-1.8,3-1.8,6.7-0.1,9.7
			c2.9,5.1,7.3,8.7,10.4,10.8c1.2,0.8,1.9,2.1,1.9,3.6v6.9h-4c-17.5,0-31.8,14.2-31.8,31.6v36.8c0,1.9,1.5,3.4,3.4,3.4
			s3.4-1.5,3.4-3.4v-25.7h111.1v55.9H133.3v-16.7c0-1.9-1.5-3.4-3.4-3.4s-3.4,1.5-3.4,3.4v27.8c0,17.4,14.3,31.6,31.8,31.6h61.1
			c14.9,0,27.5-10.3,30.9-24.1c8.4,7.6,21.6,5.6,27.5-4c26.2-4.9,45.4-27.7,45.4-54.3c0-11.6-3.6-22.7-10.4-32.1
			c-1.1-1.5-3.2-1.9-4.7-0.8c-1.5,1.1-1.9,3.2-0.8,4.7c6,8.3,9.1,18,9.1,28.2c0,22.2-15.1,41.2-36.1,46.9c0.2-1.6,0-3.4,0.1-7.1
			c17.4-5.5,29.3-21.5,29.3-39.8c0-18.3-11.9-34.3-29.3-39.8c0-3.7,0.1-5.5-0.1-7.1c6.7,1.8,13,5,18.4,9.5c1.4,1.2,3.6,1,4.8-0.4
			c1.2-1.4,1-3.6-0.4-4.7c-7.3-6-16-10.1-25.2-11.8c-1.3-2.2-3.1-4.1-5.2-5.5v-28.6L294.2,1313.8z M287.1,1298.6l15-14.9
			c1.2-1.2,3.2-1.2,4.5,0l3.5,3.5c1.2,1.2,1.2,3.2,0,4.4l-15,14.9c-0.9,0.9-2.2,0.6-2.8,0c-0.5-0.5-2.8-2.7-2.6-2.6
			c-2.7-2.7-3-2.8-3.2-3.6C286.5,1299.7,286.6,1299,287.1,1298.6z M251.2,1378.6c0-4.3,2.5-8.2,6.4-10c5.7-2.6,12.4-0.1,14.9,5.6
			c1.4,3.2,0.8,2.5,0.9,43.6h-22.3C251.2,1413.2,251.2,1378.6,251.2,1378.6z M276.9,1441.2h-25.7v-16.8h25.7c4.7,0,8.5,3.8,8.5,8.4
			C285.4,1437.5,281.6,1441.2,276.9,1441.2z M162.3,1320.3c0-11.7,9.6-21.3,21.4-21.3H194c11.8,0,21.4,9.6,21.4,21.3v8.8H205v-8.8
			c0-6.1-5-11-11.1-11h-10.2c-6.1,0-11.1,4.9-11.1,11v8.8h-10.4L162.3,1320.3L162.3,1320.3z M179.5,1329.1v-8.8
			c0-2.3,1.9-4.3,4.3-4.3H194c2.4,0,4.3,1.9,4.3,4.3v8.8L179.5,1329.1L179.5,1329.1z M164.1,1348.8c-2.6-1.7-6.1-4.5-8.3-8.5
			c-0.8-1.4-0.2-2.5,0-3c0.3-0.4,1-1.5,2.6-1.5h0.5h17.2h25.5h17.2h0.5c1.5,0,2.3,1,2.6,1.5c0.3,0.4,0.8,1.6,0,3
			c-2.2,3.9-5.7,6.8-8.3,8.5c-3.1,2.1-4.9,5.5-4.9,9.2v6.9h-39.6v-6.9C169.1,1354.3,167.2,1350.9,164.1,1348.8L164.1,1348.8z
			 M133.3,1400.8v-4.3c0-13.7,11.2-24.9,25-24.9h7.4h46.4h7.4c13.8,0,25,11.2,25,24.9v4.3H133.3z M219.4,1499.4h-61.1
			c-13.8,0-25-11.1-25-24.9v-4.3h111.1v4.3C244.4,1488.2,233.2,1499.4,219.4,1499.4L219.4,1499.4z M262.4,1480
			c-6.2,0-11.2-5-11.2-11.1V1448h22.3c0,23.1,0.2,22.8-1,25.4C270.8,1477.2,266.9,1480,262.4,1480L262.4,1480z M302.8,1423.7
			c0,14.6-9.1,27.5-22.5,32.7v-8.8c6.8-1.5,11.9-7.6,11.9-14.8c0-7.2-5.1-13.2-11.9-14.8v-27
			C293.7,1396.2,302.8,1409.1,302.8,1423.7L302.8,1423.7z M259,1361.1v-30c0-0.9,0.4-1.7,1-2.4l22.5-22.4c0,0,1,1,4.8,4.8
			l-20.6,20.4c-0.6,0.6-1,1.5-1,2.4v27.2C265.7,1361.1,262.6,1360.4,259,1361.1L259,1361.1z"/>
	</g>
</g>
<g class="st0">
	<g>
		<g>
			<path class="st1" d="M1982.9,1623.3l-3.8-9.9l-6.7,8.3c-0.2,0.3-21.5,26.1-49.6,30c-5.3,0.8-10.3,1.7-15.1,2.8
				c1.3-21.7-7.6-42.3-26.5-61.6l-7.5-7.6l-2.9,10.2c-0.1,0.2-6.5,22.3-22.9,32.2c-18,10.9-29.4,23-34.9,36.9
				c-5.6,13.1-5.7,27.9-0.4,41.1c3.7,9.1,10.9,16.3,20,20.1c0.9,0.3,1.8,0.6,2.7,0.9c-0.5,6.1,0.1,12.3,1.6,18.3
				c-3.3,0.3-6.5,0.4-9.5,0.4c-8.2,0.2-16.4-1-24.2-3.3l-4.3,11.6c9.2,2.9,18.8,4.2,28.5,4c4.8,0,9.6-0.3,14.3-0.9
				c2,3.5,4.5,6.8,7.4,9.7c10,9.3,23.4,14.1,37,13.5c20.9-0.5,41.1-7.7,57.6-20.5l1.8-1.4
				C1962.7,1744.8,2014.4,1704.6,1982.9,1623.3z M1837.4,1714.4L1837.4,1714.4c-6.2-2.6-11-7.4-13.5-13.6c-4-10.2-3.8-21.6,0.5-31.7
				c4.5-11.3,14.2-21.4,29.8-30.9c10.9-7.2,19.4-17.5,24.6-29.5c12.1,13.4,17.9,31.3,15.9,49.2c-13.8,4.2-26.4,11.5-36.8,21.5
				C1848.1,1689.1,1841,1701.2,1837.4,1714.4z M1938,1748.4l-1.9,1.5c-25.2,19.8-62.4,23.6-78.2,7.9c-1-1-2-2.1-2.9-3.3
				c25.3-5.7,56.2-20.6,88-54.6l-9.1-8.4c-31,33.3-60.8,46.9-84.7,51.7c-1.7-5.7-2.2-11.8-1.5-17.7c1.9-14.2,8.6-27.3,18.9-37.3
				c12.8-12.7,31.7-20.7,57.8-24.4c19.1-3.7,36.5-13,50.2-26.8C1995.7,1703.5,1954.1,1735.9,1938,1748.4z"/>
			<path class="st1" d="M1941.9,1682.5l9.5,7.9c2.6-3.1,5.3-6.4,7.9-9.8l-9.8-7.5C1947,1676.4,1944.4,1679.5,1941.9,1682.5z"/>
		</g>
	</g>
</g>
<g class="st0">
	<g>
		<g>
			<rect x="1804.8" y="1166.7" class="st1" width="183.9" height="11.4"/>
			<path class="st1" d="M1827.8,1063.9c12.7,0,23-10.2,23-22.8c0-10.7-15.2-33.1-18.3-37.5l-4.7-6.8l-4.7,6.8
				c-3.1,4.4-18.3,26.8-18.3,37.5C1804.8,1053.7,1815.1,1063.9,1827.8,1063.9z M1827.8,1017.2c6.1,9.7,11.5,20.1,11.5,23.9
				c0,6.3-5.1,11.4-11.5,11.4s-11.5-5.1-11.5-11.4C1816.3,1037.3,1821.7,1026.9,1827.8,1017.2z"/>
			<path class="st1" d="M1954.2,1088.1l-4.7,6.8c-3.1,4.4-18.3,26.8-18.3,37.5c0,12.6,10.3,22.8,23,22.8c12.7,0,23-10.2,23-22.8
				c0-10.7-15.2-33.1-18.3-37.5L1954.2,1088.1z M1954.2,1143.9c-6.3,0-11.5-5.1-11.5-11.4c0-3.8,5.4-14.1,11.5-23.9
				c6.1,9.7,11.5,20.1,11.5,23.9C1965.7,1138.7,1960.6,1143.9,1954.2,1143.9z"/>
			<path class="st1" d="M1965.7,1063.9c12.7,0,23-10.2,23-22.8c0-10.7-15.2-33.1-18.3-37.5l-4.7-6.8l-4.7,6.8
				c-3.1,4.4-18.3,26.8-18.3,37.5C1942.7,1053.7,1953,1063.9,1965.7,1063.9z M1965.7,1017.2c6.1,9.7,11.5,20.1,11.5,23.9
				c0,6.3-5.1,11.4-11.5,11.4s-11.5-5.1-11.5-11.4C1954.2,1037.3,1959.6,1026.9,1965.7,1017.2z"/>
			<path class="st1" d="M1891,1155.3c15.9,0,28.7-12.8,28.7-28.6v-49l13.2,13.1l8.1-8.1l-27.1-26.9l-27.1,26.9l8.1,8.1l13.2-13.1v49
				c0,9.5-7.7,17.1-17.2,17.1s-17.2-7.7-17.2-17.1v-108.5h-11.5v108.5C1862.3,1142.5,1875.1,1155.3,1891,1155.3z"/>
			<rect x="1816.3" y="1075.3" class="st1" width="11.5" height="11.4"/>
			<rect x="1827.8" y="1098.2" class="st1" width="11.5" height="11.4"/>
			<rect x="1839.3" y="1121" class="st1" width="11.5" height="11.4"/>
			<rect x="1804.8" y="1121" class="st1" width="11.5" height="11.4"/>
			<rect x="1816.3" y="1143.9" class="st1" width="11.5" height="11.4"/>
			<rect x="1965.7" y="1075.3" class="st1" width="11.5" height="11.4"/>
			<rect x="1919.7" y="1006.8" class="st1" width="11.5" height="11.4"/>
			<rect x="1896.8" y="1018.2" class="st1" width="11.5" height="11.4"/>
			<rect x="1862.3" y="995.4" class="st1" width="11.5" height="11.4"/>
		</g>
	</g>
</g>
</svg>
