<svg xmlns="http://www.w3.org/2000/svg" width="665.867" height="357.185" viewBox="0 0 665.867 357.185">
  <g id="Grupo_28119" data-name="Grupo 28119" transform="translate(-163.234 -145.418)">
    <g id="Grupo_27832" data-name="Grupo 27832" transform="translate(202.772 146.093)">
      <circle id="Elipse_1275" data-name="Elipse 1275" cx="76.107" cy="76.107" r="76.107" transform="matrix(0.921, -0.39, 0.39, 0.921, 0, 59.438)" fill="#ffe5e1"/>
    </g>
    <g id="Grupo_27833" data-name="Grupo 27833" transform="translate(197.805 342.51)">
      <circle id="Elipse_1276" data-name="Elipse 1276" cx="76.107" cy="76.107" r="76.107" fill="#ffe5e1"/>
    </g>
    <g id="Grupo_27834" data-name="Grupo 27834" transform="translate(632.436 333.879)">
      <circle id="Elipse_1277" data-name="Elipse 1277" cx="59.57" cy="59.57" r="59.57" transform="translate(0 84.244) rotate(-45)" fill="#ffe5e1"/>
    </g>
    <g id="Grupo_27835" data-name="Grupo 27835" transform="translate(622.361 145.418)">
      <circle id="Elipse_1278" data-name="Elipse 1278" cx="74.298" cy="74.298" r="74.298" transform="translate(0 122.209) rotate(-55.329)" fill="#ffe5e1"/>
    </g>
    <g id="Grupo_27836" data-name="Grupo 27836" transform="translate(444.262 214.321)">
      <circle id="Elipse_1279" data-name="Elipse 1279" cx="75.445" cy="75.445" r="75.445" transform="matrix(0.921, -0.39, 0.39, 0.921, 0, 58.911)" fill="#ffe5e1"/>
    </g>
    <g id="Grupo_27837" data-name="Grupo 27837" transform="translate(592.329 421.57)">
      <circle id="Elipse_1280" data-name="Elipse 1280" cx="22.647" cy="22.647" r="22.647" transform="matrix(0.898, -0.44, 0.44, 0.898, 0, 19.915)" fill="#ffe5e1"/>
    </g>
    <g id="Grupo_27838" data-name="Grupo 27838" transform="translate(395.034 178.448)">
      <circle id="Elipse_1281" data-name="Elipse 1281" cx="33.21" cy="33.21" r="33.21" fill="#ffe5e1"/>
    </g>
    <g id="Grupo_27865" data-name="Grupo 27865" transform="translate(698.725 349.964)">
      <g id="Grupo_27840" data-name="Grupo 27840" transform="translate(0 35.54)">
        <g id="Grupo_27839" data-name="Grupo 27839">
          <path id="Trazado_56287" data-name="Trazado 56287" d="M461.189,270.773c-5.62-8.008-18.976-21.417-18.976-21.417H419.5s-13.354,13.409-18.974,21.417-5.465,15.354-5.465,25.485c0,8.734,0,35.889.007,43.209h71.581c0-7.32.007-34.475.007-43.209C466.654,286.127,466.809,278.782,461.189,270.773Z" transform="translate(-395.059 -249.356)" fill="#f23812"/>
        </g>
      </g>
      <g id="Grupo_27842" data-name="Grupo 27842" transform="translate(18.469 35.732)">
        <g id="Grupo_27841" data-name="Grupo 27841">
          <rect id="Rectángulo_5510" data-name="Rectángulo 5510" width="34.07" height="5.453" fill="#db2305"/>
        </g>
      </g>
      <g id="Grupo_27851" data-name="Grupo 27851" transform="translate(18.468)">
        <g id="Grupo_27844" data-name="Grupo 27844">
          <g id="Grupo_27843" data-name="Grupo 27843">
            <path id="Trazado_56288" data-name="Trazado 56288" d="M437.125,240.292a6.342,6.342,0,0,0-6.324-6.322H409.379a6.342,6.342,0,0,0-6.325,6.322v29.169h6.318V244.6a1.757,1.757,0,0,1,3.513,0v24.857h5.8V244.6a1.755,1.755,0,1,1,3.511,0v24.857H428V244.6a1.757,1.757,0,0,1,3.513,0v24.857h5.615Z" transform="translate(-403.054 -233.97)" fill="#fbcc02"/>
          </g>
        </g>
        <g id="Grupo_27846" data-name="Grupo 27846" transform="translate(6.318 8.879)">
          <g id="Grupo_27845" data-name="Grupo 27845">
            <path id="Trazado_56289" data-name="Trazado 56289" d="M407.547,237.814a1.761,1.761,0,0,0-1.758,1.756v24.857H409.3V239.57A1.761,1.761,0,0,0,407.547,237.814Z" transform="translate(-405.789 -237.814)" fill="#f9ae06"/>
          </g>
        </g>
        <g id="Grupo_27848" data-name="Grupo 27848" transform="translate(15.631 8.879)">
          <g id="Grupo_27847" data-name="Grupo 27847">
            <path id="Trazado_56290" data-name="Trazado 56290" d="M411.576,237.814a1.761,1.761,0,0,0-1.755,1.756v24.857h3.511V239.57A1.761,1.761,0,0,0,411.576,237.814Z" transform="translate(-409.821 -237.814)" fill="#f9ae06"/>
          </g>
        </g>
        <g id="Grupo_27850" data-name="Grupo 27850" transform="translate(24.942 8.879)">
          <g id="Grupo_27849" data-name="Grupo 27849">
            <path id="Trazado_56291" data-name="Trazado 56291" d="M415.608,237.814a1.761,1.761,0,0,0-1.756,1.756v24.857h3.513V239.57A1.763,1.763,0,0,0,415.608,237.814Z" transform="translate(-413.852 -237.814)" fill="#f9ae06"/>
          </g>
        </g>
      </g>
      <g id="Grupo_27860" data-name="Grupo 27860" transform="translate(2.341 60.265)">
        <g id="Grupo_27854" data-name="Grupo 27854">
          <g id="Grupo_27852" data-name="Grupo 27852">
            <circle id="Elipse_1282" data-name="Elipse 1282" cx="23.496" cy="23.496" r="23.496" transform="translate(0 33.228) rotate(-45)" fill="#fbcc02"/>
          </g>
          <g id="Grupo_27853" data-name="Grupo 27853" transform="translate(8.578 8.577)">
            <path id="Trazado_56292" data-name="Trazado 56292" d="M424.437,313.075a24.651,24.651,0,1,1,24.651-24.651A24.678,24.678,0,0,1,424.437,313.075Zm0-46.992a22.341,22.341,0,1,0,22.341,22.341A22.367,22.367,0,0,0,424.437,266.083Z" transform="translate(-399.786 -263.773)" fill="#424242"/>
          </g>
        </g>
        <g id="Grupo_27857" data-name="Grupo 27857" transform="translate(15.92 17.99)">
          <g id="Grupo_27856" data-name="Grupo 27856">
            <g id="Grupo_27855" data-name="Grupo 27855">
              <path id="Trazado_56293" data-name="Trazado 56293" d="M411.365,291a17.174,17.174,0,0,0,2.361-2.954l-.025-.023c.547-.106,1.208-.273,1.589-.37a6.192,6.192,0,0,0,.379,1.374c1.127,2.631,3.469,2.61,4.763,2.61s3.636.021,4.765-2.61a6.235,6.235,0,0,0,.381-1.384c.323.083.873.222,1.381.328A20.262,20.262,0,0,0,429.44,291c1.365,1.2,2.5,5.306,3.73,6.613s1.384.677.48-.725-1.97-4.851-3.035-6.043c-.767-.859-1.686-2.123-2.282-2.876.109-.139.007-.379-.43-.709a12.629,12.629,0,0,0-2.206-1.178c0-.427,0-.857-.035-1.3.386.065.843.15,1.282.254.381.088,1.058.326,1.635.448a13.6,13.6,0,0,1,2.437.862,17.053,17.053,0,0,1,2.841,2.883c1.37,1.5,1.894,2,2.82,2.007.67.007-.605-.9-1.649-2.026a32.821,32.821,0,0,0-3.345-3.65,20.7,20.7,0,0,0-3.049-1.289l-.009.014a7.029,7.029,0,0,0-1.051-.425,8.734,8.734,0,0,0-1.7-.374c-.146-.016-.263-.018-.383-.023-.058-.363-.113-.716-.189-1.072.605-.427,1.82-1.289,2.444-1.781a4.1,4.1,0,0,0,.55-.51c.635-.37,1.61-.947,2.338-1.437,1.169-.79,5.74-2.723,6.576-3.569s-.335-.661-1.672,0-4.821,2.268-5.823,2.758a22.873,22.873,0,0,0-2.3,1.407,13.611,13.611,0,0,0-2.023,1.067c-.27.169-.448.284-.448.284v.263c-.1-.358-.21-.684-.321-1.014a15.47,15.47,0,0,0,1.615-2.481c.568-.651,1.684-1.945,2.261-2.735a42.455,42.455,0,0,0,2.82-4.241c.467-.855,1.206-1.612,1.418-2.1.423-.961-.635-.224-1.19.416-.356.411-2.841,3.664-3.509,4.622-.469.67-1.887,2.3-2.7,3.222a1.694,1.694,0,0,0-.423.266,4.326,4.326,0,0,0-.815.972c-.076.118-.143.231-.2.337a3.68,3.68,0,0,0-1.88-1.677,3.614,3.614,0,0,0,.192-1.55c-.166-1.065-.836-.522-.836.157a6.568,6.568,0,0,1-.164,1.2,5.624,5.624,0,0,0-.767-.055,5.147,5.147,0,0,0-1,.088,6.908,6.908,0,0,1-.169-1.233c0-.679-.67-1.222-.836-.157a3.8,3.8,0,0,0,.219,1.647,3.731,3.731,0,0,0-1.649,1.55c-.055-.1-.115-.2-.182-.307a4.386,4.386,0,0,0-.815-.972,1.4,1.4,0,0,0-.684-.328l.012-.011a39.493,39.493,0,0,1-2.834-3.148c-.67-.959-3.155-4.211-3.511-4.622-.554-.64-1.612-1.377-1.19-.416.215.483.952,1.24,1.418,2.1a42.455,42.455,0,0,0,2.82,4.241,23.214,23.214,0,0,0,2.626,2.7,14.726,14.726,0,0,0,1.6,2.481c-.1.3-.2.605-.293.931v-.143s-.175-.115-.448-.284a13.942,13.942,0,0,0-2-1.058,25.6,25.6,0,0,0-2.779-1.795c-1-.49-4.486-2.1-5.823-2.756s-2.509-.845-1.672,0,5.407,2.779,6.576,3.567c.857.58,2.058,1.277,2.642,1.612a3.128,3.128,0,0,0,.7.714c.614.485,1.8,1.326,2.411,1.758-.078.365-.139.725-.2,1.1-.109,0-.213.007-.344.021a8.77,8.77,0,0,0-1.7.374,7.223,7.223,0,0,0-1.039.42l0-.009a20.7,20.7,0,0,0-3.051,1.289,32.576,32.576,0,0,0-3.342,3.65c-1.044,1.127-2.319,2.033-1.652,2.026.929-.009,1.453-.506,2.823-2.007a16.968,16.968,0,0,1,2.841-2.883,14.09,14.09,0,0,1,2.479-.875c.2-.044.4-.1.61-.157l.009,0h0c.372-.106.723-.219.959-.275.423-.1.862-.183,1.238-.247-.037.443-.03.873-.025,1.3A12.78,12.78,0,0,0,413,287.258c-.36.275-.49.483-.462.628-.591.739-1.555,2.067-2.347,2.957-1.063,1.192-2.132,4.643-3.035,6.043s-.751,2.033.48.725S410,292.194,411.365,291Z" transform="translate(-402.964 -267.848)" fill="#f23812"/>
            </g>
          </g>
        </g>
        <g id="Grupo_27859" data-name="Grupo 27859" transform="translate(15.73 15.777)">
          <g id="Grupo_27858" data-name="Grupo 27858">
            <rect id="Rectángulo_5511" data-name="Rectángulo 5511" width="48.137" height="2.429" transform="matrix(0.707, -0.707, 0.707, 0.707, 0, 34.038)" fill="#424242"/>
          </g>
        </g>
      </g>
      <g id="Grupo_27862" data-name="Grupo 27862" transform="translate(0.007 125.651)">
        <g id="Grupo_27861" data-name="Grupo 27861">
          <rect id="Rectángulo_5512" data-name="Rectángulo 5512" width="71.588" height="5.929" fill="#db2305"/>
        </g>
      </g>
      <g id="Grupo_27864" data-name="Grupo 27864" transform="translate(12.643 60.543)">
        <g id="Grupo_27863" data-name="Grupo 27863">
          <rect id="Rectángulo_5513" data-name="Rectángulo 5513" width="45.852" height="3.824" fill="#fbcc02"/>
        </g>
      </g>
    </g>
    <g id="Grupo_27919" data-name="Grupo 27919" transform="translate(629.666 174.015)">
      <g id="Grupo_27908" data-name="Grupo 27908" transform="translate(0)">
        <g id="Grupo_27872" data-name="Grupo 27872" transform="translate(29.309 14.402)">
          <g id="Grupo_27867" data-name="Grupo 27867" transform="translate(44.632)">
            <g id="Grupo_27866" data-name="Grupo 27866">
              <path id="Trazado_56294" data-name="Trazado 56294" d="M422.914,164.033h-8.662a17.1,17.1,0,0,0-17.079,17.079v16.306h5.883V181.112a11.209,11.209,0,0,1,11.2-11.194h8.662Z" transform="translate(-397.172 -164.033)" fill="#f23812"/>
            </g>
          </g>
          <g id="Grupo_27869" data-name="Grupo 27869" transform="translate(65.197)">
            <g id="Grupo_27868" data-name="Grupo 27868">
              <path id="Trazado_56295" data-name="Trazado 56295" d="M433.577,181.112v26.381h5.883V181.112a17.1,17.1,0,0,0-17.079-17.079H406.075v5.886h16.306A11.209,11.209,0,0,1,433.577,181.112Z" transform="translate(-406.075 -164.033)" fill="#f23812"/>
            </g>
          </g>
          <g id="Grupo_27871" data-name="Grupo 27871" transform="translate(0 31.061)">
            <g id="Grupo_27870" data-name="Grupo 27870">
              <path id="Trazado_56296" data-name="Trazado 56296" d="M422.486,177.48V291.388a11.211,11.211,0,0,1-11.2,11.2H377.85v5.883h33.44a17.1,17.1,0,0,0,17.079-17.079V177.48Z" transform="translate(-377.85 -177.48)" fill="#f23812"/>
            </g>
          </g>
        </g>
        <g id="Grupo_27875" data-name="Grupo 27875" transform="translate(122.73 79.8)">
          <g id="Grupo_27874" data-name="Grupo 27874">
            <g id="Grupo_27873" data-name="Grupo 27873">
              <path id="Trazado_56297" data-name="Trazado 56297" d="M433.69,285.452c-.628-.393-15.4-9.662-15.4-20.438V192.345h3.922v72.669c0,8.593,13.4,17.017,13.541,17.1Z" transform="translate(-418.294 -192.345)" fill="#424242"/>
            </g>
          </g>
        </g>
        <g id="Grupo_27877" data-name="Grupo 27877" transform="translate(121.749 57.006)">
          <g id="Grupo_27876" data-name="Grupo 27876">
            <path id="Trazado_56298" data-name="Trazado 56298" d="M417.869,182.477V207.86a2.943,2.943,0,1,0,5.886,0V182.477Z" transform="translate(-417.869 -182.477)" fill="#adadad"/>
          </g>
        </g>
        <g id="Grupo_27879" data-name="Grupo 27879" transform="translate(20.959 28.496)">
          <g id="Grupo_27878" data-name="Grupo 27878">
            <rect id="Rectángulo_5514" data-name="Rectángulo 5514" width="11.65" height="7.637" fill="#f23812"/>
          </g>
        </g>
        <g id="Grupo_27881" data-name="Grupo 27881" transform="translate(119.052 54.772)">
          <g id="Grupo_27880" data-name="Grupo 27880">
            <rect id="Rectángulo_5515" data-name="Rectángulo 5515" width="11.279" height="7.468" fill="#424242"/>
          </g>
        </g>
        <g id="Grupo_27883" data-name="Grupo 27883" transform="translate(12.525 33.189)">
          <g id="Grupo_27882" data-name="Grupo 27882">
            <path id="Trazado_56299" data-name="Trazado 56299" d="M399.2,180.188a9.6,9.6,0,0,0-9.434-8.022h-9.745a9.6,9.6,0,0,0-9.434,8.022Z" transform="translate(-370.584 -172.166)" fill="#333"/>
          </g>
        </g>
        <g id="Grupo_27900" data-name="Grupo 27900" transform="translate(0 40.733)">
          <g id="Grupo_27892" data-name="Grupo 27892" transform="translate(0.074 26.041)">
            <g id="Grupo_27885" data-name="Grupo 27885">
              <g id="Grupo_27884" data-name="Grupo 27884">
                <rect id="Rectángulo_5516" data-name="Rectángulo 5516" width="41.843" height="96.243" fill="#f23812"/>
              </g>
            </g>
            <g id="Grupo_27887" data-name="Grupo 27887" transform="translate(0 96.243)">
              <g id="Grupo_27886" data-name="Grupo 27886">
                <path id="Trazado_56300" data-name="Trazado 56300" d="M365.194,228.371v16.442h41.843V228.371Z" transform="translate(-365.194 -228.371)" fill="#424242"/>
              </g>
            </g>
            <g id="Grupo_27889" data-name="Grupo 27889" transform="translate(41.843)">
              <g id="Grupo_27888" data-name="Grupo 27888">
                <rect id="Rectángulo_5517" data-name="Rectángulo 5517" width="11.808" height="96.243" fill="#db2305"/>
              </g>
            </g>
            <g id="Grupo_27891" data-name="Grupo 27891" transform="translate(41.843 96.243)">
              <g id="Grupo_27890" data-name="Grupo 27890">
                <path id="Trazado_56301" data-name="Trazado 56301" d="M383.309,228.371v16.442h11.808V228.371Z" transform="translate(-383.309 -228.371)" fill="#333"/>
              </g>
            </g>
          </g>
          <g id="Grupo_27899" data-name="Grupo 27899">
            <g id="Grupo_27894" data-name="Grupo 27894">
              <g id="Grupo_27893" data-name="Grupo 27893">
                <path id="Trazado_56302" data-name="Trazado 56302" d="M402.853,175.432H381.27c-18.766,0-15.959,28.079-15.959,28.079h41.768V176A15.568,15.568,0,0,0,402.853,175.432Z" transform="translate(-365.162 -175.432)" fill="#424242"/>
              </g>
            </g>
            <g id="Grupo_27896" data-name="Grupo 27896" transform="translate(53.725 21.507)">
              <g id="Grupo_27895" data-name="Grupo 27895">
                <path id="Trazado_56303" data-name="Trazado 56303" d="M388.42,184.743v5.528A50.991,50.991,0,0,0,388.42,184.743Z" transform="translate(-388.42 -184.743)" fill="#424242"/>
              </g>
            </g>
            <g id="Grupo_27898" data-name="Grupo 27898" transform="translate(41.916 0.564)">
              <g id="Grupo_27897" data-name="Grupo 27897">
                <path id="Trazado_56304" data-name="Trazado 56304" d="M395.116,202.147V196.62c-.386-7.295-2.55-18.368-11.808-20.944v27.515h11.734S395.079,202.806,395.116,202.147Z" transform="translate(-383.308 -175.676)" fill="#333"/>
              </g>
            </g>
          </g>
        </g>
        <g id="Grupo_27902" data-name="Grupo 27902" transform="translate(7.707 73.055)">
          <g id="Grupo_27901" data-name="Grupo 27901">
            <rect id="Rectángulo_5518" data-name="Rectángulo 5518" width="34.211" height="3.286" fill="#fff"/>
          </g>
        </g>
        <g id="Grupo_27904" data-name="Grupo 27904" transform="translate(7.707 81.979)">
          <g id="Grupo_27903" data-name="Grupo 27903">
            <rect id="Rectángulo_5519" data-name="Rectángulo 5519" width="34.211" height="3.287" fill="#fff"/>
          </g>
        </g>
        <g id="Grupo_27907" data-name="Grupo 27907" transform="translate(3.785)">
          <g id="Grupo_27906" data-name="Grupo 27906">
            <g id="Grupo_27905" data-name="Grupo 27905">
              <path id="Trazado_56305" data-name="Trazado 56305" d="M403.283,186.6H376.317a9.527,9.527,0,0,1-9.517-9.517v-9.769a9.527,9.527,0,0,1,9.517-9.519h26.966a9.527,9.527,0,0,1,9.517,9.519v9.769A9.527,9.527,0,0,1,403.283,186.6Zm-26.966-22.919a3.637,3.637,0,0,0-3.634,3.633v9.769a3.639,3.639,0,0,0,3.634,3.633h26.966a3.637,3.637,0,0,0,3.631-3.633v-9.769a3.635,3.635,0,0,0-3.631-3.633Z" transform="translate(-366.8 -157.798)" fill="#f23812"/>
            </g>
          </g>
        </g>
      </g>
      <g id="Grupo_27910" data-name="Grupo 27910" transform="translate(6.135 118.78)">
        <g id="Grupo_27909" data-name="Grupo 27909">
          <ellipse id="Elipse_1283" data-name="Elipse 1283" cx="19.141" cy="19.082" rx="19.141" ry="19.082" fill="#424242"/>
        </g>
      </g>
      <g id="Grupo_27912" data-name="Grupo 27912" transform="translate(13.393 121.873)">
        <g id="Grupo_27911" data-name="Grupo 27911">
          <path id="Trazado_56306" data-name="Trazado 56306" d="M391.026,228.955a6,6,0,0,1-1.926-1.823c.127-.467-.032-.887-.372-.882a5.529,5.529,0,0,0-1.026.224c-.016-.095-.03-.187-.046-.286a22.09,22.09,0,0,0-.693-2.691,1.751,1.751,0,0,0,.531-.356,12.592,12.592,0,0,0,2.072,2.171c1.321,1.016,2.977.8,3.019.15.035-.547-1.545-.547-2.772-1.155a6.022,6.022,0,0,1-1.927-1.823c.127-.467-.032-.887-.372-.882a6.078,6.078,0,0,0-1.141.259c-.388-.966-.7-1.564-.723-1.608l.014-.009a6.941,6.941,0,0,0-.263-1.074,6.194,6.194,0,0,0-.656-1.43,5.265,5.265,0,0,1,.979-.845,5.937,5.937,0,0,0,2.4-2.571,11.553,11.553,0,0,0,.721-3.093c.021-.931-.564-.859-.564,0a6.848,6.848,0,0,1-1.217,3.6,8.3,8.3,0,0,1-3.118,2,2.523,2.523,0,0,0-1.6-.554,2.812,2.812,0,0,0-1.049.192,2.439,2.439,0,0,0-.494.277,8.289,8.289,0,0,1-2.887-1.919,6.847,6.847,0,0,1-1.217-3.6c0-.859-.584-.931-.564,0a11.553,11.553,0,0,0,.721,3.093,5.932,5.932,0,0,0,2.393,2.571,5.161,5.161,0,0,1,.8.651,5.926,5.926,0,0,0-.8,2.7s-.33.631-.739,1.654a6.84,6.84,0,0,0-1.268-.3c-.339,0-.5.416-.37.882a6.033,6.033,0,0,1-1.929,1.823c-1.227.608-2.807.608-2.772,1.155.042.651,1.7.866,3.021-.15a12.66,12.66,0,0,0,2.07-2.171,1.778,1.778,0,0,0,.654.409,22.107,22.107,0,0,0-.675,2.638c-.021.111-.035.215-.055.326a6.312,6.312,0,0,0-1.157-.263c-.34,0-.5.416-.37.882a6.031,6.031,0,0,1-1.929,1.823c-1.227.608-2.8.608-2.77,1.155.039.651,1.7.866,3.019-.15a12.575,12.575,0,0,0,2.07-2.171,1.779,1.779,0,0,0,.654.409,1.357,1.357,0,0,0,.222.062c-.1.788-.159,1.538-.194,2.252l0-.007,0,.039v.018a6.616,6.616,0,0,0-1.22.176c-.321.118-.316.571-.028.959a6.04,6.04,0,0,1-1.141,2.4c-.926,1.009-2.4,1.578-2.167,2.077.273.591,1.9.194,2.76-1.229a12.526,12.526,0,0,0,1.148-2.774,1.686,1.686,0,0,0,.628.141,26.219,26.219,0,0,0,.18,2.663h0a4.967,4.967,0,0,0,.173,1.2c.139.836.3,1.587.462,2.264a8.11,8.11,0,0,0,1.245,2.594,5,5,0,0,0,3.573,2.377v0l.035,0,.067,0,.067,0,.037,0v0c2.61-.139,4.449-3.4,4.818-4.971.173-.739.351-1.571.5-2.5a5.4,5.4,0,0,0,.152-1.1v0c.09-.778.148-1.626.164-2.534a1.734,1.734,0,0,0,.487-.134,12.526,12.526,0,0,0,1.148,2.774c.866,1.423,2.488,1.82,2.763,1.229.229-.5-1.243-1.067-2.169-2.077a6.04,6.04,0,0,1-1.141-2.4c.289-.388.293-.841-.025-.959a5.938,5.938,0,0,0-1.072-.162l.007-.072-.016.039c-.032-.735-.1-1.511-.2-2.321.03-.009.055-.014.085-.025a1.761,1.761,0,0,0,.654-.409,12.6,12.6,0,0,0,2.072,2.171c1.321,1.016,2.977.8,3.019.15C393.833,229.562,392.253,229.562,391.026,228.955Z" transform="translate(-370.96 -210.559)" fill="#f23812"/>
        </g>
      </g>
      <g id="Grupo_27915" data-name="Grupo 27915" transform="translate(4.956 117.156)">
        <g id="Grupo_27914" data-name="Grupo 27914">
          <g id="Grupo_27913" data-name="Grupo 27913">
            <path id="Trazado_56307" data-name="Trazado 56307" d="M387.609,249.123a20.3,20.3,0,1,1,20.3-20.3A20.326,20.326,0,0,1,387.609,249.123Zm0-38.645a18.342,18.342,0,1,0,18.341,18.341A18.362,18.362,0,0,0,387.609,210.478Z" transform="translate(-367.307 -208.517)" fill="#fff"/>
          </g>
        </g>
      </g>
      <g id="Grupo_27918" data-name="Grupo 27918" transform="translate(10.948 123.371)">
        <g id="Grupo_27917" data-name="Grupo 27917">
          <g id="Grupo_27916" data-name="Grupo 27916">
            <rect id="Rectángulo_5520" data-name="Rectángulo 5520" width="38.635" height="1.961" transform="translate(0 27.09) rotate(-44.522)" fill="#fff"/>
          </g>
        </g>
      </g>
    </g>
    <g id="Grupo_27973" data-name="Grupo 27973" transform="translate(202.452 358.201)">
      <g id="Grupo_27921" data-name="Grupo 27921" transform="translate(32.351 8.01)">
        <g id="Grupo_27920" data-name="Grupo 27920">
          <path id="Trazado_56308" data-name="Trazado 56308" d="M226.673,241.5c-18.514,3.305-26.786-.411-29.936,18.992s-4.853,38.37,4.273,50.021,19.341,19.341,32.72,19.2,22.11-3.707,28.412-14.867,10.5-30.823,11.268-47.607S244.3,238.353,226.673,241.5Z" transform="translate(-194.217 -241.003)" fill="#c9c9c9"/>
        </g>
      </g>
      <g id="Grupo_27923" data-name="Grupo 27923" transform="translate(44.916 45.118)">
        <g id="Grupo_27922" data-name="Grupo 27922">
          <path id="Trazado_56309" data-name="Trazado 56309" d="M199.657,295.275s6.519-25.06,14.629-33.2c7.62-7.653,21.75-7.066,27.77,5.481,6.216,12.947,12.5,31.181,12.5,31.181Z" transform="translate(-199.657 -257.068)" fill="#adadad"/>
        </g>
      </g>
      <g id="Grupo_27925" data-name="Grupo 27925" transform="translate(29.423 11.265)">
        <g id="Grupo_27924" data-name="Grupo 27924">
          <path id="Trazado_56310" data-name="Trazado 56310" d="M266.98,248.925c-6.907-8.207-25.954-6.595-31.551-5.92-5.6-.674-24.647-2.287-31.551,5.92-8.135,9.667-14.726,34.579-8.408,46.847s21.408,29.042,21.408,29.042l1.788-8.42s-12-7.8-13.444-21.551-5.324-35.489,5.578-42.758c3.225-2.151,9.427-3.005,14.987-3.312,3.1-.173,15.62-.173,18.368-.046,5.779.263,12.5,1.09,15.9,3.359,10.9,7.269,7.017,29,5.576,42.758s-13.441,21.551-13.441,21.551l1.788,8.42s15.088-16.774,21.406-29.042S275.115,258.592,266.98,248.925Z" transform="translate(-192.95 -242.413)" fill="#333"/>
        </g>
      </g>
      <g id="Grupo_27927" data-name="Grupo 27927" transform="translate(35.597)">
        <g id="Grupo_27926" data-name="Grupo 27926">
          <path id="Trazado_56311" data-name="Trazado 56311" d="M206.549,238.846c-7.842,2.885-10.926,6.676-10.926,6.676l4.814,6.5,21.789-6.5.06-7.484C222.138,238.063,213.021,236.464,206.549,238.846Z" transform="translate(-195.623 -237.536)" fill="#333"/>
        </g>
      </g>
      <g id="Grupo_27929" data-name="Grupo 27929" transform="translate(80.629)">
        <g id="Grupo_27928" data-name="Grupo 27928">
          <path id="Trazado_56312" data-name="Trazado 56312" d="M230.858,238.846c7.842,2.885,10.923,6.676,10.923,6.676l-4.812,6.5-21.789-6.5-.062-7.484C215.268,238.063,224.383,236.464,230.858,238.846Z" transform="translate(-215.118 -237.536)" fill="#333"/>
        </g>
      </g>
      <g id="Grupo_27932" data-name="Grupo 27932" transform="translate(25.922 3.929)">
        <g id="Grupo_27931" data-name="Grupo 27931">
          <g id="Grupo_27930" data-name="Grupo 27930">
            <path id="Trazado_56313" data-name="Trazado 56313" d="M246.6,239.237H226.858c-21.087,0-36.145,10.824-35.4,29.493s-.24,39.693,9.561,52.647,24.774,21.133,35.009,21.214c10.533.081,26.61-8.26,36.409-21.214S281.251,287.4,282,268.73,267.69,239.237,246.6,239.237Zm21.752,69.239c-5.033,12.12-23.542,22.886-23.542,22.886l-7.438.6v.062l-.386-.032-.386.032v-.062l-7.436-.6s-18.509-10.766-23.542-22.886-4.326-42.119-1.418-47.653c5.957-11.337,18.368-11.027,32.782-11.023s26.825-.314,32.782,11.023C272.682,266.358,273.386,296.356,268.355,308.476Z" transform="translate(-191.434 -239.237)" fill="#424242"/>
          </g>
        </g>
      </g>
      <g id="Grupo_27934" data-name="Grupo 27934" transform="translate(50.9 52.377)">
        <g id="Grupo_27933" data-name="Grupo 27933">
          <path id="Trazado_56314" data-name="Trazado 56314" d="M239.165,277.609c-3.363-5.992-5.042-17.4-16.629-17.4s-12.688,11.406-16.049,17.4-7.563,18.736,0,26.019a23.441,23.441,0,0,0,16.049,6.87,24.413,24.413,0,0,0,16.629-6.87C246.727,296.345,242.526,283.6,239.165,277.609Z" transform="translate(-202.248 -260.211)" fill="#fbcc02"/>
        </g>
      </g>
      <g id="Grupo_27936" data-name="Grupo 27936" transform="translate(55.139 72.783)">
        <g id="Grupo_27935" data-name="Grupo 27935">
          <ellipse id="Elipse_1284" data-name="Elipse 1284" cx="16.088" cy="15.97" rx="16.088" ry="15.97" fill="#f9ae06"/>
        </g>
      </g>
      <g id="Grupo_27938" data-name="Grupo 27938" transform="translate(9.592 75.923)">
        <g id="Grupo_27937" data-name="Grupo 27937">
          <path id="Trazado_56315" data-name="Trazado 56315" d="M184.365,276.975l6.285-6.571,30.1,35.089L208.891,312.4Z" transform="translate(-184.365 -270.404)" fill="#f9ae06"/>
        </g>
      </g>
      <g id="Grupo_27954" data-name="Grupo 27954" transform="translate(0 72.782)">
        <g id="Grupo_27941" data-name="Grupo 27941" transform="translate(9.153)">
          <g id="Grupo_27940" data-name="Grupo 27940">
            <g id="Grupo_27939" data-name="Grupo 27939">
              <path id="Trazado_56316" data-name="Trazado 56316" d="M219.937,279.588c7.639,10.311,7.071,23.958,1.06,27.686-8.882,5.511-23.833,5.158-31.472-5.153s-7.024-23.713,1.374-29.936S212.3,269.276,219.937,279.588Z" transform="translate(-184.174 -269.045)" fill="#f9ae06"/>
            </g>
          </g>
        </g>
        <g id="Grupo_27944" data-name="Grupo 27944" transform="translate(2.246 7.627)">
          <g id="Grupo_27943" data-name="Grupo 27943">
            <g id="Grupo_27942" data-name="Grupo 27942">
              <path id="Trazado_56317" data-name="Trazado 56317" d="M214.33,282.116c7.08,9.556,6.509,21.979-1.275,27.744s-19.833,2.7-26.913-6.86-6.509-21.976,1.275-27.744S207.25,272.56,214.33,282.116Z" transform="translate(-181.185 -272.347)" fill="#fbcc02"/>
            </g>
          </g>
        </g>
        <g id="Grupo_27947" data-name="Grupo 27947" transform="translate(0 5.882)">
          <g id="Grupo_27946" data-name="Grupo 27946">
            <g id="Grupo_27945" data-name="Grupo 27945">
              <ellipse id="Elipse_1285" data-name="Elipse 1285" cx="13.881" cy="17.042" rx="13.881" ry="17.042" transform="translate(0 16.527) rotate(-36.535)" fill="#ffe36c"/>
            </g>
          </g>
        </g>
        <g id="Grupo_27950" data-name="Grupo 27950" transform="translate(10.652 16.578)">
          <g id="Grupo_27949" data-name="Grupo 27949">
            <g id="Grupo_27948" data-name="Grupo 27948">
              <path id="Trazado_56318" data-name="Trazado 56318" d="M197.436,298.732a12.675,12.675,0,0,1-9.882-5.387,13.291,13.291,0,0,1-2.719-8.447,8.693,8.693,0,0,1,11.258-8.341,13.294,13.294,0,0,1,7.288,5.061h0a13.284,13.284,0,0,1,2.721,8.447,9.007,9.007,0,0,1-3.518,7.022A8.556,8.556,0,0,1,197.436,298.732Zm-3.929-21.295a7.353,7.353,0,0,0-4.43,1.416,7.813,7.813,0,0,0-3.028,6.1,12.086,12.086,0,0,0,2.481,7.669c3.527,4.761,9.512,6.322,13.333,3.49a7.83,7.83,0,0,0,3.031-6.1,12.1,12.1,0,0,0-2.483-7.669h0a12.084,12.084,0,0,0-6.616-4.608A9.224,9.224,0,0,0,193.507,277.437Z" transform="translate(-184.824 -276.222)" fill="#fff"/>
            </g>
          </g>
        </g>
        <g id="Grupo_27953" data-name="Grupo 27953" transform="translate(27.783 5.352)">
          <g id="Grupo_27952" data-name="Grupo 27952">
            <g id="Grupo_27951" data-name="Grupo 27951">
              <path id="Trazado_56319" data-name="Trazado 56319" d="M192.24,271.363a32.348,32.348,0,0,1,12.566,12.746c3.188,5.89,5.239,16.008,0,23.411,2.432-1.411,5.627-3.28,5.627-3.28a23.262,23.262,0,0,0-1.527-22.258C202.122,271.06,192.24,271.363,192.24,271.363Z" transform="translate(-192.24 -271.362)" fill="#424242"/>
            </g>
          </g>
        </g>
      </g>
      <g id="Grupo_27972" data-name="Grupo 27972" transform="translate(92.355 72.782)">
        <g id="Grupo_27957" data-name="Grupo 27957">
          <g id="Grupo_27956" data-name="Grupo 27956">
            <g id="Grupo_27955" data-name="Grupo 27955">
              <path id="Trazado_56320" data-name="Trazado 56320" d="M225.844,279.588c-7.639,10.311-7.068,23.958-1.06,27.686,8.882,5.511,23.833,5.158,31.475-5.153s7.022-23.713-1.374-29.936S233.482,269.276,225.844,279.588Z" transform="translate(-220.194 -269.045)" fill="#f9ae06"/>
            </g>
          </g>
        </g>
        <g id="Grupo_27959" data-name="Grupo 27959" transform="translate(4.589 3.141)">
          <g id="Grupo_27958" data-name="Grupo 27958">
            <path id="Trazado_56321" data-name="Trazado 56321" d="M259.679,277.8l-7.4-7.4-30.1,35.089,11.858,6.912Z" transform="translate(-222.181 -270.404)" fill="#f9ae06"/>
          </g>
        </g>
        <g id="Grupo_27962" data-name="Grupo 27962" transform="translate(10.215 7.627)">
          <g id="Grupo_27961" data-name="Grupo 27961">
            <g id="Grupo_27960" data-name="Grupo 27960">
              <path id="Trazado_56322" data-name="Trazado 56322" d="M229.575,282.116c-7.08,9.556-6.509,21.979,1.275,27.744s19.833,2.7,26.913-6.86,6.509-21.976-1.273-27.744S236.657,272.56,229.575,282.116Z" transform="translate(-224.617 -272.347)" fill="#fbcc02"/>
            </g>
          </g>
        </g>
        <g id="Grupo_27965" data-name="Grupo 27965" transform="translate(14.191 11.843)">
          <g id="Grupo_27964" data-name="Grupo 27964">
            <g id="Grupo_27963" data-name="Grupo 27963">
              <path id="Trazado_56323" data-name="Trazado 56323" d="M230.261,281.9c-5.6,7.563-5.151,17.393,1.009,21.956s15.693,2.134,21.3-5.428,5.151-17.391-1.007-21.956S235.864,274.341,230.261,281.9Z" transform="translate(-226.338 -274.172)" fill="#ffe36c"/>
            </g>
          </g>
        </g>
        <g id="Grupo_27968" data-name="Grupo 27968" transform="translate(18.621 16.578)">
          <g id="Grupo_27967" data-name="Grupo 27967">
            <g id="Grupo_27966" data-name="Grupo 27966">
              <path id="Trazado_56324" data-name="Trazado 56324" d="M236.935,298.732a12.671,12.671,0,0,0,9.882-5.387,13.307,13.307,0,0,0,2.721-8.447,8.7,8.7,0,0,0-11.261-8.341,13.294,13.294,0,0,0-7.288,5.061h0a13.284,13.284,0,0,0-2.721,8.447,9.021,9.021,0,0,0,3.518,7.022A8.556,8.556,0,0,0,236.935,298.732Zm3.929-21.295a7.353,7.353,0,0,1,4.43,1.416,7.822,7.822,0,0,1,3.031,6.1,12.1,12.1,0,0,1-2.483,7.669c-3.527,4.761-9.512,6.322-13.333,3.49a7.821,7.821,0,0,1-3.028-6.1,12.088,12.088,0,0,1,2.483-7.669h0a12.07,12.07,0,0,1,6.613-4.608A9.224,9.224,0,0,1,240.864,277.437Z" transform="translate(-228.256 -276.222)" fill="#fff"/>
            </g>
          </g>
        </g>
        <g id="Grupo_27971" data-name="Grupo 27971" transform="translate(2.457 5.352)">
          <g id="Grupo_27970" data-name="Grupo 27970">
            <g id="Grupo_27969" data-name="Grupo 27969">
              <path id="Trazado_56325" data-name="Trazado 56325" d="M241.583,271.363a32.348,32.348,0,0,0-12.566,12.746c-3.188,5.89-5.239,16.008,0,23.411-2.43-1.411-5.627-3.28-5.627-3.28a23.262,23.262,0,0,1,1.527-22.258C231.7,271.06,241.583,271.363,241.583,271.363Z" transform="translate(-221.258 -271.362)" fill="#424242"/>
            </g>
          </g>
        </g>
      </g>
    </g>
    <g id="Grupo_28016" data-name="Grupo 28016" transform="translate(163.234 184.015)">
      <g id="Grupo_27975" data-name="Grupo 27975" transform="translate(13.967 43.88)">
        <g id="Grupo_27974" data-name="Grupo 27974">
          <rect id="Rectángulo_5521" data-name="Rectángulo 5521" width="18.358" height="12.609" fill="#f23812"/>
        </g>
      </g>
      <g id="Grupo_27984" data-name="Grupo 27984" transform="translate(0 36.794)">
        <g id="Grupo_27977" data-name="Grupo 27977" transform="translate(0 9.644)">
          <g id="Grupo_27976" data-name="Grupo 27976">
            <path id="Trazado_56326" data-name="Trazado 56326" d="M177.2,182.231l-13.967,1.231v2.514H177.2Z" transform="translate(-163.234 -182.231)" fill="#c9c9c9"/>
          </g>
        </g>
        <g id="Grupo_27979" data-name="Grupo 27979" transform="translate(23.146)">
          <g id="Grupo_27978" data-name="Grupo 27978">
            <path id="Trazado_56327" data-name="Trazado 56327" d="M346.508,183.879a5.84,5.84,0,0,0-5.823-5.823H179.077a5.84,5.84,0,0,0-5.823,5.823v7.567H346.508Z" transform="translate(-173.254 -178.056)" fill="#c9c9c9"/>
          </g>
        </g>
        <g id="Grupo_27981" data-name="Grupo 27981" transform="translate(0 13.39)">
          <g id="Grupo_27980" data-name="Grupo 27980">
            <path id="Trazado_56328" data-name="Trazado 56328" d="M177.2,187.6v-3.746H163.234v2.761Z" transform="translate(-163.234 -183.853)" fill="#adadad"/>
          </g>
        </g>
        <g id="Grupo_27983" data-name="Grupo 27983" transform="translate(23.146 13.39)">
          <g id="Grupo_27982" data-name="Grupo 27982">
            <path id="Trazado_56329" data-name="Trazado 56329" d="M179.077,197.241H340.684a5.839,5.839,0,0,0,5.823-5.823v-7.565H173.254v7.565A5.839,5.839,0,0,0,179.077,197.241Z" transform="translate(-173.254 -183.853)" fill="#adadad"/>
          </g>
        </g>
      </g>
      <g id="Grupo_27986" data-name="Grupo 27986" transform="translate(78.954 32.625)">
        <g id="Grupo_27985" data-name="Grupo 27985">
          <rect id="Rectángulo_5522" data-name="Rectángulo 5522" width="39.837" height="35.119" fill="#424242"/>
        </g>
      </g>
      <g id="Grupo_27991" data-name="Grupo 27991" transform="translate(74.811 56.447)">
        <g id="Grupo_27988" data-name="Grupo 27988">
          <g id="Grupo_27987" data-name="Grupo 27987">
            <path id="Trazado_56330" data-name="Trazado 56330" d="M209.876,247.656c9.392-11.335,17.77-22.672,20.708-35.3,1.885-8.112,3.626-19.02,4.634-25.79h-7.56s2.927,24.979-25.778,61.727c-11.757,15.051-3.878,20.611-.963,23.067a80.614,80.614,0,0,0,6.666-6.214C205.574,261.446,203.821,254.965,209.876,247.656Z" transform="translate(-195.621 -186.564)" fill="#424242"/>
          </g>
        </g>
        <g id="Grupo_27990" data-name="Grupo 27990" transform="translate(10.081)">
          <g id="Grupo_27989" data-name="Grupo 27989">
            <path id="Trazado_56331" data-name="Trazado 56331" d="M237.4,186.564h-7.9c-1.007,6.77-2.749,17.678-4.634,25.79-2.938,12.631-11.316,23.967-20.708,35.3-6.054,7.309-4.3,13.79-2.294,17.488,10.122-10.429,21.3-25.984,25.776-36.184C236.71,208.268,237.4,186.564,237.4,186.564Z" transform="translate(-199.985 -186.564)" fill="#545454"/>
          </g>
        </g>
      </g>
      <g id="Grupo_27993" data-name="Grupo 27993" transform="translate(133.236 56.234)">
        <g id="Grupo_27992" data-name="Grupo 27992">
          <path id="Trazado_56332" data-name="Trazado 56332" d="M221.808,186.726s1.622,18.447,2.268,36.988c1.411,40.419-3.162,56.239-3.162,56.239s10.288-2.407,12.82-8c3.832-8.475,6.468-19.02,6.468-43.179a319.261,319.261,0,0,0-2.7-42.3Z" transform="translate(-220.914 -186.472)" fill="#424242"/>
        </g>
      </g>
      <g id="Grupo_27995" data-name="Grupo 27995" transform="translate(172.788 32.625)">
        <g id="Grupo_27994" data-name="Grupo 27994">
          <rect id="Rectángulo_5523" data-name="Rectángulo 5523" width="14.575" height="35.119" fill="#424242"/>
        </g>
      </g>
      <g id="Grupo_28000" data-name="Grupo 28000" transform="translate(77.606 5.153)">
        <g id="Grupo_27997" data-name="Grupo 27997">
          <g id="Grupo_27996" data-name="Grupo 27996">
            <path id="Trazado_56333" data-name="Trazado 56333" d="M275.009,164.358H201.164a4.348,4.348,0,0,0-4.333,4.336h78.178Z" transform="translate(-196.831 -164.358)" fill="#f23812"/>
          </g>
        </g>
        <g id="Grupo_27999" data-name="Grupo 27999" transform="translate(0 4.336)">
          <g id="Grupo_27998" data-name="Grupo 27998">
            <path id="Trazado_56334" data-name="Trazado 56334" d="M201.164,170.568h73.845v-4.333H196.831A4.347,4.347,0,0,0,201.164,170.568Z" transform="translate(-196.831 -166.235)" fill="#db2305"/>
          </g>
        </g>
      </g>
      <g id="Grupo_28002" data-name="Grupo 28002" transform="translate(112.651)">
        <g id="Grupo_28001" data-name="Grupo 28001">
          <rect id="Rectángulo_5524" data-name="Rectángulo 5524" width="19.577" height="27.644" fill="#424242"/>
        </g>
      </g>
      <g id="Grupo_28004" data-name="Grupo 28004" transform="translate(84.37 37.048)">
        <g id="Grupo_28003" data-name="Grupo 28003">
          <path id="Trazado_56335" data-name="Trazado 56335" d="M221.865,181.081H201.217a1.462,1.462,0,0,1-1.458-1.458h0a1.462,1.462,0,0,1,1.458-1.458h20.648a1.462,1.462,0,0,1,1.458,1.458h0A1.462,1.462,0,0,1,221.865,181.081Z" transform="translate(-199.759 -178.166)" fill="#545454"/>
        </g>
      </g>
      <g id="Grupo_28006" data-name="Grupo 28006" transform="translate(84.37 44.821)">
        <g id="Grupo_28005" data-name="Grupo 28005">
          <path id="Trazado_56336" data-name="Trazado 56336" d="M221.865,184.446H201.217a1.462,1.462,0,0,1-1.458-1.458h0a1.462,1.462,0,0,1,1.458-1.458h20.648a1.462,1.462,0,0,1,1.458,1.458h0A1.462,1.462,0,0,1,221.865,184.446Z" transform="translate(-199.759 -181.531)" fill="#545454"/>
        </g>
      </g>
      <g id="Grupo_28008" data-name="Grupo 28008" transform="translate(84.37 52.633)">
        <g id="Grupo_28007" data-name="Grupo 28007">
          <path id="Trazado_56337" data-name="Trazado 56337" d="M221.865,187.828H201.217a1.462,1.462,0,0,1-1.458-1.458h0a1.462,1.462,0,0,1,1.458-1.458h20.648a1.462,1.462,0,0,1,1.458,1.458h0A1.462,1.462,0,0,1,221.865,187.828Z" transform="translate(-199.759 -184.913)" fill="#545454"/>
        </g>
      </g>
      <g id="Grupo_28010" data-name="Grupo 28010" transform="translate(84.37 60.406)">
        <g id="Grupo_28009" data-name="Grupo 28009">
          <path id="Trazado_56338" data-name="Trazado 56338" d="M221.865,191.193H201.217a1.462,1.462,0,0,1-1.458-1.458h0a1.462,1.462,0,0,1,1.458-1.458h20.648a1.462,1.462,0,0,1,1.458,1.458h0A1.462,1.462,0,0,1,221.865,191.193Z" transform="translate(-199.759 -188.278)" fill="#545454"/>
        </g>
      </g>
      <g id="Grupo_28015" data-name="Grupo 28015" transform="translate(98.873 27.644)">
        <g id="Grupo_28012" data-name="Grupo 28012" transform="translate(0 0.001)">
          <g id="Grupo_28011" data-name="Grupo 28011">
            <path id="Trazado_56339" data-name="Trazado 56339" d="M259.688,177.994H206.11v-3.9c-.162.014,0,45.08,0,45.08h70.443Z" transform="translate(-206.038 -174.095)" fill="#333"/>
          </g>
        </g>
        <g id="Grupo_28014" data-name="Grupo 28014" transform="translate(0.071)">
          <g id="Grupo_28013" data-name="Grupo 28013">
            <path id="Trazado_56340" data-name="Trazado 56340" d="M259.649,178l-1.6-3.9H206.069V178Z" transform="translate(-206.069 -174.095)" fill="#6d6d6d"/>
          </g>
        </g>
      </g>
    </g>
    <g id="Grupo_28108" data-name="Grupo 28108" transform="translate(381.788 177.368)">
      <g id="Grupo_28017" data-name="Grupo 28017">
        <path id="Trazado_56341" data-name="Trazado 56341" d="M363.273,159.264c-21.514.363-49.917,14.813-46.475,60.743,3,39.987,27.017,47.635,24.212,52.476s-12.778,10.385-21.059,12.194-29.109,14.661-39.1,20c-16.135,8.627-25.989,64.3-22.187,92.477,2.783,20.634,13.116,32.7,33.08,40.1s66.435-4.089,80.528-6.851c3.146,1.275,42.29,15.183,64.511,15.331,24.446.164,38.82-27.155,39.123-57.008.383-37.744-13.721-74.864-28.756-87.755-5.25-4.5-18.669-10.6-26.464-16.523-11.817-8.983-17.313-17.867-14.023-22.535,5.456-7.747,14.594-14.88,15.093-43.336C422.455,178.677,401.017,158.631,363.273,159.264Z" transform="translate(-257.85 -159.25)" fill="#c9c9c9"/>
      </g>
      <g id="Grupo_28018" data-name="Grupo 28018" transform="translate(83.01 102.724)">
        <path id="Trazado_56342" data-name="Trazado 56342" d="M293.787,205.594a181.6,181.6,0,0,0,13.014,23.8c7,10.316,13.007,30.985,13.007,30.985s6.147-20.835,11.069-30.285c3.615-6.934,14.06-26.372,14.06-26.372Z" transform="translate(-293.787 -203.721)" fill="#adadad"/>
      </g>
      <g id="Grupo_28019" data-name="Grupo 28019" transform="translate(73.356 19.776)">
        <path id="Trazado_56343" data-name="Trazado 56343" d="M289.645,191.187c-.624-1.044,6.281-23.965,35.637-23.365s34.838,13.009,39.13,25.527S289.645,191.187,289.645,191.187Z" transform="translate(-289.608 -167.811)" fill="#adadad"/>
      </g>
      <g id="Grupo_28085" data-name="Grupo 28085" transform="translate(49.476 28.073)">
        <g id="Grupo_28021" data-name="Grupo 28021" transform="translate(26.495 3.591)">
          <g id="Grupo_28020" data-name="Grupo 28020">
            <path id="Trazado_56344" data-name="Trazado 56344" d="M319.3,173.4c-16.292,2.91-23.573-.36-26.344,16.714s-4.271,33.768,3.76,44.022,17.022,17.022,28.8,16.9,19.459-3.264,25-13.083,9.24-27.127,9.916-41.9S334.814,170.626,319.3,173.4Z" transform="translate(-290.739 -172.957)" fill="#ffc397"/>
          </g>
        </g>
        <g id="Grupo_28022" data-name="Grupo 28022" transform="translate(69.511 18.9)">
          <path id="Trazado_56345" data-name="Trazado 56345" d="M309.362,184.454s.647,7.736,1,8.909a8.108,8.108,0,0,0,2.358.169s5.516-2.67,5.62-3.486,1-4.83,4.266-5.389c3.932-.674,4.911-2.37,4.911-2.37s-2.846-3.684-9.461-2.448S309.362,184.454,309.362,184.454Z" transform="translate(-309.362 -179.585)" fill="#f4aa78"/>
        </g>
        <g id="Grupo_28023" data-name="Grupo 28023" transform="translate(35.722 18.9)">
          <path id="Trazado_56346" data-name="Trazado 56346" d="M312.892,184.454s-.647,7.736-1,8.909a8.108,8.108,0,0,1-2.358.169s-5.516-2.67-5.62-3.486-1-4.83-4.264-5.389c-3.931-.674-4.913-2.37-4.913-2.37s2.846-3.684,9.461-2.448S312.892,184.454,312.892,184.454Z" transform="translate(-294.734 -179.585)" fill="#f4aa78"/>
        </g>
        <g id="Grupo_28029" data-name="Grupo 28029" transform="translate(70.515 27.532)">
          <g id="Grupo_28024" data-name="Grupo 28024" transform="translate(0.351 0.806)">
            <path id="Trazado_56347" data-name="Trazado 56347" d="M309.952,188.226a6.2,6.2,0,0,1,2.525-3.13c1.816-1.009,7.974-2.522,10.7-.2s2.222,2.321,2.222,2.321a8.616,8.616,0,0,1-7.761,4.366C311.985,191.582,309.853,189.235,309.952,188.226Z" transform="translate(-309.949 -183.671)" fill="#fff"/>
          </g>
          <g id="Grupo_28025" data-name="Grupo 28025" transform="translate(3.686 0.718)">
            <path id="Trazado_56348" data-name="Trazado 56348" d="M318.206,187.04a3.407,3.407,0,1,1-3.407-3.407A3.407,3.407,0,0,1,318.206,187.04Z" transform="translate(-311.392 -183.633)" fill="#b25336"/>
          </g>
          <g id="Grupo_28026" data-name="Grupo 28026" transform="translate(5.125 2.446)">
            <path id="Trazado_56349" data-name="Trazado 56349" d="M315.5,186.123a1.742,1.742,0,1,1-1.742-1.742A1.743,1.743,0,0,1,315.5,186.123Z" transform="translate(-312.015 -184.381)" fill="#424242"/>
          </g>
          <g id="Grupo_28027" data-name="Grupo 28027">
            <path id="Trazado_56350" data-name="Trazado 56350" d="M326.323,187.045c-1.725-3-5.581-4.054-9.055-3.636-2.7.323-5.939,1.46-7.225,4.5-.5,1.173-.155,1.4.261.605,2.589-4.943,11.483-5.906,14.569-.822a7.564,7.564,0,0,1-3.25,3.359c-.441.252-.226.725.455.455a10.057,10.057,0,0,0,3.784-3.144C326.2,187.875,326.551,187.443,326.323,187.045Z" transform="translate(-309.796 -183.322)" fill="#3f3f3f"/>
          </g>
          <g id="Grupo_28028" data-name="Grupo 28028" transform="translate(6.815 1.829)">
            <path id="Trazado_56351" data-name="Trazado 56351" d="M315.068,185.274a1.161,1.161,0,1,1-1.16-1.16A1.159,1.159,0,0,1,315.068,185.274Z" transform="translate(-312.747 -184.114)" fill="#fff"/>
          </g>
        </g>
        <g id="Grupo_28030" data-name="Grupo 28030" transform="translate(68.837 17.241)">
          <path id="Trazado_56352" data-name="Trazado 56352" d="M328.524,182.4a14.19,14.19,0,0,0-11.4-3.37,10.011,10.011,0,0,0-5.458,2.728,5.167,5.167,0,0,0-1.183,1.936,4.156,4.156,0,0,0-1.1-1.693,9.625,9.625,0,0,0-.2,3.906c.122.785.765,1.263,1.319.737,2.841-2.7,8.269-7.521,16.779-2.518C328.644,184.933,329.607,183.489,328.524,182.4Z" transform="translate(-309.07 -178.867)" fill="#424242"/>
        </g>
        <g id="Grupo_28036" data-name="Grupo 28036" transform="translate(36.18 27.532)">
          <g id="Grupo_28031" data-name="Grupo 28031" transform="translate(0.762 0.806)">
            <path id="Trazado_56353" data-name="Trazado 56353" d="M310.743,188.226a6.2,6.2,0,0,0-2.525-3.13c-1.816-1.009-7.974-2.522-10.7-.2s-2.22,2.321-2.22,2.321a8.611,8.611,0,0,0,7.759,4.366C308.71,191.582,310.845,189.235,310.743,188.226Z" transform="translate(-295.262 -183.671)" fill="#fff"/>
          </g>
          <g id="Grupo_28032" data-name="Grupo 28032" transform="translate(6.098 0.718)">
            <path id="Trazado_56354" data-name="Trazado 56354" d="M297.572,187.04a3.407,3.407,0,1,0,3.407-3.407A3.407,3.407,0,0,0,297.572,187.04Z" transform="translate(-297.572 -183.633)" fill="#b25336"/>
          </g>
          <g id="Grupo_28033" data-name="Grupo 28033" transform="translate(7.99 2.446)">
            <path id="Trazado_56355" data-name="Trazado 56355" d="M298.391,186.123a1.742,1.742,0,1,0,1.742-1.742A1.743,1.743,0,0,0,298.391,186.123Z" transform="translate(-298.391 -184.381)" fill="#424242"/>
          </g>
          <g id="Grupo_28034" data-name="Grupo 28034">
            <path id="Trazado_56356" data-name="Trazado 56356" d="M295.006,187.045c1.725-3,5.578-4.054,9.052-3.636,2.7.323,5.939,1.46,7.228,4.5.494,1.173.155,1.4-.263.605-2.589-4.943-11.483-5.906-14.566-.822a7.555,7.555,0,0,0,3.248,3.359c.441.252.229.725-.453.455a10.08,10.08,0,0,1-3.786-3.144C295.124,187.875,294.777,187.443,295.006,187.045Z" transform="translate(-294.932 -183.322)" fill="#3f3f3f"/>
          </g>
          <g id="Grupo_28035" data-name="Grupo 28035" transform="translate(7.461 1.829)">
            <path id="Trazado_56357" data-name="Trazado 56357" d="M298.162,185.274a1.161,1.161,0,1,0,1.162-1.16A1.159,1.159,0,0,0,298.162,185.274Z" transform="translate(-298.162 -184.114)" fill="#fff"/>
          </g>
        </g>
        <g id="Grupo_28037" data-name="Grupo 28037" transform="translate(34.537 17.241)">
          <path id="Trazado_56358" data-name="Trazado 56358" d="M294.688,182.4a14.183,14.183,0,0,1,11.4-3.37,10,10,0,0,1,5.458,2.728,5.138,5.138,0,0,1,1.183,1.936,4.155,4.155,0,0,1,1.1-1.693,9.666,9.666,0,0,1,.2,3.906c-.122.785-.767,1.263-1.321.737-2.841-2.7-8.269-7.521-16.779-2.518C294.568,184.933,293.6,183.489,294.688,182.4Z" transform="translate(-294.221 -178.867)" fill="#424242"/>
        </g>
        <g id="Grupo_28039" data-name="Grupo 28039" transform="translate(37.552 36.249)">
          <g id="Grupo_28038" data-name="Grupo 28038">
            <path id="Trazado_56359" data-name="Trazado 56359" d="M295.526,220.721s5.735-22.055,12.873-29.22c6.708-6.733,19.142-6.216,24.441,4.825,5.47,11.395,11,27.442,11,27.442Z" transform="translate(-295.526 -187.096)" fill="#424242"/>
          </g>
        </g>
        <g id="Grupo_28041" data-name="Grupo 28041" transform="translate(23.918 6.455)">
          <g id="Grupo_28040" data-name="Grupo 28040">
            <path id="Trazado_56360" data-name="Trazado 56360" d="M354.775,179.929c-6.077-7.223-22.843-5.8-27.767-5.211-4.927-.594-21.69-2.012-27.767,5.211-7.161,8.507-12.958,30.433-7.4,41.229s18.839,25.559,18.839,25.559l1.573-7.41s-10.561-6.86-11.829-18.967-4.687-31.234,4.906-37.63c2.839-1.892,8.3-2.645,13.192-2.915,2.726-.152,13.744-.152,16.165-.042,5.086.233,11,.961,13.993,2.957,9.6,6.4,6.177,25.524,4.909,37.63s-11.829,18.967-11.829,18.967l1.573,7.41s13.28-14.763,18.839-25.559S361.934,188.437,354.775,179.929Z" transform="translate(-289.624 -174.198)" fill="#333"/>
          </g>
        </g>
        <g id="Grupo_28044" data-name="Grupo 28044" transform="translate(20.837)">
          <g id="Grupo_28043" data-name="Grupo 28043">
            <g id="Grupo_28042" data-name="Grupo 28042">
              <path id="Trazado_56361" data-name="Trazado 56361" d="M336.842,171.4H319.465c-18.558,0-31.81,9.526-31.151,25.956s-.212,34.933,8.413,46.332,21.805,18.6,30.809,18.671c9.272.072,23.42-7.269,32.045-18.671s7.754-29.9,8.413-46.332S355.4,171.4,336.842,171.4Zm19.142,60.935c-4.428,10.667-20.717,20.142-20.717,20.142l-6.546.531v.055l-.34-.03-.34.03v-.055l-6.544-.531s-16.289-9.475-20.72-20.142-3.807-37.067-1.247-41.938c5.243-9.976,16.165-9.706,28.851-9.7s23.607-.277,28.851,9.7C359.793,195.271,360.414,221.671,355.984,232.338Z" transform="translate(-288.29 -171.403)" fill="#424242"/>
            </g>
          </g>
        </g>
        <g id="Grupo_28046" data-name="Grupo 28046" transform="translate(42.819 42.636)">
          <g id="Grupo_28045" data-name="Grupo 28045">
            <path id="Trazado_56362" data-name="Trazado 56362" d="M330.3,205.173c-2.959-5.271-4.44-15.312-14.635-15.312S304.5,199.9,301.536,205.173s-6.655,16.49,0,22.9a20.625,20.625,0,0,0,14.125,6.045,21.484,21.484,0,0,0,14.635-6.045C336.951,221.664,333.253,210.447,330.3,205.173Z" transform="translate(-297.806 -189.861)" fill="#fbcc02"/>
          </g>
        </g>
        <g id="Grupo_28048" data-name="Grupo 28048" transform="translate(46.549 60.597)">
          <g id="Grupo_28047" data-name="Grupo 28047">
            <ellipse id="Elipse_1286" data-name="Elipse 1286" cx="14.159" cy="14.055" rx="14.159" ry="14.055" fill="#f9ae06"/>
          </g>
        </g>
        <g id="Grupo_28050" data-name="Grupo 28050" transform="translate(6.464 63.36)">
          <g id="Grupo_28049" data-name="Grupo 28049">
            <path id="Trazado_56363" data-name="Trazado 56363" d="M282.068,204.616l5.531-5.783,26.489,30.881L303.653,235.8Z" transform="translate(-282.068 -198.833)" fill="#f9ae06"/>
          </g>
        </g>
        <g id="Grupo_28066" data-name="Grupo 28066" transform="translate(0 60.597)">
          <g id="Grupo_28053" data-name="Grupo 28053" transform="translate(6.077)">
            <g id="Grupo_28052" data-name="Grupo 28052">
              <g id="Grupo_28051" data-name="Grupo 28051">
                <path id="Trazado_56364" data-name="Trazado 56364" d="M313.375,206.914c6.724,9.073,6.223,21.085.933,24.367-7.817,4.848-20.976,4.539-27.7-4.534s-6.184-20.872,1.208-26.347S306.653,197.841,313.375,206.914Z" transform="translate(-281.9 -197.637)" fill="#f9ae06"/>
              </g>
            </g>
          </g>
          <g id="Grupo_28056" data-name="Grupo 28056" transform="translate(0 6.71)">
            <g id="Grupo_28055" data-name="Grupo 28055">
              <g id="Grupo_28054" data-name="Grupo 28054">
                <path id="Trazado_56365" data-name="Trazado 56365" d="M308.438,209.14c6.232,8.41,5.731,19.343-1.12,24.418s-17.454,2.372-23.686-6.038-5.728-19.341,1.12-24.418S302.208,200.73,308.438,209.14Z" transform="translate(-279.269 -200.542)" fill="#fbcc02"/>
              </g>
            </g>
          </g>
          <g id="Grupo_28059" data-name="Grupo 28059" transform="translate(3.497 10.422)">
            <g id="Grupo_28058" data-name="Grupo 28058">
              <g id="Grupo_28057" data-name="Grupo 28057">
                <path id="Trazado_56366" data-name="Trazado 56366" d="M303.868,208.952c4.932,6.655,4.534,15.308-.887,19.325s-13.813,1.878-18.745-4.779-4.534-15.305.887-19.322S298.936,202.3,303.868,208.952Z" transform="translate(-280.783 -202.148)" fill="#ffe36c"/>
              </g>
            </g>
          </g>
          <g id="Grupo_28062" data-name="Grupo 28062" transform="translate(7.397 14.588)">
            <g id="Grupo_28061" data-name="Grupo 28061">
              <g id="Grupo_28060" data-name="Grupo 28060">
                <path id="Trazado_56367" data-name="Trazado 56367" d="M293.572,223.764a11.154,11.154,0,0,1-8.7-4.74,11.7,11.7,0,0,1-2.393-7.436,7.649,7.649,0,0,1,9.909-7.341,11.7,11.7,0,0,1,6.415,4.453h0a11.7,11.7,0,0,1,2.393,7.436,7.925,7.925,0,0,1-3.1,6.179A7.519,7.519,0,0,1,293.572,223.764Zm-3.458-18.74a6.458,6.458,0,0,0-3.9,1.245,6.883,6.883,0,0,0-2.666,5.368,10.629,10.629,0,0,0,2.185,6.75c3.1,4.19,8.371,5.565,11.734,3.072a6.9,6.9,0,0,0,2.666-5.371,10.646,10.646,0,0,0-2.187-6.75h0a10.631,10.631,0,0,0-5.821-4.056A8.194,8.194,0,0,0,290.114,205.024Z" transform="translate(-282.471 -203.952)" fill="#fff"/>
              </g>
            </g>
          </g>
          <g id="Grupo_28065" data-name="Grupo 28065" transform="translate(22.475 4.71)">
            <g id="Grupo_28064" data-name="Grupo 28064">
              <g id="Grupo_28063" data-name="Grupo 28063">
                <path id="Trazado_56368" data-name="Trazado 56368" d="M289,199.676a28.461,28.461,0,0,1,11.06,11.217c2.8,5.183,4.608,14.086,0,20.6,2.139-1.24,4.95-2.885,4.95-2.885a20.477,20.477,0,0,0-1.344-19.59C297.7,199.408,289,199.676,289,199.676Z" transform="translate(-288.999 -199.676)" fill="#424242"/>
              </g>
            </g>
          </g>
        </g>
        <g id="Grupo_28084" data-name="Grupo 28084" transform="translate(79.302 60.597)">
          <g id="Grupo_28069" data-name="Grupo 28069">
            <g id="Grupo_28068" data-name="Grupo 28068">
              <g id="Grupo_28067" data-name="Grupo 28067">
                <path id="Trazado_56369" data-name="Trazado 56369" d="M318.573,206.914c-6.724,9.073-6.221,21.085-.933,24.367,7.817,4.848,20.976,4.539,27.7-4.534s6.184-20.872-1.208-26.347S325.3,197.841,318.573,206.914Z" transform="translate(-313.6 -197.637)" fill="#f9ae06"/>
              </g>
            </g>
          </g>
          <g id="Grupo_28071" data-name="Grupo 28071" transform="translate(4.039 2.763)">
            <g id="Grupo_28070" data-name="Grupo 28070">
              <path id="Trazado_56370" data-name="Trazado 56370" d="M348.35,205.342l-6.511-6.509-26.49,30.881,10.436,6.083Z" transform="translate(-315.349 -198.833)" fill="#f9ae06"/>
            </g>
          </g>
          <g id="Grupo_28074" data-name="Grupo 28074" transform="translate(8.99 6.71)">
            <g id="Grupo_28073" data-name="Grupo 28073">
              <g id="Grupo_28072" data-name="Grupo 28072">
                <path id="Trazado_56371" data-name="Trazado 56371" d="M321.857,209.14c-6.232,8.41-5.731,19.343,1.12,24.418s17.454,2.372,23.686-6.038,5.729-19.341-1.12-24.418S328.087,200.73,321.857,209.14Z" transform="translate(-317.492 -200.542)" fill="#fbcc02"/>
              </g>
            </g>
          </g>
          <g id="Grupo_28077" data-name="Grupo 28077" transform="translate(12.488 10.422)">
            <g id="Grupo_28076" data-name="Grupo 28076">
              <g id="Grupo_28075" data-name="Grupo 28075">
                <path id="Trazado_56372" data-name="Trazado 56372" d="M322.461,208.952c-4.932,6.655-4.534,15.308.887,19.325s13.813,1.878,18.745-4.779,4.534-15.305-.887-19.322S327.392,202.3,322.461,208.952Z" transform="translate(-319.007 -202.148)" fill="#ffe36c"/>
              </g>
            </g>
          </g>
          <g id="Grupo_28080" data-name="Grupo 28080" transform="translate(16.389 14.588)">
            <g id="Grupo_28079" data-name="Grupo 28079">
              <g id="Grupo_28078" data-name="Grupo 28078">
                <path id="Trazado_56373" data-name="Trazado 56373" d="M328.333,223.764a11.154,11.154,0,0,0,8.7-4.74,11.7,11.7,0,0,0,2.393-7.436,7.649,7.649,0,0,0-9.907-7.341A11.7,11.7,0,0,0,323.1,208.7h0a11.7,11.7,0,0,0-2.393,7.436,7.925,7.925,0,0,0,3.1,6.179A7.519,7.519,0,0,0,328.333,223.764Zm3.458-18.74a6.458,6.458,0,0,1,3.9,1.245,6.884,6.884,0,0,1,2.666,5.368,10.629,10.629,0,0,1-2.185,6.75c-3.1,4.19-8.369,5.565-11.734,3.072a6.886,6.886,0,0,1-2.663-5.371,10.63,10.63,0,0,1,2.185-6.75h0a10.639,10.639,0,0,1,5.821-4.056A8.2,8.2,0,0,1,331.791,205.024Z" transform="translate(-320.695 -203.952)" fill="#fff"/>
              </g>
            </g>
          </g>
          <g id="Grupo_28083" data-name="Grupo 28083" transform="translate(2.163 4.71)">
            <g id="Grupo_28082" data-name="Grupo 28082">
              <g id="Grupo_28081" data-name="Grupo 28081">
                <path id="Trazado_56374" data-name="Trazado 56374" d="M332.423,199.676a28.447,28.447,0,0,0-11.057,11.217c-2.8,5.183-4.611,14.086,0,20.6-2.139-1.24-4.952-2.885-4.952-2.885a20.477,20.477,0,0,1,1.344-19.59C323.726,199.408,332.423,199.676,332.423,199.676Z" transform="translate(-314.537 -199.676)" fill="#424242"/>
              </g>
            </g>
          </g>
        </g>
      </g>
      <g id="Grupo_28087" data-name="Grupo 28087" transform="translate(35.325 259.866)">
        <g id="Grupo_28086" data-name="Grupo 28086">
          <path id="Trazado_56375" data-name="Trazado 56375" d="M421.339,337.119c-2.485-37.776-5.6-60.1-5.6-60.1l-142.592-5.264V327.72c0,3.208,0,6.322.009,9.4Z" transform="translate(-273.143 -271.751)" fill="#c9c9c9"/>
        </g>
      </g>
      <g id="Grupo_28088" data-name="Grupo 28088" transform="translate(18.621 155.711)">
        <path id="Trazado_56376" data-name="Trazado 56376" d="M445.683,291.665c-9.3-7.091-20.845-5.9-20.845-5.9s-1.98-18.655.31-31.9c3.594-20.8,8.985-27.211,8.985-27.211-18.872,4.56-24.859,44.006-27.167,51.3-4.195,13.254-48.981,8.364-66.086,6.978-14.04-1.136-31.477-9.332-35.291-21.376-2.308-7.295-7.62-32.343-26.492-36.9,0,0,7.863,7.357,11.457,28.16A86.712,86.712,0,0,1,291.6,277.96a24.088,24.088,0,0,0-22.466,8.688c-4.46,5.377-3,17.486-3,17.486s13.481-12.942,20.669-13.795,26.111,1.28,30.793,2.9c5.079,1.758,60.427,7.5,72.759,8.537,8.921.746,19.819-2.074,24.9-3.832,4.682-1.619,12.582-2.153,19.77-1.3s17.622,7.489,17.622,7.489S449.3,294.423,445.683,291.665Z" transform="translate(-265.911 -226.66)" fill="#adadad"/>
      </g>
      <g id="Grupo_28094" data-name="Grupo 28094" transform="translate(120.535 212.202)">
        <g id="Grupo_28089" data-name="Grupo 28089" transform="translate(0 10.212)">
          <path id="Trazado_56377" data-name="Trazado 56377" d="M347.69,262.2c-1.984-1.15-4.22-.642-6.364-.513-4.8.289-9.422-.887-14-2.174a26.712,26.712,0,0,1-8.745-3.98,80.066,80.066,0,0,0-8.551,6.424,108.447,108.447,0,0,1,14.266,3.345c8.637,2.453,21.457.113,21.457.113s7.188,6.066,10.221,11.233c2.809,4.784,5.985,5.135,6.909,2.46C358.434,279.347,350.612,263.9,347.69,262.2Z" transform="translate(-310.032 -255.537)" fill="#f9ae06"/>
        </g>
        <g id="Grupo_28092" data-name="Grupo 28092" transform="translate(8.551)">
          <g id="Grupo_28090" data-name="Grupo 28090">
            <path id="Trazado_56378" data-name="Trazado 56378" d="M366.18,264.132a35.662,35.662,0,0,1,7.415,5.7,12.587,12.587,0,0,0,7.181,4.01,4.14,4.14,0,0,0-.73-4.858c-6-6.99-15.176-15.268-34.535-17.661-11.653-1.439-23.882,4.8-31.777,10a26.712,26.712,0,0,0,8.745,3.98c4.576,1.287,9.2,2.462,14,2.174,2.144-.129,4.38-.638,6.364.513,2.922,1.693,10.743,17.144,15.195,16.908a7.724,7.724,0,0,0-.055-4.257c-1.236-5.056-6.59-12.859-6.59-12.859s1.423-1.4,3.444.224,4.269,3.423,8.313,9.378c2.3,3.384,4.068,5.269,6.3,5.049.845-.8,1.162-2.388.437-4.712a53.222,53.222,0,0,0-6.4-12.919A1.871,1.871,0,0,1,366.18,264.132Z" transform="translate(-313.734 -251.116)" fill="#fbcc02"/>
          </g>
          <g id="Grupo_28091" data-name="Grupo 28091" transform="translate(49.751 12.693)">
            <path id="Trazado_56379" data-name="Trazado 56379" d="M352.564,266.647a12.587,12.587,0,0,1-7.181-4.01,35.662,35.662,0,0,0-7.415-5.7,1.871,1.871,0,0,0-2.7.674s7.438,5.461,11.931,9.071C349.619,268.62,351.663,268.1,352.564,266.647Z" transform="translate(-335.272 -256.611)" fill="#f9ae06"/>
          </g>
        </g>
        <g id="Grupo_28093" data-name="Grupo 28093" transform="translate(46.207 15.507)">
          <path id="Trazado_56380" data-name="Trazado 56380" d="M342.618,268.071c-4.045-5.955-6.292-8.013-8.313-9.639s-4.269.561-4.269.561,8.48,7.819,12.342,12.693c2.044,2.58,4.467,3.137,5.719,1.959C345.861,273.864,344.916,271.455,342.618,268.071Z" transform="translate(-330.036 -257.829)" fill="#f9ae06"/>
        </g>
      </g>
      <g id="Grupo_28095" data-name="Grupo 28095" transform="translate(74.196 260.09)">
        <path id="Trazado_56381" data-name="Trazado 56381" d="M394.709,298.243s-25.028,1.289-50.157-6.683c-18.017-5.715-28.834-12.79-38.961-19.713-5,2.973-10.247,6.318-15.619,8.775,8.26,8.958,26.758,20.657,49.5,26.441,34.149,8.681,55.872,1.116,55.872,1.116Z" transform="translate(-289.971 -271.848)" fill="#adadad"/>
      </g>
      <g id="Grupo_28098" data-name="Grupo 28098" transform="translate(33.895 212.201)">
        <g id="Grupo_28096" data-name="Grupo 28096" transform="translate(2.857)">
          <path id="Trazado_56382" data-name="Trazado 56382" d="M299.368,278.2c7.179,3.638,14.506,6.609,18.114,8.013l7.228-22.72s-18.918-11.686-31.419-12.344c-8.466-.446-15.721,4.144-19.53,7.158A78.244,78.244,0,0,0,299.368,278.2Z" transform="translate(-273.761 -251.116)" fill="#fbcc02"/>
        </g>
        <g id="Grupo_28097" data-name="Grupo 28097" transform="translate(0 7.189)">
          <path id="Trazado_56383" data-name="Trazado 56383" d="M272.524,256.746s3.146,7.191,16.176,16.624,28.687,14.155,28.687,14.155l1.716-5.391c-3.608-1.4-10.935-4.375-18.114-8.013a78.244,78.244,0,0,1-25.607-19.893A31.373,31.373,0,0,0,272.524,256.746Z" transform="translate(-272.524 -254.228)" fill="#f9ae06"/>
        </g>
      </g>
      <g id="Grupo_28099" data-name="Grupo 28099" transform="translate(10.752 260.09)">
        <path id="Trazado_56384" data-name="Trazado 56384" d="M262.505,274.477s5.327-2.91,14.314.233,11.748,9.662,24.409,9.662,40.34-12.524,40.34-12.524l7.313,8.48s-17.257,14.148-41.733,13.481C269.83,292.79,262.505,274.477,262.505,274.477Z" transform="translate(-262.505 -271.848)" fill="#adadad"/>
      </g>
      <g id="Grupo_28100" data-name="Grupo 28100" transform="translate(179.569 203.716)">
        <path id="Trazado_56385" data-name="Trazado 56385" d="M335.589,255.006s.961-5.618,5.234-6.964,11.817,0,11.817,0S342.932,249.839,335.589,255.006Z" transform="translate(-335.589 -247.442)" fill="#adadad"/>
      </g>
      <g id="Grupo_28101" data-name="Grupo 28101" transform="translate(23.646 196.152)">
        <path id="Trazado_56386" data-name="Trazado 56386" d="M285.141,251.731s-.961-5.615-5.234-6.964-11.82,0-11.82,0S277.8,246.564,285.141,251.731Z" transform="translate(-268.087 -244.168)" fill="#adadad"/>
      </g>
      <g id="Grupo_28102" data-name="Grupo 28102" transform="translate(12.26 202.318)">
        <path id="Trazado_56387" data-name="Trazado 56387" d="M284.793,248.234s-3.888-3.144-12.873,0-8.761,10.261-8.761,10.261a41.279,41.279,0,0,1,9.489-7.415A25.666,25.666,0,0,1,284.793,248.234Z" transform="translate(-263.158 -246.837)" fill="#adadad"/>
      </g>
      <g id="Grupo_28103" data-name="Grupo 28103" transform="translate(185.309 209.282)">
        <path id="Trazado_56388" data-name="Trazado 56388" d="M338.074,251.249s3.888-3.144,12.875,0,8.761,10.261,8.761,10.261a41.261,41.261,0,0,0-9.491-7.415A25.661,25.661,0,0,0,338.074,251.249Z" transform="translate(-338.074 -249.852)" fill="#adadad"/>
      </g>
      <g id="Grupo_28104" data-name="Grupo 28104" transform="translate(154.535 145.776)">
        <path id="Trazado_56389" data-name="Trazado 56389" d="M334.2,222.359a76.966,76.966,0,0,0-8.57,22.766c-2.4,12.582.9,33.775.9,33.775s1.407-25.388,2.95-33.775S334.2,222.359,334.2,222.359Z" transform="translate(-324.752 -222.359)" fill="#adadad"/>
      </g>
      <g id="Grupo_28105" data-name="Grupo 28105" transform="translate(44.835 143.244)">
        <path id="Trazado_56390" data-name="Trazado 56390" d="M277.26,221.263A76.962,76.962,0,0,1,289.976,242c4.728,11.9,5.493,33.339,5.493,33.339s-6.174-24.667-9.272-32.611S277.26,221.263,277.26,221.263Z" transform="translate(-277.26 -221.263)" fill="#adadad"/>
      </g>
      <g id="Grupo_28106" data-name="Grupo 28106" transform="translate(88.448 250.146)">
        <path id="Trazado_56391" data-name="Trazado 56391" d="M296.141,267.543s6.493,8.283,14.88,12.231,21.013,3.647,21.013,3.647-7.089-3.289-17.945-7.937S296.141,267.543,296.141,267.543Z" transform="translate(-296.141 -267.543)" fill="#adadad"/>
      </g>
      <g id="Grupo_28107" data-name="Grupo 28107" transform="translate(38.921 258.088)">
        <path id="Trazado_56392" data-name="Trazado 56392" d="M274.7,275.324s11.039-1.231,17.95-2.564a148.876,148.876,0,0,1,17.324-1.779s-12.561,7.637-21.223,6.738A94.227,94.227,0,0,1,274.7,275.324Z" transform="translate(-274.7 -270.981)" fill="#adadad"/>
      </g>
    </g>
    <g id="Grupo_28118" data-name="Grupo 28118" transform="translate(165.307 204.286)">
      <g id="Grupo_28109" data-name="Grupo 28109" transform="translate(159.639 205.068)">
        <path id="Trazado_56393" data-name="Trazado 56393" d="M320.143,321.554h-6.715a1.155,1.155,0,0,1,0-2.31h6.715a1.155,1.155,0,0,1,0,2.31Zm-13.645,0h-6.93a1.155,1.155,0,0,1,0-2.31h6.93a1.155,1.155,0,0,1,0,2.31Zm-13.859,0h-6.93a1.155,1.155,0,0,1,0-2.31h6.93a1.155,1.155,0,0,1,0,2.31Zm-13.859,0h-6.93a1.155,1.155,0,0,1,0-2.31h6.93a1.155,1.155,0,0,1,0,2.31Zm-7.468-6.391a1.152,1.152,0,0,1-1.155-1.155v-6.93a1.155,1.155,0,0,1,2.31,0v6.93A1.154,1.154,0,0,1,271.311,315.162Zm0-13.859a1.152,1.152,0,0,1-1.155-1.155v-6.93a1.155,1.155,0,0,1,2.31,0v6.93A1.154,1.154,0,0,1,271.311,301.3Zm0-13.859a1.152,1.152,0,0,1-1.155-1.155v-6.93a1.155,1.155,0,0,1,2.31,0v6.93A1.154,1.154,0,0,1,271.311,287.444Zm0-13.859a1.152,1.152,0,0,1-1.155-1.155V265.5a1.155,1.155,0,0,1,2.31,0v6.93A1.154,1.154,0,0,1,271.311,273.584Zm-2.266-11.593h-6.93a1.155,1.155,0,1,1,0-2.31h6.93a1.155,1.155,0,0,1,0,2.31Zm-13.859,0h-6.93a1.155,1.155,0,1,1,0-2.31h6.93a1.155,1.155,0,1,1,0,2.31Zm-13.859,0H234.4a1.155,1.155,0,1,1,0-2.31h6.93a1.155,1.155,0,1,1,0,2.31Z" transform="translate(-233.242 -259.681)" fill="#b25336"/>
      </g>
      <g id="Grupo_28110" data-name="Grupo 28110" transform="translate(161.346 63.411)">
        <path id="Trazado_56394" data-name="Trazado 56394" d="M336.277,231.188h-6.93a1.155,1.155,0,1,1,0-2.31h6.93a1.155,1.155,0,0,1,0,2.31Zm-13.859,0h-6.93a1.155,1.155,0,1,1,0-2.31h6.93a1.155,1.155,0,0,1,0,2.31Zm-13.859,0h-6.93a1.155,1.155,0,1,1,0-2.31h6.93a1.155,1.155,0,0,1,0,2.31Zm-13.859,0h-6.93a1.155,1.155,0,1,1,0-2.31h6.93a1.155,1.155,0,1,1,0,2.31Zm-13.859,0h-6.93a1.155,1.155,0,1,1,0-2.31h6.93a1.155,1.155,0,1,1,0,2.31Zm-13.859,0h-6.93a1.155,1.155,0,1,1,0-2.31h6.93a1.155,1.155,0,1,1,0,2.31Zm-13.859,0h-6.927a1.155,1.155,0,0,1,0-2.31h6.927a1.155,1.155,0,1,1,0,2.31Zm-13.859,0h-5.28v-3.959a1.155,1.155,0,1,1,2.31,0v1.649h2.971a1.155,1.155,0,1,1,0,2.31Zm-4.125-9.734a1.155,1.155,0,0,1-1.155-1.155v-6.93a1.155,1.155,0,1,1,2.31,0v6.93A1.154,1.154,0,0,1,235.136,221.454Zm0-13.859a1.155,1.155,0,0,1-1.155-1.155v-6.93a1.155,1.155,0,1,1,2.31,0v6.93A1.154,1.154,0,0,1,235.136,207.595Z" transform="translate(-233.981 -198.355)" fill="#b25336"/>
      </g>
      <g id="Grupo_28111" data-name="Grupo 28111" transform="translate(441.663 182.454)">
        <path id="Trazado_56395" data-name="Trazado 56395" d="M442.81,284.267h-6.93a1.155,1.155,0,1,1,0-2.31h6.93a1.155,1.155,0,0,1,0,2.31Zm-13.859,0h-6.93a1.155,1.155,0,1,1,0-2.31h6.93a1.155,1.155,0,0,1,0,2.31Zm-13.859,0h-6.93a1.155,1.155,0,1,1,0-2.31h6.93a1.155,1.155,0,0,1,0,2.31Zm-13.859,0H394.3a1.155,1.155,0,1,1,0-2.31h6.93a1.155,1.155,0,1,1,0,2.31Zm-13.243-.624a1.154,1.154,0,0,1-1.155-1.155v-6.957a1.155,1.155,0,1,1,2.31,0v6.957A1.155,1.155,0,0,1,387.989,283.643Zm0-13.9a1.152,1.152,0,0,1-1.155-1.155v-6.946a1.155,1.155,0,0,1,2.31,0v6.946A1.154,1.154,0,0,1,387.989,269.74Zm0-13.9a1.154,1.154,0,0,1-1.155-1.155v-2.278c-.457-.053-1.252-.115-2.631-.159a1.155,1.155,0,0,1-1.118-1.19,1.173,1.173,0,0,1,1.19-1.12c3.287.1,4.869.217,4.869,1.635v3.111A1.155,1.155,0,0,1,387.989,255.839Zm-31.5-3.111a1.155,1.155,0,0,1-.046-2.31s2.906-.113,6.953-.233a1.175,1.175,0,0,1,1.19,1.12,1.159,1.159,0,0,1-1.123,1.19c-4.031.12-6.927.233-6.93.233Zm13.88-.416a1.155,1.155,0,0,1-.025-2.31c2.331-.053,4.719-.095,6.953-.111h.009a1.155,1.155,0,0,1,.009,2.31c-2.224.016-4.6.058-6.923.111Z" transform="translate(-355.336 -249.891)" fill="#b25336"/>
      </g>
      <g id="Grupo_28112" data-name="Grupo 28112" transform="translate(385.547)">
        <path id="Trazado_56396" data-name="Trazado 56396" d="M377.062,223.765h-3.287a1.155,1.155,0,1,1,0-2.31h.977v-3.643a1.155,1.155,0,0,1,2.31,0Zm-10.217,0h-6.93a1.155,1.155,0,1,1,0-2.31h6.93a1.155,1.155,0,0,1,0,2.31Zm-13.859,0h-6.93a1.155,1.155,0,1,1,0-2.31h6.93a1.155,1.155,0,0,1,0,2.31Zm-13.859,0H332.2a1.155,1.155,0,1,1,0-2.31h6.93a1.155,1.155,0,1,1,0,2.31Zm36.78-11.727a1.154,1.154,0,0,1-1.155-1.155v-6.93a1.155,1.155,0,0,1,2.31,0v6.93A1.155,1.155,0,0,1,375.907,212.038Zm0-13.859a1.154,1.154,0,0,1-1.155-1.155v-6.93a1.155,1.155,0,0,1,2.31,0v6.93A1.155,1.155,0,0,1,375.907,198.178Zm0-13.859a1.154,1.154,0,0,1-1.155-1.155v-6.93a1.155,1.155,0,0,1,2.31,0v6.93A1.155,1.155,0,0,1,375.907,184.319Zm36.076-11.106h-5.606a1.155,1.155,0,1,1,0-2.31h5.606a1.155,1.155,0,0,1,0,2.31Zm-12.536,0h-6.93a1.155,1.155,0,1,1,0-2.31h6.93a1.155,1.155,0,1,1,0,2.31Zm-13.859,0h-6.93a1.155,1.155,0,0,1,0-2.31h6.93a1.155,1.155,0,1,1,0,2.31Z" transform="translate(-331.042 -170.903)" fill="#b25336"/>
      </g>
      <g id="Grupo_28113" data-name="Grupo 28113" transform="translate(179.629 129.416)">
        <path id="Trazado_56397" data-name="Trazado 56397" d="M257.086,256.238a1.155,1.155,0,0,1-.042-2.31,12.391,12.391,0,0,0,6-1.8,1.154,1.154,0,0,1,1.2,1.97,14.687,14.687,0,0,1-7.124,2.141Zm-6.687-1.488a1.153,1.153,0,0,1-.529-.129,14.782,14.782,0,0,1-5.535-4.962,1.156,1.156,0,1,1,1.926-1.277,12.45,12.45,0,0,0,4.668,4.186,1.157,1.157,0,0,1-.531,2.183Zm18.008-5.417a1.155,1.155,0,0,1-1.007-1.721,12.445,12.445,0,0,0,1.453-7.863,1.158,1.158,0,0,1,.979-1.307,1.175,1.175,0,0,1,1.31.979,15,15,0,0,1,.15,2.127,14.7,14.7,0,0,1-1.878,7.2A1.155,1.155,0,0,1,268.407,249.334Zm-25.323-5.645a1.156,1.156,0,0,1-1.15-1.074c-.025-.351-.037-.7-.037-1.065a14.562,14.562,0,0,1,1.391-6.246,1.154,1.154,0,1,1,2.088.982,12.27,12.27,0,0,0-1.169,5.264c0,.307.012.607.032.905a1.156,1.156,0,0,1-1.074,1.233Zm24.238-9.253a1.147,1.147,0,0,1-.912-.45,12.5,12.5,0,0,0-4.962-3.839,1.155,1.155,0,0,1,.908-2.125,14.783,14.783,0,0,1,5.881,4.553,1.152,1.152,0,0,1-.208,1.619A1.14,1.14,0,0,1,267.321,234.435Zm-18.6-2.753a1.154,1.154,0,0,1-.672-2.093,14.637,14.637,0,0,1,6.946-2.654,1.155,1.155,0,1,1,.25,2.3,12.322,12.322,0,0,0-5.851,2.236A1.151,1.151,0,0,1,248.719,231.682Z" transform="translate(-241.896 -226.93)" fill="#b25336"/>
      </g>
      <g id="Grupo_28114" data-name="Grupo 28114" transform="translate(411.455 72.777)">
        <path id="Trazado_56398" data-name="Trazado 56398" d="M358.908,232.608a1.155,1.155,0,0,1-.111-2.305,12.909,12.909,0,0,0,5.925-2.12,1.155,1.155,0,0,1,1.287,1.92,15.2,15.2,0,0,1-6.985,2.5A1,1,0,0,1,358.908,232.608Zm-6.786-1a1.139,1.139,0,0,1-.441-.088,15.349,15.349,0,0,1-5.957-4.421,1.154,1.154,0,1,1,1.781-1.467,13.055,13.055,0,0,0,5.061,3.754,1.155,1.155,0,0,1-.443,2.222Zm17.851-6.387a1.156,1.156,0,0,1-1.021-1.7,12.973,12.973,0,0,0,.545-11.067,1.155,1.155,0,1,1,2.134-.885,15.174,15.174,0,0,1,1.16,5.842,15.343,15.343,0,0,1-1.8,7.2A1.159,1.159,0,0,1,369.972,225.216Zm-26.294-3.9a1.155,1.155,0,0,1-1.13-.931,15.363,15.363,0,0,1,.363-7.41,1.155,1.155,0,0,1,2.211.67,13.018,13.018,0,0,0-.554,3.763,13.265,13.265,0,0,0,.245,2.532,1.154,1.154,0,0,1-.908,1.356A1.271,1.271,0,0,1,343.679,221.315Zm3.869-12.73a1.155,1.155,0,0,1-.818-1.97,15.306,15.306,0,0,1,6.361-3.818,1.155,1.155,0,1,1,.668,2.211,12.99,12.99,0,0,0-5.4,3.238A1.144,1.144,0,0,1,347.548,208.585Zm18.927-.931a1.141,1.141,0,0,1-.732-.263,12.984,12.984,0,0,0-5.689-2.693,1.155,1.155,0,0,1,.446-2.266,15.281,15.281,0,0,1,6.71,3.176,1.154,1.154,0,0,1-.735,2.047Z" transform="translate(-342.258 -202.41)" fill="#b25336"/>
      </g>
      <g id="Grupo_28115" data-name="Grupo 28115" transform="translate(603.395 69.035)">
        <path id="Trazado_56399" data-name="Trazado 56399" d="M444.488,232.99a1.155,1.155,0,0,1-.219-2.289,14,14,0,0,0,5.782-2.6,1.154,1.154,0,1,1,1.4,1.834,16.219,16.219,0,0,1-6.743,3.035A1.031,1.031,0,0,1,444.488,232.99Zm-6.86-.249a1.152,1.152,0,0,1-.3-.042,16.263,16.263,0,0,1-6.5-3.52,1.155,1.155,0,1,1,1.534-1.728,13.945,13.945,0,0,0,5.574,3.019,1.156,1.156,0,0,1-.3,2.271Zm17.491-7.872a1.119,1.119,0,0,1-.51-.12,1.153,1.153,0,0,1-.524-1.548,13.777,13.777,0,0,0,1.441-6.174,1.155,1.155,0,0,1,2.31,0,16.06,16.06,0,0,1-1.682,7.2A1.153,1.153,0,0,1,455.118,224.869Zm-27.5-1a1.153,1.153,0,0,1-1.07-.721,16.11,16.11,0,0,1-1.2-6.121c0-.395.014-.79.044-1.183a1.156,1.156,0,0,1,2.305.171c-.025.335-.039.672-.039,1.012a13.858,13.858,0,0,0,1.026,5.25,1.156,1.156,0,0,1-1.069,1.592ZM455.95,213.53a1.157,1.157,0,0,1-1.1-.8,14.008,14.008,0,0,0-3.282-5.428,1.156,1.156,0,0,1,1.656-1.612,16.351,16.351,0,0,1,3.823,6.327,1.154,1.154,0,0,1-.742,1.455A1.134,1.134,0,0,1,455.95,213.53Zm-27.358-3a1.155,1.155,0,0,1-1-1.742,16.386,16.386,0,0,1,5.1-5.35,1.156,1.156,0,0,1,1.268,1.933,14.051,14.051,0,0,0-4.38,4.59A1.148,1.148,0,0,1,428.591,210.529Zm18.017-6.579a1.163,1.163,0,0,1-.383-.065,14.076,14.076,0,0,0-6.306-.688,1.155,1.155,0,1,1-.275-2.294,16.456,16.456,0,0,1,7.348.8,1.156,1.156,0,0,1-.383,2.245Z" transform="translate(-425.353 -200.79)" fill="#b25336"/>
      </g>
      <g id="Grupo_28116" data-name="Grupo 28116" transform="translate(0 92.434)">
        <path id="Trazado_56400" data-name="Trazado 56400" d="M193.85,270.2a29.962,29.962,0,0,1-3.76-.236,1.154,1.154,0,0,1-1-1.289,1.14,1.14,0,0,1,1.291-1,28.213,28.213,0,0,0,6.634.035,1.156,1.156,0,0,1,.263,2.3A30.449,30.449,0,0,1,193.85,270.2Zm10.013-1.809a1.154,1.154,0,0,1-.4-2.236,27.521,27.521,0,0,0,5.879-3.061,1.154,1.154,0,0,1,1.305,1.9,29.618,29.618,0,0,1-6.375,3.319A1.127,1.127,0,0,1,203.864,268.391Zm-20.332-.111a1.143,1.143,0,0,1-.416-.079,29.727,29.727,0,0,1-6.343-3.391,1.155,1.155,0,1,1,1.328-1.889,27.623,27.623,0,0,0,5.849,3.128,1.154,1.154,0,0,1-.418,2.231Zm31.643-7.643a1.156,1.156,0,0,1-.864-1.924,27.419,27.419,0,0,0,3.786-5.447,1.155,1.155,0,1,1,2.042,1.079,29.811,29.811,0,0,1-4.1,5.906A1.147,1.147,0,0,1,215.175,260.637Zm-42.872-.247a1.151,1.151,0,0,1-.871-.4,29.765,29.765,0,0,1-4.033-5.948,1.154,1.154,0,1,1,2.053-1.056,27.694,27.694,0,0,0,3.721,5.488,1.154,1.154,0,0,1-.871,1.913ZM221.58,248.5a1.14,1.14,0,0,1-.277-.035,1.156,1.156,0,0,1-.845-1.4,27.475,27.475,0,0,0,.795-6.583,1.155,1.155,0,0,1,2.31,0,29.819,29.819,0,0,1-.862,7.135A1.155,1.155,0,0,1,221.58,248.5Zm-55.541-.312a1.155,1.155,0,0,1-1.123-.892,29.906,29.906,0,0,1-.785-6.812l0-.333a1.154,1.154,0,0,1,1.155-1.143h.012a1.155,1.155,0,0,1,1.143,1.167l0,.31a27.673,27.673,0,0,0,.723,6.285,1.152,1.152,0,0,1-.859,1.386A1.059,1.059,0,0,1,166.039,248.186ZM221.724,235.4a1.153,1.153,0,0,1-1.125-.9,27.286,27.286,0,0,0-2.22-6.248,1.155,1.155,0,0,1,2.067-1.033,29.574,29.574,0,0,1,2.407,6.777,1.155,1.155,0,0,1-.875,1.379A1.188,1.188,0,0,1,221.724,235.4Zm-55.53-.933a1.154,1.154,0,0,1-1.118-1.444,29.484,29.484,0,0,1,2.636-6.7,1.156,1.156,0,0,1,2.03,1.1,27.378,27.378,0,0,0-2.432,6.17A1.155,1.155,0,0,1,166.194,234.468ZM215.6,223.129a1.148,1.148,0,0,1-.878-.407,27.61,27.61,0,0,0-4.878-4.5,1.155,1.155,0,0,1,1.349-1.876,29.944,29.944,0,0,1,5.285,4.872,1.152,1.152,0,0,1-.129,1.628A1.14,1.14,0,0,1,215.6,223.129Zm-42.867-.725a1.156,1.156,0,0,1-.852-1.933,29.746,29.746,0,0,1,5.447-4.691,1.155,1.155,0,1,1,1.284,1.92,27.633,27.633,0,0,0-5.024,4.326A1.158,1.158,0,0,1,172.733,222.4Zm31.726-7.29a1.128,1.128,0,0,1-.43-.083,27.361,27.361,0,0,0-6.412-1.7,1.151,1.151,0,0,1-.984-1.3,1.134,1.134,0,0,1,1.3-.986,29.492,29.492,0,0,1,6.955,1.841,1.155,1.155,0,0,1-.43,2.227Zm-20.327-.342a1.154,1.154,0,0,1-.393-2.241,29.486,29.486,0,0,1,7.008-1.605,1.155,1.155,0,0,1,.238,2.3,27.313,27.313,0,0,0-6.463,1.478A1.106,1.106,0,0,1,184.132,214.771Z" transform="translate(-164.131 -210.919)" fill="#b25336"/>
      </g>
      <g id="Grupo_28117" data-name="Grupo 28117" transform="translate(219.206 14.244)">
        <path id="Trazado_56401" data-name="Trazado 56401" d="M280.778,221.014c-.688,0-1.367-.03-2.042-.092a1.155,1.155,0,0,1,.213-2.3,20.141,20.141,0,0,0,6.5-.474,1.155,1.155,0,0,1,.545,2.245A22.159,22.159,0,0,1,280.778,221.014Zm-8.6-1.855a1.13,1.13,0,0,1-.478-.1,21.926,21.926,0,0,1-6.036-4.068,1.154,1.154,0,0,1,1.589-1.675,19.645,19.645,0,0,0,5.4,3.64,1.155,1.155,0,0,1-.478,2.206Zm19.879-1.458a1.155,1.155,0,0,1-.626-2.125,19.823,19.823,0,0,0,4.818-4.391,1.155,1.155,0,1,1,1.813,1.43,22.131,22.131,0,0,1-5.377,4.9A1.157,1.157,0,0,1,292.055,217.7Zm-29.749-7.9a1.156,1.156,0,0,1-1.023-.621,21.847,21.847,0,0,1-2.241-6.927,1.156,1.156,0,0,1,2.287-.335,19.52,19.52,0,0,0,2,6.2,1.155,1.155,0,0,1-.492,1.557A1.14,1.14,0,0,1,262.306,209.8Zm38.153-2.8a1.181,1.181,0,0,1-.377-.062,1.157,1.157,0,0,1-.716-1.471,19.793,19.793,0,0,0,.242-12.108,1.155,1.155,0,1,1,2.211-.668,22.094,22.094,0,0,1-.27,13.531A1.154,1.154,0,0,1,300.458,207Zm-40.134-10.658a1.129,1.129,0,0,1-.215-.021,1.153,1.153,0,0,1-.922-1.347,21.7,21.7,0,0,1,2.516-6.835,1.156,1.156,0,1,1,2,1.15,19.445,19.445,0,0,0-2.252,6.107A1.155,1.155,0,0,1,260.324,196.344ZM297.65,188a1.16,1.16,0,0,1-.935-.476,19.753,19.753,0,0,0-4.641-4.578,1.155,1.155,0,0,1,1.331-1.89,22.078,22.078,0,0,1,5.181,5.112A1.155,1.155,0,0,1,297.65,188Zm-30.578-3.469a1.154,1.154,0,0,1-.76-2.023,21.847,21.847,0,0,1,6.186-3.823,1.154,1.154,0,1,1,.871,2.137,19.694,19.694,0,0,0-5.537,3.423A1.151,1.151,0,0,1,267.071,184.534Zm19.449-4.352a1.177,1.177,0,0,1-.319-.044,18.522,18.522,0,0,0-5.477-.755c-.34,0-.668.009-1,.028a1.157,1.157,0,0,1-.122-2.31c.39-.018.788-.039,1.178-.028a22.01,22.01,0,0,1,6.054.845,1.154,1.154,0,0,1-.316,2.264Z" transform="translate(-259.03 -177.07)" fill="#b25336"/>
      </g>
    </g>
  </g>
</svg>
